<?xml version="1.0" encoding="UTF-8" standalone="no"?>
<svg xmlns:xlink="http://www.w3.org/1999/xlink" height="40.0px" width="50.0px" xmlns="http://www.w3.org/2000/svg">
  <g transform="matrix(1.0, 0.0, 0.0, 1.0, 0.0, 0.0)">
    <use height="40.0" transform="matrix(1.0, 0.0, 0.0, 1.0, 0.0, 0.0)" width="50.0" xlink:href="#shape0"/>
  </g>
  <defs>
    <g id="shape0" transform="matrix(1.0, 0.0, 0.0, 1.0, 0.0, 0.0)">
      <path d="M45.9 18.45 L47.85 26.65 47.85 26.8 47.55 29.95 47.5 30.15 46.0 31.65 45.9 31.65 35.4 35.0 33.5 34.9 27.65 33.35 26.75 31.35 25.7 32.15 25.65 32.2 25.6 32.2 22.65 33.2 22.3 33.4 19.35 34.65 19.25 34.65 19.2 34.7 14.5 35.0 14.35 34.95 12.0 33.7 9.85 36.2 9.7 36.35 9.4 36.55 9.25 36.6 4.95 36.6 2.85 36.3 2.65 36.25 2.5 36.25 2.4 36.1 1.4 35.1 1.25 35.0 1.2 34.95 1.25 34.7 1.35 33.5 1.35 33.3 2.85 24.8 2.95 24.6 3.2 24.3 3.25 24.25 3.4 24.15 5.15 23.5 5.25 23.45 5.4 23.5 5.55 23.5 5.6 20.0 5.65 19.95 8.65 13.1 8.65 13.05 8.75 13.0 8.8 12.9 11.35 9.95 17.2 5.9 17.25 5.85 17.5 5.75 23.9 4.9 23.95 4.85 24.05 4.9 27.1 5.6 27.4 5.7 27.5 5.7 27.55 5.75 27.7 5.8 31.05 8.0 31.15 8.05 31.25 8.2 33.2 11.65 33.3 11.8 33.85 12.95 35.9 11.8 36.05 11.7 42.8 13.25 45.85 18.3 45.9 18.4 45.9 18.45 M45.45 18.8 L45.4 18.55 42.5 13.65 39.0 12.75 36.15 12.25 33.65 13.65 32.9 12.05 32.8 11.85 30.85 8.45 30.75 8.4 27.45 6.25 27.3 6.15 26.95 6.1 23.95 5.4 20.0 5.75 18.85 6.0 17.6 6.25 17.55 6.3 17.45 6.3 11.75 10.25 10.15 12.05 10.2 12.05 9.2 13.2 9.1 13.3 6.45 19.4 6.1 20.15 5.9 23.65 5.65 24.05 5.3 24.0 3.9 24.5 3.6 24.65 3.55 24.65 3.35 24.9 2.8 28.0 2.4 30.35 2.0 32.75 1.95 32.7 1.9 33.1 1.85 33.35 1.85 33.5 1.75 34.75 2.75 35.75 2.9 35.8 4.95 36.1 9.0 36.1 9.1 36.1 9.45 35.9 9.5 35.9 11.85 33.1 13.55 33.95 14.6 34.5 16.75 34.35 19.15 34.2 22.05 33.0 22.55 32.7 25.4 31.75 Q25.8 31.5 26.15 31.2 L26.15 31.3 27.0 30.65 28.0 32.9 30.15 33.5 33.55 34.4 33.95 34.4 35.25 34.5 40.25 32.95 40.6 32.8 45.65 31.25 45.75 31.2 47.05 29.9 47.05 29.8 47.35 26.75 45.45 18.8 M42.85 16.65 L43.35 17.85 42.95 16.95 42.85 16.65 M28.55 16.1 L28.75 15.6 28.35 16.9 28.55 16.1 M28.0 17.9 L28.45 17.45 27.55 18.5 28.0 17.9 M19.8 8.75 L19.45 8.85 19.4 8.85 19.8 8.75 M17.3 29.8 L18.1 28.95 18.0 29.1 17.3 29.8 M21.2 30.65 L21.5 30.75 21.45 30.75 21.2 30.65 M10.6 33.1 L10.4 33.15 9.6 33.25 10.6 33.1 M6.25 34.9 L7.0 34.3 6.4 34.8 6.25 34.9" fill="#161202" fill-rule="evenodd" stroke="none"/>
      <path d="M48.1 29.65 L48.35 26.75 48.35 26.5 46.35 18.25 46.3 18.1 46.25 18.05 43.35 13.15 43.1 12.8 36.15 11.2 36.0 11.2 35.85 11.25 34.1 12.25 33.75 11.55 33.65 11.4 31.65 7.9 31.55 7.75 31.5 7.65 31.4 7.65 31.3 7.55 27.8 5.3 27.6 5.2 27.55 5.2 24.1 4.4 23.85 4.4 17.4 5.25 17.35 5.25 17.3 5.3 16.9 5.5 11.0 9.55 10.8 9.85 10.75 9.9 8.45 12.55 8.3 12.7 8.2 12.85 8.2 12.9 5.0 20.2 5.1 21.1 5.1 23.0 3.2 23.7 3.05 23.8 2.95 23.85 2.4 24.45 2.4 24.6 2.35 24.75 0.9 33.25 0.85 33.45 0.75 34.65 0.7 34.9 0.7 35.1 0.5 36.2 2.2 38.05 4.95 38.6 9.7 38.6 12.1 37.9 13.4 36.8 14.25 37.0 19.85 37.35 26.55 35.6 27.5 35.75 34.05 37.5 37.0 38.0 47.85 33.9 48.55 32.9 48.75 31.6 48.1 29.65 M50.0 40.0 L0.0 40.0 0.0 0.0 50.0 0.0 50.0 40.0" fill="#161202" fill-opacity="0.0" fill-rule="evenodd" stroke="none"/>
      <path d="M42.5 13.65 L42.85 16.65 42.95 16.95 38.75 18.05 36.4 15.05 39.0 12.75 42.5 13.65" fill="url(#gradient0)" fill-rule="evenodd" stroke="none"/>
      <path d="M42.5 13.65 L45.4 18.55 45.45 18.8 44.95 21.0 44.95 21.05 44.55 20.55 43.35 17.85 42.85 16.65 42.5 13.65 M30.15 33.5 L28.0 32.9 27.0 30.65 27.0 30.55 26.95 30.35 27.2 30.4 27.25 30.4 30.2 30.75 30.15 33.5 M30.4 20.25 L34.0 25.75 35.65 28.35 31.4 25.35 30.95 25.0 30.85 24.9 30.8 24.85 30.45 24.6 30.35 24.55 30.35 23.25 30.35 22.8 30.4 20.25" fill="#47c2ff" fill-rule="evenodd" stroke="none"/>
      <path d="M43.35 17.85 L44.55 20.55 44.7 20.85 42.75 23.8 40.2 21.15 39.85 20.75 39.4 20.3 37.6 18.35 38.75 18.05 42.95 16.95 43.35 17.85" fill="url(#gradient1)" fill-rule="evenodd" stroke="none"/>
      <path d="M44.55 20.55 L44.95 21.05 45.3 25.85 45.3 25.9 44.9 26.25 41.95 29.0 41.5 28.9 41.55 27.65 41.75 25.75 41.75 25.25 42.75 23.8 44.7 20.85 44.55 20.55" fill="url(#gradient2)" fill-rule="evenodd" stroke="none"/>
      <path d="M44.95 21.05 L44.95 21.0 45.45 18.8 47.35 26.75 47.05 29.8 47.05 29.9 45.75 31.2 45.65 31.25 45.4 30.75 45.4 30.7 45.75 30.65 46.9 28.8 45.3 25.85 44.95 21.05" fill="url(#gradient3)" fill-rule="evenodd" stroke="none"/>
      <path d="M48.1 29.65 L48.75 31.6 48.55 32.9 47.85 33.9 37.0 38.0 34.05 37.5 27.5 35.75 26.55 35.6 19.85 37.35 14.25 37.0 13.4 36.8 12.1 37.9 9.7 38.6 4.95 38.6 2.2 38.05 0.5 36.2 0.7 35.1 0.7 35.15 1.15 35.6 1.05 36.05 2.45 37.55 5.0 38.1 9.6 38.1 11.85 37.45 13.3 36.25 14.3 36.5 19.8 36.85 26.45 35.15 26.55 35.1 26.6 35.1 27.65 35.25 34.1 37.0 36.95 37.45 47.5 33.5 48.1 32.7 48.2 31.65 47.85 30.55 48.0 30.35 48.0 30.2 48.05 30.0 48.1 29.65" fill="#161202" fill-opacity="0.2" fill-rule="evenodd" stroke="none"/>
      <path d="M45.3 25.85 L46.9 28.8 45.75 30.65 45.4 30.7 44.8 30.85 44.9 26.3 44.9 26.25 45.3 25.9 45.3 25.85" fill="url(#gradient4)" fill-rule="evenodd" stroke="none"/>
      <path d="M44.9 26.25 L44.9 26.3 44.8 30.85 43.7 31.1 43.35 31.2 42.9 31.3 40.95 31.7 41.3 30.5 41.6 29.3 41.95 29.0 44.9 26.25" fill="url(#gradient5)" fill-rule="evenodd" stroke="none"/>
      <path d="M37.6 18.35 L39.4 20.3 39.85 20.75 40.2 21.15 42.75 23.8 41.75 25.25 41.75 25.75 30.4 20.25 37.6 18.35" fill="url(#gradient6)" fill-rule="evenodd" stroke="none"/>
      <path d="M41.75 25.75 L41.55 27.65 34.0 25.75 30.4 20.25 41.75 25.75" fill="url(#gradient7)" fill-rule="evenodd" stroke="none"/>
      <path d="M40.6 32.8 L40.25 32.95 37.2 32.1 36.7 31.95 37.35 31.4 37.5 31.25 37.55 31.25 41.45 29.1 41.5 28.9 41.95 29.0 41.6 29.3 41.3 30.5 40.95 31.7 40.6 32.8" fill="url(#gradient8)" fill-rule="evenodd" stroke="none"/>
      <path d="M34.0 25.75 L41.55 27.65 41.5 28.9 41.45 29.1 37.55 31.25 35.65 28.35 34.0 25.75" fill="url(#gradient9)" fill-rule="evenodd" stroke="none"/>
      <path d="M45.65 31.25 L40.6 32.8 40.95 31.7 42.9 31.3 43.35 31.2 43.7 31.1 44.8 30.85 45.4 30.7 45.4 30.75 45.65 31.25" fill="url(#gradient10)" fill-rule="evenodd" stroke="none"/>
      <path d="M1.15 35.6 L2.25 36.7 2.4 36.75 2.7 37.1 5.05 37.6 9.55 37.6 11.6 37.0 12.75 36.05 12.95 35.85 13.15 35.7 14.35 36.0 19.75 36.35 26.4 34.6 26.7 34.6 27.75 34.75 34.2 36.5 36.9 36.95 47.2 33.1 47.6 32.5 47.7 31.7 47.45 30.95 47.85 30.55 48.2 31.65 48.1 32.7 47.5 33.5 36.95 37.45 34.1 37.0 27.65 35.25 26.6 35.1 26.55 35.1 26.45 35.15 19.8 36.85 14.3 36.5 13.3 36.25 11.85 37.45 9.6 38.1 5.0 38.1 2.45 37.55 1.05 36.05 1.15 35.6" fill="#161202" fill-opacity="0.4" fill-rule="evenodd" stroke="none"/>
      <path d="M2.4 36.75 L2.55 36.75 2.75 36.8 4.95 37.1 9.4 37.1 9.5 37.05 10.0 36.75 10.25 36.5 12.1 34.3 14.25 35.45 14.4 35.5 14.65 35.5 19.3 35.15 19.45 35.15 19.5 35.1 22.6 33.85 22.9 33.65 25.95 32.6 26.05 32.55 26.55 32.15 27.25 33.75 27.5 33.85 33.5 35.4 35.45 35.5 35.55 35.45 46.05 32.15 46.15 32.1 46.3 32.05 47.45 30.95 47.7 31.7 47.6 32.5 47.2 33.1 36.9 36.95 34.2 36.5 27.75 34.75 26.7 34.6 26.4 34.6 19.75 36.35 14.35 36.0 13.15 35.7 12.95 35.85 12.75 36.05 11.6 37.0 9.55 37.6 5.05 37.6 2.7 37.1 2.4 36.75" fill="#161202" fill-opacity="0.6" fill-rule="evenodd" stroke="none"/>
      <path d="M30.75 8.4 L30.85 8.45 32.8 11.85 32.1 13.05 31.75 11.75 30.75 8.4 M28.75 15.6 L29.0 14.7 29.4 13.35 30.0 11.2 30.25 13.2 30.5 15.1 29.9 16.4 29.5 16.75 29.4 16.95 28.85 16.95 28.45 17.45 28.0 17.9 28.1 17.65 28.35 16.9 28.75 15.6" fill="#c70204" fill-rule="evenodd" stroke="none"/>
      <path d="M18.85 6.0 L20.0 5.75 23.95 5.4 26.95 6.1 19.8 8.75 19.4 8.85 19.35 8.6 18.85 6.0 M30.55 8.3 L30.75 8.4 31.75 11.75 30.25 13.2 30.0 11.2 29.95 10.85 29.75 9.1 29.75 9.05 30.55 8.3 M20.55 7.45 L20.9 8.25 23.85 7.2 21.7 6.75 20.55 7.45" fill="#ed3a00" fill-rule="evenodd" stroke="none"/>
      <path d="M27.45 6.25 L30.75 8.4 30.55 8.3 27.4 6.35 27.45 6.25 M28.45 15.85 L27.8 14.45 25.25 9.4 25.25 9.35 25.5 9.05 27.2 6.65 28.1 7.45 28.85 14.8 29.95 10.85 30.0 11.2 29.4 13.35 29.0 14.7 28.75 15.6 28.55 16.1 28.45 15.85 M29.15 8.45 L29.75 9.0 29.75 9.05 29.75 9.1 29.15 8.45" fill="#792600" fill-rule="evenodd" stroke="none"/>
      <path d="M26.15 31.2 Q25.8 31.5 25.4 31.75 L22.55 32.7 25.95 30.5 26.15 31.2 M16.75 34.35 L14.6 34.5 13.55 33.95 11.85 33.1 11.9 33.05 13.55 33.95 14.1 31.55 16.75 30.85 16.75 31.5 16.75 34.35 M32.8 11.85 L32.9 12.05 33.3 13.85 31.95 14.55 31.85 14.65 30.8 15.6 30.65 15.35 31.55 13.95 32.1 13.05 32.8 11.85 M29.95 10.85 L28.85 14.8 28.1 7.45 29.15 8.45 29.75 9.1 29.95 10.85 M12.7 28.65 L12.35 28.35 12.05 28.05 13.1 28.65 13.75 29.0 14.2 29.7 14.35 29.95 14.15 31.35 13.9 30.05 13.8 29.9 13.4 29.25 12.85 28.75 12.7 28.65 M26.8 29.9 L26.85 29.9 26.95 30.35 27.25 30.4 27.2 30.4 26.95 30.35 27.0 30.55 26.8 29.9" fill="#971200" fill-rule="evenodd" stroke="none"/>
      <path d="M26.95 6.1 L27.3 6.15 27.45 6.25 27.4 6.35 26.95 6.1 27.15 6.6 27.2 6.65 25.5 9.05 25.25 9.35 24.3 10.65 24.2 10.3 24.2 10.25 20.0 9.0 19.45 8.85 19.8 8.75 26.95 6.1" fill="#620300" fill-rule="evenodd" stroke="none"/>
      <path d="M10.2 12.05 L10.15 12.05 11.75 10.25 12.55 11.35 12.55 11.4 11.4 12.1 10.2 12.05 M20.55 7.45 L21.7 6.75 23.85 7.2 20.9 8.25 20.55 7.45 M24.3 10.65 L24.7 12.45 25.75 17.25 24.3 19.6 24.2 19.85 23.1 21.6 23.1 21.55 23.15 20.8 23.2 20.4 23.65 15.95 23.95 13.1 24.05 12.1 24.2 10.55 24.2 10.45 24.2 10.3 24.3 10.65 M9.1 13.3 L10.05 13.9 10.05 15.35 9.45 16.4 9.15 18.2 9.15 16.5 9.1 13.3" fill="#ff8d00" fill-rule="evenodd" stroke="none"/>
      <path d="M24.2 10.3 L24.2 10.45 24.2 10.55 24.05 12.1 23.95 13.1 23.7 15.15 23.2 20.0 21.3 13.15 20.15 9.45 20.05 9.15 20.05 9.1 20.0 9.0 24.2 10.25 24.2 10.3" fill="#ffae00" fill-rule="evenodd" stroke="none"/>
      <path d="M22.55 32.7 L22.05 33.0 19.15 34.2 16.75 34.35 16.75 31.5 16.9 31.5 18.45 31.25 21.5 30.75 25.85 30.2 25.95 30.5 22.55 32.7 M25.25 9.35 L25.25 9.4 27.8 14.45 28.45 15.85 25.7 17.55 25.65 17.55 25.85 17.25 24.7 12.45 24.3 10.65 25.25 9.35" fill="#651c00" fill-rule="evenodd" stroke="none"/>
      <path d="M28.1 7.45 L27.2 6.65 27.15 6.6 26.95 6.1 27.4 6.35 30.55 8.3 29.75 9.05 29.75 9.0 29.15 8.45 28.1 7.45" fill="#ff7e00" fill-rule="evenodd" stroke="none"/>
      <path d="M25.65 17.55 L25.7 17.55 28.45 15.85 28.55 16.1 28.35 16.9 28.1 17.65 Q26.35 18.45 24.4 19.7 L24.2 19.85 24.3 19.6 25.65 17.55" fill="#9f1700" fill-rule="evenodd" stroke="none"/>
      <path d="M24.7 12.45 L25.85 17.25 25.65 17.55 24.3 19.6 25.75 17.25 24.7 12.45 M23.2 20.0 L23.7 15.15 23.95 13.1 23.65 15.95 23.2 20.4 23.2 20.0 M24.45 21.35 L24.4 21.45 23.95 21.55 24.45 21.35 M22.2 23.05 L22.95 21.95 21.15 25.4 20.7 25.95 20.15 26.6 19.0 27.95 17.2 27.35 17.25 27.45 18.1 28.9 18.1 28.95 17.3 29.8 16.75 30.35 16.75 28.5 16.75 27.15 16.75 26.5 17.55 26.2 21.05 24.95 22.2 23.05" fill="#dc6500" fill-rule="evenodd" stroke="none"/>
      <path d="M29.4 16.95 L29.5 16.75 29.9 16.4 30.8 15.6 31.85 14.65 30.4 20.25 27.85 20.95 27.8 20.95 27.2 21.1 27.5 20.2 29.4 16.95" fill="url(#gradient11)" fill-rule="evenodd" stroke="none"/>
      <path d="M23.1 21.6 L24.2 19.85 24.4 19.7 Q26.35 18.45 28.1 17.65 L28.0 17.9 27.55 18.5 25.4 21.0 24.45 21.35 23.95 21.55 23.0 21.8 23.1 21.6" fill="#dc4900" fill-rule="evenodd" stroke="none"/>
      <path d="M27.0 30.65 L26.15 31.3 26.15 31.2 25.95 30.5 25.85 30.2 25.7 29.65 22.25 29.4 20.5 28.4 20.1 28.3 25.3 26.6 25.3 26.45 25.45 26.45 26.15 26.3 26.35 26.2 26.3 28.0 26.35 28.05 26.8 29.7 26.75 29.7 26.8 29.9 27.0 30.55 27.0 30.65 M17.45 6.3 L17.55 6.3 17.6 6.25 18.85 6.0 19.35 8.6 17.6 6.75 17.95 9.35 Q16.8 9.95 15.6 10.5 L13.15 11.75 13.0 12.05 12.85 11.85 17.45 6.3 M29.4 16.95 L27.5 20.2 27.15 20.85 27.15 20.7 24.4 21.45 24.45 21.35 25.4 21.0 27.55 18.5 28.45 17.45 28.85 16.95 29.4 16.95 M27.2 21.1 L27.8 20.95 27.8 21.0 27.25 21.1 27.2 21.1 M30.05 20.9 L30.05 20.95 29.0 22.95 29.05 22.8 30.05 20.9 M18.1 28.95 L18.1 28.9 18.65 29.15 18.0 29.1 18.1 28.95" fill="#b82d06" fill-rule="evenodd" stroke="none"/>
      <path d="M20.15 9.45 L21.3 13.15 23.2 20.0 23.2 20.4 23.15 20.8 23.1 21.55 23.1 21.6 22.8 21.85 12.3 23.7 10.35 24.15 11.75 20.5 20.05 20.75 12.35 18.95 13.75 15.2 15.2 13.9 19.05 17.4 21.05 19.65 20.5 18.75 21.1 19.2 18.4 14.95 17.7 12.7 16.9 12.5 16.85 12.45 20.15 9.45 M18.45 24.95 L19.45 24.15 20.1 23.9 19.5 24.35 18.45 24.95" fill="#ffbb00" fill-rule="evenodd" stroke="none"/>
      <path d="M24.4 21.45 L27.15 20.7 27.15 20.85 25.7 23.45 25.4 25.65 20.6 26.45 21.15 25.4 22.95 21.95 22.2 23.05 23.0 21.8 23.95 21.55 24.4 21.45 M10.35 24.15 L12.3 23.7 22.8 21.85 20.1 23.9 19.45 24.15 18.45 24.95 15.75 26.4 10.3 24.25 10.25 24.15 10.35 24.15 M26.8 22.35 L26.35 23.7 26.35 23.6 26.8 22.35 M18.1 28.9 L17.25 27.45 17.2 27.35 19.0 27.95 20.1 28.3 20.5 28.4 22.25 29.4 22.3 29.45 19.7 29.25 19.3 29.25 18.65 29.15 18.1 28.9 M15.95 26.75 L17.55 26.2 16.75 26.5 15.95 26.75" fill="#ffa200" fill-rule="evenodd" stroke="none"/>
      <path d="M18.4 14.95 L21.1 19.2 20.5 18.75 18.5 15.25 18.4 14.95 M19.05 17.4 L15.2 13.9 14.55 13.25 13.15 11.95 Q14.4 11.25 15.6 10.5 L16.85 12.45 16.9 12.5 14.15 11.85 19.05 17.4 M12.35 18.95 L20.05 20.75 11.75 20.5 9.7 20.4 9.35 18.6 9.25 18.25 12.35 18.95" fill="#f5d949" fill-rule="evenodd" stroke="none"/>
      <path d="M18.4 14.95 L18.5 15.25 20.5 18.75 21.05 19.65 19.05 17.4 14.15 11.85 16.9 12.5 17.7 12.7 18.4 14.95" fill="#fbf6a4" fill-rule="evenodd" stroke="none"/>
      <path d="M23.0 21.8 L22.2 23.05 21.05 24.95 17.55 26.2 15.95 26.75 15.65 26.85 12.75 25.45 10.3 24.25 15.75 26.4 18.45 24.95 19.5 24.35 20.1 23.9 22.8 21.85 23.1 21.6 23.0 21.8" fill="#fcf9d8" fill-rule="evenodd" stroke="none"/>
      <path d="M30.8 15.6 L29.9 16.4 30.5 15.1 30.55 15.45 30.65 15.35 30.8 15.6 M30.05 20.9 L30.35 20.45 30.05 20.95 30.05 20.9" fill="#a70000" fill-rule="evenodd" stroke="none"/>
      <path d="M30.05 20.95 L30.35 20.45 30.4 20.25 30.35 22.8 30.35 23.25 30.35 24.55 30.3 26.25 28.45 24.0 29.0 22.95 30.05 20.95" fill="#5ddcff" fill-rule="evenodd" stroke="none"/>
      <path d="M27.85 20.95 L30.4 20.25 30.35 20.45 30.05 20.9 29.05 22.8 29.0 22.8 27.25 21.1 27.8 21.0 27.85 20.95" fill="#3ca7ff" fill-rule="evenodd" stroke="none"/>
      <path d="M27.8 20.95 L27.85 20.95 27.8 21.0 27.8 20.95" fill="#ffe600" fill-rule="evenodd" stroke="none"/>
      <path d="M27.2 21.1 L27.25 21.1 29.0 22.8 29.05 22.8 29.0 22.95 28.45 24.0 26.35 28.05 26.3 28.0 26.35 26.2 26.35 23.7 26.8 22.35 27.2 21.15 27.2 21.1" fill="url(#gradient12)" fill-rule="evenodd" stroke="none"/>
      <path d="M27.5 20.2 L27.2 21.1 27.2 21.15 26.8 22.35 26.35 23.6 26.35 23.7 26.35 26.2 26.15 26.3 25.45 26.45 25.3 26.45 25.4 25.65 25.7 23.45 27.15 20.85 27.5 20.2" fill="#eb5606" fill-rule="evenodd" stroke="none"/>
      <path d="M38.75 18.05 L37.6 18.35 30.4 20.25 36.05 15.35 36.25 15.2 36.4 15.05 38.75 18.05" fill="url(#gradient13)" fill-rule="evenodd" stroke="none"/>
      <path d="M33.65 13.65 L36.15 12.25 39.0 12.75 36.4 15.05 36.25 15.2 36.05 15.35 30.4 20.25 31.85 14.65 31.95 14.55 33.3 13.85 33.65 13.65" fill="url(#gradient14)" fill-rule="evenodd" stroke="none"/>
      <path d="M32.9 12.05 L33.65 13.65 33.3 13.85 32.9 12.05" fill="#3d0000" fill-rule="evenodd" stroke="none"/>
      <path d="M31.75 11.75 L32.1 13.05 31.55 13.95 30.65 15.35 30.55 15.45 30.5 15.1 30.25 13.2 31.75 11.75" fill="#8b1e00" fill-rule="evenodd" stroke="none"/>
      <path d="M30.35 24.55 L30.45 24.6 30.8 24.85 30.85 24.9 30.95 25.0 31.4 25.35 35.65 28.35 37.55 31.25 37.5 31.25 37.35 31.4 30.2 30.75 30.3 26.25 30.35 24.55" fill="url(#gradient15)" fill-rule="evenodd" stroke="none"/>
      <path d="M11.75 10.25 L17.45 6.3 12.85 11.85 12.55 11.4 12.55 11.35 11.75 10.25" fill="#de3800" fill-rule="evenodd" stroke="none"/>
      <path d="M6.45 19.4 L9.1 13.3 9.15 16.5 9.15 18.2 6.45 19.4 M9.2 13.2 L10.2 12.05 11.4 12.1 12.55 11.4 12.85 11.85 13.0 12.05 12.9 12.25 9.2 13.2" fill="#bb1200" fill-rule="evenodd" stroke="none"/>
      <path d="M13.75 15.2 L12.35 18.95 9.25 18.25 9.25 18.2 9.3 18.15 12.9 12.25 13.0 12.05 13.15 11.75 15.6 10.5 Q14.4 11.25 13.15 11.95 L14.55 13.25 13.75 15.2 M11.75 20.5 L10.35 24.15 10.25 24.15 10.25 24.1 10.1 23.3 9.35 18.6 9.7 20.4 11.75 20.5" fill="#ffd400" fill-rule="evenodd" stroke="none"/>
      <path d="M20.0 9.0 L20.05 9.1 20.05 9.15 20.15 9.45 16.85 12.45 15.6 10.5 Q16.8 9.95 17.95 9.35 L19.1 8.75 19.4 8.85 19.45 8.85 20.0 9.0 M15.2 13.9 L13.75 15.2 14.55 13.25 15.2 13.9" fill="#ffcf00" fill-rule="evenodd" stroke="none"/>
      <path d="M9.1 13.3 L9.2 13.2 12.9 12.25 9.3 18.15 9.15 18.2 9.45 16.4 10.05 15.35 10.05 13.9 9.1 13.3 M17.95 9.35 L17.6 6.75 19.35 8.6 19.4 8.85 19.1 8.75 17.95 9.35 M15.25 29.2 L16.75 28.5 16.75 30.35 16.75 30.85 14.1 31.55 14.15 31.35 14.35 29.95 14.2 29.7 15.25 29.2 M13.3 30.15 L13.85 30.05 13.2 30.2 13.3 30.15 M13.85 30.0 L13.8 29.9 13.9 30.05 13.85 30.0" fill="#ed3d00" fill-rule="evenodd" stroke="none"/>
      <path d="M6.1 20.15 L6.45 19.4 9.15 18.2 9.3 18.15 9.25 18.2 9.25 18.25 9.35 18.6 9.3 18.75 9.2 18.95 9.15 19.1 9.0 19.5 8.85 19.9 7.85 22.4 7.75 22.7 7.3 23.65 7.1 24.15 6.1 20.15" fill="#d22818" fill-rule="evenodd" stroke="none"/>
      <path d="M3.6 24.65 L3.9 24.5 5.3 24.0 5.5 24.05 5.2 24.6 5.15 24.6 4.2 25.0 3.95 25.0 3.85 24.95 3.35 24.9 3.6 24.65 M11.9 30.55 L12.0 30.65 12.25 31.05 12.4 31.25 12.4 31.3 12.0 31.65 10.6 33.1 10.85 31.75 10.85 31.7 11.8 30.65 11.85 30.6 11.9 30.55 M4.2 28.15 L4.2 27.1 4.8 32.75 4.4 33.25 4.3 33.35 3.95 33.7 3.95 33.65 4.0 33.25 4.1 30.75 4.2 28.8 4.2 28.15" fill="#ffd4d4" fill-rule="evenodd" stroke="none"/>
      <path d="M1.85 33.5 L1.85 33.35 1.9 33.1 1.85 33.5 M2.0 32.75 L2.4 30.35 3.3 30.6 3.95 32.55 4.05 30.75 4.1 30.75 4.0 33.25 3.45 34.0 2.0 32.75 M2.8 28.0 L3.35 24.9 3.55 24.65 3.6 24.65 3.35 24.9 3.85 24.95 4.2 28.15 4.2 28.8 4.15 28.8 4.1 28.75 4.1 28.65 4.05 28.75 Q2.95 28.15 2.8 28.0" fill="#790000" fill-rule="evenodd" stroke="none"/>
      <path d="M9.2 18.95 L9.2 23.4 7.8 23.6 7.35 23.65 7.3 23.65 7.75 22.7 7.85 22.4 8.85 19.9 9.0 19.5 9.15 19.1 9.2 18.95" fill="#e64400" fill-rule="evenodd" stroke="none"/>
      <path d="M9.2 18.95 L9.3 18.75 9.35 18.6 10.1 23.3 9.2 23.4 9.2 18.95" fill="#ff5300" fill-rule="evenodd" stroke="none"/>
      <path d="M5.3 24.0 L5.65 24.05 6.0 24.8 9.0 27.0 6.95 27.25 6.9 27.25 5.2 24.6 5.5 24.05 5.3 24.0" fill="#dc1700" fill-rule="evenodd" stroke="none"/>
      <path d="M2.9 35.8 L2.75 35.75 1.75 34.75 1.85 33.5 1.9 33.55 1.85 33.8 3.45 34.75 3.4 34.65 3.45 34.45 3.75 35.25 Q3.35 35.55 2.9 35.8 M5.2 24.6 L6.9 27.25 7.45 28.05 7.25 28.05 7.1 28.05 4.65 28.05 4.2 25.0 5.15 24.6 5.2 24.6" fill="#600000" fill-rule="evenodd" stroke="none"/>
      <path d="M5.65 24.05 L5.7 24.05 10.9 27.5 9.4 26.55 9.5 26.65 5.65 24.05 M12.4 28.45 L12.7 28.65 12.85 28.75 12.65 28.75 12.15 28.7 12.85 28.75 12.3 28.55 12.25 28.5 12.4 28.45" fill="#ffc3c4" fill-rule="evenodd" stroke="none"/>
      <path d="M5.65 24.05 L5.9 23.65 6.1 20.15 7.1 24.15 8.4 25.2 10.85 27.15 11.85 27.95 12.0 28.05 12.35 28.35 12.7 28.65 12.4 28.45 10.9 27.5 5.7 24.05 5.65 24.05" fill="#300300" fill-rule="evenodd" stroke="none"/>
      <path d="M9.2 23.4 L10.1 23.3 10.25 24.1 8.4 25.2 7.1 24.15 7.3 23.65 7.35 23.65 7.8 23.6 9.2 23.4" fill="#c52d00" fill-rule="evenodd" stroke="none"/>
      <path d="M10.85 27.15 L8.4 25.2 10.25 24.1 10.25 24.15 10.3 24.25 12.75 25.45 11.4 27.15 10.85 27.15" fill="#921400" fill-rule="evenodd" stroke="none"/>
      <path d="M12.75 25.45 L15.65 26.85 15.95 26.75 16.75 26.5 16.75 27.15 16.35 27.2 14.45 27.2 13.6 27.2 11.85 27.15 11.4 27.15 12.75 25.45" fill="#b63a00" fill-rule="evenodd" stroke="none"/>
      <path d="M13.6 27.2 L14.45 27.2 16.35 27.2 16.75 27.15 16.75 28.5 15.25 29.2 14.5 28.2 14.15 27.8 13.8 27.4 13.6 27.2" fill="#ed5100" fill-rule="evenodd" stroke="none"/>
      <path d="M16.75 30.85 L16.75 30.35 17.3 29.8 18.0 29.1 18.65 29.15 19.05 29.4 20.95 30.5 21.1 30.55 21.15 30.6 21.2 30.65 21.45 30.75 21.5 30.75 18.45 31.25 16.9 31.5 16.75 31.5 16.75 30.85" fill="#c72d00" fill-rule="evenodd" stroke="none"/>
      <path d="M18.65 29.15 L19.3 29.25 19.7 29.25 22.3 29.45 22.25 29.4 25.7 29.65 25.85 30.2 21.5 30.75 21.2 30.65 21.15 30.6 21.1 30.55 20.95 30.5 19.05 29.4 18.65 29.15 M26.8 29.9 L26.75 29.7 26.8 29.7 26.85 29.9 26.8 29.9" fill="#922d00" fill-rule="evenodd" stroke="none"/>
      <path d="M21.15 25.4 L20.6 26.45 25.4 25.65 25.3 26.45 25.3 26.6 20.1 28.3 19.0 27.95 20.15 26.6 20.7 25.95 21.15 25.4" fill="#fc7804" fill-rule="evenodd" stroke="none"/>
      <path d="M12.0 28.05 L11.85 27.95 10.85 27.15 11.4 27.15 11.85 27.15 13.6 27.2 13.8 27.4 14.15 27.8 14.5 28.2 15.25 29.2 14.2 29.7 13.75 29.0 13.1 28.65 13.15 28.6 13.55 28.05 12.05 28.05 12.0 28.05 M11.95 30.15 L12.0 29.85 12.0 29.9 11.95 30.15 M12.55 30.15 L13.25 30.15 13.3 30.15 13.2 30.2 12.55 30.15" fill="#cd2b00" fill-rule="evenodd" stroke="none"/>
      <path d="M9.0 27.0 L6.0 24.8 5.65 24.05 9.5 26.65 9.7 26.95 10.5 28.1 9.0 27.0 M12.25 28.5 L12.3 28.55 12.85 28.75 12.15 28.7 12.1 28.7 12.0 29.85 11.8 28.75 11.7 28.65 11.95 28.6 12.25 28.5 M11.6 30.55 L11.9 30.55 11.85 30.6 11.8 30.65 10.85 31.7 10.75 31.05 10.45 31.0 9.05 30.65 8.7 30.55 8.95 30.4 9.2 30.25 11.6 30.55" fill="#eb7879" fill-rule="evenodd" stroke="none"/>
      <path d="M10.9 27.5 L12.4 28.45 12.25 28.5 11.95 28.6 11.7 28.65 11.55 28.85 11.35 28.7 10.5 28.1 9.7 26.95 9.5 26.65 9.4 26.55 10.9 27.5" fill="#fccdcf" fill-rule="evenodd" stroke="none"/>
      <path d="M12.35 28.35 L12.0 28.05 12.05 28.05 13.55 28.05 13.15 28.6 13.1 28.65 12.05 28.05 12.35 28.35 M9.8 29.05 L10.15 29.4 9.8 29.1 9.75 29.05 9.8 29.05 M12.55 28.75 L12.15 28.7 12.65 28.75 12.55 28.75" fill="#951c00" fill-rule="evenodd" stroke="none"/>
      <path d="M11.35 28.7 L11.55 28.85 11.7 28.65 11.8 28.75 12.0 29.85 11.95 30.15 11.95 30.45 11.9 30.55 11.6 30.55 10.25 29.45 10.15 29.4 9.8 29.05 11.35 28.7" fill="#de0000" fill-rule="evenodd" stroke="none"/>
      <path d="M12.55 28.75 L12.6 28.8 13.25 30.15 12.55 30.15 12.0 29.9 12.0 29.85 12.1 28.7 12.15 28.7 12.55 28.75" fill="#ff0003" fill-rule="evenodd" stroke="none"/>
      <path d="M13.25 30.15 L12.6 28.8 12.55 28.75 12.65 28.75 12.85 28.75 13.4 29.25 13.8 29.9 13.85 30.0 13.85 30.05 13.3 30.15 13.25 30.15" fill="#ffb9ba" fill-rule="evenodd" stroke="none"/>
      <path d="M6.9 27.25 L6.95 27.25 9.0 27.0 10.5 28.1 11.35 28.7 9.8 29.05 9.75 29.05 9.4 29.15 8.55 29.3 8.3 29.35 8.25 29.35 7.45 28.05 6.9 27.25" fill="#c00300" fill-rule="evenodd" stroke="none"/>
      <path d="M10.15 29.4 L10.25 29.45 11.6 30.55 9.2 30.25 8.95 30.4 8.75 30.1 8.25 29.35 8.3 29.35 8.55 29.3 9.4 29.15 9.75 29.05 9.8 29.1 10.15 29.4 M10.85 31.7 L10.85 31.75 10.0 32.05 9.7 32.2 Q8.9 32.7 8.7 33.35 L8.2 33.4 Q8.45 32.3 9.45 31.55 L9.6 31.4 10.45 31.0 10.75 31.05 10.85 31.7 M12.0 31.65 L12.4 31.3 12.05 31.65 12.0 31.65 M12.25 31.05 L12.0 30.65 12.05 30.65 12.25 31.05" fill="#6d0000" fill-rule="evenodd" stroke="none"/>
      <path d="M11.95 30.45 L11.95 30.15 12.0 29.9 12.55 30.15 13.2 30.2 13.85 30.05 13.85 30.0 13.9 30.05 13.6 30.85 12.45 31.25 12.4 31.3 12.4 31.25 12.25 31.05 12.05 30.65 11.95 30.45" fill="#cd2100" fill-rule="evenodd" stroke="none"/>
      <path d="M11.9 30.55 L11.95 30.45 12.05 30.65 12.0 30.65 11.9 30.55 M10.45 31.0 L9.6 31.4 9.45 31.55 Q8.45 32.3 8.2 33.4 L8.05 33.4 8.0 33.45 7.85 33.0 9.05 30.65 10.45 31.0" fill="#4e0000" fill-rule="evenodd" stroke="none"/>
      <path d="M13.9 30.05 L14.15 31.35 14.1 31.55 13.55 33.95 11.9 33.05 13.5 31.05 13.6 30.85 13.9 30.05" fill="#530000" fill-rule="evenodd" stroke="none"/>
      <path d="M11.85 33.1 L9.5 35.9 9.55 35.75 10.15 35.0 10.25 34.1 10.2 34.15 10.25 33.8 10.15 33.9 10.4 33.15 10.6 33.1 12.05 31.65 12.4 31.3 12.45 31.25 13.6 30.85 13.5 31.05 11.9 33.05 11.85 33.1" fill="#a20300" fill-rule="evenodd" stroke="none"/>
      <path d="M9.5 35.9 L9.45 35.9 9.1 36.1 9.0 36.1 8.6 35.95 8.0 35.65 9.6 34.6 9.25 34.95 9.35 35.15 9.25 35.25 9.5 35.8 9.55 35.75 9.5 35.9 M10.85 31.75 L10.6 33.1 12.0 31.65 12.05 31.65 10.6 33.1 9.6 33.25 8.7 33.35 Q8.9 32.7 9.7 32.2 L10.0 32.05 10.85 31.75" fill="#f00101" fill-rule="evenodd" stroke="none"/>
      <path d="M8.2 33.4 L8.7 33.35 9.6 33.25 10.4 33.15 10.15 33.9 9.6 34.6 8.0 35.65 6.85 35.05 6.4 34.8 7.0 34.3 8.0 33.45 8.05 33.4 8.2 33.4 M5.8 32.85 L5.85 32.85 6.85 32.9 6.8 32.95 Q5.8 33.8 5.4 35.0 L3.8 35.2 3.75 35.25 3.45 34.45 3.45 34.3 3.65 34.1 Q4.65 33.95 5.8 32.85" fill="#8b0000" fill-rule="evenodd" stroke="none"/>
      <path d="M10.15 33.9 L10.25 33.8 10.2 34.15 10.25 34.1 10.15 35.0 9.55 35.75 9.5 35.8 9.25 35.25 9.35 35.15 9.25 34.95 9.6 34.6 10.15 33.9" fill="#ff2d23" fill-rule="evenodd" stroke="none"/>
      <path d="M4.65 28.05 L7.1 28.05 7.25 28.05 7.45 28.05 8.25 29.35 8.75 30.1 8.45 30.15 8.2 30.15 7.9 30.15 6.15 30.2 4.95 30.2 4.65 28.05" fill="#d20000" fill-rule="evenodd" stroke="none"/>
      <path d="M8.75 30.1 L8.95 30.4 8.7 30.55 9.05 30.65 7.85 33.0 7.8 32.6 5.2 32.2 4.95 30.2 6.15 30.2 7.9 30.15 8.2 30.15 8.45 30.15 8.75 30.1" fill="#9d0000" fill-rule="evenodd" stroke="none"/>
      <path d="M4.2 25.0 L4.65 28.05 4.95 30.2 5.2 32.2 7.8 32.6 7.85 33.0 6.85 32.9 5.85 32.85 5.8 32.85 4.8 32.75 4.2 27.1 4.2 28.15 3.85 24.95 3.95 25.0 4.2 25.0 M4.0 33.25 L3.95 33.65 3.95 33.7 4.3 33.35 3.65 34.1 3.45 34.3 3.4 34.3 3.45 34.0 4.0 33.25" fill="#ff7f7f" fill-rule="evenodd" stroke="none"/>
      <path d="M2.4 30.35 L2.8 28.0 Q2.95 28.15 4.05 28.75 L2.4 30.35 M4.1 28.75 L4.15 28.8 4.2 28.8 4.1 30.75 4.05 30.75 4.1 28.75" fill="#a20000" fill-rule="evenodd" stroke="none"/>
      <path d="M1.9 33.1 L1.95 32.7 2.0 32.75 3.45 34.0 3.4 34.3 3.45 34.3 3.45 34.45 3.4 34.65 3.45 34.75 1.85 33.8 1.9 33.55 1.85 33.5 1.9 33.1 M4.05 28.75 L4.1 28.65 4.1 28.75 4.05 30.75 3.95 32.55 3.3 30.6 2.4 30.35 4.05 28.75" fill="#d70003" fill-rule="evenodd" stroke="none"/>
      <path d="M4.8 32.75 L5.8 32.85 Q4.65 33.95 3.65 34.1 L4.3 33.35 4.4 33.25 4.8 32.75" fill="#a90000" fill-rule="evenodd" stroke="none"/>
      <path d="M9.0 36.1 L4.95 36.1 2.9 35.8 Q3.35 35.55 3.75 35.25 L3.8 35.2 5.4 35.0 6.25 34.9 6.4 34.8 6.85 35.05 8.0 35.65 8.6 35.95 9.0 36.1" fill="#b60001" fill-rule="evenodd" stroke="none"/>
      <path d="M6.85 32.9 L7.85 33.0 8.0 33.45 7.0 34.3 6.25 34.9 5.4 35.0 Q5.8 33.8 6.8 32.95 L6.85 32.9" fill="#c70003" fill-rule="evenodd" stroke="none"/>
      <path d="M33.95 34.4 L33.55 34.4 30.15 33.5 30.2 30.75 37.35 31.4 36.7 31.95 33.95 34.4" fill="url(#gradient16)" fill-rule="evenodd" stroke="none"/>
      <path d="M40.25 32.95 L35.25 34.5 33.95 34.4 36.7 31.95 37.2 32.1 40.25 32.95" fill="url(#gradient17)" fill-rule="evenodd" stroke="none"/>
      <path d="M26.35 28.05 L28.45 24.0 30.3 26.25 30.2 30.75 27.25 30.4 26.95 30.35 26.85 29.9 26.8 29.7 26.35 28.05" fill="url(#gradient18)" fill-rule="evenodd" stroke="none"/>
    </g>
    <linearGradient gradientTransform="matrix(0.004, 6.0E-4, 6.0E-4, -0.004, 39.75, 15.55)" gradientUnits="userSpaceOnUse" id="gradient0" spreadMethod="pad" x1="-819.2" x2="819.2">
      <stop offset="0.0" stop-color="#8bedff"/>
      <stop offset="1.0" stop-color="#a4f0ff"/>
    </linearGradient>
    <linearGradient gradientTransform="matrix(0.0044, 7.0E-4, 7.0E-4, -0.0044, 41.1, 20.1)" gradientUnits="userSpaceOnUse" id="gradient1" spreadMethod="pad" x1="-819.2" x2="819.2">
      <stop offset="0.0" stop-color="#7ed2ff"/>
      <stop offset="1.0" stop-color="#2de3ff"/>
    </linearGradient>
    <linearGradient gradientTransform="matrix(-0.0027, 0.0037, 0.0037, 0.0027, 43.05, 25.75)" gradientUnits="userSpaceOnUse" id="gradient2" spreadMethod="pad" x1="-819.2" x2="819.2">
      <stop offset="0.0" stop-color="#f5fdff"/>
      <stop offset="1.0" stop-color="#d4f5ff"/>
    </linearGradient>
    <linearGradient gradientTransform="matrix(0.0013, -0.0042, -0.0042, -0.0013, 45.7, 26.15)" gradientUnits="userSpaceOnUse" id="gradient3" spreadMethod="pad" x1="-819.2" x2="819.2">
      <stop offset="0.0" stop-color="#7ed2ff"/>
      <stop offset="1.0" stop-color="#c5f7ff"/>
    </linearGradient>
    <linearGradient gradientTransform="matrix(0.0014, 2.0E-4, 2.0E-4, -0.0014, 45.75, 28.45)" gradientUnits="userSpaceOnUse" id="gradient4" spreadMethod="pad" x1="-819.2" x2="819.2">
      <stop offset="0.011764705882352941" stop-color="#8ddeff"/>
      <stop offset="1.0" stop-color="#6edbff"/>
    </linearGradient>
    <linearGradient gradientTransform="matrix(0.0022, 3.0E-4, 3.0E-4, -0.0022, 43.2, 29.0)" gradientUnits="userSpaceOnUse" id="gradient5" spreadMethod="pad" x1="-819.2" x2="819.2">
      <stop offset="0.0" stop-color="#23b3ff"/>
      <stop offset="1.0" stop-color="#6edbff"/>
    </linearGradient>
    <linearGradient gradientTransform="matrix(0.0077, 0.0012, 0.0012, -0.0077, 36.65, 21.6)" gradientUnits="userSpaceOnUse" id="gradient6" spreadMethod="pad" x1="-819.2" x2="819.2">
      <stop offset="0.0" stop-color="#f5fdff"/>
      <stop offset="1.0" stop-color="#b9eeff"/>
    </linearGradient>
    <linearGradient gradientTransform="matrix(0.0073, 0.0011, 0.0011, -0.0073, 36.0, 23.95)" gradientUnits="userSpaceOnUse" id="gradient7" spreadMethod="pad" x1="-819.2" x2="819.2">
      <stop offset="0.0" stop-color="#f5fdff"/>
      <stop offset="1.0" stop-color="#e2f8ff"/>
    </linearGradient>
    <linearGradient gradientTransform="matrix(-0.0017, 0.0024, 0.0024, 0.0017, 39.5, 31.25)" gradientUnits="userSpaceOnUse" id="gradient8" spreadMethod="pad" x1="-819.2" x2="819.2">
      <stop offset="0.0" stop-color="#cef3ff"/>
      <stop offset="1.0" stop-color="#b9eeff"/>
    </linearGradient>
    <linearGradient gradientTransform="matrix(0.0047, 7.0E-4, 7.0E-4, -0.0047, 37.5, 28.75)" gradientUnits="userSpaceOnUse" id="gradient9" spreadMethod="pad" x1="-819.2" x2="819.2">
      <stop offset="0.0" stop-color="#26b1ff"/>
      <stop offset="1.0" stop-color="#90f0ff"/>
    </linearGradient>
    <linearGradient gradientTransform="matrix(4.0E-4, -0.0012, -0.0012, -4.0E-4, 43.1, 32.1)" gradientUnits="userSpaceOnUse" id="gradient10" spreadMethod="pad" x1="-819.2" x2="819.2">
      <stop offset="0.0" stop-color="#7ed2ff"/>
      <stop offset="1.0" stop-color="#429fff"/>
    </linearGradient>
    <linearGradient gradientTransform="matrix(0.0013, 0.0014, 0.0014, -0.0013, 30.4, 18.8)" gradientUnits="userSpaceOnUse" id="gradient11" spreadMethod="pad" x1="-819.2" x2="819.2">
      <stop offset="0.0" stop-color="#23b3ff"/>
      <stop offset="1.0" stop-color="#6edbff"/>
    </linearGradient>
    <linearGradient gradientTransform="matrix(-3.0E-4, 0.0031, 0.0031, 3.0E-4, 27.65, 23.85)" gradientUnits="userSpaceOnUse" id="gradient12" spreadMethod="pad" x1="-819.2" x2="819.2">
      <stop offset="0.0" stop-color="#17a7ff"/>
      <stop offset="1.0" stop-color="#90ffff"/>
    </linearGradient>
    <linearGradient gradientTransform="matrix(0.0048, 7.0E-4, 7.0E-4, -0.0048, 34.8, 17.85)" gradientUnits="userSpaceOnUse" id="gradient13" spreadMethod="pad" x1="-819.2" x2="819.2">
      <stop offset="0.0" stop-color="#c2f0ff"/>
      <stop offset="1.0" stop-color="#95e5ff"/>
    </linearGradient>
    <linearGradient gradientTransform="matrix(0.0031, -0.0047, -0.0047, -0.0031, 33.55, 16.65)" gradientUnits="userSpaceOnUse" id="gradient14" spreadMethod="pad" x1="-819.2" x2="819.2">
      <stop offset="0.0" stop-color="#f5fdff"/>
      <stop offset="1.0" stop-color="#95e5ff"/>
    </linearGradient>
    <linearGradient gradientTransform="matrix(0.0049, 7.0E-4, 7.0E-4, -0.0049, 33.9, 28.2)" gradientUnits="userSpaceOnUse" id="gradient15" spreadMethod="pad" x1="-819.2" x2="819.2">
      <stop offset="0.0" stop-color="#40c5ff"/>
      <stop offset="1.0" stop-color="#90ffff"/>
    </linearGradient>
    <linearGradient gradientTransform="matrix(0.0043, 7.0E-4, 7.0E-4, -0.0043, 33.55, 32.6)" gradientUnits="userSpaceOnUse" id="gradient16" spreadMethod="pad" x1="-819.2" x2="819.2">
      <stop offset="0.0" stop-color="#57d6ff"/>
      <stop offset="1.0" stop-color="#90ffff"/>
    </linearGradient>
    <linearGradient gradientTransform="matrix(-0.0016, 0.0021, 0.0021, 0.0016, 36.8, 34.05)" gradientUnits="userSpaceOnUse" id="gradient17" spreadMethod="pad" x1="-819.2" x2="819.2">
      <stop offset="0.0" stop-color="#e1fcff"/>
      <stop offset="1.0" stop-color="#90ffff"/>
    </linearGradient>
    <linearGradient gradientTransform="matrix(0.0025, 4.0E-4, 4.0E-4, -0.0025, 28.6, 27.3)" gradientUnits="userSpaceOnUse" id="gradient18" spreadMethod="pad" x1="-819.2" x2="819.2">
      <stop offset="0.0" stop-color="#51dcff"/>
      <stop offset="1.0" stop-color="#90f2ff"/>
    </linearGradient>
  </defs>
</svg>
