<?xml version="1.0" encoding="UTF-8" standalone="no"?>
<svg xmlns:xlink="http://www.w3.org/1999/xlink" height="25.5px" width="64.0px" xmlns="http://www.w3.org/2000/svg">
  <g transform="matrix(1.0, 0.0, 0.0, 1.0, 10.0, -24.0)">
    <use height="25.5" transform="matrix(1.0, 0.0, 0.0, 1.0, -10.0, 24.0)" width="64.0" xlink:href="#shape0"/>
  </g>
  <defs>
    <g id="shape0" transform="matrix(1.0, 0.0, 0.0, 1.0, 10.0, -24.0)">
      <path d="M53.8 24.6 L53.8 49.05 -8.9 49.05 -8.9 24.6 53.8 24.6" fill="#b6b6b6" fill-opacity="0.0" fill-rule="evenodd" stroke="none"/>
      <path d="M-10.0 49.05 L8.85 38.65 9.3 38.35 9.25 38.35 10.25 37.75 19.05 34.55 18.85 35.1 19.65 35.35 20.0 34.2 20.7 33.95 20.5 34.5 21.3 34.75 21.65 33.6 22.35 33.35 22.2 33.85 22.95 34.15 23.3 33.0 24.0 32.75 23.85 33.25 24.6 33.55 24.95 32.4 25.65 32.15 25.5 32.65 26.25 32.95 26.6 31.8 27.3 31.55 27.1 32.05 27.9 32.35 28.25 31.2 28.95 30.95 28.75 31.45 29.55 31.7 29.95 30.55 33.55 29.25 Q33.65 28.35 33.35 27.95 32.75 27.15 31.8 27.0 L31.5 26.65 32.75 25.9 Q33.25 25.85 34.0 26.95 L34.8 28.0 37.9 27.75 43.9 25.85 Q46.7 25.05 52.15 24.15 L52.15 24.0 53.7 24.4 54.0 30.45 Q53.85 32.9 52.65 33.5 L52.6 32.45 Q53.1 31.65 53.1 30.8 53.0 29.85 52.45 29.2 L52.45 29.0 49.15 29.4 45.8 30.25 Q40.55 30.8 39.05 31.7 38.55 32.0 38.7 33.05 L38.8 33.45 39.8 34.8 Q41.25 37.4 40.45 38.9 L39.65 37.8 Q39.75 36.65 39.05 35.75 38.4 34.8 37.3 34.55 L36.95 34.1 37.2 34.45 Q35.0 35.25 34.65 35.85 L34.15 36.55 4.85 47.25 4.35 47.45 3.85 47.6 3.6 47.7 3.35 47.8 3.1 47.85 -2.5 49.1 -3.35 49.25 Q-7.6 49.8 -9.7 49.2 L-9.75 49.15 -9.9 49.1 -10.0 49.05" fill="none" stroke="#000000" stroke-linecap="round" stroke-linejoin="round" stroke-width="0.05"/>
      <path d="M15.4 37.5 L32.6 31.25 32.9 32.1 15.75 38.35 15.4 37.5" fill="none" stroke="#000000" stroke-linecap="round" stroke-linejoin="round" stroke-width="0.05"/>
      <path d="M37.0 34.1 L37.25 34.45 Q35.05 35.25 34.7 35.85 L34.2 36.5 33.05 36.95 Q34.65 36.35 34.85 35.5 L33.9 32.9 0.75 44.95 Q6.55 41.95 9.3 38.4 L10.3 37.75 19.1 34.55 18.9 35.05 19.65 35.35 20.05 34.2 20.75 33.95 20.55 34.45 21.3 34.75 21.7 33.6 22.4 33.35 22.25 33.85 22.95 34.15 23.35 33.0 24.05 32.75 23.9 33.25 24.6 33.55 25.0 32.4 25.7 32.15 25.5 32.65 26.25 32.95 26.65 31.8 27.35 31.55 27.15 32.05 27.9 32.35 28.3 31.2 29.0 30.95 28.8 31.45 29.6 31.75 30.0 30.55 33.6 29.25 33.55 29.4 37.0 34.1 M32.95 32.1 L32.6 31.25 15.45 37.5 15.8 38.35 32.95 32.1" fill="#cccccc" fill-rule="evenodd" stroke="none"/>
      <path d="M33.05 36.95 L4.85 47.25 4.4 47.4 3.85 47.6 3.65 47.7 3.4 47.8 3.15 47.9 -2.5 49.15 -3.3 49.2 Q-7.55 49.8 -9.6 49.15 L-6.6 48.15 Q-2.45 46.65 0.75 44.95 L33.9 32.9 34.85 35.5 Q34.65 36.35 33.05 36.95 M-9.75 49.1 L-9.85 49.1 -9.75 49.1" fill="#b3b3b3" fill-rule="evenodd" stroke="none"/>
      <path d="M-9.6 49.15 L-9.65 49.15 -9.75 49.1 -9.85 49.1 -9.95 49.1 8.85 38.6 9.3 38.35 9.3 38.4 Q6.55 41.95 0.75 44.95 -2.45 46.65 -6.6 48.15 L-9.6 49.15" fill="#e6e6e6" fill-rule="evenodd" stroke="none"/>
      <path d="M52.45 28.95 L49.2 29.4 45.8 30.25 Q40.55 30.8 39.1 31.65 38.6 32.0 38.75 33.05 L38.85 33.45 34.85 28.0 37.9 27.75 43.9 25.85 52.25 24.1 52.45 28.95 M48.35 28.8 Q50.8 27.85 52.0 28.05 L52.0 24.65 Q50.5 25.35 48.0 25.7 L43.9 26.35 Q40.15 27.85 38.4 28.25 L35.35 28.15 38.65 32.95 38.65 31.95 Q38.55 30.9 39.05 30.7 39.85 30.25 41.5 30.15 L44.75 30.0 Q45.55 29.95 48.35 28.8" fill="#663333" fill-rule="evenodd" stroke="none"/>
      <path d="M52.25 24.1 L52.2 24.0 53.75 24.4 54.0 30.4 Q53.9 32.9 52.7 33.5 L52.6 32.4 Q53.15 31.65 53.1 30.75 53.05 29.8 52.45 29.15 L52.45 28.95 52.25 24.1 M38.85 33.45 L39.8 34.8 Q41.25 37.45 40.5 38.85 L39.7 37.8 Q39.8 36.65 39.05 35.75 38.45 34.8 37.35 34.55 L37.0 34.1 33.55 29.4 33.6 29.25 Q33.7 28.35 33.4 27.9 32.85 27.15 31.8 27.0 L31.55 26.65 Q32.55 25.9 32.75 25.85 33.25 25.85 34.05 26.95 L34.85 28.0 38.85 33.45" fill="#999999" fill-rule="evenodd" stroke="none"/>
      <path d="M48.35 28.8 Q45.55 29.95 44.75 30.0 L41.5 30.15 Q39.85 30.25 39.05 30.7 38.55 30.9 38.65 31.95 L38.65 32.95 35.35 28.15 38.4 28.25 Q40.15 27.85 43.9 26.35 L48.0 25.7 Q50.5 25.35 52.0 24.65 L52.0 28.05 Q50.8 27.85 48.35 28.8" fill="#8f4f3d" fill-rule="evenodd" stroke="none"/>
    </g>
  </defs>
</svg>
