<?xml version="1.0" encoding="UTF-8" standalone="no"?>
<svg xmlns:xlink="http://www.w3.org/1999/xlink" height="27.6px" width="27.4px" xmlns="http://www.w3.org/2000/svg">
  <g transform="matrix(1.0, 0.0, 0.0, 1.0, 0.0, 0.0)">
    <path d="M0.25 23.0 L0.0 23.0 0.0 2.0 3.0 2.0 3.0 0.0 26.0 0.0 26.0 0.7 26.0 18.0 24.0 18.0 24.0 23.0 8.65 23.0 6.5 25.8 6.05 25.3 4.35 23.0 0.25 23.0 M4.4 17.0 L17.8 17.0 18.0 17.25 18.05 17.25 19.5 19.2 21.15 17.0 25.0 17.0 25.0 1.0 4.4 1.0 4.0 1.0 4.0 17.0 4.4 17.0 M23.0 18.3 L23.0 18.0 21.65 18.0 20.8 19.15 19.55 20.8 19.5 20.8 18.3 19.3 17.3 17.95 3.0 17.95 3.0 4.0 3.0 3.0 1.0 3.0 1.0 22.0 4.8 22.0 5.0 22.25 5.05 22.25 6.45 24.2 7.95 22.2 8.0 22.25 8.15 22.0 23.0 22.0 23.0 18.3" fill="url(#gradient0)" fill-rule="evenodd" stroke="none"/>
    <path d="M26.0 0.7 L26.25 1.1 Q26.8 4.25 26.8 18.5 L24.7 18.8 24.7 23.8 9.0 23.6 6.7 26.4 6.5 26.7 4.0 23.9 0.8 23.7 0.35 23.2 0.25 23.0 4.35 23.0 6.05 25.3 6.5 25.8 8.65 23.0 24.0 23.0 24.0 18.0 26.0 18.0 26.0 0.7" fill="#150f0e" fill-opacity="0.5019608" fill-rule="evenodd" stroke="none"/>
    <path d="M23.0 4.4 Q24.25 5.3 21.8 5.6 L18.7 5.7 Q17.35 5.5 17.65 4.9 L18.0 4.55 18.0 5.0 23.0 5.0 23.0 4.4 M22.95 11.0 Q22.25 11.55 20.45 11.75 L17.7 11.8 Q14.1 11.8 12.9 11.1 L13.0 11.0 22.95 11.0 M23.0 13.5 Q23.75 14.2 22.2 14.4 L20.1 14.5 Q18.35 14.5 18.15 14.0 L23.0 14.0 23.0 13.5 M16.0 5.0 L16.1 5.1 13.15 5.55 8.1 5.6 Q5.5 5.55 5.6 4.9 L6.0 4.5 6.0 5.0 16.0 5.0 M11.0 11.0 L11.2 11.05 Q11.15 11.45 10.25 11.55 L6.9 11.4 Q5.55 11.3 5.4 10.65 L5.5 10.0 5.5 9.9 6.0 9.95 6.0 10.0 6.0 11.0 11.0 11.0 M9.15 7.0 L6.0 7.0 6.0 8.0 16.0 8.0 16.0 7.0 Q18.45 9.85 6.8 8.4 5.3 8.2 5.6 7.35 L6.2 6.55 9.15 7.0 M16.0 14.0 L16.1 14.05 Q15.55 14.6 12.45 14.65 L7.3 14.5 Q6.1 14.45 5.9 14.1 L6.0 14.0 16.0 14.0" fill="#756357" fill-rule="evenodd" stroke="none"/>
    <path d="M23.0 4.4 L23.0 5.0 18.0 5.0 18.0 4.55 18.0 4.0 23.0 4.0 23.0 4.4 M23.0 7.0 L23.0 8.0 18.0 8.0 18.0 7.0 23.0 7.0 M22.95 11.0 L13.0 11.0 13.0 10.0 23.0 10.0 23.0 11.0 22.95 11.0 M18.15 14.0 L18.0 14.0 18.0 13.0 23.0 13.0 23.0 13.5 23.0 14.0 18.15 14.0 M6.0 4.5 L6.0 4.0 16.0 4.0 16.0 5.0 6.0 5.0 6.0 4.5 M6.0 10.0 L11.0 10.0 11.0 11.0 6.0 11.0 6.0 10.0 M16.0 7.0 L16.0 8.0 6.0 8.0 6.0 7.0 9.15 7.0 16.0 7.0 M6.0 14.0 L6.0 13.0 16.0 13.0 16.0 14.0 6.0 14.0" fill="url(#gradient1)" fill-rule="evenodd" stroke="none"/>
    <path d="M18.0 4.55 L17.65 4.9 Q17.35 5.5 18.7 5.7 L21.8 5.6 Q24.25 5.3 23.0 4.4 L23.0 4.0 18.0 4.0 18.0 4.55 M23.0 7.0 L18.0 7.0 18.0 8.0 23.0 8.0 23.0 7.0 M13.0 11.0 L12.9 11.1 Q14.1 11.8 17.7 11.8 L20.45 11.75 Q22.25 11.55 22.95 11.0 L23.0 11.0 23.0 10.0 13.0 10.0 13.0 11.0 M4.4 15.3 L5.0 15.95 7.35 16.25 18.0 16.25 Q19.2 17.85 19.4 17.65 L19.8 17.05 20.6 16.35 23.9 16.2 Q25.25 15.6 23.4 15.45 L20.05 15.35 19.05 16.55 18.2 15.35 4.4 15.25 4.4 1.0 25.0 1.0 25.0 17.0 21.15 17.0 19.5 19.2 18.05 17.25 18.0 17.2 18.0 17.25 17.8 17.0 4.4 17.0 4.4 15.3 M23.0 13.5 L23.0 13.0 18.0 13.0 18.0 14.0 18.15 14.0 Q18.35 14.5 20.1 14.5 L22.2 14.4 Q23.75 14.2 23.0 13.5 M16.0 5.0 L16.0 4.0 6.0 4.0 6.0 4.5 5.6 4.9 Q5.5 5.55 8.1 5.6 L13.15 5.55 16.1 5.1 16.0 5.0 M6.0 10.0 L6.0 9.95 5.5 9.9 5.5 10.0 5.4 10.65 Q5.55 11.3 6.9 11.4 L10.25 11.55 Q11.15 11.45 11.2 11.05 L11.0 11.0 11.0 10.0 6.0 10.0 M16.0 7.0 L9.15 7.0 6.2 6.55 5.6 7.35 Q5.3 8.2 6.8 8.4 18.45 9.85 16.0 7.0 M16.0 14.0 L16.0 13.0 6.0 13.0 6.0 14.0 5.9 14.1 Q6.1 14.45 7.3 14.5 L12.45 14.65 Q15.55 14.6 16.1 14.05 L16.0 14.0" fill="url(#gradient2)" fill-rule="evenodd" stroke="none"/>
    <path d="M26.25 1.1 Q27.15 3.2 27.35 10.85 L27.3 19.0 25.4 19.4 25.3 24.6 9.2 24.6 6.4 27.6 3.8 24.7 Q1.55 24.65 0.7 23.75 L0.8 23.7 4.0 23.9 6.5 26.7 6.7 26.4 9.0 23.6 24.7 23.8 24.7 18.8 26.8 18.5 Q26.8 4.25 26.25 1.1" fill="#150f0e" fill-opacity="0.2901961" fill-rule="evenodd" stroke="none"/>
    <path d="M4.4 15.25 L18.2 15.35 19.05 16.55 20.05 15.35 23.4 15.45 Q25.25 15.6 23.9 16.2 L20.6 16.35 19.8 17.05 19.4 17.65 Q19.2 17.85 18.0 16.25 L7.35 16.25 5.0 15.95 4.4 15.3 4.35 15.25 4.4 15.25" fill="#43322c" fill-rule="evenodd" stroke="none"/>
    <path d="M20.8 19.15 L21.65 18.0 23.0 18.0 23.0 18.3 Q22.35 18.9 20.8 19.15" fill="#5b4d3d" fill-rule="evenodd" stroke="none"/>
    <path d="M20.8 19.15 Q22.35 18.9 23.0 18.3 L23.0 22.0 8.15 22.0 8.0 22.25 7.95 22.2 6.45 24.2 5.05 22.25 5.0 22.2 5.0 22.25 4.8 22.0 1.0 22.0 1.0 3.0 3.0 3.0 3.0 4.0 Q2.7 4.35 2.5 5.15 L2.25 6.55 2.1 12.9 Q1.9 18.55 3.6 19.15 5.3 19.7 17.1 19.3 L18.3 19.3 19.5 20.8 9.4 20.7 7.95 20.65 Q7.55 20.65 7.1 21.1 6.65 21.55 6.25 21.55 L5.9 21.5 5.75 21.1 Q5.4 20.65 4.4 20.6 L2.5 20.35 1.8 20.2 Q0.95 20.35 1.5 20.8 L2.2 21.2 4.9 21.4 6.6 22.9 Q7.0 22.05 7.65 21.65 7.95 21.45 8.2 21.4 L16.05 21.35 21.5 21.15 Q21.95 21.05 21.95 20.8 21.95 20.55 21.3 20.6 L19.55 20.8 20.8 19.15" fill="url(#gradient3)" fill-rule="evenodd" stroke="none"/>
    <path d="M19.5 20.8 L19.55 20.8 21.3 20.6 Q21.95 20.55 21.95 20.8 21.95 21.05 21.5 21.15 L16.05 21.35 8.2 21.4 Q7.95 21.45 7.65 21.65 7.0 22.05 6.6 22.9 L4.9 21.4 2.2 21.2 1.5 20.8 Q0.95 20.35 1.8 20.2 L2.5 20.35 4.4 20.6 Q5.4 20.65 5.75 21.1 L5.9 21.5 6.25 21.55 Q6.65 21.55 7.1 21.1 7.55 20.65 7.95 20.65 L9.4 20.7 19.5 20.8" fill="#392b24" fill-rule="evenodd" stroke="none"/>
    <path d="M4.4 15.3 L4.4 17.0 4.0 17.0 4.0 1.0 4.4 1.0 4.4 15.25 4.35 15.25 4.4 15.3" fill="url(#gradient4)" fill-rule="evenodd" stroke="none"/>
    <path d="M3.0 4.0 L3.0 17.95 17.3 17.95 18.3 19.3 17.1 19.3 Q5.3 19.7 3.6 19.15 1.9 18.55 2.1 12.9 L2.25 6.55 2.5 5.15 Q2.7 4.35 3.0 4.0" fill="#6b5947" fill-rule="evenodd" stroke="none"/>
    <path d="M18.0 17.25 L18.0 17.2 18.05 17.25 18.0 17.25 M5.05 22.25 L5.0 22.25 5.0 22.2 5.05 22.25" fill="#0d0a07" fill-rule="evenodd" stroke="none"/>
  </g>
  <defs>
    <linearGradient gradientTransform="matrix(0.0, 0.0152, -0.0159, 0.0, 13.0, 12.75)" gradientUnits="userSpaceOnUse" id="gradient0" spreadMethod="pad" x1="-819.2" x2="819.2">
      <stop offset="0.0" stop-color="#30241c"/>
      <stop offset="1.0" stop-color="#150f0e"/>
    </linearGradient>
    <linearGradient gradientTransform="matrix(0.0, 0.0152, -0.0159, 0.0, 13.0, 12.75)" gradientUnits="userSpaceOnUse" id="gradient1" spreadMethod="pad" x1="-819.2" x2="819.2">
      <stop offset="0.0" stop-color="#211914"/>
      <stop offset="1.0" stop-color="#150f0e"/>
    </linearGradient>
    <linearGradient gradientTransform="matrix(0.0, 0.0111, -0.0128, 0.0, 14.5, 10.1)" gradientUnits="userSpaceOnUse" id="gradient2" spreadMethod="pad" x1="-819.2" x2="819.2">
      <stop offset="0.0" stop-color="#887669"/>
      <stop offset="0.0784313725490196" stop-color="#5d4a35"/>
      <stop offset="0.34901960784313724" stop-color="#584533"/>
      <stop offset="0.4745098039215686" stop-color="#5c5040"/>
      <stop offset="0.6588235294117647" stop-color="#574433"/>
      <stop offset="0.9019607843137255" stop-color="#513d33"/>
      <stop offset="1.0" stop-color="#493636"/>
    </linearGradient>
    <linearGradient gradientTransform="matrix(0.0, 0.012, -0.0134, 0.0, 12.0, 13.25)" gradientUnits="userSpaceOnUse" id="gradient3" spreadMethod="pad" x1="-819.2" x2="819.2">
      <stop offset="0.0" stop-color="#7f6d5e"/>
      <stop offset="0.0784313725490196" stop-color="#5d4a35"/>
      <stop offset="0.34901960784313724" stop-color="#4b3a2c"/>
      <stop offset="0.4745098039215686" stop-color="#55483c"/>
      <stop offset="0.6588235294117647" stop-color="#503d30"/>
      <stop offset="0.9019607843137255" stop-color="#48362f"/>
      <stop offset="1.0" stop-color="#493636"/>
    </linearGradient>
    <linearGradient gradientTransform="matrix(0.0, 0.0111, -0.0128, 0.0, 14.5, 10.1)" gradientUnits="userSpaceOnUse" id="gradient4" spreadMethod="pad" x1="-819.2" x2="819.2">
      <stop offset="0.0" stop-color="#7e6c5e"/>
      <stop offset="1.0" stop-color="#655245"/>
    </linearGradient>
  </defs>
</svg>
