<?xml version="1.0" encoding="UTF-8" standalone="no"?>
<svg xmlns:xlink="http://www.w3.org/1999/xlink" height="27.45px" width="26.9px" xmlns="http://www.w3.org/2000/svg">
  <g transform="matrix(1.0, 0.0, 0.0, 1.0, 0.0, 0.0)">
    <path d="M24.9 3.65 L25.6 4.5 25.95 6.0 25.95 26.0 3.0 26.0 Q1.15 26.0 0.4 24.5 L0.0 23.0 0.0 0.0 8.95 0.0 9.95 0.25 Q10.95 0.75 10.95 2.0 L11.1 2.5 Q11.35 3.0 11.95 3.0 L22.95 3.0 Q24.15 3.0 24.9 3.65 M24.35 4.5 L23.95 4.25 22.95 4.0 20.9 4.0 17.0 4.0 11.95 4.0 10.95 3.75 Q9.95 3.25 9.95 2.0 9.95 1.0 8.95 1.0 L1.7 1.0 1.0 1.0 1.0 7.8 1.0 23.0 Q1.0 24.25 2.0 24.75 L3.0 25.0 9.75 25.0 13.05 25.0 13.6 25.0 17.0 25.0 17.6 25.0 24.65 25.0 24.95 25.0 24.95 24.3 24.95 6.0 Q24.95 5.35 24.5 4.85 L24.35 4.5 M10.9 2.75 L10.65 1.6 Q10.5 1.0 10.0 0.7 L9.6 0.55 Q10.25 0.95 10.2 1.8 10.25 3.3 11.25 3.55 12.55 3.8 12.2 3.3 11.15 3.15 10.9 2.75" fill="url(#gradient0)" fill-rule="evenodd" stroke="none"/>
    <path d="M0.0 23.0 L0.4 24.5 Q1.15 26.0 3.0 26.0 L25.95 26.0 25.95 6.0 25.6 4.5 24.9 3.65 25.65 4.1 Q26.2 4.8 26.35 6.4 L26.4 26.65 Q13.85 27.1 7.9 26.8 L1.2 26.0 Q0.4 25.45 0.15 24.3 L0.1 24.2 0.05 23.95 0.0 23.1 0.0 23.0" fill="#150f0e" fill-opacity="0.5019608" fill-rule="evenodd" stroke="none"/>
    <path d="M20.9 4.0 L24.35 4.5 24.5 4.85 24.35 4.95 21.7 5.05 18.4 4.75 18.0 4.65 15.9 4.4 13.75 4.4 17.0 4.25 17.0 4.2 20.9 4.0 M23.85 9.0 Q23.65 10.3 22.45 10.85 21.35 11.1 20.6 10.55 20.2 10.2 20.1 9.0 L20.95 9.0 20.95 10.0 22.95 10.0 22.95 9.0 23.85 9.0" fill="#89776a" fill-rule="evenodd" stroke="none"/>
    <path d="M20.9 4.0 L22.95 4.0 23.95 4.25 24.35 4.5 20.9 4.0" fill="url(#gradient1)" fill-rule="evenodd" stroke="none"/>
    <path d="M24.5 4.85 Q24.95 5.35 24.95 6.0 L24.95 24.3 Q24.7 23.6 23.15 23.45 L20.7 23.5 Q19.95 23.55 18.0 24.4 L17.0 24.8 17.0 25.0 13.6 25.0 Q13.65 24.65 16.35 24.05 L16.6 24.0 17.0 24.0 17.95 23.75 18.0 23.75 18.15 23.65 18.35 23.5 19.05 23.45 19.5 22.95 19.9 22.95 20.55 22.75 21.85 22.6 23.3 22.5 Q23.8 22.5 23.6 22.2 23.4 21.95 23.0 21.85 L22.15 21.95 21.25 22.1 Q20.5 22.1 19.95 21.2 19.8 20.95 20.15 20.95 L21.05 20.95 21.85 20.8 22.65 20.35 Q23.15 20.1 22.7 19.9 L21.75 19.85 21.0 20.1 Q20.3 20.05 20.15 19.45 L20.45 19.5 21.2 19.15 21.55 18.4 21.3 17.7 21.2 17.6 21.3 17.6 Q21.4 17.0 19.3 16.8 L18.95 16.6 18.95 7.0 Q18.95 5.8 18.0 5.3 L17.95 5.25 17.0 5.05 17.0 5.0 12.45 5.0 Q11.65 3.65 7.5 3.55 L3.45 3.75 Q3.1 3.8 2.8 4.2 2.2 4.85 2.15 6.25 L2.05 6.45 2.0 6.75 2.0 7.0 2.0 19.0 2.0 21.15 2.0 21.5 2.0 22.3 2.05 22.3 2.05 22.35 Q2.1 23.3 3.0 23.75 L4.0 24.0 9.9 24.0 9.75 25.0 10.5 24.5 10.8 24.0 13.45 24.0 13.1 24.75 13.05 25.0 9.75 25.0 3.0 25.0 2.0 24.75 Q1.0 24.25 1.0 23.0 L1.0 7.8 Q1.55 6.1 1.35 3.0 1.15 1.7 1.7 1.0 L8.95 1.0 Q9.95 1.0 9.95 2.0 9.95 3.25 10.95 3.75 L11.95 4.0 17.0 4.0 17.0 4.2 17.0 4.25 13.75 4.4 15.9 4.4 18.0 4.65 18.4 4.75 21.7 5.05 24.35 4.95 24.5 4.85 M22.95 7.0 L22.95 6.0 20.95 6.0 20.95 7.0 19.95 7.0 19.95 9.0 20.1 9.0 Q20.2 10.2 20.6 10.55 21.35 11.1 22.45 10.85 23.65 10.3 23.85 9.0 L23.95 9.0 23.95 7.0 22.95 7.0 M21.2 11.6 L20.45 11.3 Q20.0 11.3 19.65 11.6 19.35 11.95 19.35 12.4 19.35 12.85 19.65 13.15 20.0 13.5 20.45 13.5 L21.2 13.15 21.55 12.4 Q21.55 11.95 21.2 11.6 M24.2 11.75 L23.45 11.45 Q23.0 11.45 22.7 11.75 22.4 12.05 22.4 12.5 22.4 12.95 22.7 13.25 23.0 13.55 23.45 13.55 L24.2 13.25 24.5 12.5 24.2 11.75 M24.1 14.65 Q23.8 14.35 23.35 14.35 22.9 14.35 22.6 14.65 22.3 14.95 22.3 15.4 22.3 15.85 22.6 16.15 22.9 16.45 23.35 16.45 23.8 16.45 24.1 16.15 L24.4 15.4 Q24.4 14.95 24.1 14.65 M21.1 14.65 Q20.8 14.35 20.35 14.35 19.9 14.35 19.6 14.65 19.3 14.95 19.3 15.4 19.3 15.85 19.6 16.15 19.9 16.45 20.35 16.45 20.8 16.45 21.1 16.15 L21.4 15.4 Q21.4 14.95 21.1 14.65 M22.7 17.65 Q22.4 18.0 22.4 18.45 22.4 18.9 22.7 19.2 23.05 19.55 23.5 19.55 23.95 19.55 24.25 19.2 L24.6 18.45 Q24.6 18.0 24.25 17.65 23.95 17.35 23.5 17.35 23.05 17.35 22.7 17.65 M1.95 22.3 L2.0 22.35 2.0 22.3 1.95 22.3" fill="url(#gradient2)" fill-rule="evenodd" stroke="none"/>
    <path d="M20.95 7.0 L20.95 6.0 22.95 6.0 22.95 7.0 20.95 7.0" fill="#30241c" fill-rule="evenodd" stroke="none"/>
    <path d="M22.95 7.0 L23.95 7.0 23.95 9.0 23.85 9.0 22.95 9.0 22.95 7.0 M20.1 9.0 L19.95 9.0 19.95 7.0 20.95 7.0 20.95 9.0 22.95 9.0 22.95 10.0 20.95 10.0 20.95 9.0 20.1 9.0" fill="#1c1411" fill-rule="evenodd" stroke="none"/>
    <path d="M20.95 7.0 L22.95 7.0 22.95 9.0 20.95 9.0 20.95 7.0" fill="url(#gradient3)" fill-rule="evenodd" stroke="none"/>
    <path d="M21.2 11.6 Q21.55 11.95 21.55 12.4 L21.2 13.15 20.45 13.5 Q20.0 13.5 19.65 13.15 19.35 12.85 19.35 12.4 19.35 11.95 19.65 11.6 20.0 11.3 20.45 11.3 L21.2 11.6 M20.95 13.0 L20.95 12.0 19.95 12.0 19.95 13.0 20.95 13.0" fill="url(#gradient4)" fill-rule="evenodd" stroke="none"/>
    <path d="M24.2 11.75 L24.5 12.5 24.2 13.25 23.45 13.55 Q23.0 13.55 22.7 13.25 22.4 12.95 22.4 12.5 22.4 12.05 22.7 11.75 23.0 11.45 23.45 11.45 L24.2 11.75 M23.95 12.0 L22.95 12.0 22.95 13.0 23.95 13.0 23.95 12.0" fill="url(#gradient5)" fill-rule="evenodd" stroke="none"/>
    <path d="M23.95 12.0 L23.95 13.0 22.95 13.0 22.95 12.0 23.95 12.0 M23.95 15.0 L23.95 16.0 22.95 16.0 22.95 15.0 23.95 15.0 M23.95 18.0 L23.95 19.0 22.95 19.0 22.95 18.0 23.95 18.0 M20.95 16.0 L19.95 16.0 19.95 15.0 20.95 15.0 20.95 16.0 M20.95 19.0 L19.95 19.0 19.95 18.0 20.95 18.0 20.95 19.0 M20.95 13.0 L19.95 13.0 19.95 12.0 20.95 12.0 20.95 13.0 M14.95 9.0 L15.95 9.0 15.95 10.0 14.95 10.0 14.95 9.0 M10.95 10.0 L9.95 10.0 9.95 9.0 10.95 9.0 10.95 10.0 M5.0 9.0 L6.0 9.0 6.0 10.0 5.0 10.0 5.0 9.0 M9.95 14.0 L10.95 14.0 10.95 15.0 9.95 15.0 9.95 14.0 M6.0 15.0 L5.0 15.0 5.0 14.0 6.0 14.0 6.0 15.0 M5.0 19.0 L6.0 19.0 6.0 20.0 5.0 20.0 5.0 19.0 M9.95 19.0 L10.95 19.0 10.95 20.0 9.95 20.0 9.95 19.0 M15.95 15.0 L14.95 15.0 14.95 14.0 15.95 14.0 15.95 15.0 M14.95 19.0 L15.95 19.0 15.95 20.0 14.95 20.0 14.95 19.0" fill="#0d0a07" fill-rule="evenodd" stroke="none"/>
    <path d="M0.15 24.3 Q0.4 25.45 1.2 26.0 L7.9 26.8 Q13.85 27.1 26.4 26.65 L26.35 6.4 26.4 6.25 Q26.8 9.15 26.9 15.85 L26.85 27.2 Q16.5 27.75 2.95 27.2 1.0 27.2 0.3 25.6 L0.15 24.3" fill="#150f0e" fill-opacity="0.2901961" fill-rule="evenodd" stroke="none"/>
    <path d="M24.1 14.65 Q24.4 14.95 24.4 15.4 L24.1 16.15 Q23.8 16.45 23.35 16.45 22.9 16.45 22.6 16.15 22.3 15.85 22.3 15.4 22.3 14.95 22.6 14.65 22.9 14.35 23.35 14.35 23.8 14.35 24.1 14.65 M23.95 15.0 L22.95 15.0 22.95 16.0 23.95 16.0 23.95 15.0" fill="url(#gradient6)" fill-rule="evenodd" stroke="none"/>
    <path d="M21.1 14.65 Q21.4 14.95 21.4 15.4 L21.1 16.15 Q20.8 16.45 20.35 16.45 19.9 16.45 19.6 16.15 19.3 15.85 19.3 15.4 19.3 14.95 19.6 14.65 19.9 14.35 20.35 14.35 20.8 14.35 21.1 14.65 M20.95 16.0 L20.95 15.0 19.95 15.0 19.95 16.0 20.95 16.0" fill="url(#gradient7)" fill-rule="evenodd" stroke="none"/>
    <path d="M22.7 17.65 Q23.05 17.35 23.5 17.35 23.95 17.35 24.25 17.65 24.6 18.0 24.6 18.45 L24.25 19.2 Q23.95 19.55 23.5 19.55 23.05 19.55 22.7 19.2 22.4 18.9 22.4 18.45 22.4 18.0 22.7 17.65 M23.95 18.0 L22.95 18.0 22.95 19.0 23.95 19.0 23.95 18.0" fill="url(#gradient8)" fill-rule="evenodd" stroke="none"/>
    <path d="M13.6 25.0 L13.05 25.0 13.1 24.75 13.45 24.0 16.6 24.0 16.35 24.05 Q13.65 24.65 13.6 25.0 M18.95 16.6 L19.3 16.8 Q21.4 17.0 21.3 17.6 L21.2 17.6 20.45 17.3 Q20.0 17.3 19.65 17.6 19.35 17.95 19.35 18.4 19.35 18.85 19.65 19.15 L20.15 19.45 Q20.3 20.05 21.0 20.1 L21.75 19.85 22.7 19.9 Q23.15 20.1 22.65 20.35 L21.85 20.8 21.05 20.95 20.15 20.95 Q19.8 20.95 19.95 21.2 20.5 22.1 21.25 22.1 L22.15 21.95 23.0 21.85 Q23.4 21.95 23.6 22.2 23.8 22.5 23.3 22.5 L21.85 22.6 20.55 22.75 19.9 22.95 19.5 22.95 19.05 23.45 18.35 23.5 Q18.85 23.1 18.95 22.45 L18.95 22.3 18.95 21.2 18.95 21.15 18.95 19.0 18.95 16.6 M9.9 24.0 L10.8 24.0 10.5 24.5 9.75 25.0 9.9 24.0" fill="#43322c" fill-rule="evenodd" stroke="none"/>
    <path d="M20.15 19.45 L19.65 19.15 Q19.35 18.85 19.35 18.4 19.35 17.95 19.65 17.6 20.0 17.3 20.45 17.3 L21.2 17.6 21.3 17.7 21.55 18.4 21.2 19.15 20.45 19.5 20.15 19.45 M20.95 19.0 L20.95 18.0 19.95 18.0 19.95 19.0 20.95 19.0" fill="url(#gradient9)" fill-rule="evenodd" stroke="none"/>
    <path d="M24.95 24.3 L24.95 25.0 24.65 25.0 Q24.95 24.45 24.5 24.25 L23.05 24.0 20.85 24.05 19.55 24.15 17.6 25.0 17.0 25.0 17.0 24.8 18.0 24.4 Q19.95 23.55 20.7 23.5 L23.15 23.45 Q24.7 23.6 24.95 24.3" fill="#413125" fill-rule="evenodd" stroke="none"/>
    <path d="M24.65 25.0 L17.6 25.0 19.55 24.15 20.85 24.05 23.05 24.0 24.5 24.25 Q24.95 24.45 24.65 25.0" fill="#37291e" fill-rule="evenodd" stroke="none"/>
    <path d="M17.0 4.0 L20.9 4.0 17.0 4.2 17.0 4.0" fill="url(#gradient10)" fill-rule="evenodd" stroke="none"/>
    <path d="M18.95 16.6 L18.95 19.0 18.95 21.15 18.95 21.2 18.95 22.3 18.95 22.45 Q18.85 23.1 18.35 23.5 L18.15 23.65 18.0 23.75 17.95 23.75 17.0 24.0 16.6 24.0 13.45 24.0 10.8 24.0 9.9 24.0 4.0 24.0 3.0 23.75 Q2.1 23.3 2.05 22.35 L2.05 22.3 2.0 22.3 2.0 21.5 2.0 21.15 2.0 19.0 2.0 7.0 2.0 6.75 2.05 6.45 2.15 6.25 2.45 5.65 3.0 5.25 4.0 5.0 11.9 5.0 12.45 5.0 17.0 5.0 17.0 5.05 17.95 5.25 18.0 5.3 Q18.95 5.8 18.95 7.0 L18.95 16.6 M17.95 7.0 Q17.95 6.05 17.0 6.0 L4.0 6.0 Q3.4 6.0 3.15 6.5 L3.0 7.0 3.05 22.3 3.1 22.3 3.15 22.5 Q3.4 23.0 4.0 23.0 L17.05 23.0 Q17.75 23.0 17.95 22.35 L17.95 21.5 17.95 21.15 17.95 19.0 17.95 7.0" fill="url(#gradient11)" fill-rule="evenodd" stroke="none"/>
    <path d="M10.9 2.75 Q11.15 3.15 12.2 3.3 12.55 3.8 11.25 3.55 10.25 3.3 10.2 1.8 10.25 0.95 9.6 0.55 L10.0 0.7 Q10.5 1.0 10.65 1.6 L10.9 2.75" fill="#150f0e" fill-rule="evenodd" stroke="none"/>
    <path d="M12.45 5.0 L11.9 5.0 11.15 4.6 9.75 4.35 3.5 4.5 2.9 4.95 2.45 5.65 2.15 6.25 Q2.2 4.85 2.8 4.2 3.1 3.8 3.45 3.75 L7.5 3.55 Q11.65 3.65 12.45 5.0" fill="#4b3f33" fill-rule="evenodd" stroke="none"/>
    <path d="M11.9 5.0 L4.0 5.0 3.0 5.25 2.45 5.65 2.9 4.95 3.5 4.5 9.75 4.35 11.15 4.6 11.9 5.0" fill="#382c23" fill-rule="evenodd" stroke="none"/>
    <path d="M14.05 9.35 Q14.05 9.9 14.45 10.3 14.85 10.7 15.4 10.7 15.95 10.7 16.35 10.3 16.75 9.9 16.75 9.35 16.75 8.8 16.35 8.4 15.95 8.0 15.4 8.0 14.85 8.0 14.45 8.4 14.05 8.8 14.05 9.35 M11.2 8.55 Q10.85 8.2 10.35 8.2 9.85 8.2 9.45 8.55 9.1 8.95 9.1 9.45 9.1 9.95 9.45 10.3 9.85 10.7 10.35 10.7 10.85 10.7 11.2 10.3 11.6 9.95 11.6 9.45 11.6 8.95 11.2 8.55 M10.15 6.5 Q16.05 6.45 17.5 6.65 L17.65 20.65 Q17.65 22.3 16.6 22.4 L5.4 22.35 Q4.0 22.35 3.6 21.7 L3.45 21.0 3.4 8.25 Q3.4 7.05 3.85 6.8 L10.15 6.5 M4.7 8.55 Q4.35 8.9 4.35 9.4 4.35 9.9 4.7 10.25 5.05 10.6 5.55 10.6 6.05 10.6 6.4 10.25 L6.75 9.4 Q6.75 8.9 6.4 8.55 6.05 8.2 5.55 8.2 5.05 8.2 4.7 8.55 M9.55 13.45 Q9.15 13.85 9.15 14.4 9.15 14.95 9.55 15.35 9.95 15.75 10.5 15.75 11.05 15.75 11.45 15.35 11.85 14.95 11.85 14.4 11.85 13.85 11.45 13.45 11.05 13.05 10.5 13.05 9.95 13.05 9.55 13.45 M6.9 14.35 Q6.9 13.75 6.5 13.35 6.1 12.95 5.5 12.95 4.9 12.95 4.5 13.35 4.1 13.75 4.1 14.35 4.1 14.95 4.5 15.35 4.9 15.75 5.5 15.75 6.1 15.75 6.5 15.35 6.9 14.95 6.9 14.35 M6.55 18.3 Q6.15 17.9 5.55 17.9 4.95 17.9 4.5 18.3 4.1 18.75 4.1 19.35 4.1 19.95 4.5 20.35 4.95 20.8 5.55 20.8 6.15 20.8 6.55 20.35 7.0 19.95 7.0 19.35 7.0 18.75 6.55 18.3 M8.9 19.55 Q8.9 20.15 9.3 20.55 9.75 21.0 10.35 21.0 10.95 21.0 11.35 20.55 11.8 20.15 11.8 19.55 11.8 18.95 11.35 18.5 10.95 18.1 10.35 18.1 9.75 18.1 9.3 18.5 8.9 18.95 8.9 19.55 M16.85 14.5 Q16.85 13.9 16.4 13.45 16.0 13.05 15.4 13.05 14.8 13.05 14.35 13.45 13.95 13.9 13.95 14.5 13.95 15.1 14.35 15.5 14.8 15.95 15.4 15.95 16.0 15.95 16.4 15.5 16.85 15.1 16.85 14.5 M16.5 18.4 Q16.1 18.0 15.5 18.0 14.9 18.0 14.45 18.4 14.05 18.85 14.05 19.45 14.05 20.05 14.45 20.45 14.9 20.9 15.5 20.9 16.1 20.9 16.5 20.45 16.95 20.05 16.95 19.45 16.95 18.85 16.5 18.4" fill="url(#gradient12)" fill-rule="evenodd" stroke="none"/>
    <path d="M10.95 10.0 L10.95 9.0 9.95 9.0 9.95 10.0 10.95 10.0 M11.2 8.55 Q11.6 8.95 11.6 9.45 11.6 9.95 11.2 10.3 10.85 10.7 10.35 10.7 9.85 10.7 9.45 10.3 9.1 9.95 9.1 9.45 9.1 8.95 9.45 8.55 9.85 8.2 10.35 8.2 10.85 8.2 11.2 8.55" fill="url(#gradient13)" fill-rule="evenodd" stroke="none"/>
    <path d="M14.95 9.0 L14.95 10.0 15.95 10.0 15.95 9.0 14.95 9.0 M14.05 9.35 Q14.05 8.8 14.45 8.4 14.85 8.0 15.4 8.0 15.95 8.0 16.35 8.4 16.75 8.8 16.75 9.35 16.75 9.9 16.35 10.3 15.95 10.7 15.4 10.7 14.85 10.7 14.45 10.3 14.05 9.9 14.05 9.35" fill="url(#gradient14)" fill-rule="evenodd" stroke="none"/>
    <path d="M17.95 7.0 L17.95 19.0 17.95 21.15 17.95 21.5 17.95 22.35 Q17.75 23.0 17.05 23.0 L4.0 23.0 Q3.4 23.0 3.15 22.5 L3.1 22.3 3.05 22.3 3.0 7.0 3.15 6.5 Q3.4 6.0 4.0 6.0 L17.0 6.0 Q17.95 6.05 17.95 7.0 M10.15 6.5 L3.85 6.8 Q3.4 7.05 3.4 8.25 L3.45 21.0 3.6 21.7 Q4.0 22.35 5.4 22.35 L16.6 22.4 Q17.65 22.3 17.65 20.65 L17.5 6.65 Q16.05 6.45 10.15 6.5" fill="url(#gradient15)" fill-rule="evenodd" stroke="none"/>
    <path d="M1.0 7.8 L1.0 1.0 1.7 1.0 Q1.15 1.7 1.35 3.0 1.55 6.1 1.0 7.8" fill="#65503f" fill-rule="evenodd" stroke="none"/>
    <path d="M4.7 8.55 Q5.05 8.2 5.55 8.2 6.05 8.2 6.4 8.55 6.75 8.9 6.75 9.4 L6.4 10.25 Q6.05 10.6 5.55 10.6 5.05 10.6 4.7 10.25 4.35 9.9 4.35 9.4 4.35 8.9 4.7 8.55 M5.0 9.0 L5.0 10.0 6.0 10.0 6.0 9.0 5.0 9.0" fill="url(#gradient16)" fill-rule="evenodd" stroke="none"/>
    <path d="M9.55 13.45 Q9.95 13.05 10.5 13.05 11.05 13.05 11.45 13.45 11.85 13.85 11.85 14.4 11.85 14.95 11.45 15.35 11.05 15.75 10.5 15.75 9.95 15.75 9.55 15.35 9.15 14.95 9.15 14.4 9.15 13.85 9.55 13.45 M9.95 14.0 L9.95 15.0 10.95 15.0 10.95 14.0 9.95 14.0" fill="url(#gradient17)" fill-rule="evenodd" stroke="none"/>
    <path d="M6.9 14.35 Q6.9 14.95 6.5 15.35 6.1 15.75 5.5 15.75 4.9 15.75 4.5 15.35 4.1 14.95 4.1 14.35 4.1 13.75 4.5 13.35 4.9 12.95 5.5 12.95 6.1 12.95 6.5 13.35 6.9 13.75 6.9 14.35 M6.0 15.0 L6.0 14.0 5.0 14.0 5.0 15.0 6.0 15.0" fill="url(#gradient18)" fill-rule="evenodd" stroke="none"/>
    <path d="M6.55 18.3 Q7.0 18.75 7.0 19.35 7.0 19.95 6.55 20.35 6.15 20.8 5.55 20.8 4.95 20.8 4.5 20.35 4.1 19.95 4.1 19.35 4.1 18.75 4.5 18.3 4.95 17.9 5.55 17.9 6.15 17.9 6.55 18.3 M5.0 19.0 L5.0 20.0 6.0 20.0 6.0 19.0 5.0 19.0" fill="url(#gradient19)" fill-rule="evenodd" stroke="none"/>
    <path d="M1.95 22.3 L2.0 22.3 2.0 22.35 1.95 22.3" fill="url(#gradient20)" fill-rule="evenodd" stroke="none"/>
    <path d="M8.9 19.55 Q8.9 18.95 9.3 18.5 9.75 18.1 10.35 18.1 10.95 18.1 11.35 18.5 11.8 18.95 11.8 19.55 11.8 20.15 11.35 20.55 10.95 21.0 10.35 21.0 9.75 21.0 9.3 20.55 8.9 20.15 8.9 19.55 M9.95 19.0 L9.95 20.0 10.95 20.0 10.95 19.0 9.95 19.0" fill="url(#gradient21)" fill-rule="evenodd" stroke="none"/>
    <path d="M15.95 15.0 L15.95 14.0 14.95 14.0 14.95 15.0 15.95 15.0 M16.85 14.5 Q16.85 15.1 16.4 15.5 16.0 15.95 15.4 15.95 14.8 15.95 14.35 15.5 13.95 15.1 13.95 14.5 13.95 13.9 14.35 13.45 14.8 13.05 15.4 13.05 16.0 13.05 16.4 13.45 16.85 13.9 16.85 14.5" fill="url(#gradient22)" fill-rule="evenodd" stroke="none"/>
    <path d="M16.5 18.4 Q16.95 18.85 16.95 19.45 16.95 20.05 16.5 20.45 16.1 20.9 15.5 20.9 14.9 20.9 14.45 20.45 14.05 20.05 14.05 19.45 14.05 18.85 14.45 18.4 14.9 18.0 15.5 18.0 16.1 18.0 16.5 18.4 M14.95 19.0 L14.95 20.0 15.95 20.0 15.95 19.0 14.95 19.0" fill="url(#gradient23)" fill-rule="evenodd" stroke="none"/>
  </g>
  <defs>
    <linearGradient gradientTransform="matrix(0.0, 0.0128, -0.0158, 0.0, 12.95, 12.25)" gradientUnits="userSpaceOnUse" id="gradient0" spreadMethod="pad" x1="-819.2" x2="819.2">
      <stop offset="0.0" stop-color="#30241c"/>
      <stop offset="1.0" stop-color="#150f0e"/>
    </linearGradient>
    <linearGradient gradientTransform="matrix(0.0, 0.0125, -0.0152, 0.0, 12.45, 11.25)" gradientUnits="userSpaceOnUse" id="gradient1" spreadMethod="pad" x1="-819.2" x2="819.2">
      <stop offset="0.0" stop-color="#9f988f"/>
      <stop offset="0.0784313725490196" stop-color="#55493b"/>
      <stop offset="0.34901960784313724" stop-color="#4b4035"/>
      <stop offset="0.4745098039215686" stop-color="#5c5040"/>
      <stop offset="0.6588235294117647" stop-color="#5f5141"/>
      <stop offset="1.0" stop-color="#55493b"/>
    </linearGradient>
    <linearGradient gradientTransform="matrix(0.0, 0.0144, -0.0152, 0.0, 13.15, 12.85)" gradientUnits="userSpaceOnUse" id="gradient2" spreadMethod="pad" x1="-819.2" x2="819.2">
      <stop offset="0.0" stop-color="#887669"/>
      <stop offset="0.0784313725490196" stop-color="#5d4a35"/>
      <stop offset="0.34901960784313724" stop-color="#584533"/>
      <stop offset="0.4745098039215686" stop-color="#5c5040"/>
      <stop offset="0.6588235294117647" stop-color="#574433"/>
      <stop offset="0.9019607843137255" stop-color="#513d33"/>
      <stop offset="1.0" stop-color="#493636"/>
    </linearGradient>
    <linearGradient gradientTransform="matrix(1.0E-4, 0.0011, -0.0013, 1.0E-4, 21.95, 8.05)" gradientUnits="userSpaceOnUse" id="gradient3" spreadMethod="pad" x1="-819.2" x2="819.2">
      <stop offset="0.0" stop-color="#7a6153"/>
      <stop offset="1.0" stop-color="#5b4d3d"/>
    </linearGradient>
    <linearGradient gradientTransform="matrix(0.0, 0.0013, -0.0013, 0.0, 20.45, 12.5)" gradientUnits="userSpaceOnUse" id="gradient4" spreadMethod="pad" x1="-819.2" x2="819.2">
      <stop offset="0.0" stop-color="#6e5b49"/>
      <stop offset="1.0" stop-color="#503d30"/>
    </linearGradient>
    <linearGradient gradientTransform="matrix(0.0, 0.0011, -0.0013, 0.0, 23.45, 12.6)" gradientUnits="userSpaceOnUse" id="gradient5" spreadMethod="pad" x1="-819.2" x2="819.2">
      <stop offset="0.0" stop-color="#6e5b49"/>
      <stop offset="1.0" stop-color="#503d30"/>
    </linearGradient>
    <linearGradient gradientTransform="matrix(0.0, 0.0012, -0.0013, 0.0, 23.35, 15.4)" gradientUnits="userSpaceOnUse" id="gradient6" spreadMethod="pad" x1="-819.2" x2="819.2">
      <stop offset="0.0" stop-color="#6e5b49"/>
      <stop offset="1.0" stop-color="#503d30"/>
    </linearGradient>
    <linearGradient gradientTransform="matrix(0.0, 0.0011, -0.0013, 0.0, 20.35, 15.45)" gradientUnits="userSpaceOnUse" id="gradient7" spreadMethod="pad" x1="-819.2" x2="819.2">
      <stop offset="0.0" stop-color="#6e5b49"/>
      <stop offset="1.0" stop-color="#503d30"/>
    </linearGradient>
    <linearGradient gradientTransform="matrix(0.0, 0.0013, -0.0013, 0.0, 23.5, 18.55)" gradientUnits="userSpaceOnUse" id="gradient8" spreadMethod="pad" x1="-819.2" x2="819.2">
      <stop offset="0.0" stop-color="#6e5b49"/>
      <stop offset="1.0" stop-color="#503d30"/>
    </linearGradient>
    <linearGradient gradientTransform="matrix(0.0, 0.0011, -0.0013, 0.0, 20.45, 18.45)" gradientUnits="userSpaceOnUse" id="gradient9" spreadMethod="pad" x1="-819.2" x2="819.2">
      <stop offset="0.0" stop-color="#6e5b49"/>
      <stop offset="1.0" stop-color="#503d30"/>
    </linearGradient>
    <linearGradient gradientTransform="matrix(0.0, 0.0125, -0.0152, 0.0, 12.45, 11.25)" gradientUnits="userSpaceOnUse" id="gradient10" spreadMethod="pad" x1="-819.2" x2="819.2">
      <stop offset="0.0" stop-color="#9f988f"/>
      <stop offset="0.0784313725490196" stop-color="#55493b"/>
      <stop offset="0.34901960784313724" stop-color="#4b4035"/>
      <stop offset="0.4745098039215686" stop-color="#5c5040"/>
      <stop offset="0.6588235294117647" stop-color="#5f5141"/>
      <stop offset="1.0" stop-color="#5f5043"/>
    </linearGradient>
    <linearGradient gradientTransform="matrix(0.0, 0.0112, -0.0104, 0.0, 10.45, 14.5)" gradientUnits="userSpaceOnUse" id="gradient11" spreadMethod="pad" x1="-819.2" x2="819.2">
      <stop offset="0.0" stop-color="#150f0e"/>
      <stop offset="1.0" stop-color="#2b2019"/>
    </linearGradient>
    <linearGradient gradientTransform="matrix(0.0, 0.0095, -0.0087, 0.0, 10.5, 14.45)" gradientUnits="userSpaceOnUse" id="gradient12" spreadMethod="pad" x1="-819.2" x2="819.2">
      <stop offset="0.0" stop-color="#857366"/>
      <stop offset="0.27450980392156865" stop-color="#5d4a36"/>
      <stop offset="0.5254901960784314" stop-color="#463128"/>
      <stop offset="0.7607843137254902" stop-color="#2f2219"/>
      <stop offset="1.0" stop-color="#403024"/>
    </linearGradient>
    <linearGradient gradientTransform="matrix(0.0, -0.0011, 0.0015, 0.0, 10.35, 9.6)" gradientUnits="userSpaceOnUse" id="gradient13" spreadMethod="pad" x1="-819.2" x2="819.2">
      <stop offset="0.0" stop-color="#7f6d5e"/>
      <stop offset="1.0" stop-color="#513e2f"/>
    </linearGradient>
    <linearGradient gradientTransform="matrix(0.0, -0.0012, 0.0016, 0.0, 15.4, 9.45)" gradientUnits="userSpaceOnUse" id="gradient14" spreadMethod="pad" x1="-819.2" x2="819.2">
      <stop offset="0.0" stop-color="#837063"/>
      <stop offset="1.0" stop-color="#513e2f"/>
    </linearGradient>
    <linearGradient gradientTransform="matrix(0.0053, 0.0085, -0.0078, 0.0048, 10.45, 14.7)" gradientUnits="userSpaceOnUse" id="gradient15" spreadMethod="pad" x1="-819.2" x2="819.2">
      <stop offset="0.0" stop-color="#3e3328"/>
      <stop offset="1.0" stop-color="#7a6153"/>
    </linearGradient>
    <linearGradient gradientTransform="matrix(0.0, -0.0012, 0.0015, 0.0, 5.55, 9.5)" gradientUnits="userSpaceOnUse" id="gradient16" spreadMethod="pad" x1="-819.2" x2="819.2">
      <stop offset="0.0" stop-color="#837063"/>
      <stop offset="1.0" stop-color="#513e2f"/>
    </linearGradient>
    <linearGradient gradientTransform="matrix(0.0, -0.001, 0.0016, 0.0, 10.5, 14.65)" gradientUnits="userSpaceOnUse" id="gradient17" spreadMethod="pad" x1="-819.2" x2="819.2">
      <stop offset="0.0" stop-color="#837063"/>
      <stop offset="1.0" stop-color="#513e2f"/>
    </linearGradient>
    <linearGradient gradientTransform="matrix(0.0, -0.0013, 0.0017, 0.0, 5.5, 14.4)" gradientUnits="userSpaceOnUse" id="gradient18" spreadMethod="pad" x1="-819.2" x2="819.2">
      <stop offset="0.0" stop-color="#837063"/>
      <stop offset="1.0" stop-color="#513e2f"/>
    </linearGradient>
    <linearGradient gradientTransform="matrix(0.0, -0.0012, 0.0018, 0.0, 5.55, 19.45)" gradientUnits="userSpaceOnUse" id="gradient19" spreadMethod="pad" x1="-819.2" x2="819.2">
      <stop offset="0.0" stop-color="#837063"/>
      <stop offset="1.0" stop-color="#513e2f"/>
    </linearGradient>
    <linearGradient gradientTransform="matrix(0.0, 0.0125, -0.0152, 0.0, 13.45, 11.55)" gradientUnits="userSpaceOnUse" id="gradient20" spreadMethod="pad" x1="-819.2" x2="819.2">
      <stop offset="0.0" stop-color="#9f988f"/>
      <stop offset="0.0784313725490196" stop-color="#55493b"/>
      <stop offset="0.34901960784313724" stop-color="#4b4035"/>
      <stop offset="0.4745098039215686" stop-color="#5c5040"/>
      <stop offset="0.6588235294117647" stop-color="#5f5141"/>
      <stop offset="1.0" stop-color="#5f5043"/>
    </linearGradient>
    <linearGradient gradientTransform="matrix(0.0, -0.0013, 0.0018, 0.0, 10.35, 19.65)" gradientUnits="userSpaceOnUse" id="gradient21" spreadMethod="pad" x1="-819.2" x2="819.2">
      <stop offset="0.0" stop-color="#837063"/>
      <stop offset="1.0" stop-color="#513e2f"/>
    </linearGradient>
    <linearGradient gradientTransform="matrix(0.0, -0.0013, 0.0018, 0.0, 15.4, 14.6)" gradientUnits="userSpaceOnUse" id="gradient22" spreadMethod="pad" x1="-819.2" x2="819.2">
      <stop offset="0.0" stop-color="#837063"/>
      <stop offset="1.0" stop-color="#513e2f"/>
    </linearGradient>
    <linearGradient gradientTransform="matrix(0.0, -0.0011, 0.0018, 0.0, 15.5, 19.5)" gradientUnits="userSpaceOnUse" id="gradient23" spreadMethod="pad" x1="-819.2" x2="819.2">
      <stop offset="0.0" stop-color="#837063"/>
      <stop offset="1.0" stop-color="#513e2f"/>
    </linearGradient>
  </defs>
</svg>
