<?xml version="1.0" encoding="UTF-8" standalone="no"?>
<svg xmlns:xlink="http://www.w3.org/1999/xlink" height="28.5px" width="22.75px" xmlns="http://www.w3.org/2000/svg">
  <g transform="matrix(1.0, 0.0, 0.0, 1.0, 0.0, 0.0)">
    <path d="M20.5 2.3 L20.8 2.35 Q21.6 2.65 22.05 3.6 L22.4 4.85 22.25 25.05 Q22.15 26.45 21.25 27.3 L19.95 27.8 3.85 27.75 Q1.85 27.8 1.05 27.0 0.5 26.45 0.3 25.6 L0.2 24.55 0.45 25.5 Q1.2 27.0 3.05 27.0 L19.05 27.0 Q20.95 27.0 21.7 25.5 22.05 24.75 22.05 24.0 L22.05 5.0 Q22.05 4.25 21.7 3.5 21.25 2.65 20.5 2.3" fill="#150f0e" fill-opacity="0.5019608" fill-rule="evenodd" stroke="none"/>
    <path d="M0.2 24.55 L0.05 24.0 0.05 5.0 Q-0.1 4.25 0.45 3.5 1.2 2.0 3.05 2.0 L7.25 2.0 6.95 3.0 3.0 3.0 2.05 3.25 Q1.05 3.75 1.05 5.0 L1.05 6.6 1.05 8.7 1.05 15.85 1.05 17.7 1.05 24.0 Q1.05 25.25 2.05 25.75 L3.0 26.0 10.65 26.0 12.6 26.0 15.9 26.0 17.2 26.0 19.0 26.0 19.05 26.0 20.05 25.75 Q21.05 25.25 21.05 24.05 L21.05 5.0 20.8 3.95 20.8 3.9 20.05 3.25 19.05 3.0 19.0 3.0 15.1 3.0 14.95 2.6 14.75 2.0 14.85 2.0 19.05 2.0 20.25 2.2 20.5 2.3 Q21.25 2.65 21.7 3.5 22.05 4.25 22.05 5.0 L22.05 24.0 Q22.05 24.75 21.7 25.5 20.95 27.0 19.05 27.0 L3.05 27.0 Q1.2 27.0 0.45 25.5 L0.2 24.55 M21.05 3.85 L21.8 5.05 Q21.8 3.2 20.5 2.6 L19.4 2.45 19.9 2.75 21.05 3.85 M1.55 2.7 L1.05 3.0 Q0.5 3.45 0.5 4.45 L0.75 4.0 1.55 3.15 2.4 2.65 1.55 2.7" fill="url(#gradient0)" fill-rule="evenodd" stroke="none"/>
    <path d="M20.8 2.35 Q21.95 2.55 22.5 3.65 L22.75 4.75 22.75 25.0 Q22.75 27.25 20.95 28.1 L19.1 28.5 2.25 28.2 Q0.95 28.1 0.5 26.85 L0.3 25.6 Q0.5 26.45 1.05 27.0 1.85 27.8 3.85 27.75 L19.95 27.8 21.25 27.3 Q22.15 26.45 22.25 25.05 L22.4 4.85 22.05 3.6 Q21.6 2.65 20.8 2.35" fill="#150f0e" fill-opacity="0.2901961" fill-rule="evenodd" stroke="none"/>
    <path d="M19.0 3.0 L20.0 3.25 20.05 3.3 Q20.5 3.5 20.75 3.95 L20.8 3.95 21.05 5.0 21.05 24.05 21.0 24.0 Q21.0 25.25 20.05 25.75 L20.0 25.75 19.0 26.0 17.2 26.0 16.5 25.0 19.0 25.0 19.0 24.0 20.0 24.0 20.0 5.0 19.0 5.0 19.0 4.0 16.0 4.0 Q15.4 4.0 15.15 3.5 L15.0 3.0 15.05 3.0 15.1 3.0 19.0 3.0 M15.9 26.0 L12.6 26.0 12.05 25.0 15.15 25.0 15.9 26.0 M10.65 26.0 L3.0 26.0 2.05 25.75 Q1.05 25.25 1.05 24.0 L1.05 17.7 1.2 17.7 2.0 18.0 2.0 24.0 3.0 24.0 3.0 25.0 9.75 25.0 10.65 26.0 M1.05 6.6 L1.05 5.0 Q1.05 3.75 2.05 3.25 L3.0 3.0 6.95 3.0 7.0 3.0 Q7.0 4.0 6.0 4.0 L3.0 4.0 3.0 5.0 2.0 5.0 2.0 6.9 1.05 6.6" fill="url(#gradient1)" fill-rule="evenodd" stroke="none"/>
    <path d="M21.05 3.85 L19.9 2.75 19.4 2.45 20.5 2.6 Q21.8 3.2 21.8 5.05 L21.05 3.85 M1.55 2.7 L2.4 2.65 1.55 3.15 0.75 4.0 0.5 4.45 Q0.5 3.45 1.05 3.0 L1.55 2.7" fill="#191311" fill-rule="evenodd" stroke="none"/>
    <path d="M7.25 2.0 L7.3 2.0 7.35 1.75 7.95 0.75 Q8.7 0.0 10.0 0.0 L12.0 0.0 Q13.85 0.0 14.6 1.4 L14.65 1.5 14.7 1.7 14.75 1.75 14.85 2.0 14.75 2.0 14.95 2.6 15.05 3.0 15.0 3.0 15.15 3.5 Q15.4 4.0 16.0 4.0 L19.0 4.0 19.0 5.0 16.25 5.0 16.0 5.0 16.0 6.0 6.0 6.0 6.0 5.0 7.15 5.0 15.15 5.0 15.8 5.0 15.0 4.75 Q14.0 4.25 14.0 3.0 14.0 1.75 13.0 1.25 L12.0 1.0 10.0 1.0 9.0 1.25 Q8.0 1.75 8.0 3.0 8.0 4.25 7.0 4.75 L6.0 5.0 5.75 5.0 3.0 5.0 3.0 4.0 6.0 4.0 Q7.0 4.0 7.0 3.0 L6.95 3.0 7.25 2.0" fill="#241817" fill-rule="evenodd" stroke="none"/>
    <path d="M6.0 5.0 L6.0 6.0 16.0 6.0 16.0 5.0 16.25 5.0 Q16.4 6.3 15.8 6.5 L6.1 6.5 Q5.75 6.3 5.75 5.4 L5.75 5.0 6.0 5.0" fill="#604d3b" fill-rule="evenodd" stroke="none"/>
    <path d="M7.35 1.75 L7.4 1.5 Q7.6 1.05 7.95 0.75 L7.35 1.75 M14.65 1.5 L14.7 1.7 14.65 1.5 M19.0 5.0 L20.0 5.0 20.0 24.0 19.0 24.0 19.0 5.0 M19.0 24.0 L19.0 25.0 16.5 25.0 15.15 25.0 12.05 25.0 9.75 25.0 3.0 25.0 3.0 24.0 2.0 24.0 2.0 18.0 2.0 16.1 2.0 9.05 2.0 6.9 2.0 5.0 3.0 5.0 3.0 24.0 3.65 24.0 5.9 24.0 19.0 24.0 M10.0 9.15 L10.0 9.0 12.0 9.0 12.0 10.0 16.0 10.0 16.0 10.25 16.0 11.0 10.0 11.0 10.0 9.15 M10.0 14.55 L10.0 14.0 12.0 14.0 12.0 15.0 16.0 15.0 16.0 15.25 16.0 16.0 10.0 16.0 10.0 14.55 M10.0 19.7 L10.0 19.0 12.0 19.0 12.0 20.0 16.0 20.0 16.0 20.3 16.0 21.0 10.0 21.0 10.0 19.7" fill="url(#gradient2)" fill-rule="evenodd" stroke="none"/>
    <path d="M16.25 5.0 L19.0 5.0 19.0 24.0 5.9 24.0 5.75 23.95 Q4.95 23.55 5.05 23.3 5.15 23.05 4.85 22.7 L4.05 21.8 Q3.7 21.25 4.4 20.85 L5.2 20.5 5.65 20.25 6.0 21.0 7.0 21.0 7.35 20.4 8.55 20.75 9.3 20.8 Q9.1 21.7 10.65 21.8 L16.3 21.95 16.45 21.35 16.5 21.1 Q16.7 20.05 15.95 19.65 L14.45 19.45 12.45 19.3 Q12.5 18.6 11.55 18.45 L10.6 18.45 9.95 18.6 Q9.35 19.05 9.4 20.3 L9.0 19.95 7.6 19.9 8.6 17.8 9.1 17.85 15.9 18.0 17.65 17.9 17.65 17.95 17.95 19.95 Q18.15 21.1 17.85 21.6 L17.05 22.5 15.75 22.85 12.75 22.55 9.45 22.25 7.8 22.6 7.6 22.65 7.1 22.8 7.65 22.75 8.15 22.75 11.0 22.8 14.1 23.25 Q17.4 23.45 18.35 22.35 L18.35 17.3 18.35 10.6 Q18.45 5.35 17.85 5.65 L17.75 12.2 17.65 17.75 17.45 17.7 13.15 17.4 9.4 16.85 8.1 16.3 6.0 16.3 4.5 16.4 Q4.15 16.05 5.0 14.85 L5.25 14.5 6.0 16.0 7.0 16.0 9.0 12.0 8.0 12.0 6.45 15.05 6.0 14.0 5.5 14.0 5.65 13.45 5.1 13.35 Q4.75 13.3 4.35 12.7 3.95 12.05 4.55 11.9 L5.25 11.85 Q11.95 12.05 8.3 11.5 L6.6 11.25 Q5.95 11.2 5.45 10.8 L5.1 10.35 Q4.8 10.15 5.35 9.7 L6.0 11.0 7.0 11.0 9.0 7.0 8.0 7.0 7.35 8.3 7.15 8.3 6.7 8.3 Q5.35 8.4 4.75 7.85 L4.4 7.3 Q4.05 6.6 3.85 5.5 L5.75 5.4 Q5.75 6.3 6.1 6.5 L15.8 6.5 Q16.4 6.3 16.25 5.0 M16.6 10.9 Q17.0 9.8 15.45 9.55 L13.0 9.45 Q12.35 9.45 12.35 9.15 L12.35 8.5 11.6 8.35 11.0 8.45 9.8 8.75 9.4 9.45 Q9.1 10.3 9.5 10.95 L9.55 11.05 Q9.7 11.45 10.0 11.65 13.0 12.05 16.3 11.6 L16.55 11.15 16.6 10.9 M16.4 15.85 Q16.8 14.8 15.25 14.55 L12.95 14.45 Q12.35 14.4 12.3 14.15 L12.3 13.55 Q12.25 13.3 11.3 13.35 L10.35 13.4 Q10.05 13.4 9.8 13.7 9.3 14.25 9.45 15.6 9.3 16.45 10.35 16.75 13.5 17.4 16.3 16.7 L16.4 15.85" fill="url(#gradient3)" fill-rule="evenodd" stroke="none"/>
    <path d="M15.15 5.0 Q14.15 4.75 13.85 4.0 L13.55 2.75 Q13.35 1.9 12.7 1.7 L10.65 1.4 Q9.2 1.35 8.75 2.15 L8.4 3.0 Q8.2 4.65 7.15 5.0 L6.0 5.0 7.0 4.75 Q8.0 4.25 8.0 3.0 8.0 1.75 9.0 1.25 L10.0 1.0 12.0 1.0 13.0 1.25 Q14.0 1.75 14.0 3.0 14.0 4.25 15.0 4.75 L15.8 5.0 15.15 5.0" fill="#7b6859" fill-rule="evenodd" stroke="none"/>
    <path d="M7.15 5.0 Q8.2 4.65 8.4 3.0 L8.75 2.15 Q9.2 1.35 10.65 1.4 L12.7 1.7 Q13.35 1.9 13.55 2.75 L13.85 4.0 Q14.15 4.75 15.15 5.0 L7.15 5.0 M12.0 4.0 L12.0 2.0 10.0 2.0 10.0 4.0 12.0 4.0" fill="#5a4733" fill-rule="evenodd" stroke="none"/>
    <path d="M12.0 4.0 L10.0 4.0 10.0 2.0 12.0 2.0 12.0 4.0" fill="url(#gradient4)" fill-rule="evenodd" stroke="none"/>
    <path d="M16.0 10.25 L16.0 10.0 12.0 10.0 12.0 9.0 10.0 9.0 10.0 9.15 Q9.25 10.15 9.5 10.95 9.1 10.3 9.4 9.45 L9.8 8.75 11.0 8.45 11.6 8.35 12.35 8.5 12.35 9.15 Q12.35 9.45 13.0 9.45 L15.45 9.55 Q17.0 9.8 16.6 10.9 L16.0 10.25 M9.4 20.3 Q9.35 19.05 9.95 18.6 L10.6 18.45 11.55 18.45 Q12.5 18.6 12.45 19.3 L14.45 19.45 15.95 19.65 Q16.7 20.05 16.5 21.1 16.5 20.5 16.0 20.3 L16.0 20.0 12.0 20.0 12.0 19.0 10.0 19.0 10.0 19.7 9.5 20.4 9.4 20.45 9.4 20.3 M16.0 15.25 L16.0 15.0 12.0 15.0 12.0 14.0 10.0 14.0 10.0 14.55 9.55 15.25 9.45 15.6 Q9.3 14.25 9.8 13.7 10.05 13.4 10.35 13.4 L11.3 13.35 Q12.25 13.3 12.3 13.55 L12.3 14.15 Q12.35 14.4 12.95 14.45 L15.25 14.55 Q16.8 14.8 16.4 15.85 L16.0 15.25" fill="#47372f" fill-rule="evenodd" stroke="none"/>
    <path d="M16.0 10.25 L16.6 10.9 16.55 11.15 16.3 11.6 Q13.0 12.05 10.0 11.65 9.7 11.45 9.55 11.05 L9.5 10.95 Q9.25 10.15 10.0 9.15 L10.0 11.0 16.0 11.0 16.0 10.25 M16.5 21.1 L16.45 21.35 16.3 21.95 10.65 21.8 Q9.1 21.7 9.3 20.8 L9.4 20.45 9.5 20.4 10.0 19.7 10.0 21.0 16.0 21.0 16.0 20.3 Q16.5 20.5 16.5 21.1 M16.0 15.25 L16.4 15.85 16.3 16.7 Q13.5 17.4 10.35 16.75 9.3 16.45 9.45 15.6 L9.55 15.25 10.0 14.55 10.0 16.0 16.0 16.0 16.0 15.25" fill="#766455" fill-rule="evenodd" stroke="none"/>
    <path d="M17.65 17.75 L17.75 12.2 17.85 5.65 Q18.45 5.35 18.35 10.6 L18.35 17.3 18.35 22.35 Q17.4 23.45 14.1 23.25 L11.0 22.8 8.15 22.75 7.65 22.75 7.1 22.8 7.6 22.65 7.8 22.6 9.45 22.25 12.75 22.55 15.75 22.85 17.05 22.5 17.85 21.6 Q18.15 21.1 17.95 19.95 L17.65 17.95 17.65 17.9 17.65 17.75" fill="#543934" fill-rule="evenodd" stroke="none"/>
    <path d="M5.75 5.4 L3.85 5.5 3.6 5.5 3.65 24.0 3.0 24.0 3.0 5.0 5.75 5.0 5.75 5.4" fill="url(#gradient5)" fill-rule="evenodd" stroke="none"/>
    <path d="M17.65 17.9 L15.9 18.0 9.1 17.85 8.6 17.8 9.0 17.0 8.0 17.0 7.7 17.65 7.2 17.55 5.65 17.5 4.5 18.1 Q3.55 18.8 4.65 19.15 L5.15 19.3 5.65 20.25 5.2 20.5 4.4 20.85 Q3.7 21.25 4.05 21.8 L4.85 22.7 Q5.15 23.05 5.05 23.3 4.95 23.55 5.75 23.95 L5.9 24.0 3.65 24.0 3.6 5.5 3.85 5.5 Q4.05 6.6 4.4 7.3 L4.75 7.85 Q5.35 8.4 6.7 8.3 L7.15 8.3 7.35 8.3 7.15 8.7 6.05 9.15 6.0 9.0 5.0 9.0 5.35 9.7 Q4.8 10.15 5.1 10.35 L5.45 10.8 Q5.95 11.2 6.6 11.25 L8.3 11.5 Q11.95 12.05 5.25 11.85 L4.55 11.9 Q3.95 12.05 4.35 12.7 4.75 13.3 5.1 13.35 L5.65 13.45 5.5 14.0 5.0 14.0 5.25 14.5 5.0 14.85 Q4.15 16.05 4.5 16.4 L6.0 16.3 8.1 16.3 9.4 16.85 13.15 17.4 17.45 17.7 17.65 17.75 17.65 17.9 M7.6 19.9 L9.0 19.95 9.4 20.3 9.4 20.45 9.3 20.8 8.55 20.75 7.35 20.4 7.6 19.9" fill="url(#gradient6)" fill-rule="evenodd" stroke="none"/>
    <path d="M17.2 26.0 L15.9 26.0 15.15 25.0 16.5 25.0 17.2 26.0 M12.6 26.0 L10.65 26.0 9.75 25.0 12.05 25.0 12.6 26.0 M1.05 17.7 L1.05 15.85 2.0 16.1 2.0 18.0 1.2 17.7 1.05 17.7 M1.05 8.7 L1.05 6.6 2.0 6.9 2.0 9.05 1.05 8.7" fill="url(#gradient7)" fill-rule="evenodd" stroke="none"/>
    <path d="M1.05 15.85 L1.05 8.7 2.0 9.05 2.0 16.1 1.05 15.85" fill="url(#gradient8)" fill-rule="evenodd" stroke="none"/>
    <path d="M8.6 17.8 L7.6 19.9 7.35 20.4 7.0 21.0 6.0 21.0 5.65 20.25 5.15 19.3 5.0 19.0 6.0 19.0 6.45 20.05 7.7 17.65 8.0 17.0 9.0 17.0 8.6 17.8 M7.35 8.3 L8.0 7.0 9.0 7.0 7.0 11.0 6.0 11.0 5.35 9.7 5.0 9.0 6.0 9.0 6.05 9.15 6.45 10.05 7.15 8.7 7.35 8.3 M5.5 14.0 L6.0 14.0 6.45 15.05 8.0 12.0 9.0 12.0 7.0 16.0 6.0 16.0 5.25 14.5 5.0 14.0 5.5 14.0" fill="#0d0a07" fill-rule="evenodd" stroke="none"/>
    <path d="M6.05 9.15 L7.15 8.7 6.45 10.05 6.05 9.15 M5.15 19.3 L4.65 19.15 Q3.55 18.8 4.5 18.1 L5.65 17.5 7.2 17.55 7.7 17.65 6.45 20.05 6.0 19.0 5.0 19.0 5.15 19.3" fill="url(#gradient9)" fill-rule="evenodd" stroke="none"/>
  </g>
  <defs>
    <linearGradient gradientTransform="matrix(0.0, 0.0128, -0.0159, 0.0, -21.9, 13.25)" gradientUnits="userSpaceOnUse" id="gradient0" spreadMethod="pad" x1="-819.2" x2="819.2">
      <stop offset="0.0" stop-color="#211914"/>
      <stop offset="1.0" stop-color="#150f0e"/>
    </linearGradient>
    <linearGradient gradientTransform="matrix(0.0, 0.014, -0.0122, 0.0, 11.0, 14.75)" gradientUnits="userSpaceOnUse" id="gradient1" spreadMethod="pad" x1="-819.2" x2="819.2">
      <stop offset="0.0" stop-color="#7b6859"/>
      <stop offset="0.0784313725490196" stop-color="#5d4a35"/>
      <stop offset="0.34901960784313724" stop-color="#584533"/>
      <stop offset="0.4745098039215686" stop-color="#5c5040"/>
      <stop offset="0.6588235294117647" stop-color="#43322c"/>
      <stop offset="0.9019607843137255" stop-color="#513d33"/>
      <stop offset="1.0" stop-color="#493636"/>
    </linearGradient>
    <linearGradient gradientTransform="matrix(0.0, 0.0128, -0.0159, 0.0, -21.95, 13.25)" gradientUnits="userSpaceOnUse" id="gradient2" spreadMethod="pad" x1="-819.2" x2="819.2">
      <stop offset="0.0" stop-color="#30241c"/>
      <stop offset="1.0" stop-color="#150f0e"/>
    </linearGradient>
    <linearGradient gradientTransform="matrix(0.0, 0.0112, -0.0098, 0.0, 11.0, 14.55)" gradientUnits="userSpaceOnUse" id="gradient3" spreadMethod="pad" x1="-819.2" x2="819.2">
      <stop offset="0.0" stop-color="#7e6c5e"/>
      <stop offset="0.10980392156862745" stop-color="#604d3a"/>
      <stop offset="0.20392156862745098" stop-color="#584538"/>
      <stop offset="0.4745098039215686" stop-color="#634f47"/>
      <stop offset="0.8627450980392157" stop-color="#554033"/>
      <stop offset="1.0" stop-color="#655245"/>
    </linearGradient>
    <linearGradient gradientTransform="matrix(0.0, 0.0012, -0.0012, 0.0, 11.0, 3.1)" gradientUnits="userSpaceOnUse" id="gradient4" spreadMethod="pad" x1="-819.2" x2="819.2">
      <stop offset="0.0" stop-color="#2c211a"/>
      <stop offset="1.0" stop-color="#4b3d33"/>
    </linearGradient>
    <linearGradient gradientTransform="matrix(0.0, 0.0111, -0.0017, 0.0, 4.4, 14.3)" gradientUnits="userSpaceOnUse" id="gradient5" spreadMethod="pad" x1="-819.2" x2="819.2">
      <stop offset="0.0" stop-color="#7e6c5e"/>
      <stop offset="1.0" stop-color="#655245"/>
    </linearGradient>
    <linearGradient gradientTransform="matrix(0.0, 0.0112, -0.0098, 0.0, 11.0, 14.55)" gradientUnits="userSpaceOnUse" id="gradient6" spreadMethod="pad" x1="-819.2" x2="819.2">
      <stop offset="0.0" stop-color="#7e6c5e"/>
      <stop offset="0.10980392156862745" stop-color="#604d3a"/>
      <stop offset="0.20392156862745098" stop-color="#584238"/>
      <stop offset="0.4745098039215686" stop-color="#64483e"/>
      <stop offset="0.8627450980392157" stop-color="#553933"/>
      <stop offset="1.0" stop-color="#655245"/>
    </linearGradient>
    <linearGradient gradientTransform="matrix(0.0, 0.014, -0.0122, 0.0, 11.0, 14.75)" gradientUnits="userSpaceOnUse" id="gradient7" spreadMethod="pad" x1="-819.2" x2="819.2">
      <stop offset="0.0" stop-color="#7b6859"/>
      <stop offset="0.0784313725490196" stop-color="#513f2f"/>
      <stop offset="0.34901960784313724" stop-color="#584533"/>
      <stop offset="0.6588235294117647" stop-color="#43322c"/>
      <stop offset="0.9019607843137255" stop-color="#513d33"/>
      <stop offset="1.0" stop-color="#443333"/>
    </linearGradient>
    <linearGradient gradientTransform="matrix(0.0, 0.014, -0.0122, 0.0, 11.0, 14.75)" gradientUnits="userSpaceOnUse" id="gradient8" spreadMethod="pad" x1="-819.2" x2="819.2">
      <stop offset="0.0" stop-color="#7b6859"/>
      <stop offset="0.0784313725490196" stop-color="#5d4a35"/>
      <stop offset="0.34901960784313724" stop-color="#584533"/>
      <stop offset="0.4745098039215686" stop-color="#534539"/>
      <stop offset="0.6588235294117647" stop-color="#43322c"/>
      <stop offset="0.9019607843137255" stop-color="#513d33"/>
      <stop offset="1.0" stop-color="#493636"/>
    </linearGradient>
    <linearGradient gradientTransform="matrix(0.0, 0.0112, -0.0098, 0.0, 11.0, 14.55)" gradientUnits="userSpaceOnUse" id="gradient9" spreadMethod="pad" x1="-819.2" x2="819.2">
      <stop offset="0.0" stop-color="#7e6c5e"/>
      <stop offset="0.10980392156862745" stop-color="#604d3a"/>
      <stop offset="0.20392156862745098" stop-color="#584538"/>
      <stop offset="0.4745098039215686" stop-color="#634f47"/>
      <stop offset="0.8627450980392157" stop-color="#543d34"/>
      <stop offset="1.0" stop-color="#655245"/>
    </linearGradient>
  </defs>
</svg>
