<?xml version="1.0" encoding="UTF-8" standalone="no"?>
<svg xmlns:xlink="http://www.w3.org/1999/xlink" height="37.5px" width="123.3px" xmlns="http://www.w3.org/2000/svg">
  <g transform="matrix(1.0, 0.0, 0.0, 1.0, -9.0, -21.0)">
    <use height="37.4" transform="matrix(1.0, 0.0, 0.0, 1.0, 9.0, 21.1)" width="123.3" xlink:href="#shape0"/>
    <use height="20.25" transform="matrix(1.0004, 0.0, 0.0, 1.0, 58.4, 21.0)" width="40.65" xlink:href="#shape1"/>
    <use height="15.95" transform="matrix(1.0004, 0.0, 0.0, 1.0, 81.3, 33.1)" width="17.15" xlink:href="#shape2"/>
  </g>
  <defs>
    <g id="shape0" transform="matrix(1.0, 0.0, 0.0, 1.0, -9.0, -21.1)">
      <path d="M130.4 47.2 L10.05 47.2 10.05 22.35 130.4 22.35 130.4 47.2" fill="#0000ff" fill-opacity="0.0" fill-rule="evenodd" stroke="none"/>
      <path d="M130.75 29.05 L130.85 28.1 131.35 28.1 131.2 29.55 Q130.7 34.95 131.95 41.0 L132.3 42.75 128.3 42.75 Q115.05 37.3 99.4 33.65 L97.75 33.4 96.85 33.85 96.05 33.8 96.4 33.35 97.3 32.9 98.95 33.15 Q114.6 36.8 127.85 42.25 L131.85 42.25 131.5 40.5 Q130.25 34.45 130.75 29.05 M95.9 25.75 L95.85 25.75 94.85 24.55 94.9 24.55 95.9 25.75 M81.35 33.0 L85.9 33.1 86.0 33.6 81.8 33.5 81.8 37.65 81.4 37.7 81.35 37.15 81.35 33.0 M87.3 33.15 L88.7 33.15 88.7 33.65 87.75 33.65 87.3 33.65 87.3 33.15 M70.45 32.75 L70.4 33.25 64.9 33.1 Q63.5 35.1 58.1 33.1 L19.6 32.3 19.6 31.8 44.5 32.1 57.65 32.6 Q63.05 34.6 64.45 32.6 L70.45 32.75 M64.95 52.55 L65.55 52.95 66.8 53.75 67.55 54.25 72.35 57.5 Q76.95 48.45 78.95 37.35 L79.65 37.25 79.85 37.8 79.4 37.85 Q77.95 45.7 75.25 52.55 L72.8 58.0 72.55 58.5 65.3 53.3 65.35 53.15 64.85 52.8 64.95 52.55 M62.35 22.35 L62.35 22.3 62.45 22.35 62.35 22.35 M57.1 26.2 L57.1 26.7 35.05 26.7 Q34.4 27.3 34.65 27.9 L34.6 27.9 Q33.65 27.05 34.6 26.2 L44.5 26.2 57.1 26.2 M51.05 27.7 L51.5 27.7 51.5 28.15 51.0 28.15 51.05 27.7 M44.35 31.05 L43.7 30.55 33.85 30.55 33.85 31.0 33.35 31.0 33.4 30.05 43.25 30.05 44.5 31.05 44.35 31.05 M45.2 27.7 L45.65 27.7 45.65 28.15 45.2 28.15 45.2 27.7 M11.75 30.35 L11.3 30.35 11.3 27.9 11.3 27.25 13.1 27.25 13.1 27.75 11.75 27.75 11.75 30.35 M9.45 30.35 L10.05 30.35 10.05 30.85 9.45 30.85 9.45 30.35 M10.5 31.15 L19.15 31.15 19.15 31.65 10.5 31.65 10.5 31.15 M20.4 31.0 L20.4 30.05 31.75 30.05 31.75 30.55 20.85 30.55 20.85 31.0 20.4 31.0 M21.9 21.6 L22.35 21.6 22.35 23.6 24.35 27.9 24.1 27.9 21.9 23.1 21.9 22.2 21.9 21.6 M22.15 25.45 L20.55 25.45 20.55 27.05 20.1 27.05 20.1 24.95 21.9 24.95 22.15 25.45" fill="#000000" fill-rule="evenodd" stroke="none"/>
      <path d="M108.5 28.55 L109.8 27.6 130.9 27.6 130.85 28.1 130.75 29.05 108.5 28.55 107.15 29.6 99.7 28.75 Q100.55 30.65 99.65 32.2 L98.95 33.15 99.1 27.7 108.15 28.55 108.5 28.55 M57.1 23.1 L57.1 24.0 44.5 24.05 44.5 23.1 57.1 23.1" fill="#d9692d" fill-rule="evenodd" stroke="none"/>
      <path d="M99.65 32.2 Q115.2 35.8 128.1 40.5 L131.5 40.5 131.85 42.25 127.85 42.25 Q114.6 36.8 98.95 33.15 L99.65 32.2 M64.45 32.6 Q63.05 34.6 57.65 32.6 L44.5 32.1 44.5 31.65 44.5 31.05 44.5 30.5 64.4 31.85 64.45 32.6" fill="#5f2d12" fill-rule="evenodd" stroke="none"/>
      <path d="M108.5 28.55 L130.75 29.05 Q130.25 34.45 131.5 40.5 L128.1 40.5 Q115.2 35.8 99.65 32.2 100.55 30.65 99.7 28.75 L107.15 29.6 108.5 28.55 M125.1 33.35 L115.1 33.35 125.1 33.35 M58.45 27.2 L64.15 27.2 64.4 31.85 44.5 30.5 44.5 27.2 45.2 27.2 45.2 27.7 45.2 28.15 45.65 28.15 49.5 28.15 49.5 27.2 51.05 27.2 51.05 27.7 51.0 28.15 51.5 28.15 56.4 28.15 56.4 27.2 57.1 27.2 58.45 27.2 M57.1 24.0 L57.1 26.2 44.5 26.2 44.5 25.0 44.5 24.05 57.1 24.0" fill="#a34f1d" fill-rule="evenodd" stroke="none"/>
      <path d="M65.55 52.95 Q70.15 44.15 71.3 32.75 L73.05 32.8 Q71.8 44.6 66.8 53.75 L65.55 52.95 M74.0 32.8 L79.65 32.95 79.2 36.05 78.95 37.35 Q76.95 48.45 72.35 57.5 L67.55 54.25 Q72.85 44.2 74.0 32.8" fill="#d85f0e" fill-rule="evenodd" stroke="none"/>
      <path d="M70.4 33.25 L70.45 32.75 71.3 32.75 Q70.15 44.15 65.55 52.95 L64.95 52.55 Q69.45 43.65 70.4 33.25 M73.05 32.8 L74.0 32.8 Q72.85 44.2 67.55 54.25 L66.8 53.75 Q71.8 44.6 73.05 32.8" fill="#f49453" fill-rule="evenodd" stroke="none"/>
      <path d="M57.1 26.2 L57.1 24.0 57.1 23.1 58.45 23.85 58.45 27.2 57.1 27.2 57.1 26.7 57.1 26.2 M21.9 22.2 L21.9 23.1 24.1 27.9 19.4 27.9 19.4 26.5 19.4 22.2 21.9 22.2 M22.15 25.45 L21.9 24.95 20.1 24.95 20.1 27.05 20.55 27.05 22.85 27.05 22.15 25.45" fill="#333333" fill-rule="evenodd" stroke="none"/>
      <path d="M44.5 31.05 L44.5 31.65 20.35 31.25 20.4 31.0 20.85 31.0 31.75 30.95 33.35 31.0 33.85 31.0 44.35 31.05 44.5 31.05 M44.5 24.05 L44.5 25.0 32.2 25.0 32.85 23.8 43.25 23.8 44.5 23.1 44.5 24.05 M43.25 27.9 L43.25 29.05 34.6 29.05 34.6 27.9 34.65 27.9 43.25 27.9 M29.55 27.9 L29.4 29.05 19.4 29.05 19.4 27.9 13.1 27.9 13.1 27.75 13.1 27.25 11.3 27.25 11.3 27.9 10.05 28.05 9.85 28.5 9.0 28.5 9.0 27.25 10.05 27.25 10.05 26.5 19.4 26.5 19.4 27.9 24.1 27.9 24.35 27.9 29.55 27.9 M21.9 21.6 L21.9 22.2 19.4 22.2 19.4 21.1 21.9 21.1 21.9 21.6" fill="#7c7c7c" fill-rule="evenodd" stroke="none"/>
      <path d="M44.5 32.1 L19.6 31.8 19.15 31.8 19.15 31.65 19.15 31.15 10.5 31.15 10.05 31.15 10.05 30.85 10.05 30.35 9.45 30.35 9.0 30.35 9.0 28.5 9.85 28.5 10.05 28.05 11.3 27.9 11.3 30.35 11.75 30.35 13.1 30.35 13.1 27.9 19.4 27.9 19.4 29.05 29.4 29.05 29.55 27.9 Q31.1 27.35 31.55 26.2 L32.2 25.0 44.5 25.0 44.5 26.2 34.6 26.2 Q33.65 27.05 34.6 27.9 L34.6 29.05 43.25 29.05 43.25 27.9 43.25 27.2 44.5 27.2 44.5 30.5 44.5 31.05 43.25 30.05 33.4 30.05 33.35 31.0 31.75 30.95 31.75 30.55 31.75 30.05 20.4 30.05 20.4 31.0 20.35 31.25 44.5 31.65 44.5 32.1" fill="#242424" fill-rule="evenodd" stroke="none"/>
      <path d="M115.1 33.35 L125.1 33.35" fill="none" stroke="#412301" stroke-linecap="round" stroke-linejoin="round" stroke-width="1.5"/>
      <path d="M85.9 33.1 L87.3 33.15 88.7 33.15 88.7 33.65 88.7 37.15 M82.65 39.15 L81.95 38.45 M81.4 37.7 L81.35 37.15 81.35 33.0 M86.0 33.6 L81.8 33.5 M87.75 33.65 L87.3 33.65" fill="none" stroke="#000000" stroke-linecap="round" stroke-linejoin="round" stroke-width="0.25"/>
    </g>
    <g id="shape1" transform="matrix(1.0, 0.0, 0.0, 1.0, 0.0, 0.0)">
      <path d="M39.45 6.45 L40.65 6.7 40.5 12.15 39.25 11.95 38.85 11.9 38.0 12.35 22.9 12.0 21.2 11.95 6.0 11.6 5.8 7.25 16.85 7.25 16.95 4.65 37.4 4.75 39.0 4.75 39.0 5.25 39.0 6.35 39.45 6.45 M5.75 6.2 L0.0 6.2 0.0 2.85 Q-0.1 2.05 1.7 1.95 1.85 0.75 2.8 0.7 3.7 0.65 3.95 1.3 L3.95 1.35 3.9 2.0 6.3 2.3 6.65 1.7 7.2 1.0 8.7 1.0 8.95 2.8 9.65 2.9 10.3 3.05 9.45 3.25 Q7.65 3.7 6.75 4.6 6.0 5.25 5.75 6.2 M24.95 8.95 L25.15 8.4 24.95 7.8 24.4 7.6 23.9 7.8 23.7 8.4 23.9 8.95 24.4 9.15 24.95 8.95 M22.1 9.55 Q21.75 9.55 21.6 9.8 21.35 10.0 21.35 10.35 L21.6 10.9 Q21.75 11.1 22.1 11.1 L22.6 10.9 22.8 10.35 Q22.8 10.0 22.6 9.8 22.4 9.55 22.1 9.55 M27.45 9.9 Q27.25 10.1 27.25 10.45 L27.45 11.0 Q27.65 11.2 27.95 11.2 L28.5 11.0 28.7 10.45 28.5 9.9 27.95 9.7 27.45 9.9 M18.95 9.7 L15.9 9.7 Q15.0 10.25 15.9 11.2 L18.95 11.2 Q20.0 10.45 18.95 9.7 M14.3 10.95 L14.5 10.4 14.3 9.85 13.8 9.65 13.3 9.85 Q13.05 10.05 13.05 10.4 L13.3 10.95 13.8 11.15 Q14.1 11.15 14.3 10.95 M6.65 10.1 Q6.65 10.45 6.9 10.65 L7.4 10.9 7.9 10.65 8.1 10.1 7.9 9.55 7.4 9.35 6.9 9.55 Q6.65 9.75 6.65 10.1" fill="#484e53" fill-rule="evenodd" stroke="none"/>
      <path d="M39.25 11.95 L38.15 12.85 22.9 12.35 22.9 12.0 38.0 12.35 38.85 11.9 39.25 11.95 M22.9 16.15 L22.95 16.7 22.55 16.7 22.9 20.25 22.35 18.7 22.1 16.2 22.9 16.15 M21.2 12.3 L5.95 12.0 6.0 11.75 5.95 11.75 5.95 11.6 6.0 11.6 21.2 11.95 21.2 12.05 21.2 12.3 M10.1 0.8 L10.55 0.5 10.55 1.8 9.65 2.9 8.95 2.8 10.1 1.3 10.1 0.8 M18.45 2.75 L18.9 2.75 18.9 3.05 18.45 3.05 18.45 2.75 M26.4 2.75 L26.85 2.75 26.85 3.05 26.4 3.05 26.4 2.75 M33.75 2.75 L34.2 2.75 34.2 3.05 33.75 3.05 33.75 2.75 M39.0 5.25 L39.45 5.25 39.45 6.45 39.0 6.35 39.0 5.25 M24.95 8.95 L24.4 9.15 23.9 8.95 23.7 8.4 23.9 7.8 24.4 7.6 24.95 7.8 25.15 8.4 24.95 8.95 M22.1 9.55 Q22.4 9.55 22.6 9.8 22.8 10.0 22.8 10.35 L22.6 10.9 22.1 11.1 Q21.75 11.1 21.6 10.9 L21.35 10.35 Q21.35 10.0 21.6 9.8 21.75 9.55 22.1 9.55 M27.45 9.9 L27.95 9.7 28.5 9.9 28.7 10.45 28.5 11.0 27.95 11.2 Q27.65 11.2 27.45 11.0 L27.25 10.45 Q27.25 10.1 27.45 9.9 M14.3 10.95 Q14.1 11.15 13.8 11.15 L13.3 10.95 13.05 10.4 Q13.05 10.05 13.3 9.85 L13.8 9.65 14.3 9.85 14.5 10.4 14.3 10.95 M18.95 9.7 Q20.0 10.45 18.95 11.2 L15.9 11.2 Q15.0 10.25 15.9 9.7 L18.95 9.7 M6.65 10.1 Q6.65 9.75 6.9 9.55 L7.4 9.35 7.9 9.55 8.1 10.1 7.9 10.65 7.4 10.9 6.9 10.65 Q6.65 10.45 6.65 10.1" fill="#000000" fill-rule="evenodd" stroke="none"/>
      <path d="M3.95 1.35 L4.0 1.35 6.65 1.7 6.3 2.3 3.9 2.0 3.95 1.35 M8.7 1.0 L10.1 0.0 10.1 0.8 10.1 1.3 8.95 2.8 8.7 1.0 M10.3 3.05 L11.9 3.05 11.9 3.7 18.45 3.7 18.45 3.05 18.9 3.05 19.75 3.05 19.75 3.7 26.4 3.7 26.4 3.05 26.85 3.05 28.2 3.05 28.2 3.7 33.75 3.7 33.75 3.05 34.2 3.05 36.0 3.05 37.4 4.75 16.95 4.65 6.75 4.6 Q7.65 3.7 9.45 3.25 L10.3 3.05" fill="#768189" fill-rule="evenodd" stroke="none"/>
      <path d="M5.8 7.25 L5.75 6.2 Q6.0 5.25 6.75 4.6 L16.95 4.65 16.85 7.25 5.8 7.25 M11.9 3.05 L11.9 2.25 18.45 2.25 18.45 2.75 18.45 3.05 18.45 3.7 11.9 3.7 11.9 3.05 M19.75 3.05 L19.75 2.25 26.4 2.25 26.4 2.75 26.4 3.05 26.4 3.7 19.75 3.7 19.75 3.05 M28.2 3.05 L28.2 2.25 33.75 2.25 33.75 2.75 33.75 3.05 33.75 3.7 28.2 3.7 28.2 3.05" fill="#333333" fill-rule="evenodd" stroke="none"/>
      <path d="M22.9 12.35 L22.9 16.15 22.1 16.2 21.2 16.25 20.55 16.35 20.75 15.05 21.2 12.3 21.2 12.05 21.2 11.95 22.9 12.0 22.9 12.35" fill="#575757" fill-rule="evenodd" stroke="none"/>
      <path d="M22.35 18.7 L22.45 19.75 21.2 16.25 22.1 16.2 22.35 18.7" fill="#383a3d" fill-rule="evenodd" stroke="none"/>
    </g>
    <g id="shape2" transform="matrix(1.0, 0.0, 0.0, 1.0, 0.1, 0.0)">
      <path d="M7.35 4.05 L7.35 0.05 15.05 0.25 14.65 0.7 14.55 0.85 Q13.4 2.35 13.35 3.75 13.3 4.65 13.8 5.55 L16.4 12.65 Q17.15 14.65 15.35 14.95 L12.65 15.45 11.65 15.25 Q10.7 14.75 11.55 13.4 L9.25 5.35 9.1 5.1 Q8.45 4.25 7.8 4.1 L7.35 4.05 M12.75 14.25 L15.45 13.4 12.05 3.75 9.75 3.75 12.75 14.25" fill="#232323" fill-rule="evenodd" stroke="none"/>
      <path d="M14.65 0.7 L15.5 0.75 Q13.85 2.6 13.8 4.25 13.75 5.15 14.25 6.05 L16.85 13.15 Q17.6 15.15 15.8 15.45 L13.1 15.95 Q11.8 15.9 11.65 15.25 L12.65 15.45 15.35 14.95 Q17.15 14.65 16.4 12.65 L13.8 5.55 Q13.3 4.65 13.35 3.75 13.4 2.35 14.55 0.85 L14.65 0.7 M9.1 5.1 Q8.45 4.5 7.8 4.55 L7.8 4.1 Q8.45 4.25 9.1 5.1 M5.9 0.55 L6.35 0.55 Q6.35 5.0 3.55 5.0 L4.6 4.1 Q5.8 3.2 5.9 0.55" fill="#000000" fill-rule="evenodd" stroke="none"/>
      <path d="M4.6 4.1 Q3.95 4.5 3.1 4.5 5.05 3.4 4.6 0.5 L4.5 0.0 5.9 0.05 5.9 0.55 Q5.8 3.2 4.6 4.1" fill="#333333" fill-rule="evenodd" stroke="none"/>
      <path d="M12.75 14.25 L9.75 3.75 12.05 3.75 15.45 13.4 12.75 14.25" fill="#575757" fill-rule="evenodd" stroke="none"/>
      <path d="M1.3 6.05 L0.7 5.45 0.6 5.35 0.0 4.6 M7.35 4.05 Q6.85 5.5 5.95 5.55 L0.85 5.55 0.7 5.45 0.55 5.3" fill="none" stroke="#000000" stroke-linecap="round" stroke-linejoin="round" stroke-width="0.25"/>
      <path d="M7.8 4.55 Q7.3 6.0 6.4 6.05 L1.3 6.05 M0.55 5.3 L0.6 5.35 M7.8 4.55 L7.8 4.1 M0.55 5.3 L0.4 4.55" fill="none" stroke="#000000" stroke-linecap="round" stroke-linejoin="round" stroke-width="0.25"/>
    </g>
  </defs>
</svg>
