<?xml version="1.0" encoding="UTF-8" standalone="no"?>
<svg xmlns:xlink="http://www.w3.org/1999/xlink" height="31.0px" width="33.0px" xmlns="http://www.w3.org/2000/svg">
  <g transform="matrix(1.0, 0.0, 0.0, 1.0, 32.0, -4.0)">
    <path d="M1.0 35.0 L-32.0 35.0 -32.0 4.0 1.0 4.0 1.0 35.0 M-5.1 8.0 L-7.05 8.0 -7.05 7.0 -8.05 7.0 -8.05 6.0 -24.0 6.0 -24.0 7.0 -25.0 7.0 -25.0 8.0 -27.0 8.0 -27.0 30.0 -25.0 30.0 -25.0 31.0 -24.0 31.0 -24.0 32.0 -8.05 32.0 -8.05 31.0 -7.05 31.0 -7.05 30.0 -5.1 30.0 -5.1 8.0 M-12.9 17.5 L-14.7 17.5 -13.75 14.3 -15.5 13.5 -19.2 19.5 -17.4 19.5 -18.35 22.7 -16.55 23.55 -12.9 17.5 M-19.5 9.0 Q-18.25 11.0 -16.0 11.0 -13.85 11.0 -12.6 9.0 L-10.05 9.0 -10.05 29.0 -12.65 29.0 Q-13.8 27.0 -16.0 27.0 -18.25 27.0 -19.5 29.0 L-22.0 29.0 -22.0 9.0 -19.5 9.0" fill="#7b7b7b" fill-opacity="0.0" fill-rule="evenodd" stroke="none"/>
    <path d="M-5.1 8.0 L-5.1 30.0 -7.05 30.0 -7.05 31.0 -8.05 31.0 -8.05 32.0 -24.0 32.0 -24.0 31.0 -25.0 31.0 -25.0 30.0 -27.0 30.0 -27.0 8.0 -25.0 8.0 -25.0 7.0 -24.0 7.0 -24.0 6.0 -8.05 6.0 -8.05 7.0 -7.05 7.0 -7.05 8.0 -5.1 8.0 M-9.05 7.0 L-23.0 7.0 -23.0 8.0 -18.85 8.0 Q-18.55 8.9 -17.8 9.45 -17.0 10.0 -16.0 10.0 -15.1 10.0 -14.3 9.45 -13.55 8.9 -13.25 8.0 L-9.05 8.0 -9.05 7.0 M-9.05 8.0 L-9.05 30.0 -8.05 30.0 -8.05 29.0 -6.05 29.0 -6.05 27.0 -8.05 27.0 -8.05 26.0 -6.05 26.0 -6.05 24.0 -8.05 24.0 -8.05 23.0 -6.05 23.0 -6.05 21.05 -8.05 21.05 -8.05 20.0 -6.05 20.0 -6.05 18.05 -8.05 18.05 -8.05 17.0 -6.05 17.0 -6.05 15.05 -8.05 15.05 -8.05 14.0 -6.05 14.0 -6.05 12.05 -8.05 12.05 -8.05 11.0 -6.05 11.0 -6.05 9.0 -8.05 9.0 -8.05 8.0 -9.05 8.0 M-18.05 8.0 L-14.05 8.0 Q-14.7 9.25 -16.0 9.25 -17.4 9.25 -18.05 8.0 M-19.5 9.0 L-22.0 9.0 -22.0 29.0 -19.5 29.0 Q-18.25 27.0 -16.0 27.0 -13.8 27.0 -12.65 29.0 L-10.05 29.0 -10.05 9.0 -12.6 9.0 Q-13.85 11.0 -16.0 11.0 -18.25 11.0 -19.5 9.0 M-12.9 17.5 L-16.55 23.55 -18.35 22.7 -17.4 19.5 -19.2 19.5 -15.5 13.5 -13.75 14.3 -14.7 17.5 -12.9 17.5 M-16.0 18.5 L-14.7 14.0 -17.4 18.5 -16.0 18.5 -17.4 23.0 -14.7 18.5 -16.0 18.5 M-26.0 11.0 L-24.0 11.0 -24.0 12.05 -26.0 12.05 -26.0 14.0 -24.0 14.0 -24.0 15.05 -26.0 15.05 -26.0 17.0 -24.0 17.0 -24.0 18.05 -26.0 18.05 -26.0 20.0 -24.0 20.0 -24.0 21.05 -26.0 21.05 -26.0 23.0 -24.0 23.0 -24.0 24.0 -26.0 24.0 -26.0 26.0 -24.0 26.0 -24.0 27.0 -26.0 27.0 -26.0 29.0 -24.0 29.0 -24.0 30.0 -23.0 30.0 -23.0 8.0 -24.0 8.0 -24.0 9.0 -26.0 9.0 -26.0 11.0 M-23.0 31.0 L-9.05 31.0 -9.05 30.0 -13.25 30.0 Q-13.55 29.1 -14.3 28.55 -15.1 28.0 -16.0 28.0 -17.0 28.0 -17.8 28.55 -18.55 29.1 -18.85 30.0 L-23.0 30.0 -23.0 31.0 M-16.0 28.75 Q-14.7 28.75 -14.05 30.0 L-18.05 30.0 Q-17.4 28.75 -16.0 28.75" fill="#211d01" fill-opacity="0.3529412" fill-rule="evenodd" stroke="none"/>
    <path d="M-9.05 8.0 L-8.05 8.0 -8.05 9.0 -6.05 9.0 -6.05 11.0 -8.05 11.0 -8.05 12.05 -6.05 12.05 -6.05 14.0 -8.05 14.0 -8.05 15.05 -6.05 15.05 -6.05 17.0 -8.05 17.0 -8.05 18.05 -6.05 18.05 -6.05 20.0 -8.05 20.0 -8.05 21.05 -6.05 21.05 -6.05 23.0 -8.05 23.0 -8.05 24.0 -6.05 24.0 -6.05 26.0 -8.05 26.0 -8.05 27.0 -6.05 27.0 -6.05 29.0 -8.05 29.0 -8.05 30.0 -9.05 30.0 -9.05 8.0" fill="url(#gradient0)" fill-rule="evenodd" stroke="none"/>
    <path d="M-9.05 7.0 L-9.05 8.0 -13.25 8.0 Q-13.55 8.9 -14.3 9.45 -15.1 10.0 -16.0 10.0 -17.0 10.0 -17.8 9.45 -18.55 8.9 -18.85 8.0 L-23.0 8.0 -23.0 7.0 -9.05 7.0 M-18.05 8.0 Q-17.4 9.25 -16.0 9.25 -14.7 9.25 -14.05 8.0 L-18.05 8.0" fill="url(#gradient1)" fill-rule="evenodd" stroke="none"/>
    <path d="M-16.0 18.5 L-17.4 18.5 -14.7 14.0 -16.0 18.5" fill="url(#gradient2)" fill-rule="evenodd" stroke="none"/>
    <path d="M-16.0 18.5 L-14.7 18.5 -17.4 23.0 -16.0 18.5" fill="url(#gradient3)" fill-rule="evenodd" stroke="none"/>
    <path d="M-26.0 11.0 L-26.0 9.0 -24.0 9.0 -24.0 8.0 -23.0 8.0 -23.0 30.0 -24.0 30.0 -24.0 29.0 -26.0 29.0 -26.0 27.0 -24.0 27.0 -24.0 26.0 -26.0 26.0 -26.0 24.0 -24.0 24.0 -24.0 23.0 -26.0 23.0 -26.0 21.05 -24.0 21.05 -24.0 20.0 -26.0 20.0 -26.0 18.05 -24.0 18.05 -24.0 17.0 -26.0 17.0 -26.0 15.05 -24.0 15.05 -24.0 14.0 -26.0 14.0 -26.0 12.05 -24.0 12.05 -24.0 11.0 -26.0 11.0" fill="url(#gradient4)" fill-rule="evenodd" stroke="none"/>
    <path d="M-16.0 28.75 Q-17.4 28.75 -18.05 30.0 L-14.05 30.0 Q-14.7 28.75 -16.0 28.75 M-23.0 31.0 L-23.0 30.0 -18.85 30.0 Q-18.55 29.1 -17.8 28.55 -17.0 28.0 -16.0 28.0 -15.1 28.0 -14.3 28.55 -13.55 29.1 -13.25 30.0 L-9.05 30.0 -9.05 31.0 -23.0 31.0" fill="url(#gradient5)" fill-rule="evenodd" stroke="none"/>
  </g>
  <defs>
    <linearGradient gradientTransform="matrix(0.0, -0.0146, 0.0134, 0.0, -7.55, 19.0)" gradientUnits="userSpaceOnUse" id="gradient0" spreadMethod="pad" x1="-819.2" x2="819.2">
      <stop offset="0.0" stop-color="#f4e768"/>
      <stop offset="1.0" stop-color="#f9edc1"/>
    </linearGradient>
    <linearGradient gradientTransform="matrix(0.0, -0.0159, 0.0018, 0.0, -15.55, 19.05)" gradientUnits="userSpaceOnUse" id="gradient1" spreadMethod="pad" x1="-819.2" x2="819.2">
      <stop offset="0.0" stop-color="#f4e768"/>
      <stop offset="1.0" stop-color="#f9edc1"/>
    </linearGradient>
    <linearGradient gradientTransform="matrix(0.0, -0.0142, 0.0027, 0.0, -15.95, 18.75)" gradientUnits="userSpaceOnUse" id="gradient2" spreadMethod="pad" x1="-819.2" x2="819.2">
      <stop offset="0.0" stop-color="#f4e768"/>
      <stop offset="1.0" stop-color="#f9edc1"/>
    </linearGradient>
    <linearGradient gradientTransform="matrix(0.0, -0.0148, 0.0027, 0.0, -15.95, 18.9)" gradientUnits="userSpaceOnUse" id="gradient3" spreadMethod="pad" x1="-819.2" x2="819.2">
      <stop offset="0.0" stop-color="#f4e768"/>
      <stop offset="1.0" stop-color="#f9edc1"/>
    </linearGradient>
    <linearGradient gradientTransform="matrix(0.0, -0.0159, 0.0134, 0.0, -24.5, 19.0)" gradientUnits="userSpaceOnUse" id="gradient4" spreadMethod="pad" x1="-819.2" x2="819.2">
      <stop offset="0.0" stop-color="#f4e768"/>
      <stop offset="1.0" stop-color="#f9edc1"/>
    </linearGradient>
    <linearGradient gradientTransform="matrix(0.0, -0.0146, 0.0018, 0.0, -15.05, 18.95)" gradientUnits="userSpaceOnUse" id="gradient5" spreadMethod="pad" x1="-819.2" x2="819.2">
      <stop offset="0.0" stop-color="#f4e768"/>
      <stop offset="1.0" stop-color="#f9edc1"/>
    </linearGradient>
  </defs>
</svg>
