<?xml version="1.0" encoding="UTF-8" standalone="no"?>
<svg xmlns:xlink="http://www.w3.org/1999/xlink" height="31.0px" width="33.0px" xmlns="http://www.w3.org/2000/svg">
  <g transform="matrix(1.0, 0.0, 0.0, 1.0, 16.0, 15.0)">
    <use height="31.0" transform="matrix(1.0, 0.0, 0.0, 1.0, -16.0, -15.0)" width="33.0" xlink:href="#shape0"/>
  </g>
  <defs>
    <g id="shape0" transform="matrix(1.0, 0.0, 0.0, 1.0, 16.0, 15.0)">
      <path d="M10.5 -12.45 L10.25 -12.4 10.05 -12.6 7.6 -11.0 Q4.3 -13.0 0.5 -13.0 L-2.0 -12.75 Q-5.0 -12.2 -7.5 -10.35 -9.9 -8.55 -11.35 -5.85 L-11.6 -5.45 -11.5 -5.25 -11.7 -5.3 -12.0 -4.45 -12.8 -1.45 -12.9 -1.5 -13.0 -0.2 -12.95 -0.2 -12.95 0.0 -12.75 3.05 Q-11.95 6.8 -9.6 9.45 L-9.75 9.45 -8.6 10.45 -8.95 11.55 -7.05 12.2 -6.9 11.75 Q-3.5 14.0 0.55 14.0 L3.05 13.75 Q6.95 13.0 9.8 10.3 L10.2 9.9 10.05 8.8 10.15 8.85 10.9 9.15 11.35 8.55 Q13.45 5.7 13.9 2.25 L14.1 0.6 14.0 0.65 13.8 -2.05 12.85 -4.95 12.65 -5.4 12.75 -5.4 11.95 -6.65 10.25 -8.8 11.15 -10.7 Q11.5 -11.05 11.5 -11.45 L11.2 -12.15 10.5 -12.45 M0.5 -7.1 L0.85 -7.05 -2.6 -6.4 -0.9 -6.95 0.5 -7.1 M9.45 -5.0 L10.05 -3.95 10.2 -3.5 10.3 -3.3 10.85 -1.5 11.0 0.3 11.05 0.85 11.0 1.4 10.4 4.1 9.8 3.7 Q10.65 1.15 10.15 -1.35 9.7 -3.65 8.35 -5.4 L8.85 -5.85 9.45 -5.0 M4.1 -0.8 L4.2 -0.95 6.75 -3.8 Q7.65 -2.55 7.95 -0.95 8.3 0.7 7.85 2.4 L5.05 0.1 4.1 -0.8 M1.95 7.95 L0.55 8.1 0.3 8.1 3.55 7.45 1.95 7.95 M3.5 2.55 L1.95 2.85 3.35 0.25 3.35 0.8 Q3.35 1.75 3.5 2.55 M17.0 16.0 L-16.0 16.0 -16.0 -15.0 17.0 -15.0 17.0 16.0 M-3.75 0.3 L-3.65 0.45 -5.95 4.45 Q-6.7 3.15 -6.9 1.95 -7.35 -0.55 -6.35 -2.65 -4.6 -1.0 -3.75 0.3 M-9.85 -1.2 Q-9.6 -2.85 -8.65 -4.6 L-8.1 -4.15 Q-9.8 -1.1 -9.1 2.35 -8.65 4.65 -7.1 6.7 L-7.4 7.4 Q-9.25 5.2 -9.8 2.5 -10.05 1.15 -9.9 -0.55 L-9.95 -0.6 -9.85 -1.2 M-4.55 9.0 L-4.7 9.6 -5.35 9.15 -4.55 9.0" fill="#7b7b7b" fill-opacity="0.0" fill-rule="evenodd" stroke="none"/>
      <path d="M10.5 -12.45 L11.2 -12.15 11.5 -11.45 Q11.5 -11.05 11.15 -10.7 L10.25 -8.8 11.95 -6.65 12.75 -5.4 12.65 -5.4 12.85 -4.95 13.8 -2.05 14.0 0.65 14.1 0.6 13.9 2.25 Q13.45 5.7 11.35 8.55 L10.9 9.15 10.15 8.85 10.05 8.8 10.2 9.9 9.8 10.3 Q6.95 13.0 3.05 13.75 L0.55 14.0 Q-3.5 14.0 -6.9 11.75 L-7.05 12.2 -8.95 11.55 -8.6 10.45 -9.75 9.45 -9.6 9.45 Q-11.95 6.8 -12.75 3.05 L-12.95 0.0 -12.95 -0.2 -13.0 -0.2 -12.9 -1.5 -12.8 -1.45 -12.0 -4.45 -11.7 -5.3 -11.5 -5.25 -11.6 -5.45 -11.35 -5.85 Q-9.9 -8.55 -7.5 -10.35 -5.0 -12.2 -2.0 -12.75 L0.5 -13.0 Q4.3 -13.0 7.6 -11.0 L10.05 -12.6 10.25 -12.4 10.5 -12.45 M6.8 -5.65 L6.1 -6.3 8.4 -7.9 Q9.7 -6.6 10.3 -5.5 L10.75 -5.9 11.05 -6.15 11.1 -6.15 9.1 -8.6 10.4 -11.4 10.6 -11.75 7.6 -9.8 Q3.2 -12.8 -1.85 -11.75 -4.7 -11.25 -7.0 -9.5 -9.2 -7.85 -10.5 -5.35 L-10.4 -4.7 -10.55 -4.35 -10.55 -4.3 Q-10.75 -4.0 -11.1 -4.1 L-11.85 -1.2 -11.75 -1.2 -11.65 -1.45 Q-11.5 -1.75 -11.2 -1.7 L-10.8 -1.35 Q-10.25 -4.9 -7.75 -7.45 -5.25 -10.1 -1.65 -10.8 2.9 -11.6 6.75 -9.15 L4.4 -7.4 Q1.75 -8.65 -1.15 -8.15 -4.6 -7.45 -6.6 -4.6 L-7.0 -4.55 -6.8 -4.35 Q-8.8 -1.4 -8.1 2.15 -7.65 4.65 -5.9 6.5 L-7.15 9.4 -7.4 9.75 -7.65 9.95 -7.4 10.1 -7.6 10.55 -8.0 11.8 -7.3 10.25 Q-2.7 13.85 2.9 12.8 6.55 12.05 9.1 9.55 L9.1 8.15 Q6.6 11.05 2.7 11.8 -2.65 12.8 -6.85 9.3 L-5.5 6.9 -4.8 7.5 -5.1 8.1 -4.2 7.95 Q-1.2 9.8 2.2 9.15 5.65 8.5 7.65 5.65 L10.2 5.15 8.55 4.1 Q9.7 1.45 9.15 -1.15 8.75 -3.55 7.0 -5.45 L8.4 -6.8 7.9 -6.45 7.85 -6.4 6.8 -5.65 M4.5 -9.4 L4.0 -9.5 Q3.3 -9.4 3.4 -8.65 3.6 -8.0 4.25 -8.1 4.95 -8.3 4.8 -8.95 L4.5 -9.4 M1.4 -8.95 L1.85 -9.25 1.95 -9.75 Q1.8 -10.45 1.1 -10.35 0.4 -10.15 0.55 -9.5 0.6 -9.2 0.85 -9.05 L1.4 -8.95 M0.5 -7.1 L-0.9 -6.95 -2.6 -6.4 0.85 -7.05 0.5 -7.1 M3.3 -6.55 L-6.3 -4.7 Q-4.3 -7.3 -1.1 -7.95 1.6 -8.45 4.2 -7.25 L3.3 -6.55 M4.1 -0.8 L5.05 0.1 7.85 2.4 Q8.3 0.7 7.95 -0.95 7.65 -2.55 6.75 -3.8 L4.2 -0.95 4.1 -0.8 M9.45 -5.0 L8.85 -5.85 8.35 -5.4 Q9.7 -3.65 10.15 -1.35 10.65 1.15 9.8 3.7 L10.4 4.1 11.0 1.4 11.05 0.85 11.0 0.3 10.85 -1.5 10.3 -3.3 10.2 -3.5 10.05 -3.95 9.45 -5.0 M8.95 -1.1 Q9.45 1.5 8.35 4.0 L4.35 0.8 Q4.35 2.2 4.8 3.3 L0.35 4.2 Q1.25 1.35 3.35 -1.55 L6.85 -5.3 Q8.5 -3.45 8.95 -1.1 M6.65 -5.5 Q2.6 -2.35 -0.35 1.25 -2.95 4.35 -4.65 7.3 L-5.4 6.7 Q-0.55 -1.25 5.95 -6.15 L6.65 -5.5 M10.95 -4.35 L11.2 -3.65 11.65 -3.6 Q12.05 -3.5 12.05 -3.15 L12.1 -2.6 Q11.9 -2.3 11.65 -2.35 L11.8 -1.65 12.0 0.25 12.85 0.55 13.0 0.8 12.8 -1.85 11.95 -4.55 11.9 -4.55 11.25 -4.5 10.95 -4.35 M12.4 2.0 L12.1 1.6 11.95 1.5 Q11.75 4.55 9.9 7.15 10.2 7.35 10.15 7.6 L10.15 7.7 10.55 7.95 Q12.55 5.25 12.9 2.1 L12.4 2.0 M3.5 2.55 Q3.35 1.75 3.35 0.8 L3.35 0.25 1.95 2.85 3.5 2.55 M1.95 7.95 L3.55 7.45 0.3 8.1 0.55 8.1 1.95 7.95 M0.45 11.0 L0.55 10.45 0.25 10.0 -0.3 9.9 Q-0.95 10.0 -0.85 10.75 -0.65 11.45 0.0 11.3 L0.45 11.0 M3.65 10.3 Q3.5 9.6 2.8 9.7 2.1 9.85 2.2 10.55 2.4 11.25 3.05 11.1 3.75 11.0 3.65 10.3 M8.1 8.05 Q8.8 7.85 8.65 7.2 L8.35 6.75 7.8 6.65 Q7.55 6.7 7.4 6.95 L7.25 7.45 Q7.35 8.15 8.1 8.05 M6.5 9.0 Q6.3 8.3 5.65 8.45 5.35 8.5 5.2 8.75 L5.05 9.25 Q5.2 9.95 5.9 9.85 6.6 9.7 6.5 9.0 M2.15 8.95 Q-1.05 9.55 -3.85 7.85 L7.35 5.7 Q5.4 8.25 2.15 8.95 M-11.95 0.05 Q-12.05 1.5 -11.75 2.85 -11.0 6.65 -8.3 9.35 L-8.25 9.3 -7.85 8.35 Q-10.15 5.95 -10.75 2.65 -11.1 1.2 -10.9 -0.65 L-11.1 -0.4 -11.2 -0.35 Q-11.25 -0.15 -11.45 0.0 L-11.85 0.05 -11.95 0.05 M-3.95 -8.3 Q-4.1 -9.0 -4.8 -8.9 -5.5 -8.75 -5.4 -8.05 -5.25 -7.35 -4.55 -7.45 -3.85 -7.6 -3.95 -8.3 M-1.95 -10.15 Q-2.25 -10.1 -2.4 -9.85 L-2.5 -9.3 Q-2.4 -8.65 -1.7 -8.75 -1.0 -8.9 -1.1 -9.6 -1.3 -10.3 -1.95 -10.15 M-6.15 -6.5 L-6.45 -6.95 -7.0 -7.05 Q-7.3 -7.0 -7.45 -6.75 L-7.55 -6.25 Q-7.45 -5.55 -6.7 -5.65 -6.05 -5.85 -6.15 -6.5 M-9.85 -1.2 L-9.95 -0.6 -9.9 -0.55 Q-10.05 1.15 -9.8 2.5 -9.25 5.2 -7.4 7.4 L-7.1 6.7 Q-8.65 4.65 -9.1 2.35 -9.8 -1.1 -8.1 -4.15 L-8.65 -4.6 Q-9.6 -2.85 -9.85 -1.2 M-3.75 0.3 Q-4.6 -1.0 -6.35 -2.65 -7.35 -0.55 -6.9 1.95 -6.7 3.15 -5.95 4.45 L-3.65 0.45 -3.75 0.3 M-3.05 -1.7 L-3.2 -2.35 0.25 -3.05 Q-2.85 0.25 -5.8 6.3 -7.45 4.45 -7.9 2.1 -8.55 -1.3 -6.65 -4.25 -4.1 -2.0 -2.9 -0.25 L-3.05 -1.7 M-4.55 9.0 L-5.35 9.15 -4.7 9.6 -4.55 9.0 M-2.3 9.65 Q-2.45 8.95 -3.15 9.05 -3.85 9.25 -3.7 9.9 L-3.4 10.35 -2.9 10.45 Q-2.2 10.35 -2.3 9.65" fill="#211d01" fill-opacity="0.3529412" fill-rule="evenodd" stroke="none"/>
      <path d="M6.8 -5.65 L7.85 -6.4 7.9 -6.45 8.4 -6.8 7.0 -5.45 Q8.75 -3.55 9.15 -1.15 9.7 1.45 8.55 4.1 L10.2 5.15 7.65 5.65 Q5.65 8.5 2.2 9.15 -1.2 9.8 -4.2 7.95 L-5.1 8.1 -4.8 7.5 -5.5 6.9 -6.85 9.3 Q-2.65 12.8 2.7 11.8 6.6 11.05 9.1 8.15 L9.1 9.55 Q6.55 12.05 2.9 12.8 -2.7 13.85 -7.3 10.25 L-8.0 11.8 -7.6 10.55 -7.4 10.1 -7.65 9.95 -7.4 9.75 -7.15 9.4 -5.9 6.5 Q-7.65 4.65 -8.1 2.15 -8.8 -1.4 -6.8 -4.35 L-7.0 -4.55 -6.6 -4.6 Q-4.6 -7.45 -1.15 -8.15 1.75 -8.65 4.4 -7.4 L6.75 -9.15 Q2.9 -11.6 -1.65 -10.8 -5.25 -10.1 -7.75 -7.45 -10.25 -4.9 -10.8 -1.35 L-11.2 -1.7 Q-11.5 -1.75 -11.65 -1.45 L-11.75 -1.2 -11.85 -1.2 -11.1 -4.1 Q-10.75 -4.0 -10.55 -4.3 L-10.55 -4.35 -10.4 -4.7 -10.5 -5.35 Q-9.2 -7.85 -7.0 -9.5 -4.7 -11.25 -1.85 -11.75 3.2 -12.8 7.6 -9.8 L10.6 -11.75 10.4 -11.4 9.1 -8.6 11.1 -6.15 11.05 -6.15 10.75 -5.9 10.3 -5.5 Q9.7 -6.6 8.4 -7.9 L6.1 -6.3 6.8 -5.65 M3.3 -6.55 L4.2 -7.25 Q1.6 -8.45 -1.1 -7.95 -4.3 -7.3 -6.3 -4.7 L3.3 -6.55 M6.65 -5.5 L5.95 -6.15 Q-0.55 -1.25 -5.4 6.7 L-4.65 7.3 Q-2.95 4.35 -0.35 1.25 2.6 -2.35 6.65 -5.5 M8.95 -1.1 Q8.5 -3.45 6.85 -5.3 L3.35 -1.55 Q1.25 1.35 0.35 4.2 L4.8 3.3 Q4.35 2.2 4.35 0.8 L8.35 4.0 Q9.45 1.5 8.95 -1.1 M2.15 8.95 Q5.4 8.25 7.35 5.7 L-3.85 7.85 Q-1.05 9.55 2.15 8.95 M-3.05 -1.7 L-2.9 -0.25 Q-4.1 -2.0 -6.65 -4.25 -8.55 -1.3 -7.9 2.1 -7.45 4.45 -5.8 6.3 -2.85 0.25 0.25 -3.05 L-3.2 -2.35 -3.05 -1.7" fill="url(#gradient0)" fill-rule="evenodd" stroke="none"/>
      <path d="M4.5 -9.4 L4.8 -8.95 Q4.95 -8.3 4.25 -8.1 3.6 -8.0 3.4 -8.65 3.3 -9.4 4.0 -9.5 L4.5 -9.4" fill="url(#gradient1)" fill-rule="evenodd" stroke="none"/>
      <path d="M1.4 -8.95 L0.85 -9.05 Q0.6 -9.2 0.55 -9.5 0.4 -10.15 1.1 -10.35 1.8 -10.45 1.95 -9.75 L1.85 -9.25 1.4 -8.95" fill="url(#gradient2)" fill-rule="evenodd" stroke="none"/>
      <path d="M10.95 -4.35 L11.25 -4.5 11.9 -4.55 11.95 -4.55 12.8 -1.85 13.0 0.8 12.85 0.55 12.0 0.25 11.8 -1.65 11.65 -2.35 Q11.9 -2.3 12.1 -2.6 L12.05 -3.15 Q12.05 -3.5 11.65 -3.6 L11.2 -3.65 10.95 -4.35" fill="url(#gradient3)" fill-rule="evenodd" stroke="none"/>
      <path d="M-11.95 0.05 L-11.85 0.05 -11.45 0.0 Q-11.25 -0.15 -11.2 -0.35 L-11.1 -0.4 -10.9 -0.65 Q-11.1 1.2 -10.75 2.65 -10.15 5.95 -7.85 8.35 L-8.25 9.3 -8.3 9.35 Q-11.0 6.65 -11.75 2.85 -12.05 1.5 -11.95 0.05" fill="url(#gradient4)" fill-rule="evenodd" stroke="none"/>
      <path d="M-1.95 -10.15 Q-1.3 -10.3 -1.1 -9.6 -1.0 -8.9 -1.7 -8.75 -2.4 -8.65 -2.5 -9.3 L-2.4 -9.85 Q-2.25 -10.1 -1.95 -10.15" fill="url(#gradient5)" fill-rule="evenodd" stroke="none"/>
      <path d="M-3.95 -8.3 Q-3.85 -7.6 -4.55 -7.45 -5.25 -7.35 -5.4 -8.05 -5.5 -8.75 -4.8 -8.9 -4.1 -9.0 -3.95 -8.3" fill="url(#gradient6)" fill-rule="evenodd" stroke="none"/>
      <path d="M-6.15 -6.5 Q-6.05 -5.85 -6.7 -5.65 -7.45 -5.55 -7.55 -6.25 L-7.45 -6.75 Q-7.3 -7.0 -7.0 -7.05 L-6.45 -6.95 -6.15 -6.5" fill="url(#gradient7)" fill-rule="evenodd" stroke="none"/>
      <path d="M-2.3 9.65 Q-2.2 10.35 -2.9 10.45 L-3.4 10.35 -3.7 9.9 Q-3.85 9.25 -3.15 9.05 -2.45 8.95 -2.3 9.65" fill="url(#gradient8)" fill-rule="evenodd" stroke="none"/>
      <path d="M0.45 11.0 L0.0 11.3 Q-0.65 11.45 -0.85 10.75 -0.95 10.0 -0.3 9.9 L0.25 10.0 0.55 10.45 0.45 11.0" fill="url(#gradient9)" fill-rule="evenodd" stroke="none"/>
      <path d="M12.4 2.0 L12.9 2.1 Q12.55 5.25 10.55 7.95 L10.15 7.7 10.15 7.6 Q10.2 7.35 9.9 7.15 11.75 4.55 11.95 1.5 L12.1 1.6 12.4 2.0" fill="url(#gradient10)" fill-rule="evenodd" stroke="none"/>
      <path d="M3.65 10.3 Q3.75 11.0 3.05 11.1 2.4 11.25 2.2 10.55 2.1 9.85 2.8 9.7 3.5 9.6 3.65 10.3" fill="url(#gradient11)" fill-rule="evenodd" stroke="none"/>
      <path d="M8.1 8.05 Q7.35 8.15 7.25 7.45 L7.4 6.95 Q7.55 6.7 7.8 6.65 L8.35 6.75 8.65 7.2 Q8.8 7.85 8.1 8.05" fill="url(#gradient12)" fill-rule="evenodd" stroke="none"/>
      <path d="M6.5 9.0 Q6.6 9.7 5.9 9.85 5.2 9.95 5.05 9.25 L5.2 8.75 Q5.35 8.5 5.65 8.45 6.3 8.3 6.5 9.0" fill="url(#gradient13)" fill-rule="evenodd" stroke="none"/>
    </g>
    <linearGradient gradientTransform="matrix(0.0, -0.0165, 0.0153, 0.0, -0.4, 0.5)" gradientUnits="userSpaceOnUse" id="gradient0" spreadMethod="pad" x1="-819.2" x2="819.2">
      <stop offset="0.0" stop-color="#f4e768"/>
      <stop offset="1.0" stop-color="#f9edc1"/>
    </linearGradient>
    <linearGradient gradientTransform="matrix(9.0E-4, 0.0, 0.0, 9.0E-4, 4.1, -8.8)" gradientUnits="userSpaceOnUse" id="gradient1" spreadMethod="pad" x1="-819.2" x2="819.2">
      <stop offset="0.0" stop-color="#f4e768"/>
      <stop offset="1.0" stop-color="#f9edc1"/>
    </linearGradient>
    <linearGradient gradientTransform="matrix(9.0E-4, 0.0, 0.0, 9.0E-4, 1.2, -9.65)" gradientUnits="userSpaceOnUse" id="gradient2" spreadMethod="pad" x1="-819.2" x2="819.2">
      <stop offset="0.0" stop-color="#f4e768"/>
      <stop offset="1.0" stop-color="#f9edc1"/>
    </linearGradient>
    <linearGradient gradientTransform="matrix(0.0013, 0.0, 0.0, 0.0033, 11.95, -1.9)" gradientUnits="userSpaceOnUse" id="gradient3" spreadMethod="pad" x1="-819.2" x2="819.2">
      <stop offset="0.0" stop-color="#f4e768"/>
      <stop offset="1.0" stop-color="#f9edc1"/>
    </linearGradient>
    <linearGradient gradientTransform="matrix(0.0025, 0.0, 0.0, 0.0061, -9.95, 4.35)" gradientUnits="userSpaceOnUse" id="gradient4" spreadMethod="pad" x1="-819.2" x2="819.2">
      <stop offset="0.0" stop-color="#f4e768"/>
      <stop offset="1.0" stop-color="#f9edc1"/>
    </linearGradient>
    <linearGradient gradientTransform="matrix(9.0E-4, 0.0, 0.0, 9.0E-4, -1.8, -9.5)" gradientUnits="userSpaceOnUse" id="gradient5" spreadMethod="pad" x1="-819.2" x2="819.2">
      <stop offset="0.0" stop-color="#f4e768"/>
      <stop offset="1.0" stop-color="#f9edc1"/>
    </linearGradient>
    <linearGradient gradientTransform="matrix(9.0E-4, 0.0, 0.0, 9.0E-4, -4.7, -8.2)" gradientUnits="userSpaceOnUse" id="gradient6" spreadMethod="pad" x1="-819.2" x2="819.2">
      <stop offset="0.0" stop-color="#f4e768"/>
      <stop offset="1.0" stop-color="#f9edc1"/>
    </linearGradient>
    <linearGradient gradientTransform="matrix(9.0E-4, 0.0, 0.0, 9.0E-4, -6.85, -6.35)" gradientUnits="userSpaceOnUse" id="gradient7" spreadMethod="pad" x1="-819.2" x2="819.2">
      <stop offset="0.0" stop-color="#f4e768"/>
      <stop offset="1.0" stop-color="#f9edc1"/>
    </linearGradient>
    <linearGradient gradientTransform="matrix(9.0E-4, 0.0, 0.0, 9.0E-4, -3.05, 9.75)" gradientUnits="userSpaceOnUse" id="gradient8" spreadMethod="pad" x1="-819.2" x2="819.2">
      <stop offset="0.0" stop-color="#f4e768"/>
      <stop offset="1.0" stop-color="#f9edc1"/>
    </linearGradient>
    <linearGradient gradientTransform="matrix(9.0E-4, 0.0, 0.0, 9.0E-4, -0.15, 10.6)" gradientUnits="userSpaceOnUse" id="gradient9" spreadMethod="pad" x1="-819.2" x2="819.2">
      <stop offset="0.0" stop-color="#f4e768"/>
      <stop offset="1.0" stop-color="#f9edc1"/>
    </linearGradient>
    <linearGradient gradientTransform="matrix(0.0018, 0.0, 0.0, 0.0039, 11.4, 4.7)" gradientUnits="userSpaceOnUse" id="gradient10" spreadMethod="pad" x1="-819.2" x2="819.2">
      <stop offset="0.0" stop-color="#f4e768"/>
      <stop offset="1.0" stop-color="#f9edc1"/>
    </linearGradient>
    <linearGradient gradientTransform="matrix(9.0E-4, 0.0, 0.0, 9.0E-4, 2.9, 10.4)" gradientUnits="userSpaceOnUse" id="gradient11" spreadMethod="pad" x1="-819.2" x2="819.2">
      <stop offset="0.0" stop-color="#f4e768"/>
      <stop offset="1.0" stop-color="#f9edc1"/>
    </linearGradient>
    <linearGradient gradientTransform="matrix(9.0E-4, 0.0, 0.0, 9.0E-4, 7.95, 7.35)" gradientUnits="userSpaceOnUse" id="gradient12" spreadMethod="pad" x1="-819.2" x2="819.2">
      <stop offset="0.0" stop-color="#f4e768"/>
      <stop offset="1.0" stop-color="#f9edc1"/>
    </linearGradient>
    <linearGradient gradientTransform="matrix(9.0E-4, 0.0, 0.0, 9.0E-4, 5.75, 9.1)" gradientUnits="userSpaceOnUse" id="gradient13" spreadMethod="pad" x1="-819.2" x2="819.2">
      <stop offset="0.0" stop-color="#f4e768"/>
      <stop offset="1.0" stop-color="#f9edc1"/>
    </linearGradient>
  </defs>
</svg>
