<?xml version="1.0" encoding="UTF-8" standalone="no"?>
<svg xmlns:xlink="http://www.w3.org/1999/xlink" height="31.0px" width="33.0px" xmlns="http://www.w3.org/2000/svg">
  <g transform="matrix(1.0, 0.0, 0.0, 1.0, 32.0, -4.0)">
    <path d="M-14.8 11.55 L-11.95 6.75 -12.65 6.35 -16.35 12.75 -16.3 12.8 -8.45 10.6 -17.45 26.7 -17.6 27.05 -15.5 26.45 -15.35 26.8 -20.8 30.45 -20.15 23.75 -19.75 23.7 -19.15 25.85 -19.0 26.2 -12.1 13.9 -12.9 13.5 -19.65 15.4 -15.2 7.55 -15.9 7.2 -21.15 16.6 -20.3 16.4 -20.1 16.3 -13.25 14.4 -18.8 24.25 -19.8 20.75 -20.6 20.95 -21.6 31.9 -12.3 25.6 -12.5 24.8 -16.05 25.8 -6.85 9.3 -14.3 11.45 -14.8 11.55 M-14.15 7.0 L-13.0 5.0 -10.6 6.35 -12.7 9.95 -4.8 7.7 -14.0 24.2 -11.8 23.55 -11.15 26.05 -22.8 33.9 -21.55 20.2 -19.1 19.5 -18.5 21.7 -15.35 16.0 -23.0 18.2 -16.25 5.85 -14.15 7.0" fill="#211d01" fill-opacity="0.3529412" fill-rule="evenodd" stroke="none"/>
    <path d="M1.0 35.0 L-32.0 35.0 -32.0 4.0 1.0 4.0 1.0 35.0 M-14.15 7.0 L-16.25 5.85 -23.0 18.2 -15.35 16.0 -18.5 21.7 -19.1 19.5 -21.55 20.2 -22.8 33.9 -11.15 26.05 -11.8 23.55 -14.0 24.2 -4.8 7.7 -12.7 9.95 -10.6 6.35 -13.0 5.0 -14.15 7.0" fill="#7b7b7b" fill-opacity="0.0" fill-rule="evenodd" stroke="none"/>
    <path d="M-14.8 11.55 L-14.3 11.45 -6.85 9.3 -16.05 25.8 -12.5 24.8 -12.3 25.6 -21.6 31.9 -20.6 20.95 -19.8 20.75 -18.8 24.25 -13.25 14.4 -20.1 16.3 -20.3 16.4 -21.15 16.6 -15.9 7.2 -15.2 7.55 -19.65 15.4 -12.9 13.5 -12.1 13.9 -19.0 26.2 -19.15 25.85 -19.75 23.7 -20.15 23.75 -20.8 30.45 -15.35 26.8 -15.5 26.45 -17.6 27.05 -17.45 26.7 -8.45 10.6 -16.3 12.8 -16.35 12.75 -12.65 6.35 -11.95 6.75 -14.8 11.55" fill="url(#gradient0)" fill-rule="evenodd" stroke="none"/>
  </g>
  <defs>
    <linearGradient gradientTransform="matrix(0.0, -0.0161, 0.0156, 0.0, -14.25, 19.15)" gradientUnits="userSpaceOnUse" id="gradient0" spreadMethod="pad" x1="-819.2" x2="819.2">
      <stop offset="0.0" stop-color="#f4e768"/>
      <stop offset="1.0" stop-color="#f9edc1"/>
    </linearGradient>
  </defs>
</svg>
