<?xml version="1.0" encoding="UTF-8" standalone="no"?>
<svg xmlns:xlink="http://www.w3.org/1999/xlink" height="40.0px" width="50.0px" xmlns="http://www.w3.org/2000/svg">
  <g transform="matrix(1.0, 0.0, 0.0, 1.0, 0.0, 0.0)">
    <use height="40.0" transform="matrix(1.0, 0.0, 0.0, 1.0, 0.0, 0.0)" width="50.0" xlink:href="#shape0"/>
  </g>
  <defs>
    <g id="shape0" transform="matrix(1.0, 0.0, 0.0, 1.0, 0.0, 0.0)">
      <path d="M29.9 19.8 L30.1 19.75 30.1 20.1 30.0 20.3 29.85 20.2 29.35 20.0 29.9 19.8 M34.2 16.55 L34.3 16.75 Q34.15 17.35 34.4 17.7 L34.75 18.05 34.95 18.75 Q34.8 19.35 35.4 20.35 L35.55 20.65 35.55 21.05 35.25 21.4 34.8 22.35 34.8 21.75 35.15 21.05 Q35.3 20.5 35.1 20.2 L34.6 19.9 34.45 19.9 34.3 19.7 34.25 19.55 33.9 17.65 34.05 16.85 34.05 16.75 34.0 16.45 34.2 16.55" fill="#594a23" fill-rule="evenodd" stroke="none"/>
      <path d="M43.35 9.2 Q43.9 9.2 44.0 9.9 44.05 10.45 43.75 10.65 44.2 11.5 44.2 12.7 44.25 13.5 44.9 14.6 L45.55 16.15 45.7 16.25 Q46.3 16.8 46.15 17.9 L46.1 18.4 46.15 18.65 46.2 19.35 46.2 19.45 46.25 21.1 46.2 21.55 46.25 23.1 47.65 23.8 48.25 24.35 48.45 24.8 Q48.5 25.45 47.95 26.25 L46.95 27.25 46.85 27.4 Q47.1 27.7 47.0 28.05 L46.7 28.6 46.25 29.45 45.75 30.5 45.15 31.45 44.0 32.25 43.75 32.45 43.55 32.85 43.65 33.0 43.65 33.05 43.7 33.15 Q43.9 33.85 43.55 34.3 42.95 35.1 41.6 35.1 L40.55 34.85 39.55 34.0 38.5 33.45 36.8 33.3 34.8 33.3 34.2 33.4 33.2 33.35 33.1 33.3 31.75 33.25 29.4 33.4 26.0 33.75 19.55 35.4 18.7 35.45 17.8 35.4 16.95 35.4 16.55 35.45 16.1 35.4 10.65 35.8 Q9.15 35.8 8.2 35.1 7.35 34.55 7.0 33.85 L6.95 33.7 6.15 33.0 Q5.1 32.45 4.9 31.75 L4.75 31.3 4.75 31.15 4.6 31.1 3.75 31.0 2.95 30.95 Q1.9 30.7 1.45 30.35 L0.95 29.85 0.75 29.15 Q0.75 28.75 1.05 28.35 L1.65 27.7 2.5 26.85 2.7 26.5 2.85 26.2 3.35 25.6 4.65 24.65 4.85 24.1 5.1 23.75 Q5.65 23.05 6.7 23.05 L7.55 23.25 7.55 23.2 8.2 23.55 8.4 23.6 8.6 23.6 8.8 23.6 9.5 23.35 10.0 23.2 10.7 22.9 11.1 22.65 11.2 22.55 Q10.85 22.15 10.85 21.5 10.9 21.05 11.2 20.75 L10.65 20.4 10.45 20.2 10.5 19.9 10.95 19.1 11.25 18.65 11.2 18.25 11.2 17.3 11.3 16.95 12.1 16.95 12.15 17.0 12.95 15.65 Q14.4 13.7 16.05 12.35 17.05 11.75 17.85 11.6 18.4 11.15 19.7 10.4 20.5 9.85 20.95 9.75 L21.45 9.65 21.75 9.7 Q22.55 8.8 23.45 8.15 25.15 7.0 25.65 7.0 L25.95 7.1 26.35 7.6 Q26.4 8.05 25.8 8.65 L22.1 12.8 22.65 12.7 23.3 12.85 Q24.1 13.3 24.35 15.0 L24.75 16.2 24.9 16.5 25.1 17.6 25.15 18.15 25.3 18.4 25.45 18.65 25.85 19.25 26.7 19.9 28.1 20.15 29.0 20.0 29.05 19.95 28.6 19.8 28.35 19.55 28.5 19.2 Q28.55 18.9 29.1 18.55 L29.2 18.45 29.05 18.45 Q28.55 18.35 28.35 18.05 28.0 17.55 28.25 17.1 L28.65 16.6 26.2 14.15 Q24.75 12.8 25.0 12.15 25.2 11.75 25.6 11.75 L26.15 11.85 Q27.0 12.15 28.8 13.3 L28.9 13.4 Q30.2 14.2 30.65 14.9 L31.1 14.5 Q31.35 14.25 31.65 14.25 32.0 14.25 32.25 14.9 32.5 15.3 32.4 15.75 L32.65 16.0 32.7 16.1 32.8 16.0 33.2 15.65 Q33.0 15.1 33.25 14.6 L33.4 14.3 30.4 10.9 Q29.55 9.95 29.8 9.4 30.05 9.0 30.5 9.0 L30.95 9.05 Q31.75 9.25 33.0 10.3 L35.15 12.2 36.0 12.9 36.3 12.85 36.4 12.9 36.75 11.8 36.9 11.45 37.25 11.5 Q37.7 11.55 37.8 11.8 38.05 12.2 37.9 13.1 L37.8 13.75 37.9 13.7 38.0 13.7 Q38.55 13.7 38.7 14.2 38.85 14.75 38.35 15.1 L38.65 15.35 38.85 15.6 Q40.0 17.0 40.2 18.1 L40.35 20.05 40.7 19.15 40.8 19.05 40.95 18.0 40.85 17.4 40.6 17.2 Q40.3 16.85 40.6 16.2 L40.1 16.0 39.95 15.45 Q40.0 15.1 40.35 14.85 L40.3 14.75 40.05 14.45 39.8 13.8 39.75 13.8 39.4 13.45 38.9 13.6 38.45 13.6 38.35 13.15 38.5 12.25 38.6 11.95 38.6 11.3 38.5 11.25 37.95 10.5 38.15 10.0 37.85 9.6 37.15 8.8 35.05 7.05 34.8 6.45 34.75 6.0 Q34.8 5.65 35.0 5.5 L35.1 5.4 35.35 5.4 36.15 5.65 36.3 5.75 Q37.4 6.15 38.4 6.9 L39.35 7.5 40.55 8.4 41.05 8.2 41.2 7.85 Q41.4 7.65 41.75 7.65 L42.35 7.85 42.9 8.75 43.1 9.25 43.35 9.2 M43.1 10.55 L43.4 10.3 43.5 9.95 43.35 9.75 43.05 9.8 Q42.7 9.75 42.45 8.95 L42.05 8.25 41.55 8.2 41.4 8.55 41.25 8.65 Q41.0 8.65 40.8 8.85 L40.55 9.2 39.8 8.4 38.55 7.6 36.15 6.2 Q35.45 5.8 35.25 5.9 L35.25 6.3 35.35 6.65 Q36.45 7.45 37.45 8.4 L38.4 9.55 39.4 10.5 39.4 10.55 Q38.75 10.1 38.55 10.3 38.35 10.45 38.6 10.7 L39.0 11.0 39.1 12.05 Q38.8 12.8 38.85 13.1 L39.4 12.9 39.7 13.1 39.9 13.35 40.15 13.35 40.4 13.9 40.45 14.0 40.5 14.2 40.7 14.35 40.95 14.8 40.75 15.2 40.45 15.5 40.7 15.7 41.05 15.6 Q41.35 15.75 41.1 16.25 40.85 16.75 40.95 16.85 L41.25 17.0 41.35 17.05 41.35 17.55 41.4 18.05 41.35 18.35 41.35 18.7 41.25 19.2 41.05 19.55 40.85 20.2 40.85 20.35 40.55 20.8 40.3 20.9 40.0 20.55 39.8 19.4 39.8 19.1 39.7 18.25 39.7 18.2 Q39.5 17.15 38.45 15.95 L37.6 14.85 37.95 14.75 38.2 14.35 Q38.15 14.2 37.8 14.2 37.2 14.15 37.4 13.1 37.6 12.05 37.2 12.0 L36.9 13.05 36.55 13.45 36.2 13.4 36.15 13.45 35.8 13.55 34.8 12.5 33.0 10.9 Q31.5 9.7 30.85 9.55 29.6 9.25 30.75 10.6 L32.2 12.15 34.35 14.55 33.95 14.5 Q33.7 14.55 33.6 14.95 33.55 15.35 33.65 15.55 33.7 15.75 34.25 16.0 L34.6 16.15 34.8 16.75 Q34.55 17.15 34.8 17.45 L35.15 17.75 35.55 18.75 35.5 18.8 Q35.3 19.2 35.8 20.1 L36.0 20.5 36.05 21.35 35.7 21.7 35.3 22.5 35.15 22.7 34.6 22.75 34.55 22.7 Q34.35 22.55 34.3 22.05 L34.3 21.95 34.25 21.65 34.35 21.55 34.7 20.95 34.6 20.4 34.2 20.4 33.95 20.1 33.9 20.1 33.75 19.7 33.65 18.75 33.45 17.95 33.4 17.45 33.55 16.9 33.5 16.4 33.25 16.15 33.05 16.55 32.75 16.65 32.45 16.55 32.4 16.55 32.25 16.35 31.9 15.95 31.9 15.9 31.8 15.1 31.6 14.75 31.25 15.05 30.65 15.8 30.45 15.45 Q30.1 14.8 28.55 13.75 27.1 12.7 26.0 12.35 24.5 11.85 26.55 13.75 L28.95 16.15 29.55 16.75 29.45 16.75 Q28.35 17.1 28.7 17.75 L29.35 18.0 Q29.85 18.15 29.8 18.5 L29.4 18.95 28.9 19.4 Q29.15 19.6 29.65 19.4 30.15 19.15 30.4 19.25 L30.6 19.35 30.55 19.5 30.65 20.15 30.2 20.75 30.45 20.85 30.2 20.9 29.65 20.7 29.15 20.45 26.55 20.35 25.45 19.45 25.25 19.2 25.05 18.75 24.65 17.7 24.6 17.5 24.45 16.7 23.85 15.15 Q23.65 13.55 23.05 13.3 22.45 12.95 21.45 13.7 L20.7 14.25 20.45 14.45 20.65 14.05 Q22.2 11.75 23.05 10.8 L25.4 8.4 Q26.05 7.7 25.75 7.55 25.45 7.35 23.75 8.55 L21.65 10.55 21.7 10.3 21.1 10.2 20.05 10.75 18.8 11.55 Q18.35 11.7 18.0 12.05 L18.1 12.0 18.2 12.0 18.1 12.05 Q17.6 12.1 16.3 12.75 14.65 14.1 13.4 15.9 12.3 17.5 12.15 18.35 L12.1 17.9 11.9 17.45 11.65 17.45 11.65 18.15 11.65 18.8 11.35 19.45 11.0 20.05 11.9 20.6 11.9 20.8 11.9 21.2 11.8 21.15 Q11.35 20.95 11.35 21.55 11.3 22.2 11.8 22.4 L11.45 23.0 11.3 23.15 10.9 23.35 9.65 23.85 8.95 24.05 8.6 24.1 8.0 24.1 7.45 23.7 7.35 23.7 Q6.2 23.2 5.4 24.1 L5.25 24.3 5.1 24.9 4.85 25.1 4.35 25.45 3.6 26.0 3.35 26.35 3.15 26.65 2.85 27.2 1.95 28.1 1.4 28.7 Q1.0 29.35 1.75 29.95 L3.05 30.45 4.75 30.6 Q5.1 30.75 5.2 31.0 L5.3 31.6 6.35 32.55 7.4 33.5 7.45 33.6 Q7.75 34.2 8.4 34.7 9.4 35.35 10.85 35.3 L13.35 35.0 13.5 35.0 16.1 34.85 16.15 34.85 17.4 34.9 19.45 34.9 23.45 33.85 24.45 33.6 24.6 33.55 25.95 33.25 29.35 32.9 31.7 32.75 32.55 32.75 33.15 32.8 34.7 32.8 36.3 32.8 36.65 32.8 38.65 33.0 39.4 33.4 39.85 33.6 39.95 33.7 40.8 34.4 42.45 34.45 Q43.45 34.15 43.2 33.3 L43.2 33.2 43.05 33.0 43.4 32.1 43.9 31.8 44.65 31.3 45.35 30.35 45.75 29.5 45.8 29.15 46.25 28.35 Q46.75 28.05 46.4 27.6 L46.35 27.55 46.55 26.95 47.55 25.9 Q48.4 24.9 47.35 24.25 L47.05 24.0 45.95 23.55 45.75 23.4 45.7 23.35 45.7 23.3 45.75 22.95 45.75 22.8 45.75 21.5 45.75 19.6 45.75 19.35 45.65 18.4 45.75 17.45 Q45.75 17.0 45.35 16.65 L45.1 16.5 44.9 15.8 44.2 14.35 Q43.85 13.5 43.8 12.75 43.75 11.45 43.1 10.55 M17.3 15.5 L17.6 14.9 19.65 12.5 20.55 11.7 20.85 11.45 19.3 13.3 Q19.1 13.35 18.8 13.7 18.25 14.35 18.2 14.9 L17.85 15.55 Q17.75 15.85 17.8 16.1 L17.6 15.75 17.3 15.5 M29.9 19.8 L29.35 20.0 29.85 20.2 30.0 20.3 30.1 20.1 30.1 19.75 29.9 19.8 M34.2 16.55 L34.0 16.45 34.05 16.75 34.05 16.85 33.9 17.65 34.25 19.55 34.3 19.7 34.45 19.9 34.6 19.9 35.1 20.2 Q35.3 20.5 35.15 21.05 L34.8 21.75 34.8 22.35 35.25 21.4 35.55 21.05 35.55 20.65 35.4 20.35 Q34.8 19.35 34.95 18.75 L34.75 18.05 34.4 17.7 Q34.15 17.35 34.3 16.75 L34.2 16.55 M16.55 18.6 L16.85 18.5 14.85 19.55 15.3 19.25 16.55 18.6 M14.25 18.4 L14.2 18.5 14.0 18.7 14.25 18.4 M14.25 20.0 L14.35 19.95 14.15 20.15 14.25 20.0 M14.5 18.2 L14.4 18.2 14.45 18.15 14.5 18.2 M28.95 28.8 L28.85 28.75 29.3 28.9 28.95 28.8" fill="#161202" fill-rule="evenodd" stroke="none"/>
      <path d="M46.75 22.85 L46.7 21.2 46.7 19.4 46.65 19.4 46.6 18.55 46.55 18.45 46.6 18.05 Q46.9 16.75 45.95 15.95 L45.9 15.95 45.3 14.4 Q44.7 13.45 44.7 12.75 L44.25 10.8 44.4 9.9 Q44.25 8.8 43.35 8.8 L43.3 8.65 Q43.05 7.85 42.6 7.5 42.15 7.2 41.75 7.2 41.15 7.2 40.9 7.55 L40.7 7.8 40.6 7.85 38.65 6.55 Q37.55 5.75 36.4 5.35 L36.3 5.3 Q35.7 4.95 35.3 4.95 L35.05 4.95 34.75 5.1 Q34.25 5.45 34.25 6.05 L34.3 6.65 Q34.4 7.25 34.8 7.55 L36.75 9.2 37.45 10.0 37.55 10.1 37.5 10.55 37.7 11.2 37.3 11.05 36.95 11.0 36.6 11.0 36.3 11.6 36.1 12.4 35.45 11.85 35.35 11.75 33.25 9.95 Q31.8 8.85 31.0 8.65 L30.45 8.6 Q29.5 8.6 29.35 9.25 28.9 10.15 30.05 11.25 L32.8 14.4 32.75 14.45 32.7 14.7 Q32.3 13.85 31.6 13.85 31.1 13.85 30.7 14.25 L29.15 13.05 29.0 12.95 Q27.25 11.8 26.3 11.45 L25.55 11.35 Q24.8 11.35 24.5 12.05 24.15 12.95 25.85 14.55 L27.1 15.85 27.2 15.9 27.95 16.65 27.75 16.95 Q27.4 17.7 27.9 18.35 L28.2 18.7 27.75 19.7 26.85 19.45 26.2 19.0 25.75 18.4 25.6 18.15 25.6 18.05 25.55 17.65 25.3 16.3 25.2 16.05 24.8 15.0 Q24.55 12.95 23.5 12.45 L23.1 12.3 23.75 11.5 26.1 9.1 Q26.9 8.2 26.8 7.55 26.6 6.9 26.15 6.7 L25.6 6.6 Q24.85 6.6 23.15 7.75 L21.55 9.2 21.4 9.2 20.75 9.3 19.4 10.0 Q17.95 10.95 17.6 11.2 16.5 11.45 15.7 12.05 14.0 13.4 12.55 15.45 L11.85 16.5 10.9 16.5 10.7 17.2 Q10.5 17.85 10.7 18.4 L10.75 18.6 10.55 18.85 Q10.1 19.4 10.0 19.85 L9.9 20.15 9.85 20.45 10.45 21.0 10.35 21.55 10.5 22.5 10.45 22.55 9.3 22.95 8.35 23.15 8.3 23.15 7.85 22.85 7.65 22.8 6.7 22.6 Q5.45 22.6 4.7 23.5 L4.6 23.6 4.55 23.65 4.05 24.5 3.35 25.05 3.0 25.25 2.4 26.0 2.05 26.6 1.3 27.35 0.65 28.0 Q0.0 28.8 0.0 29.7 L0.0 0.0 50.0 0.0 50.0 40.0 0.0 40.0 0.0 29.85 Q0.05 31.0 1.05 31.8 1.75 32.35 2.95 32.6 L4.15 32.65 4.15 32.75 Q4.55 33.9 5.95 34.6 L6.35 34.8 6.4 34.95 Q6.85 36.0 7.9 36.65 9.2 37.55 10.9 37.55 L12.85 37.35 16.35 37.1 17.4 37.15 17.6 37.1 17.75 37.1 19.05 37.2 20.1 37.1 24.35 35.95 25.15 35.75 25.25 35.75 26.6 35.45 28.7 35.2 28.85 35.2 29.9 35.1 32.25 34.95 34.7 35.1 35.4 35.0 38.7 35.1 39.5 35.55 40.65 36.5 42.15 36.8 Q44.05 36.8 44.85 35.6 45.5 34.7 45.2 33.75 45.9 33.45 46.6 32.6 L47.25 31.6 47.65 30.55 48.1 29.75 48.55 28.8 48.55 28.25 48.6 28.15 49.3 27.45 Q50.15 26.2 49.95 25.2 49.85 24.35 48.8 23.5 L48.15 23.2 46.8 22.85 46.75 22.85 M15.85 36.15 L12.7 36.35 13.7 36.25 13.85 36.25 15.85 36.15 M39.0 15.15 Q39.25 14.7 39.15 14.15 L39.2 14.1 39.45 14.25 39.45 14.3 39.5 14.4 39.6 14.8 39.65 14.9 39.5 15.45 39.5 15.7 39.0 15.15" fill="#161202" fill-opacity="0.0" fill-rule="evenodd" stroke="none"/>
      <path d="M41.25 8.65 L41.4 8.55 41.55 8.2 42.05 8.25 42.45 8.95 Q42.7 9.75 43.05 9.8 L43.35 9.75 43.5 9.95 43.4 10.3 43.1 10.55 43.05 10.8 42.85 10.95 42.4 10.7 41.55 9.7 40.7 9.55 40.65 9.45 Q40.65 9.2 40.95 8.9 L41.25 8.65 M11.8 22.4 Q11.3 22.2 11.35 21.55 11.35 20.95 11.8 21.15 L11.9 21.2 Q12.3 21.35 12.3 21.8 12.35 22.5 11.9 22.45 L11.85 22.4 11.8 22.4 M11.9 20.6 L11.0 20.05 11.35 19.45 11.65 18.8 11.65 18.15 11.65 17.45 11.9 17.45 12.1 17.9 12.15 18.35 12.15 18.4 12.8 19.1 12.85 19.15 Q13.15 19.55 13.0 19.9 L12.35 20.6 11.9 20.6 M30.45 20.85 L30.2 20.75 30.65 20.15 Q30.9 19.6 30.6 19.35 L30.4 19.25 Q30.15 19.15 29.65 19.4 29.15 19.6 28.9 19.4 L29.4 18.95 29.8 18.5 Q29.85 18.15 29.35 18.0 L28.7 17.75 Q28.35 17.1 29.45 16.75 L29.55 16.75 Q30.1 16.6 30.45 16.05 L30.65 15.8 31.25 15.05 31.6 14.75 31.8 15.1 31.9 15.9 31.9 15.95 31.6 16.6 Q31.0 16.4 31.2 17.45 L31.25 17.65 31.3 18.9 Q31.2 19.4 31.45 20.25 L31.65 21.6 31.45 22.45 31.3 22.65 Q31.15 22.7 30.9 22.35 L30.9 21.6 Q31.05 21.1 30.85 20.85 L30.45 20.85 M32.4 16.55 L32.45 16.55 32.75 16.65 33.05 16.55 33.25 16.15 33.5 16.4 33.55 16.9 33.4 17.45 33.45 17.95 Q33.45 18.7 33.05 18.25 L32.75 17.7 32.2 17.25 Q31.85 16.95 31.95 16.65 L32.2 16.45 32.4 16.55 M33.9 20.1 L33.95 20.1 34.2 20.4 34.6 20.4 34.7 20.95 34.35 21.55 34.25 21.65 33.9 21.7 34.0 21.2 33.85 20.7 Q33.6 20.05 33.9 20.1 M36.0 20.5 L35.8 20.1 Q35.3 19.2 35.5 18.8 L35.55 18.75 Q35.85 18.1 36.25 18.0 L36.5 18.6 36.45 19.55 36.55 20.65 Q36.55 21.4 36.2 21.2 L36.0 20.5 M35.15 17.75 L34.8 17.45 Q34.55 17.15 34.8 16.75 L34.85 16.65 Q35.25 16.2 35.65 16.35 36.2 16.65 35.7 17.35 L35.15 17.75 M34.6 16.15 L34.25 16.0 Q33.7 15.75 33.65 15.55 33.55 15.35 33.6 14.95 33.7 14.55 33.95 14.5 L34.35 14.55 34.45 14.6 34.55 14.65 35.0 14.8 35.15 14.75 35.2 14.7 35.7 14.2 35.8 14.15 Q36.05 13.9 36.3 14.25 L36.35 14.85 36.15 15.45 35.45 15.85 35.2 16.15 34.9 16.25 34.6 16.15 M36.15 13.45 L36.2 13.4 36.55 13.45 36.9 13.05 37.2 12.0 Q37.6 12.05 37.4 13.1 37.2 14.15 37.8 14.2 38.15 14.2 38.2 14.35 L37.95 14.75 37.6 14.85 Q37.2 14.85 36.85 14.5 L36.4 14.15 36.1 13.8 Q36.0 13.55 36.15 13.45 M41.35 17.05 L41.25 17.0 40.95 16.85 Q40.85 16.75 41.1 16.25 41.35 15.75 41.05 15.6 L40.7 15.7 40.45 15.5 40.75 15.2 40.95 14.8 40.7 14.35 40.5 14.2 40.45 14.0 40.45 13.95 40.65 13.8 41.05 14.35 Q41.75 15.15 41.75 15.65 41.75 16.8 41.55 16.95 L41.35 17.05 M40.15 13.35 L39.9 13.35 39.7 13.1 39.4 12.9 38.85 13.1 Q38.8 12.8 39.1 12.05 L39.0 11.0 38.6 10.7 Q38.35 10.45 38.55 10.3 38.75 10.1 39.4 10.55 L39.45 10.6 40.25 11.3 40.3 12.1 40.45 12.95 40.25 13.25 40.15 13.35 M35.55 24.35 L35.75 23.85 35.85 23.7 35.95 23.55 Q36.35 23.15 36.65 23.55 L36.75 23.7 Q37.1 24.25 35.9 25.45 L35.15 26.1 Q34.55 26.6 34.35 26.55 33.85 26.5 35.0 25.25 L35.55 24.35 M36.5 22.65 Q36.15 22.7 36.3 22.2 36.35 21.7 36.6 21.55 37.25 21.2 37.15 21.9 37.1 22.65 36.5 22.65" fill="#cf0204" fill-rule="evenodd" stroke="none"/>
      <path d="M43.1 10.55 Q43.75 11.45 43.8 12.75 43.85 13.5 44.2 14.35 L44.9 15.8 45.1 16.5 45.0 16.4 44.75 15.95 Q44.3 15.6 44.45 16.5 L45.0 17.55 45.05 18.55 45.15 18.95 45.2 18.95 45.4 19.45 Q45.6 19.7 45.75 19.35 L45.75 19.6 45.75 21.5 45.75 22.8 45.75 22.95 45.7 23.3 45.7 23.35 45.5 23.75 45.45 23.8 45.2 24.15 44.95 24.5 45.0 24.35 45.4 23.8 45.55 23.3 45.55 23.15 45.5 22.8 45.05 19.6 44.65 18.3 Q44.3 18.35 44.6 19.75 L44.65 21.35 44.4 22.8 44.35 23.3 44.3 23.4 44.25 23.8 43.8 25.45 Q43.25 26.55 43.4 26.7 L43.55 26.65 Q41.9 28.2 40.85 28.25 L40.0 28.35 40.05 28.3 40.4 28.25 Q41.1 28.15 41.15 27.6 L41.15 26.85 40.6 26.0 40.6 25.95 40.85 26.0 41.15 25.45 41.2 24.5 41.45 23.4 41.5 23.25 41.75 22.75 41.85 22.45 41.95 22.0 41.75 21.55 41.95 20.6 41.9 20.2 41.65 19.9 Q41.4 19.9 41.25 20.35 L41.15 21.0 40.8 21.25 40.7 21.05 40.55 20.8 40.85 20.35 40.75 20.75 Q40.65 21.1 40.8 21.15 L41.1 20.75 41.3 20.1 Q41.45 19.8 41.95 19.4 L42.05 18.7 42.05 18.05 Q42.0 17.65 41.6 17.8 L41.4 18.05 41.35 17.55 41.35 17.05 41.55 16.95 Q41.75 16.8 41.75 15.65 41.75 15.15 41.05 14.35 L40.65 13.8 40.45 13.95 40.45 14.0 40.4 13.9 40.15 13.35 40.25 13.25 40.45 12.95 40.3 12.1 40.25 11.3 39.45 10.6 39.4 10.55 39.4 10.5 39.45 10.55 Q40.0 10.9 40.45 10.55 40.9 10.2 40.7 9.55 L41.55 9.7 42.4 10.7 42.85 10.95 43.05 10.8 43.1 10.55 M46.35 27.55 L46.4 27.6 Q46.75 28.05 46.25 28.35 L46.2 28.35 Q45.75 28.6 45.6 28.05 45.5 27.7 45.8 27.5 L46.35 27.55 M45.8 29.15 L45.75 29.5 45.35 30.35 44.65 31.3 43.9 31.8 43.7 31.75 Q43.65 31.5 43.9 31.25 L44.25 30.8 44.55 30.2 44.7 30.25 45.05 30.25 45.6 29.6 45.65 29.4 45.55 29.05 Q45.8 28.9 45.8 29.15 M34.7 32.8 L33.15 32.8 32.55 32.75 31.7 32.75 29.35 32.9 25.95 33.25 24.6 33.55 Q25.9 33.1 25.6 32.5 L26.7 32.4 26.85 32.7 Q27.25 33.2 27.95 32.7 L28.2 32.25 29.55 32.1 31.95 32.05 33.5 32.3 34.0 32.5 34.75 32.7 34.7 32.8 M23.45 33.85 L19.45 34.9 17.4 34.9 16.15 34.85 16.1 34.85 15.7 34.55 16.75 34.3 17.85 34.3 18.85 34.2 18.95 34.4 20.25 34.45 20.6 33.95 21.85 33.7 22.45 33.5 Q22.65 33.9 23.45 33.85 M11.9 21.2 L11.9 20.8 11.9 20.6 12.35 20.6 13.0 19.9 Q13.15 19.55 12.85 19.15 L13.1 19.1 14.0 18.7 14.2 18.5 14.25 20.0 14.15 20.15 14.1 20.15 13.85 20.45 Q13.0 21.4 13.0 22.7 L13.0 23.15 13.05 23.65 13.15 24.15 12.9 24.1 Q12.5 23.95 12.25 23.65 L12.2 23.6 12.0 23.15 11.95 22.7 11.9 22.6 11.9 22.45 Q12.35 22.5 12.3 21.8 12.3 21.35 11.9 21.2 M20.45 14.45 L20.7 14.25 21.45 13.7 Q22.25 14.35 22.95 15.55 L23.05 16.2 23.05 17.8 22.85 18.65 22.15 18.35 22.1 18.3 22.0 18.2 Q20.75 16.9 20.25 14.85 L20.2 14.65 20.45 14.45 M25.25 19.2 L25.45 19.45 25.45 19.55 25.95 20.7 26.4 21.05 26.55 21.55 27.0 22.0 26.8 22.2 26.65 22.35 25.9 21.05 25.85 20.9 25.25 19.2 M30.65 20.15 L30.55 19.5 30.6 19.35 Q30.9 19.6 30.65 20.15 M31.9 15.95 L32.25 16.35 32.4 16.55 32.2 16.45 31.95 16.65 Q31.85 16.95 32.2 17.25 L32.75 17.7 33.05 18.25 Q33.45 18.7 33.45 17.95 L33.65 18.75 33.75 19.7 33.9 20.1 Q33.6 20.05 33.85 20.7 L34.0 21.2 33.9 21.7 34.25 21.65 34.3 21.95 34.3 22.05 34.35 22.7 34.35 22.9 34.35 23.2 34.4 23.7 Q34.5 24.35 34.75 24.5 35.25 24.9 35.55 24.35 L35.0 25.25 Q33.85 26.5 34.35 26.55 34.55 26.6 35.15 26.1 L35.9 25.45 Q37.1 24.25 36.75 23.7 L36.65 23.55 Q36.35 23.15 35.95 23.55 L35.85 23.7 35.75 23.85 35.8 23.7 35.9 23.2 35.9 23.1 35.95 22.75 36.05 21.35 36.0 20.5 36.2 21.2 Q36.55 21.4 36.55 20.65 L36.45 19.55 36.5 18.6 36.25 18.0 Q35.85 18.1 35.55 18.75 L35.15 17.75 35.7 17.35 Q36.2 16.65 35.65 16.35 35.25 16.2 34.85 16.65 L34.8 16.75 34.6 16.15 34.9 16.25 35.2 16.15 35.45 15.85 36.15 15.45 36.35 14.85 36.3 14.25 Q36.05 13.9 35.8 14.15 L35.85 13.95 35.8 13.55 36.15 13.45 Q36.0 13.55 36.1 13.8 L36.4 14.15 36.85 14.5 Q37.2 14.85 37.6 14.85 L38.45 15.95 Q39.5 17.15 39.7 18.2 L39.7 18.25 39.5 17.85 Q38.6 16.85 38.4 18.55 38.2 20.3 38.75 20.5 39.4 20.7 39.7 19.45 L39.8 19.1 39.8 19.4 40.0 20.55 40.3 20.9 40.1 20.95 40.05 21.45 Q40.0 21.85 40.25 22.6 39.75 21.45 39.55 22.05 L39.8 22.65 39.55 22.75 39.4 23.2 39.3 23.7 39.25 24.25 39.15 25.6 38.65 26.85 38.35 27.4 38.2 27.05 Q38.65 26.5 38.75 25.75 L38.8 24.0 38.85 23.7 38.75 23.25 38.75 23.2 38.55 22.75 38.35 22.6 Q38.2 22.55 38.1 22.75 L37.95 23.2 37.9 23.6 37.9 23.7 37.35 25.1 Q36.65 25.9 36.4 26.45 L35.8 27.0 Q35.25 27.65 35.45 28.05 35.65 28.6 36.3 28.45 L37.25 28.0 37.8 28.1 38.3 27.7 38.45 27.9 38.3 27.95 37.3 28.4 36.85 28.7 36.6 28.8 36.4 28.8 36.5 28.9 35.1 28.85 35.35 28.35 Q35.45 28.0 35.2 28.05 L34.65 28.15 34.1 28.0 34.0 27.65 34.0 27.4 33.55 26.95 Q33.35 26.6 33.45 25.7 L33.4 24.35 Q33.15 24.6 33.15 25.65 33.15 26.45 32.7 27.1 L31.6 28.05 30.3 28.65 30.3 28.7 30.0 28.65 Q28.7 28.5 28.85 28.05 L29.0 27.75 29.05 27.75 29.65 27.7 30.95 26.7 31.5 25.9 Q31.7 25.35 31.2 25.5 L31.25 25.35 31.75 24.75 31.85 23.95 31.75 23.65 31.6 23.15 31.45 22.95 31.35 22.7 31.3 22.65 31.45 22.45 31.65 21.6 31.45 20.25 Q31.2 19.4 31.3 18.9 L31.4 19.55 Q31.7 20.65 32.15 20.65 32.75 20.65 32.8 19.7 L32.65 18.35 Q32.55 17.7 32.0 17.2 31.45 16.6 31.25 17.55 L31.25 17.65 31.2 17.45 Q31.0 16.4 31.6 16.6 L31.9 15.95 M41.25 19.2 L41.35 18.7 41.3 19.0 41.25 19.2 M40.55 9.2 L40.8 8.85 Q41.0 8.65 41.25 8.65 L40.95 8.9 Q40.65 9.2 40.65 9.45 L40.55 9.2 M41.5 11.4 Q41.3 11.55 41.5 12.0 L42.4 14.05 42.65 15.75 Q42.85 17.15 43.05 17.2 43.55 17.25 43.55 15.85 43.75 14.45 43.15 13.15 L42.55 11.9 Q41.95 11.0 41.5 11.4 M43.95 20.35 Q44.15 19.4 43.95 19.0 43.55 18.25 43.2 19.1 42.9 19.8 42.95 20.25 L42.9 20.35 42.4 22.75 42.3 23.05 42.25 23.25 42.05 23.75 41.6 25.15 Q41.6 26.45 42.15 26.4 L43.45 24.55 43.75 23.75 43.8 23.25 43.8 22.85 43.8 22.8 43.8 21.15 43.9 20.65 43.95 20.35 M19.15 16.2 L19.2 16.4 19.2 16.45 19.35 17.45 19.4 17.8 18.35 17.9 Q17.65 18.05 17.1 18.35 L16.85 18.5 16.55 18.6 16.25 17.1 16.15 16.5 Q16.8 15.4 17.3 15.5 L17.6 15.75 17.8 16.1 17.9 16.2 18.4 16.15 19.15 16.2 M35.2 14.7 L35.15 14.75 35.0 14.8 35.2 14.7 M38.75 21.55 Q38.85 21.95 39.2 21.8 39.65 21.6 39.45 21.0 39.2 20.4 38.85 20.95 38.65 21.2 38.75 21.55 M36.5 22.65 Q37.1 22.65 37.15 21.9 37.25 21.2 36.6 21.55 36.35 21.7 36.3 22.2 36.15 22.7 36.5 22.65 M3.25 29.35 Q3.55 29.85 3.1 30.1 2.6 30.4 2.45 29.85 2.3 29.5 2.65 29.25 L3.25 29.35" fill="#940204" fill-rule="evenodd" stroke="none"/>
      <path d="M41.5 11.4 Q41.95 11.0 42.55 11.9 L43.15 13.15 Q43.75 14.45 43.55 15.85 43.55 17.25 43.05 17.2 42.85 17.15 42.65 15.75 L42.4 14.05 41.5 12.0 Q41.3 11.55 41.5 11.4 M42.95 20.25 L42.95 20.4 43.0 21.35 Q43.2 21.85 43.5 21.5 L43.85 20.8 43.95 20.35 43.9 20.65 43.8 21.15 43.8 22.8 43.8 22.85 43.8 23.25 43.75 23.75 43.45 24.55 42.15 26.4 Q41.6 26.45 41.6 25.15 L42.05 23.75 42.25 23.25 42.3 23.05 42.4 22.75 42.9 20.35 42.95 20.25 M29.05 27.75 L29.15 27.4 Q29.55 26.95 29.35 26.45 29.15 25.95 29.35 25.65 29.4 25.4 29.7 25.55 L29.9 25.7 31.1 25.5 31.2 25.5 Q31.7 25.35 31.5 25.9 L30.95 26.7 29.65 27.7 29.05 27.75 M31.25 17.65 L31.25 17.55 Q31.45 16.6 32.0 17.2 32.55 17.7 32.65 18.35 L32.8 19.7 Q32.75 20.65 32.15 20.65 31.7 20.65 31.4 19.55 L31.3 18.9 31.25 17.65 M36.4 26.45 Q36.65 25.9 37.35 25.1 L37.9 23.7 37.9 23.6 37.95 23.2 38.1 22.75 Q38.2 22.55 38.35 22.6 L38.55 22.75 38.75 23.2 38.75 23.25 38.85 23.7 38.8 24.0 38.75 25.75 Q38.65 26.5 38.2 27.05 L38.15 27.0 37.7 27.35 37.5 27.55 37.45 26.95 Q37.3 26.35 36.7 26.4 L36.4 26.45" fill="#ac0204" fill-rule="evenodd" stroke="none"/>
      <path d="M39.4 10.5 L38.4 9.55 37.45 8.4 Q36.45 7.45 35.35 6.65 L35.25 6.3 35.25 5.9 Q35.45 5.8 36.15 6.2 L38.55 7.6 39.8 8.4 40.55 9.2 40.65 9.45 40.7 9.55 Q40.9 10.2 40.45 10.55 40.0 10.9 39.45 10.55 L39.4 10.5 M39.2 8.7 L38.6 8.25 37.75 7.5 36.85 6.9 Q36.25 6.7 36.55 7.1 L37.05 7.5 38.0 8.6 38.9 9.4 Q38.95 9.75 39.45 10.1 L40.3 10.0 Q40.6 9.5 39.75 8.9 L39.2 8.7" fill="#838483" fill-rule="evenodd" stroke="none"/>
      <path d="M45.1 16.5 L45.35 16.65 Q45.75 17.0 45.75 17.45 L45.65 18.4 45.75 19.35 Q45.6 19.7 45.4 19.45 L45.2 18.95 45.15 18.95 45.05 18.55 45.0 17.55 44.45 16.5 Q44.3 15.6 44.75 15.95 L45.0 16.4 45.1 16.5" fill="#bd0204" fill-rule="evenodd" stroke="none"/>
      <path d="M24.6 33.55 L24.45 33.6 23.45 33.85 Q22.65 33.9 22.45 33.5 L22.4 33.2 22.45 32.95 Q22.6 32.45 23.55 32.15 L25.2 32.1 25.3 32.15 25.6 32.5 Q25.9 33.1 24.6 33.55 M40.85 20.35 L40.85 20.2 41.05 19.55 41.25 19.2 41.3 19.0 41.35 18.7 41.35 18.35 41.4 18.05 41.6 17.8 Q42.0 17.65 42.05 18.05 L42.05 18.7 41.95 19.4 Q41.45 19.8 41.3 20.1 L41.1 20.75 40.8 21.15 Q40.65 21.1 40.75 20.75 L40.85 20.35 M42.95 20.25 Q42.9 19.8 43.2 19.1 43.55 18.25 43.95 19.0 44.15 19.4 43.95 20.35 L43.85 20.8 43.5 21.5 Q43.2 21.85 43.0 21.35 L42.95 20.4 42.95 20.25 M45.55 29.05 L45.65 29.4 45.6 29.6 45.05 30.25 44.7 30.25 44.55 30.2 Q44.2 30.05 44.35 29.7 44.5 29.3 44.95 29.1 L45.55 29.05 M5.45 30.6 L6.4 30.55 Q6.85 30.95 6.65 31.5 6.3 32.2 5.6 31.7 5.0 31.2 5.45 30.6 M37.5 27.55 L37.25 27.85 37.25 28.0 36.3 28.45 Q35.65 28.6 35.45 28.05 35.25 27.65 35.8 27.0 L36.4 26.45 36.7 26.4 Q37.3 26.35 37.45 26.95 L37.5 27.55 M28.2 32.25 L27.95 32.7 Q27.25 33.2 26.85 32.7 L26.7 32.4 Q26.65 32.15 26.9 32.0 L27.7 31.9 28.2 32.25" fill="#c50204" fill-rule="evenodd" stroke="none"/>
      <path d="M47.35 24.25 Q48.4 24.9 47.55 25.9 L46.55 26.95 46.35 27.55 45.8 27.5 Q45.5 27.7 45.6 28.05 45.75 28.6 46.2 28.35 L46.25 28.35 45.8 29.15 Q45.8 28.9 45.55 29.05 L44.95 29.1 Q44.5 29.3 44.35 29.7 44.2 30.05 44.55 30.2 L44.25 30.8 43.9 31.25 Q43.65 31.5 43.7 31.75 L43.9 31.8 43.4 32.1 43.05 33.0 42.7 32.7 42.6 32.55 42.7 32.2 42.75 32.1 43.5 31.4 Q43.85 31.05 43.65 30.45 43.35 29.6 42.45 29.45 L40.8 29.75 40.25 30.0 Q38.6 30.65 35.3 29.95 45.1 29.95 47.35 24.25 M43.55 26.65 L43.4 26.7 Q43.25 26.55 43.8 25.45 L44.25 23.8 44.3 23.4 44.35 23.3 44.4 22.8 44.65 21.35 44.6 19.75 Q44.3 18.35 44.65 18.3 L45.05 19.6 45.5 22.8 45.55 23.15 45.55 23.3 45.4 23.8 45.0 24.35 44.95 24.5 44.3 25.7 43.55 26.65 M40.25 22.6 L40.25 22.7 40.25 22.75 40.35 23.0 40.5 23.95 40.5 24.05 40.35 23.75 40.2 23.6 40.15 23.25 40.05 22.75 40.0 22.7 39.8 22.65 39.55 22.05 Q39.75 21.45 40.25 22.6 M40.45 24.35 L40.45 25.65 40.6 25.95 40.6 26.0 41.15 26.85 41.15 27.6 Q41.1 28.15 40.4 28.25 L40.05 28.3 40.2 27.8 Q40.2 26.3 40.0 26.2 L40.2 24.65 40.2 24.55 40.35 24.45 40.45 24.35 M20.2 14.65 L20.25 14.85 Q20.75 16.9 22.0 18.2 L22.1 18.3 22.15 18.35 21.5 18.15 19.4 17.8 19.35 17.45 19.2 16.45 19.2 16.4 19.15 16.2 19.55 16.05 19.85 15.65 19.95 15.1 20.2 14.65 M15.2 18.1 L15.3 19.25 14.85 19.55 14.35 19.95 14.25 20.0 14.2 18.5 14.25 18.4 14.4 18.2 14.5 18.2 15.2 18.1 M38.45 27.9 L38.5 27.95 38.85 27.8 38.7 28.45 38.55 28.7 37.55 29.05 36.7 29.05 36.5 28.9 36.4 28.8 36.6 28.8 36.85 28.7 37.3 28.4 38.3 27.95 38.45 27.9 M35.1 28.85 L35.05 28.85 33.8 29.05 30.15 28.8 30.3 28.7 30.3 28.65 31.6 28.05 32.7 27.1 Q33.15 26.45 33.15 25.65 33.15 24.6 33.4 24.35 L33.45 25.7 Q33.35 26.6 33.55 26.95 L34.0 27.4 34.0 27.65 34.1 28.0 34.65 28.15 35.2 28.05 Q35.45 28.0 35.35 28.35 L35.1 28.85" fill="#6c0204" fill-rule="evenodd" stroke="none"/>
      <path d="M40.3 20.9 L40.55 20.8 40.7 21.05 40.8 21.25 41.15 21.0 41.25 20.35 Q41.4 19.9 41.65 19.9 L41.9 20.2 41.95 20.6 41.75 21.55 41.95 22.0 41.85 22.45 41.75 22.75 41.5 23.25 41.45 23.4 41.2 24.5 41.15 25.45 40.85 26.0 40.6 25.95 40.45 25.65 40.45 24.35 40.5 24.05 40.5 23.95 40.35 23.0 40.25 22.75 40.25 22.7 40.25 22.6 Q40.0 21.85 40.05 21.45 L40.1 20.95 40.3 20.9 M39.8 22.65 L40.0 22.7 40.05 22.75 40.15 23.25 40.2 23.6 40.0 23.55 39.8 23.7 39.8 23.75 Q39.55 24.0 39.8 24.4 L40.1 24.6 40.2 24.55 40.2 24.65 40.0 26.2 39.95 26.15 39.95 26.2 Q39.2 26.55 38.85 27.7 L38.85 27.8 38.5 27.95 38.45 27.9 38.3 27.7 37.8 28.1 37.25 28.0 37.25 27.85 37.5 27.55 37.7 27.35 38.15 27.0 38.2 27.05 38.35 27.4 38.65 26.85 39.15 25.6 39.25 24.25 39.3 23.7 39.4 23.2 39.55 22.75 39.8 22.65" fill="#7e0204" fill-rule="evenodd" stroke="none"/>
      <path d="M45.75 23.4 L45.95 23.55 47.05 24.0 47.35 24.25 Q45.1 29.95 35.3 29.95 L34.6 29.75 32.0 29.3 29.3 28.9 28.85 28.75 28.95 28.8 28.7 28.75 28.45 28.65 27.0 28.2 26.25 28.25 26.2 28.3 26.35 27.95 26.4 27.85 27.15 28.2 27.25 28.2 28.85 28.05 Q28.7 28.5 30.0 28.65 L30.3 28.7 30.15 28.8 33.8 29.05 35.05 28.85 35.1 28.85 36.5 28.9 36.7 29.05 37.55 29.05 38.55 28.7 38.7 28.45 38.85 27.8 38.85 27.7 Q39.2 26.55 39.95 26.2 L39.95 26.15 40.0 26.2 Q40.2 26.3 40.2 27.8 L40.05 28.3 40.0 28.35 40.85 28.25 Q41.9 28.2 43.55 26.65 L44.3 25.7 44.95 24.5 45.2 24.15 45.45 23.8 45.5 23.75 45.75 23.4 M39.85 33.6 L39.4 33.4 38.65 33.0 36.65 32.8 36.3 32.8 Q35.5 32.4 35.05 32.35 L32.3 31.65 31.3 31.35 Q30.75 31.0 30.3 30.95 28.9 30.85 27.8 31.35 26.15 32.15 25.5 32.15 L25.3 32.15 25.2 32.1 23.55 32.15 Q22.6 32.45 22.45 32.95 L20.45 33.2 19.2 33.4 18.0 33.8 16.3 34.2 15.05 34.3 Q14.35 34.4 13.9 34.7 L13.5 35.0 13.35 35.0 10.85 35.3 Q9.4 35.35 8.4 34.7 7.75 34.2 7.45 33.6 L7.5 32.6 7.6 32.4 7.8 32.65 8.4 32.85 8.5 33.3 8.55 33.8 9.25 33.95 10.0 33.8 10.5 34.4 10.55 34.45 11.05 34.45 11.45 34.2 12.8 33.55 13.75 33.35 14.7 33.4 14.75 33.4 14.85 33.4 15.8 33.15 16.8 32.65 17.9 32.3 18.7 32.15 21.05 31.85 22.65 31.65 23.1 31.55 Q23.3 31.45 23.55 31.3 L23.9 31.1 24.55 30.7 25.0 30.25 25.05 30.15 25.15 30.05 25.15 30.1 Q25.1 30.85 25.65 30.7 L26.75 30.2 28.0 30.0 31.3 30.5 35.4 31.3 Q37.6 31.9 39.25 32.95 L39.85 33.6 M3.6 26.0 L4.35 25.45 4.85 25.1 5.1 24.9 5.25 25.3 Q5.4 25.55 5.8 25.65 L6.3 25.95 6.15 26.6 5.5 27.75 Q5.55 28.25 6.05 28.45 6.5 28.65 6.9 28.45 7.2 28.35 7.45 28.2 8.75 27.3 9.3 27.2 L11.0 26.95 11.0 27.7 10.2 28.95 9.1 30.05 9.0 30.2 9.25 29.4 Q9.2 28.95 8.75 29.0 L8.0 29.15 6.9 29.55 5.75 29.6 Q4.85 29.35 4.55 28.65 4.3 28.05 4.2 26.8 L3.65 26.05 3.6 26.0 M10.9 23.35 L11.3 23.15 11.45 23.0 11.8 22.4 11.85 22.4 11.9 22.6 11.95 22.7 12.0 23.15 12.2 23.6 12.25 23.65 Q12.5 23.95 12.9 24.1 L13.25 24.5 13.1 24.55 12.1 24.75 12.05 24.7 11.2 23.65 10.9 23.35 M40.5 24.05 L40.45 24.35 40.35 24.45 40.2 24.55 40.1 24.6 39.8 24.4 Q39.55 24.0 39.8 23.75 L39.8 23.7 40.0 23.55 40.2 23.6 40.35 23.75 40.5 24.05 M40.6 31.75 L40.65 31.8 39.25 31.35 40.6 31.75 M15.85 27.05 L16.05 26.55 16.55 25.8 17.35 25.15 18.2 24.65 18.7 24.4 19.2 24.25 19.95 24.2 20.55 24.4 20.95 24.95 21.1 25.65 21.15 25.65 20.9 26.35 21.0 26.1 20.45 26.45 Q20.0 26.45 19.75 26.25 L19.3 25.95 19.2 25.9 Q18.45 25.45 17.4 26.2 L16.3 27.1 15.95 27.35 16.0 27.8 15.85 27.05 M19.4 28.05 L19.7 27.7 20.35 27.15 19.4 28.05 M12.6 27.6 L12.8 27.5 Q13.9 26.7 14.45 27.25 L14.55 27.6 14.0 29.0 13.9 29.15 13.25 29.5 Q13.05 29.45 12.9 29.0 L12.35 28.5 Q11.85 28.3 12.2 28.05 L12.6 27.6 M18.85 34.2 Q18.7 33.9 19.15 33.7 L20.0 33.6 20.6 33.95 20.25 34.45 18.95 34.4 18.85 34.2 M27.65 26.8 Q26.8 26.85 26.85 25.55 26.9 24.7 27.5 24.75 28.1 24.8 28.3 25.5 28.55 26.7 27.65 26.8" fill="#3d0000" fill-rule="evenodd" stroke="none"/>
      <path d="M46.75 22.85 L46.8 22.85 48.15 23.2 48.8 23.5 Q49.85 24.35 49.95 25.2 50.15 26.2 49.3 27.45 L48.6 28.15 48.55 28.25 48.55 28.8 48.1 29.75 47.65 30.55 47.25 31.6 46.6 32.6 Q45.9 33.45 45.2 33.75 45.5 34.7 44.85 35.6 44.05 36.8 42.15 36.8 L40.65 36.5 39.5 35.55 38.7 35.1 35.4 35.0 34.7 35.1 32.25 34.95 29.9 35.1 28.85 35.2 28.7 35.2 26.6 35.45 25.25 35.75 25.15 35.75 24.35 35.95 20.1 37.1 19.05 37.2 17.75 37.1 17.6 37.1 17.4 37.15 16.35 37.1 12.85 37.35 10.9 37.55 Q9.2 37.55 7.9 36.65 6.85 36.0 6.4 34.95 L6.35 34.8 5.95 34.6 Q4.55 33.9 4.15 32.75 L4.15 32.65 2.95 32.6 Q1.75 32.35 1.05 31.8 0.05 31.0 0.0 29.85 L0.0 29.7 Q0.0 28.8 0.65 28.0 0.3 28.55 0.3 29.2 L0.5 30.1 Q0.6 30.85 1.35 31.4 2.0 31.9 3.05 32.1 L4.0 32.15 4.15 32.15 4.5 32.25 4.65 32.6 Q4.95 33.45 6.15 34.15 L6.7 34.45 6.7 34.5 6.75 34.6 6.8 34.75 Q7.15 35.55 8.15 36.25 9.35 37.05 10.9 37.05 L12.75 36.85 15.9 36.65 16.0 36.6 17.35 36.65 17.65 36.6 17.8 36.6 18.2 36.65 18.4 36.65 19.05 36.7 20.0 36.6 22.85 35.85 22.95 35.8 23.3 35.75 23.85 35.55 25.05 35.3 25.15 35.25 25.35 35.2 28.55 34.7 28.8 34.7 29.85 34.6 32.25 34.45 34.7 34.6 35.25 34.55 35.35 34.5 37.3 34.5 38.85 34.65 39.2 34.8 39.25 34.85 39.7 35.1 39.8 35.1 39.85 35.2 40.85 36.05 42.15 36.3 Q43.8 36.3 44.45 35.3 44.9 34.7 44.75 33.85 L44.65 33.45 45.05 33.3 Q46.0 32.85 46.8 31.4 L46.85 31.25 47.25 30.35 47.25 30.3 47.3 30.25 47.65 29.55 47.75 29.45 48.05 28.75 48.05 28.3 48.1 27.95 48.3 27.8 48.9 27.1 Q49.65 26.15 49.5 25.3 49.3 24.4 48.5 23.95 L48.4 23.9 47.9 23.45 46.75 22.85 M2.05 26.6 L2.4 26.0 2.2 26.35 2.05 26.6 M4.05 24.5 L4.55 23.65 Q4.3 23.95 4.15 24.4 L4.05 24.5" fill="#161202" fill-opacity="0.2" fill-rule="evenodd" stroke="none"/>
      <path d="M45.7 23.35 L45.75 23.4 45.5 23.75 45.7 23.35 M25.45 19.45 L26.55 20.35 29.15 20.45 29.65 20.7 30.2 20.9 30.45 20.85 30.85 20.85 Q31.05 21.1 30.9 21.6 L30.9 22.35 Q31.15 22.7 31.3 22.65 L31.35 22.7 31.45 22.95 31.6 23.15 31.75 23.65 31.85 23.95 31.75 24.75 31.25 25.35 31.2 25.5 31.1 25.5 29.9 25.7 29.7 25.55 Q29.4 25.4 29.35 25.65 29.15 25.95 29.35 26.45 29.55 26.95 29.15 27.4 L29.05 27.75 29.0 27.75 28.85 28.05 27.25 28.2 27.15 28.2 26.4 27.85 26.55 27.15 26.6 26.95 26.6 26.9 26.6 26.85 26.7 25.9 26.7 24.7 28.55 24.5 29.85 24.85 31.05 25.0 Q31.7 24.7 31.65 24.2 L31.5 23.65 31.2 23.3 31.05 23.15 30.95 23.1 30.45 22.8 30.25 22.7 30.05 22.45 29.95 21.85 29.85 21.25 Q29.1 19.9 27.6 21.35 L27.45 21.45 27.35 21.6 27.0 22.0 26.55 21.55 26.4 21.05 25.95 20.7 25.45 19.55 25.45 19.45 M34.3 22.05 Q34.35 22.55 34.55 22.7 L34.6 22.75 35.15 22.7 35.3 22.5 35.7 21.7 36.05 21.35 35.95 22.75 35.9 23.1 35.9 23.2 35.8 23.7 35.75 23.85 35.55 24.35 Q35.25 24.9 34.75 24.5 34.5 24.35 34.4 23.7 L34.35 23.2 34.35 22.9 34.35 22.7 34.3 22.05 M13.15 24.15 L13.75 24.25 13.95 24.45 13.9 24.45 13.25 24.5 12.9 24.1 13.15 24.15 M11.9 22.6 L11.85 22.4 11.9 22.45 11.9 22.6 M27.65 26.8 Q28.55 26.7 28.3 25.5 28.1 24.8 27.5 24.75 26.9 24.7 26.85 25.55 26.8 26.85 27.65 26.8" fill="#560204" fill-rule="evenodd" stroke="none"/>
      <path d="M48.4 23.9 L48.5 23.95 Q49.3 24.4 49.5 25.3 49.65 26.15 48.9 27.1 L48.3 27.8 48.1 27.95 48.05 28.3 48.05 28.75 47.75 29.45 47.65 29.55 47.3 30.25 47.25 30.3 47.25 30.35 46.85 31.25 46.8 31.4 Q46.0 32.85 45.05 33.3 L44.65 33.45 44.75 33.85 Q44.9 34.7 44.45 35.3 43.8 36.3 42.15 36.3 L40.85 36.05 39.85 35.2 39.8 35.1 39.7 35.1 39.25 34.85 39.2 34.8 38.85 34.65 37.3 34.5 35.35 34.5 35.25 34.55 34.7 34.6 32.25 34.45 29.85 34.6 28.8 34.7 28.55 34.7 25.35 35.2 25.15 35.25 25.05 35.3 23.85 35.55 23.3 35.75 22.95 35.8 22.85 35.85 20.0 36.6 19.05 36.7 18.4 36.65 18.2 36.65 17.8 36.6 17.65 36.6 17.35 36.65 16.0 36.6 15.9 36.65 12.75 36.85 10.9 37.05 Q9.35 37.05 8.15 36.25 7.15 35.55 6.8 34.75 L6.75 34.6 6.7 34.5 6.7 34.45 6.15 34.15 Q4.95 33.45 4.65 32.6 L4.5 32.25 4.15 32.15 4.0 32.15 3.05 32.1 Q2.0 31.9 1.35 31.4 0.6 30.85 0.5 30.1 L1.1 30.8 2.5 31.45 3.15 31.6 4.05 31.65 4.15 31.65 4.2 31.7 4.3 31.7 4.4 32.0 Q4.75 32.95 5.9 33.5 L6.5 33.95 6.6 34.1 Q6.95 34.95 7.9 35.6 L8.7 36.05 Q9.75 36.55 10.9 36.55 L12.7 36.35 15.85 36.15 16.0 36.1 16.5 36.1 16.55 36.15 17.7 36.1 17.85 36.15 19.05 36.2 19.9 36.1 22.7 35.35 22.8 35.35 25.2 34.7 28.55 34.2 28.8 34.2 29.8 34.1 32.25 33.95 33.5 34.0 33.7 34.05 34.7 34.1 35.2 34.05 35.3 34.0 36.95 34.0 37.15 33.95 37.3 33.95 38.35 34.05 39.25 34.5 40.3 35.4 41.1 35.65 42.15 35.8 Q43.5 35.8 44.1 35.0 44.4 34.55 44.25 33.95 L44.2 33.7 44.2 33.15 44.85 32.8 Q45.55 32.5 46.35 31.2 L46.4 31.05 46.8 30.15 46.85 30.0 46.9 29.95 47.3 29.3 47.3 29.15 47.35 29.1 47.55 28.65 47.55 28.25 47.6 27.9 47.6 27.7 48.0 27.4 48.55 26.8 49.0 25.35 48.9 25.0 48.85 24.8 48.4 23.9" fill="#161202" fill-opacity="0.4" fill-rule="evenodd" stroke="none"/>
      <path d="M44.2 33.15 L44.15 33.05 44.1 32.9 44.05 32.85 44.2 32.75 Q44.85 32.6 45.55 31.8 L46.15 30.8 46.25 30.7 46.65 29.7 47.1 28.9 47.4 28.2 47.35 27.55 48.3 26.6 Q48.9 25.75 48.9 25.0 L49.0 25.35 48.55 26.8 48.0 27.4 47.6 27.7 47.6 27.9 47.55 28.25 47.55 28.65 47.35 29.1 47.3 29.15 47.3 29.3 46.9 29.95 46.85 30.0 46.8 30.15 46.4 31.05 46.35 31.2 Q45.55 32.5 44.85 32.8 L44.2 33.15 M44.2 33.7 L44.25 33.95 Q44.4 34.55 44.1 35.0 43.5 35.8 42.15 35.8 L41.1 35.65 41.6 35.65 Q43.2 35.65 43.9 34.65 L44.2 33.7 M38.35 34.05 L37.3 33.95 37.15 33.95 36.95 34.0 35.3 34.0 35.2 34.05 34.7 34.1 33.7 34.05 33.5 34.0 32.25 33.95 29.8 34.1 28.8 34.2 28.55 34.2 25.2 34.7 22.8 35.35 22.7 35.35 19.9 36.1 19.05 36.2 17.85 36.15 17.7 36.1 16.55 36.15 16.5 36.1 16.0 36.1 15.85 36.15 13.85 36.25 13.7 36.25 12.7 36.35 10.9 36.55 Q9.75 36.55 8.7 36.05 L10.6 36.35 13.4 36.1 13.55 36.05 16.05 35.95 16.5 36.0 17.5 35.95 17.8 36.0 18.65 36.0 19.6 35.95 24.6 34.65 24.75 34.6 26.05 34.3 28.25 34.05 28.4 34.05 29.4 33.95 31.75 33.8 33.05 33.9 36.8 33.85 38.3 34.0 38.35 34.05 M4.3 31.7 L4.2 31.7 4.15 31.65 4.05 31.65 3.15 31.6 2.5 31.45 2.8 31.5 3.75 31.55 4.25 31.6 4.3 31.7" fill="#161202" fill-opacity="0.6" fill-rule="evenodd" stroke="none"/>
      <path d="M43.05 33.0 L43.2 33.2 43.2 33.3 43.0 33.15 42.9 33.05 42.7 32.9 42.55 32.75 42.6 32.6 42.6 32.55 42.7 32.7 43.05 33.0 M40.25 30.0 L40.8 29.75 42.45 29.45 Q43.35 29.6 43.65 30.45 43.85 31.05 43.5 31.4 L42.75 32.1 42.7 32.2 42.7 32.05 42.65 31.75 42.25 31.55 41.75 31.5 40.9 31.45 40.25 30.0 M42.95 30.65 Q42.95 29.95 42.25 29.95 41.5 29.95 41.5 30.65 41.5 31.4 42.25 31.4 42.95 31.4 42.95 30.65" fill="#939693" fill-rule="evenodd" stroke="none"/>
      <path d="M12.15 18.35 Q12.3 17.5 13.4 15.9 14.65 14.1 16.3 12.75 17.6 12.1 18.1 12.05 18.45 12.0 18.4 12.25 L18.3 12.45 18.25 12.5 16.65 14.3 Q16.1 14.8 15.7 15.65 L14.9 17.2 14.45 18.15 14.4 18.2 14.25 18.4 14.0 18.7 13.1 19.1 12.85 19.15 12.8 19.1 12.15 18.4 12.15 18.35 M29.55 16.75 L28.95 16.15 26.55 13.75 Q24.5 11.85 26.0 12.35 27.1 12.7 28.55 13.75 30.1 14.8 30.45 15.45 L30.65 15.8 30.45 16.05 Q30.1 16.6 29.55 16.75 M42.95 30.65 Q42.95 31.4 42.25 31.4 41.5 31.4 41.5 30.65 41.5 29.95 42.25 29.95 42.95 29.95 42.95 30.65 M28.7 15.5 Q28.75 15.95 29.35 16.25 30.05 16.6 30.2 16.05 30.4 15.5 29.55 15.0 L29.15 14.85 28.4 14.2 27.65 13.6 Q27.05 13.2 27.05 13.6 L27.35 14.1 27.8 14.5 28.7 15.5 M23.4 20.7 L23.55 21.05 22.9 20.55 22.8 20.25 Q22.4 19.4 20.9 19.15 19.35 18.85 17.55 19.55 17.1 19.7 16.8 19.9 16.45 20.0 16.2 20.2 L16.75 19.8 Q18.0 19.0 19.7 18.95 21.35 18.9 22.75 19.55 L23.4 20.7 M17.55 20.65 L18.0 20.55 20.0 20.8 19.85 21.25 19.85 21.8 19.75 21.8 18.05 22.15 17.2 22.05 16.7 21.7 17.05 21.05 17.55 20.65 M22.05 25.55 L22.0 25.7 21.85 26.65 Q21.9 27.1 22.35 26.95 L22.15 27.2 21.6 27.65 21.6 27.7 21.55 27.75 21.45 27.25 Q21.2 26.8 20.6 27.4 L19.65 28.3 Q19.05 28.7 18.45 28.9 17.6 28.9 17.4 29.2 17.75 29.45 17.4 30.0 L17.15 30.5 10.5 34.4 10.0 33.8 9.25 33.95 8.55 33.8 8.5 33.3 8.4 32.85 7.8 32.65 7.6 32.4 Q7.65 32.2 7.85 31.95 L7.85 32.0 8.35 32.1 8.9 31.75 9.55 31.25 9.6 31.25 9.75 31.05 9.75 30.8 Q9.65 30.6 9.4 30.6 L9.1 30.85 8.4 31.35 8.0 31.7 8.45 31.0 8.95 30.25 9.0 30.2 9.1 30.05 10.2 28.95 11.0 27.7 11.0 26.95 11.0 26.8 Q11.0 26.45 11.3 25.95 L11.35 25.8 11.8 25.2 12.4 25.1 12.65 25.35 12.6 25.3 Q12.45 25.3 12.45 25.7 L12.8 26.15 Q12.1 25.95 11.9 26.45 11.3 27.45 11.55 27.8 L12.2 27.6 Q13.0 27.0 13.25 26.9 L14.05 26.8 14.6 27.15 Q14.95 27.25 15.1 26.9 15.3 26.6 15.15 26.3 L14.5 26.2 15.0 25.45 15.05 24.85 14.95 24.4 14.95 24.25 15.0 24.0 15.05 23.65 15.0 23.15 Q14.85 22.85 14.45 22.9 L14.0 22.9 13.85 22.7 13.85 22.65 Q13.75 22.1 15.05 21.1 L15.2 21.25 15.25 21.25 15.15 21.4 15.15 21.45 Q14.8 21.6 14.85 22.05 14.9 22.35 15.25 22.45 L15.7 22.6 15.85 22.7 16.0 23.1 16.0 23.15 16.1 23.55 16.2 23.65 17.2 23.65 17.3 23.6 18.5 23.15 19.3 23.15 Q20.2 23.2 20.85 23.65 L21.45 24.3 21.7 25.1 22.05 25.55 M28.95 20.85 Q29.7 20.85 29.7 21.55 L29.5 22.1 28.95 22.3 Q28.3 22.3 28.3 21.55 28.3 20.85 28.95 20.85 M14.35 17.4 L14.4 17.3 14.9 16.05 15.55 15.05 16.05 14.35 17.05 13.05 Q17.15 12.65 16.6 12.95 L16.0 13.4 14.65 14.7 13.55 16.15 13.3 16.65 Q12.75 16.9 12.55 17.75 12.3 18.75 13.1 18.8 13.95 18.85 14.3 17.55 L14.35 17.45 14.35 17.4 M15.2 20.9 L16.05 20.3 15.85 20.45 15.2 20.9 M15.85 27.05 L16.0 27.8 16.05 28.05 16.4 28.5 16.2 28.4 Q15.2 26.9 14.85 27.3 L15.0 27.95 14.5 29.55 13.9 31.25 Q14.0 31.8 14.25 31.15 L14.6 30.1 14.75 29.75 Q14.85 30.2 15.7 30.3 17.1 30.5 17.4 29.65 L16.55 29.35 15.95 29.3 16.3 29.15 16.7 29.05 16.9 28.8 16.85 28.7 17.15 28.8 17.75 28.75 18.8 28.4 19.0 28.3 19.15 28.2 19.4 28.05 20.35 27.15 20.45 27.05 20.9 26.35 21.15 25.65 21.2 25.1 Q21.1 24.45 20.65 24.15 L19.8 23.9 18.9 23.9 18.25 24.15 Q16.5 24.8 15.95 26.1 15.5 27.0 15.8 27.2 L15.85 27.05 M19.2 24.25 L18.7 24.4 19.0 24.25 19.2 24.25 M13.9 29.15 L14.0 29.0 14.55 27.6 14.45 27.25 Q13.9 26.7 12.8 27.5 L12.6 27.6 12.55 27.6 11.6 28.4 Q11.4 28.75 11.75 28.8 L12.35 28.75 12.65 29.1 12.75 29.6 13.1 30.05 13.65 29.75 13.9 29.15 M10.4 29.4 Q10.3 29.3 10.1 29.5 L9.8 29.75 9.3 30.4 9.5 30.5 9.75 30.45 Q9.9 30.45 9.95 30.6 L9.9 30.9 9.5 31.4 9.15 31.9 9.45 31.8 Q10.35 31.2 10.8 31.35 11.35 31.55 11.05 32.0 10.6 32.5 10.5 32.85 10.45 33.35 11.05 32.75 11.6 32.15 12.0 32.15 L12.5 32.4 12.6 32.55 12.95 32.2 13.35 31.55 13.4 31.4 13.35 31.2 12.95 31.35 12.55 31.5 Q12.3 31.4 12.6 30.9 L12.85 30.25 12.45 30.45 12.05 30.75 11.7 30.95 11.45 30.9 11.35 30.7 11.5 30.1 11.75 29.55 11.35 29.6 10.5 30.25 10.2 30.1 Q10.15 29.9 10.25 29.8 L10.4 29.4 M9.9 31.8 L9.45 32.1 Q8.55 32.8 8.65 33.35 8.8 34.0 10.0 33.05 11.15 32.15 10.85 31.8 10.75 31.45 10.35 31.45 9.95 31.45 9.9 31.8 M11.7 32.55 L11.55 32.6 11.0 33.2 Q10.55 33.8 10.75 33.85 11.15 34.0 11.55 33.6 L12.05 33.05 12.35 32.7 12.3 32.5 Q12.2 32.35 12.0 32.35 11.75 32.35 11.7 32.55 M6.55 25.5 Q5.85 25.5 5.85 24.75 5.85 24.05 6.55 24.05 7.25 24.05 7.25 24.75 L7.05 25.3 6.55 25.5" fill="#acaeac" fill-rule="evenodd" stroke="none"/>
      <path d="M40.9 31.45 L41.75 31.5 42.25 31.55 42.65 31.75 42.7 32.05 42.45 31.75 Q41.95 31.45 41.6 31.95 L41.45 32.3 41.35 32.2 40.95 32.0 40.65 31.8 40.6 31.75 40.6 31.7 Q40.6 31.5 40.9 31.45" fill="#717371" fill-rule="evenodd" stroke="none"/>
      <path d="M42.7 32.05 L42.7 32.2 42.6 32.55 42.6 32.6 42.55 32.75 Q42.25 33.1 41.9 33.0 L41.7 32.9 Q41.4 32.65 41.45 32.35 L41.45 32.3 41.6 31.95 Q41.95 31.45 42.45 31.75 L42.7 32.05" fill="#555855" fill-rule="evenodd" stroke="none"/>
      <path d="M5.1 24.9 L5.25 24.3 5.4 24.1 Q6.2 23.2 7.35 23.7 L7.55 23.95 7.65 24.25 7.5 25.1 7.25 25.45 6.15 26.6 6.3 25.95 5.8 25.65 Q5.4 25.55 5.25 25.3 L5.1 24.9 M40.25 30.0 L40.9 31.45 Q40.6 31.5 40.6 31.7 L40.6 31.75 39.25 31.35 38.7 31.2 34.2 30.35 30.0 29.4 Q28.15 28.85 27.0 28.2 L28.45 28.65 28.7 28.75 28.95 28.8 29.3 28.9 32.0 29.3 34.6 29.75 35.3 29.95 Q38.6 30.65 40.25 30.0 M41.45 32.35 Q41.4 32.65 41.7 32.9 L41.9 33.0 41.9 33.2 41.65 33.9 41.0 34.2 40.3 33.9 Q40.0 33.6 40.0 33.2 40.0 32.8 40.3 32.5 40.6 32.25 41.0 32.25 L41.45 32.35 M6.55 25.5 L7.05 25.3 7.25 24.75 Q7.25 24.05 6.55 24.05 5.85 24.05 5.85 24.75 5.85 25.5 6.55 25.5 M7.5 27.35 Q7.5 28.05 6.75 28.05 6.1 28.05 6.1 27.35 6.1 26.65 6.75 26.65 7.5 26.65 7.5 27.35 M27.25 29.0 Q27.25 29.65 26.6 29.65 25.95 29.65 25.95 29.0 25.95 28.35 26.6 28.35 27.25 28.35 27.25 29.0" fill="#9c9e9c" fill-rule="evenodd" stroke="none"/>
      <path d="M43.2 33.3 Q43.45 34.15 42.45 34.45 L40.8 34.4 39.95 33.7 39.85 33.6 39.25 32.95 Q37.6 31.9 35.4 31.3 L31.3 30.5 28.0 30.0 26.75 30.2 25.65 30.7 Q25.1 30.85 25.15 30.1 L25.15 30.05 25.2 29.95 25.35 29.25 25.9 28.45 26.2 28.3 26.25 28.25 27.0 28.2 Q28.15 28.85 30.0 29.4 L34.2 30.35 38.7 31.2 39.25 31.35 40.65 31.8 40.95 32.0 41.35 32.2 41.45 32.3 41.45 32.35 41.0 32.25 Q40.6 32.25 40.3 32.5 40.0 32.8 40.0 33.2 40.0 33.6 40.3 33.9 L41.0 34.2 41.65 33.9 41.9 33.2 41.9 33.0 Q42.25 33.1 42.55 32.75 L42.7 32.9 42.9 33.05 43.0 33.15 43.2 33.3 M27.25 29.0 Q27.25 28.35 26.6 28.35 25.95 28.35 25.95 29.0 25.95 29.65 26.6 29.65 27.25 29.65 27.25 29.0" fill="#8a8c8a" fill-rule="evenodd" stroke="none"/>
      <path d="M33.7 13.3 L33.25 12.85 32.25 11.5 31.85 11.0 Q31.65 10.55 32.2 10.9 L32.9 11.35 33.75 12.15 34.35 12.7 Q33.6 12.35 33.65 13.15 L33.7 13.3" fill="#b6b7b6" fill-rule="evenodd" stroke="none"/>
      <path d="M18.1 12.05 L18.2 12.0 Q18.5 11.9 18.4 12.25 18.45 12.0 18.1 12.05 M18.8 11.55 L20.05 10.75 21.1 10.2 21.7 10.3 21.65 10.55 21.4 10.9 20.85 11.45 20.55 11.7 19.65 12.5 17.6 14.9 17.3 15.5 Q16.8 15.4 16.15 16.5 L15.4 18.05 15.2 18.1 14.5 18.2 14.45 18.15 14.9 17.2 15.7 15.65 Q16.1 14.8 16.65 14.3 L18.25 12.5 18.3 12.45 18.1 12.75 17.5 13.45 Q16.35 14.6 16.3 14.95 17.0 14.95 17.9 13.75 L18.65 13.0 19.2 12.05 Q19.3 11.4 18.8 11.55 M34.35 14.55 L32.2 12.15 30.75 10.6 Q29.6 9.25 30.85 9.55 31.5 9.7 33.0 10.9 L34.8 12.5 35.8 13.55 35.85 13.95 35.8 14.15 35.7 14.2 35.2 14.7 35.0 14.8 34.55 14.65 34.45 14.6 34.35 14.55 M34.35 12.7 L33.75 12.15 32.9 11.35 32.2 10.9 Q31.65 10.55 31.85 11.0 L32.25 11.5 33.25 12.85 33.7 13.3 Q33.75 13.7 34.3 13.95 34.95 14.3 35.15 13.75 35.35 13.2 34.5 12.75 L34.35 12.7 M18.2 14.9 Q18.25 14.35 18.8 13.7 19.1 13.35 19.3 13.3 19.6 13.25 19.8 13.7 20.1 14.5 19.2 15.5 18.3 16.5 18.2 15.15 L18.2 14.9" fill="#949694" fill-rule="evenodd" stroke="none"/>
      <path d="M38.9 9.4 L38.0 8.6 37.05 7.5 36.55 7.1 Q36.25 6.7 36.85 6.9 L37.75 7.5 38.6 8.25 39.2 8.7 Q38.95 8.75 38.9 9.2 L38.9 9.4" fill="#aca7b1" fill-rule="evenodd" stroke="none"/>
      <path d="M38.9 9.4 L38.9 9.2 Q38.95 8.75 39.2 8.7 L39.75 8.9 Q40.6 9.5 40.3 10.0 L39.45 10.1 Q38.95 9.75 38.9 9.4" fill="#c2c7c2" fill-rule="evenodd" stroke="none"/>
      <path d="M18.2 12.0 L18.1 12.0 18.0 12.05 Q18.35 11.7 18.8 11.55 19.3 11.4 19.2 12.05 L18.65 13.0 17.9 13.75 Q17.0 14.95 16.3 14.95 16.35 14.6 17.5 13.45 L18.1 12.75 18.3 12.45 18.4 12.25 Q18.5 11.9 18.2 12.0 M21.65 10.55 L23.75 8.55 Q25.45 7.35 25.75 7.55 26.05 7.7 25.4 8.4 L23.05 10.8 Q22.2 11.75 20.65 14.05 L20.45 14.45 20.2 14.65 19.95 15.1 19.85 15.65 19.55 16.05 19.15 16.2 18.4 16.15 17.9 16.2 17.8 16.1 Q17.75 15.85 17.85 15.55 L18.2 14.9 18.2 15.15 Q18.3 16.5 19.2 15.5 20.1 14.5 19.8 13.7 19.6 13.25 19.3 13.3 L20.85 11.45 21.4 10.9 21.65 10.55" fill="#7c7e7c" fill-rule="evenodd" stroke="none"/>
      <path d="M33.7 13.3 L33.65 13.15 Q33.6 12.35 34.35 12.7 L34.5 12.75 Q35.35 13.2 35.15 13.75 34.95 14.3 34.3 13.95 33.75 13.7 33.7 13.3 M29.15 14.85 Q28.65 14.8 28.7 15.45 L28.7 15.5 27.8 14.5 27.35 14.1 27.05 13.6 Q27.05 13.2 27.65 13.6 L28.4 14.2 29.15 14.85" fill="#d0d4d0" fill-rule="evenodd" stroke="none"/>
      <path d="M29.15 14.85 L29.55 15.0 Q30.4 15.5 30.2 16.05 30.05 16.6 29.35 16.25 28.75 15.95 28.7 15.5 L28.7 15.45 Q28.65 14.8 29.15 14.85" fill="#e0e3e0" fill-rule="evenodd" stroke="none"/>
      <path d="M24.6 17.5 L24.65 17.7 25.05 18.75 25.25 19.2 25.85 20.9 25.9 21.05 Q26.0 21.6 25.55 21.55 L25.15 21.2 24.75 20.7 23.75 20.05 22.9 19.1 22.85 18.65 23.05 17.8 23.05 16.2 22.95 15.55 Q22.95 14.9 23.2 14.65 23.6 14.35 23.75 14.75 L23.85 15.5 24.3 16.6 24.6 17.5" fill="#650200" fill-rule="evenodd" stroke="none"/>
      <path d="M21.45 13.7 Q22.45 12.95 23.05 13.3 23.65 13.55 23.85 15.15 L24.45 16.7 24.6 17.5 24.3 16.6 23.85 15.5 23.75 14.75 Q23.6 14.35 23.2 14.65 22.95 14.9 22.95 15.55 22.25 14.35 21.45 13.7 M16.15 16.5 L16.25 17.1 16.55 18.6 15.3 19.25 15.2 18.1 15.4 18.05 16.15 16.5" fill="#880204" fill-rule="evenodd" stroke="none"/>
      <path d="M22.85 18.65 L22.9 19.1 23.75 20.05 24.75 20.7 25.15 21.2 25.55 21.55 Q26.0 21.6 25.9 21.05 L26.65 22.35 26.2 22.6 26.1 22.4 25.4 21.5 23.4 19.9 22.75 19.55 Q21.35 18.9 19.7 18.95 18.0 19.0 16.75 19.8 L16.2 20.2 16.15 20.2 16.1 20.25 16.05 20.3 15.2 20.9 15.1 21.0 15.05 21.1 Q13.75 22.1 13.85 22.65 L13.85 22.7 14.0 22.9 13.85 22.75 13.85 22.7 13.8 22.5 Q13.75 22.4 13.6 22.6 L13.6 22.7 13.45 22.9 13.4 23.15 Q13.3 23.4 13.35 23.65 L13.4 23.85 13.75 24.25 13.15 24.15 13.05 23.65 13.0 23.15 13.0 22.7 Q13.0 21.4 13.85 20.45 L14.1 20.15 14.15 20.15 14.35 19.95 14.85 19.55 16.85 18.5 17.1 18.35 Q17.65 18.05 18.35 17.9 L19.4 17.8 21.5 18.15 22.15 18.35 22.85 18.65 M25.85 22.65 L25.8 22.5 25.8 22.4 25.85 22.65" fill="#6d0200" fill-rule="evenodd" stroke="none"/>
      <path d="M23.55 21.05 L23.4 20.7 Q24.8 21.6 25.8 22.5 L25.85 22.65 25.85 22.75 25.85 23.15 25.9 23.4 25.9 23.65 25.9 23.8 25.45 24.7 25.25 23.65 25.05 23.15 24.95 22.9 24.9 22.7 24.5 22.2 23.65 21.15 23.55 21.05 M22.35 26.95 L22.45 26.9 Q22.8 26.75 23.65 26.9 L24.3 26.95 24.2 27.1 23.85 27.0 22.25 27.15 22.15 27.2 22.35 26.95 M10.5 34.4 L17.15 30.5 17.25 30.7 17.95 30.85 18.85 30.9 20.0 30.45 20.5 30.25 20.55 30.25 20.75 30.1 21.05 29.65 21.15 29.4 Q21.15 30.1 21.55 29.85 L22.0 29.05 22.35 28.75 22.55 28.65 Q22.7 28.6 22.8 28.5 L23.05 28.4 23.7 28.2 22.6 30.3 21.3 30.65 20.15 31.0 Q17.55 31.75 15.7 32.65 L14.95 32.85 14.5 32.85 14.3 33.1 14.5 33.35 14.7 33.4 13.75 33.35 12.8 33.55 11.45 34.2 11.05 34.45 10.55 34.45 10.5 34.4 M21.55 27.75 L21.6 27.7 21.55 27.9 21.55 27.75 M21.3 28.5 L21.4 28.35 21.35 28.45 21.3 28.65 21.3 28.5 M10.4 29.4 L10.25 29.8 Q10.15 29.9 10.2 30.1 L10.5 30.25 11.35 29.6 11.75 29.55 11.5 30.1 11.35 30.7 11.45 30.9 11.7 30.95 12.05 30.75 12.45 30.45 12.85 30.25 12.6 30.9 Q12.3 31.4 12.55 31.5 L12.95 31.35 13.35 31.2 13.4 31.4 13.35 31.55 12.95 32.2 12.6 32.55 12.5 32.4 12.0 32.15 Q11.6 32.15 11.05 32.75 10.45 33.35 10.5 32.85 10.6 32.5 11.05 32.0 11.35 31.55 10.8 31.35 10.35 31.2 9.45 31.8 L9.15 31.9 9.5 31.4 9.9 30.9 9.95 30.6 Q9.9 30.45 9.75 30.45 L9.5 30.5 9.3 30.4 9.8 29.75 10.1 29.5 Q10.3 29.3 10.4 29.4 M11.25 29.95 L10.6 30.4 10.05 30.85 Q9.95 31.15 10.3 31.15 10.6 31.15 10.95 30.65 L11.2 30.3 11.25 29.95 M17.9 32.3 L18.1 32.2 18.7 32.15 17.9 32.3 M12.4 31.0 L12.45 30.7 12.1 31.0 11.75 31.2 Q11.3 31.55 11.35 31.8 L11.7 31.95 12.15 31.3 12.4 31.0" fill="#9ea19e" fill-rule="evenodd" stroke="none"/>
      <path d="M22.8 21.15 L23.05 21.35 Q23.7 21.9 23.55 22.5 L23.5 22.7 23.15 23.15 22.75 23.2 22.5 23.2 22.45 23.15 21.8 22.7 21.35 22.1 21.0 21.5 21.0 21.15 21.2 20.9 21.95 20.75 22.8 21.15 M22.25 21.05 Q21.75 21.1 21.65 21.45 21.5 21.75 21.7 22.0 L22.2 22.35 22.85 22.1 Q23.1 21.7 22.85 21.3 L22.75 21.2 22.25 21.05" fill="#e5ede5" fill-rule="evenodd" stroke="none"/>
      <path d="M22.8 21.15 L21.95 20.75 21.2 20.9 21.0 21.15 21.0 21.5 21.35 22.1 21.8 22.7 22.45 23.15 22.5 23.2 22.75 23.2 23.15 23.15 23.5 22.7 23.55 22.5 Q23.7 21.9 23.05 21.35 L22.8 21.15 M22.8 25.4 L22.55 24.7 22.35 23.85 22.3 23.65 21.9 23.15 21.4 22.7 21.3 22.6 20.8 22.2 20.55 21.85 20.45 21.65 Q20.3 21.2 20.55 20.95 20.8 20.6 21.7 20.55 22.35 20.45 22.9 21.0 L23.9 22.2 24.15 22.7 24.25 22.9 24.35 23.15 24.45 23.65 24.35 24.7 24.0 24.45 Q23.5 24.2 23.0 24.75 22.75 25.05 22.8 25.4 M17.85 19.95 L18.1 20.15 17.55 20.65 17.05 21.05 16.7 21.7 16.65 22.1 16.65 22.7 Q16.55 23.3 16.0 22.8 L15.85 22.7 15.7 22.6 15.3 22.2 Q14.95 21.85 15.15 21.45 L15.15 21.4 15.25 21.25 15.9 21.25 17.2 20.3 Q17.35 20.1 17.85 19.95" fill="#d6d7d6" fill-rule="evenodd" stroke="none"/>
      <path d="M16.8 19.9 Q17.1 19.7 17.55 19.55 19.35 18.85 20.9 19.15 22.4 19.4 22.8 20.25 L22.9 20.55 22.5 20.35 21.5 20.05 20.75 20.2 20.15 20.6 20.0 20.8 18.0 20.55 17.55 20.65 18.1 20.15 17.85 19.95 18.7 19.7 20.9 19.65 22.35 19.8 19.15 19.4 16.8 19.9" fill="#bbbcbb" fill-rule="evenodd" stroke="none"/>
      <path d="M23.55 21.05 L23.65 21.15 24.5 22.2 24.9 22.7 24.95 22.9 25.05 23.15 25.25 23.65 25.45 24.7 Q25.55 26.05 24.8 26.7 L24.3 26.95 23.65 26.9 Q22.8 26.75 22.45 26.9 L22.35 26.95 Q21.9 27.1 21.85 26.65 L22.0 25.7 22.05 25.55 22.0 24.5 21.65 23.65 21.2 23.15 21.1 23.05 20.55 22.55 19.9 22.0 19.85 21.8 19.85 21.25 20.0 20.8 20.15 20.6 20.75 20.2 21.5 20.05 22.5 20.35 22.9 20.55 23.55 21.05 M24.35 24.7 L24.45 23.65 24.35 23.15 24.25 22.9 24.15 22.7 23.9 22.2 22.9 21.0 Q22.35 20.45 21.7 20.55 20.8 20.6 20.55 20.95 20.3 21.2 20.45 21.65 L20.55 21.85 20.8 22.2 21.3 22.6 21.4 22.7 21.9 23.15 22.3 23.65 22.35 23.85 22.55 24.7 22.8 25.4 22.8 25.45 23.0 25.75 Q23.45 26.2 24.1 25.5 24.55 25.0 24.35 24.7" fill="#c8cac8" fill-rule="evenodd" stroke="none"/>
      <path d="M22.8 25.4 Q22.75 25.05 23.0 24.75 23.5 24.2 24.0 24.45 L24.35 24.7 Q24.55 25.0 24.1 25.5 23.45 26.2 23.0 25.75 L22.8 25.45 22.8 25.4 M22.25 21.05 L22.75 21.2 22.85 21.3 Q23.1 21.7 22.85 22.1 L22.2 22.35 21.7 22.0 Q21.5 21.75 21.65 21.45 21.75 21.1 22.25 21.05" fill="#ffffff" fill-rule="evenodd" stroke="none"/>
      <path d="M16.2 20.2 Q16.45 20.0 16.8 19.9 L19.15 19.4 22.35 19.8 20.9 19.65 18.7 19.7 17.85 19.95 Q17.35 20.1 17.2 20.3 L15.9 21.25 15.25 21.25 15.2 21.25 15.05 21.1 15.1 21.0 15.2 20.9 15.85 20.45 16.05 20.3 16.1 20.25 16.15 20.2 16.2 20.2" fill="#dce1dc" fill-rule="evenodd" stroke="none"/>
      <path d="M19.85 21.8 L19.9 22.0 20.55 22.55 21.1 23.05 21.2 23.15 21.65 23.65 22.0 24.5 22.05 25.55 21.7 25.1 21.45 24.3 20.85 23.65 Q20.2 23.2 19.3 23.15 L18.5 23.15 17.3 23.6 17.2 23.65 16.2 23.65 16.1 23.55 16.0 23.15 16.0 23.1 15.85 22.7 16.0 22.8 Q16.55 23.3 16.65 22.7 L16.65 22.1 16.7 21.7 17.2 22.05 18.05 22.15 19.75 21.8 19.85 21.8 M14.5 26.2 L15.15 26.3 Q15.3 26.6 15.1 26.9 14.95 27.25 14.6 27.15 L14.05 26.8 13.25 26.9 Q13.0 27.0 12.2 27.6 L11.55 27.8 Q11.3 27.45 11.9 26.45 12.1 25.95 12.8 26.15 L13.25 26.45 14.3 26.3 14.5 26.2 M8.0 31.7 L8.4 31.35 9.1 30.85 9.1 30.95 Q9.1 31.25 9.4 31.25 L9.55 31.25 8.9 31.75 8.35 32.1 7.85 32.0 7.85 31.95 8.0 31.7 M9.75 30.8 L9.75 31.05 9.75 30.95 9.75 30.8 M15.7 22.6 L15.25 22.45 Q14.9 22.35 14.85 22.05 14.8 21.6 15.15 21.45 14.95 21.85 15.3 22.2 L15.7 22.6 M14.75 29.75 L15.2 29.25 15.8 29.3 15.95 29.3 16.55 29.35 17.4 29.65 Q17.1 30.5 15.7 30.3 14.85 30.2 14.75 29.75 M9.9 31.8 L9.85 31.95 Q9.85 32.45 10.35 32.45 10.85 32.45 10.85 31.95 L10.85 31.8 Q11.15 32.15 10.0 33.05 8.8 34.0 8.65 33.35 8.55 32.8 9.45 32.1 L9.9 31.8 M12.05 33.05 L11.55 33.6 Q11.15 34.0 10.75 33.85 10.55 33.8 11.0 33.2 L11.55 32.6 11.7 32.55 11.65 32.7 Q11.65 33.05 12.0 33.05 L12.05 33.05" fill="#c2c4c2" fill-rule="evenodd" stroke="none"/>
      <path d="M25.8 22.5 Q24.8 21.6 23.4 20.7 L22.75 19.55 23.4 19.9 25.4 21.5 25.8 22.35 25.8 22.4 25.8 22.5" fill="#a6a8a6" fill-rule="evenodd" stroke="none"/>
      <path d="M28.95 20.85 Q28.3 20.85 28.3 21.55 28.3 22.3 28.95 22.3 L29.5 22.1 29.7 21.55 Q29.7 20.85 28.95 20.85 M31.2 23.3 L30.9 23.3 30.7 23.3 30.4 23.25 30.3 23.25 30.2 23.25 29.7 23.15 29.15 23.05 28.9 23.0 28.45 22.85 28.25 22.7 28.0 22.6 27.95 22.55 27.8 22.4 27.75 22.35 27.75 22.3 27.6 21.35 Q29.1 19.9 29.85 21.25 L29.95 21.85 30.05 22.45 30.25 22.7 30.45 22.8 30.95 23.1 31.05 23.15 31.2 23.3" fill="#969596" fill-rule="evenodd" stroke="none"/>
      <path d="M27.45 21.45 L27.6 21.35 27.75 22.3 27.75 22.35 27.8 22.4 27.95 22.55 28.0 22.6 28.25 22.7 28.45 22.85 28.9 23.0 29.15 23.05 29.7 23.15 30.2 23.25 30.3 23.25 Q29.9 23.3 29.75 23.65 L29.7 23.95 Q29.7 24.65 30.4 24.65 31.1 24.65 31.1 23.95 L31.05 23.65 30.7 23.3 30.9 23.3 31.2 23.3 31.5 23.65 31.65 24.2 Q31.7 24.7 31.05 25.0 L29.85 24.85 28.55 24.5 28.0 23.65 27.8 23.15 27.75 23.0 27.65 22.7 27.5 21.75 27.45 21.45" fill="#7e827e" fill-rule="evenodd" stroke="none"/>
      <path d="M25.9 23.4 L25.85 23.15 25.85 22.75 25.9 23.15 25.9 23.4 M26.2 22.6 L26.65 22.35 26.8 22.2 27.0 22.0 27.35 21.6 27.45 21.45 27.5 21.75 27.65 22.7 27.75 23.0 26.5 23.3 26.45 23.15 26.3 22.7 26.2 22.6 M11.35 25.8 L11.3 25.95 Q11.0 26.45 11.0 26.8 L11.0 26.95 9.3 27.2 Q8.75 27.3 7.45 28.2 L8.25 27.35 8.75 26.3 8.75 26.15 8.8 26.15 10.3 25.95 10.6 25.9 11.35 25.8" fill="#6b6e6b" fill-rule="evenodd" stroke="none"/>
      <path d="M27.75 23.0 L27.8 23.15 28.0 23.65 28.55 24.5 26.7 24.7 26.6 23.65 26.5 23.3 27.75 23.0" fill="#5b5e5b" fill-rule="evenodd" stroke="none"/>
      <path d="M25.45 24.7 L25.9 23.8 25.9 23.65 25.9 23.4 25.9 23.15 25.85 22.75 25.85 22.65 25.8 22.4 25.8 22.35 25.4 21.5 26.1 22.4 26.2 22.6 26.3 22.7 26.45 23.15 26.5 23.3 26.6 23.65 26.7 24.7 26.7 25.9 26.6 26.85 26.6 26.65 26.7 25.5 Q26.7 24.6 26.45 24.8 26.2 24.95 26.2 25.45 L26.1 26.2 25.85 27.25 25.7 27.4 25.15 28.55 24.3 29.4 Q23.8 29.85 22.6 30.3 L23.7 28.2 23.05 28.4 22.8 28.5 Q23.25 28.15 22.9 27.6 22.55 27.15 22.05 27.4 21.45 27.65 21.6 28.2 21.75 28.9 22.35 28.75 L22.0 29.05 21.55 29.85 Q21.15 30.1 21.15 29.4 L21.25 28.85 21.3 28.65 21.35 28.45 21.4 28.35 21.55 27.9 21.6 27.7 21.6 27.65 22.15 27.2 22.25 27.15 23.85 27.0 24.2 27.1 24.3 26.95 24.8 26.7 Q25.55 26.05 25.45 24.7 M26.2 28.3 L25.9 28.45 26.2 28.15 26.35 27.95 26.2 28.3 M25.2 29.95 L25.15 30.05 25.05 30.15 25.2 29.95" fill="#828682" fill-rule="evenodd" stroke="none"/>
      <path d="M30.7 23.3 L31.05 23.65 31.1 23.95 Q31.1 24.65 30.4 24.65 29.7 24.65 29.7 23.95 L29.75 23.65 Q29.9 23.3 30.3 23.25 L30.4 23.25 30.7 23.3" fill="#979997" fill-rule="evenodd" stroke="none"/>
      <path d="M39.7 18.25 L39.8 19.1 39.7 19.45 Q39.4 20.7 38.75 20.5 38.2 20.3 38.4 18.55 38.6 16.85 39.5 17.85 L39.7 18.25 M38.75 21.55 Q38.65 21.2 38.85 20.95 39.2 20.4 39.45 21.0 39.65 21.6 39.2 21.8 38.85 21.95 38.75 21.55" fill="#bb0204" fill-rule="evenodd" stroke="none"/>
      <path d="M7.35 23.7 L7.45 23.7 8.0 24.1 8.4 24.35 8.55 24.6 Q8.9 25.3 8.75 26.15 L8.75 26.3 8.25 27.35 7.45 28.2 Q7.2 28.35 6.9 28.45 6.5 28.65 6.05 28.45 5.55 28.25 5.5 27.75 L6.15 26.6 7.25 25.45 7.5 25.1 7.65 24.25 7.55 23.95 7.35 23.7 M7.5 27.35 Q7.5 26.65 6.75 26.65 6.1 26.65 6.1 27.35 6.1 28.05 6.75 28.05 7.5 28.05 7.5 27.35" fill="#949894" fill-rule="evenodd" stroke="none"/>
      <path d="M8.0 24.1 L8.6 24.1 8.95 24.05 9.65 23.85 10.9 23.35 11.2 23.65 12.05 24.7 12.1 24.75 11.3 24.9 9.3 24.85 8.75 24.6 8.4 24.35 8.0 24.1" fill="#580204" fill-rule="evenodd" stroke="none"/>
      <path d="M8.4 24.35 L8.75 24.6 9.3 24.85 11.3 24.9 12.1 24.75 13.1 24.55 12.95 24.65 Q12.6 25.0 12.7 25.35 L12.65 25.35 12.4 25.1 11.8 25.2 11.35 25.8 10.6 25.9 10.3 25.95 8.8 26.15 8.75 26.15 Q8.9 25.3 8.55 24.6 L8.4 24.35 M14.95 24.25 L14.95 24.4 14.9 24.35 14.95 24.25" fill="#7f827f" fill-rule="evenodd" stroke="none"/>
      <path d="M13.3 16.65 L13.55 16.15 14.65 14.7 16.0 13.4 16.6 12.95 Q17.15 12.65 17.05 13.05 L16.05 14.35 15.55 15.05 14.9 16.05 14.4 17.3 14.35 17.4 Q14.45 16.25 13.4 16.6 L13.3 16.65" fill="#d4d7d4" fill-rule="evenodd" stroke="none"/>
      <path d="M13.3 16.65 L13.4 16.6 Q14.45 16.25 14.35 17.4 L14.35 17.45 14.3 17.55 Q13.95 18.85 13.1 18.8 12.3 18.75 12.55 17.75 12.75 16.9 13.3 16.65" fill="#e9ebe9" fill-rule="evenodd" stroke="none"/>
      <path d="M14.0 22.9 L14.45 22.9 Q14.85 22.85 15.0 23.15 L15.05 23.65 15.0 24.0 14.95 24.25 14.9 24.35 14.9 24.3 14.45 25.3 14.45 25.35 Q14.55 24.85 14.05 24.5 L13.95 24.45 13.75 24.25 13.4 23.85 13.35 23.65 Q13.3 23.4 13.4 23.15 L13.45 22.9 13.6 22.7 13.6 22.6 Q13.75 22.4 13.8 22.5 L13.85 22.7 13.85 22.75 14.0 22.9" fill="#4b2b23" fill-rule="evenodd" stroke="none"/>
      <path d="M13.25 24.5 L13.9 24.45 13.95 24.45 14.05 24.5 Q14.55 24.85 14.45 25.35 L14.4 25.4 14.1 25.7 14.05 25.75 14.05 25.8 13.6 26.0 13.35 26.0 12.85 25.65 12.7 25.35 Q12.6 25.0 12.95 24.65 L13.1 24.55 13.25 24.5 M16.0 27.8 L15.95 27.35 16.3 27.1 17.4 26.2 Q18.45 25.45 19.2 25.9 L19.3 25.95 19.75 26.25 Q20.0 26.45 20.45 26.45 L21.0 26.1 20.9 26.35 20.45 27.05 20.35 27.15 19.7 27.7 19.4 28.05 19.15 28.2 19.0 28.3 18.8 28.4 17.75 28.75 17.15 28.8 16.85 28.7 16.6 28.55 16.4 28.5 16.05 28.05 16.0 27.8" fill="#502b29" fill-rule="evenodd" stroke="none"/>
      <path d="M14.95 24.4 L15.05 24.85 15.0 25.45 14.5 26.2 14.3 26.3 13.25 26.45 12.8 26.15 12.45 25.7 Q12.45 25.3 12.6 25.3 L12.65 25.35 12.7 25.35 12.85 25.65 13.35 26.0 13.6 26.0 14.05 25.8 14.05 25.75 14.1 25.7 14.4 25.4 14.45 25.35 14.45 25.3 14.9 24.3 14.9 24.35 14.95 24.4 M18.7 24.4 L18.2 24.65 17.35 25.15 16.55 25.8 16.05 26.55 15.85 27.05 15.8 27.2 Q15.5 27.0 15.95 26.1 16.5 24.8 18.25 24.15 L18.9 23.9 19.8 23.9 20.65 24.15 Q21.1 24.45 21.2 25.1 L21.15 25.65 21.1 25.65 20.95 24.95 20.55 24.4 19.95 24.2 19.2 24.25 19.0 24.25 18.7 24.4" fill="#8c8b8c" fill-rule="evenodd" stroke="none"/>
      <path d="M16.4 28.5 L16.6 28.55 16.85 28.7 16.9 28.8 16.7 29.05 16.3 29.15 15.95 29.3 15.8 29.3 15.2 29.25 14.75 29.75 14.6 30.1 14.25 31.15 Q14.0 31.8 13.9 31.25 L14.5 29.55 15.0 27.95 14.85 27.3 Q15.2 26.9 16.2 28.4 L16.4 28.5" fill="#929592" fill-rule="evenodd" stroke="none"/>
      <path d="M17.15 30.5 L17.4 30.0 Q17.75 29.45 17.4 29.2 17.6 28.9 18.45 28.9 19.05 28.7 19.65 28.3 L20.6 27.4 Q21.2 26.8 21.45 27.25 L21.55 27.75 21.55 27.9 21.4 28.35 21.3 28.5 21.1 28.1 Q20.8 27.9 20.55 28.25 L20.05 28.8 Q19.4 29.6 18.4 29.9 17.95 30.0 17.85 30.15 L17.65 30.65 17.95 30.85 17.25 30.7 17.15 30.5" fill="#b6b8b6" fill-rule="evenodd" stroke="none"/>
      <path d="M17.95 30.85 L17.65 30.65 17.85 30.15 Q17.95 30.0 18.4 29.9 19.4 29.6 20.05 28.8 L20.55 28.25 Q20.8 27.9 21.1 28.1 L21.3 28.5 21.3 28.65 21.25 28.85 21.15 29.4 21.05 29.65 20.75 30.1 20.95 29.8 Q21.1 29.35 20.8 29.15 L20.25 29.05 Q19.9 29.15 19.75 29.35 19.5 29.7 19.8 30.05 20.1 30.35 20.5 30.25 L20.0 30.45 18.85 30.9 17.95 30.85" fill="#ced2ce" fill-rule="evenodd" stroke="none"/>
      <path d="M20.5 30.25 Q20.1 30.35 19.8 30.05 19.5 29.7 19.75 29.35 19.9 29.15 20.25 29.05 L20.8 29.15 Q21.1 29.35 20.95 29.8 L20.75 30.1 20.55 30.25 20.5 30.25" fill="#e5e7e5" fill-rule="evenodd" stroke="none"/>
      <path d="M12.6 27.6 L12.2 28.05 Q11.85 28.3 12.35 28.5 L12.9 29.0 Q13.05 29.45 13.25 29.5 L13.9 29.15 13.65 29.75 13.1 30.05 12.75 29.6 12.65 29.1 12.35 28.75 11.75 28.8 Q11.4 28.75 11.6 28.4 L12.55 27.6 12.6 27.6 M11.25 29.95 L11.2 30.3 10.95 30.65 Q10.6 31.15 10.3 31.15 9.95 31.15 10.05 30.85 L10.6 30.4 11.25 29.95 M12.4 31.0 L12.15 31.3 11.7 31.95 11.35 31.8 Q11.3 31.55 11.75 31.2 L12.1 31.0 12.45 30.7 12.4 31.0" fill="#887e80" fill-rule="evenodd" stroke="none"/>
      <path d="M14.7 33.4 L14.5 33.35 14.3 33.1 14.5 32.85 14.95 32.85 15.7 32.65 Q17.55 31.75 20.15 31.0 L21.3 30.65 22.6 30.3 Q23.8 29.85 24.3 29.4 L25.15 28.55 25.7 27.4 25.85 27.25 25.45 28.2 24.8 29.05 23.85 30.5 23.15 31.0 22.45 31.5 22.65 31.65 21.05 31.85 18.7 32.15 18.1 32.2 17.9 32.3 16.8 32.65 15.8 33.15 14.85 33.4 14.75 33.4 14.7 33.4 M24.55 30.7 L23.9 31.1 23.55 31.3 23.7 31.2 24.55 30.7" fill="#707570" fill-rule="evenodd" stroke="none"/>
      <path d="M9.1 30.85 L9.4 30.6 Q9.65 30.6 9.75 30.8 L9.75 30.95 9.75 31.05 9.6 31.25 9.55 31.25 9.4 31.25 Q9.1 31.25 9.1 30.95 L9.1 30.85 M10.85 31.8 L10.85 31.95 Q10.85 32.45 10.35 32.45 9.85 32.45 9.85 31.95 L9.9 31.8 Q9.95 31.45 10.35 31.45 10.75 31.45 10.85 31.8 M12.05 33.05 L12.0 33.05 Q11.65 33.05 11.65 32.7 L11.7 32.55 Q11.75 32.35 12.0 32.35 12.2 32.35 12.3 32.5 L12.35 32.7 12.05 33.05" fill="#dbdcdb" fill-rule="evenodd" stroke="none"/>
      <path d="M36.3 32.8 L34.7 32.8 34.75 32.7 34.0 32.5 33.5 32.3 31.95 32.05 29.55 32.1 28.2 32.25 27.7 31.9 26.9 32.0 Q26.65 32.15 26.7 32.4 L25.6 32.5 25.3 32.15 25.5 32.15 Q26.15 32.15 27.8 31.35 28.9 30.85 30.3 30.95 30.75 31.0 31.3 31.35 L32.3 31.65 35.05 32.35 Q35.5 32.4 36.3 32.8 M16.1 34.85 L13.5 35.0 13.9 34.7 Q14.35 34.4 15.05 34.3 L16.3 34.2 18.0 33.8 19.2 33.4 20.45 33.2 22.45 32.95 22.4 33.2 22.45 33.5 21.85 33.7 20.6 33.95 20.0 33.6 19.15 33.7 Q18.7 33.9 18.85 34.2 L17.85 34.3 16.75 34.3 15.7 34.55 16.1 34.85 M7.45 33.6 L7.4 33.5 6.35 32.55 5.3 31.6 5.2 31.0 Q5.1 30.75 4.75 30.6 L3.05 30.45 1.75 29.95 Q1.0 29.35 1.4 28.7 L1.95 28.1 2.85 27.2 3.15 26.65 3.35 26.35 3.6 26.0 3.65 26.05 4.2 26.8 Q4.3 28.05 4.55 28.65 4.85 29.35 5.75 29.6 L6.9 29.55 8.0 29.15 8.75 29.0 Q9.2 28.95 9.25 29.4 L9.0 30.2 8.95 30.25 8.45 31.0 8.0 31.7 7.85 31.95 Q7.65 32.2 7.6 32.4 L7.5 32.6 7.45 33.6 M5.45 30.6 Q5.0 31.2 5.6 31.7 6.3 32.2 6.65 31.5 6.85 30.95 6.4 30.55 L5.45 30.6 M3.25 29.35 L2.65 29.25 Q2.3 29.5 2.45 29.85 2.6 30.4 3.1 30.1 3.55 29.85 3.25 29.35" fill="#650000" fill-rule="evenodd" stroke="none"/>
      <path d="M26.6 26.85 L26.6 26.9 26.6 26.95 26.55 27.15 26.4 27.85 26.35 27.95 26.2 28.15 25.9 28.45 25.35 29.25 25.2 29.95 25.05 30.15 25.0 30.25 24.55 30.7 23.7 31.2 23.55 31.3 Q23.3 31.45 23.1 31.55 L22.65 31.65 22.45 31.5 23.15 31.0 23.85 30.5 24.8 29.05 25.45 28.2 25.85 27.25 26.1 26.2 26.2 25.45 Q26.2 24.95 26.45 24.8 26.7 24.6 26.7 25.5 L26.6 26.65 26.6 26.85" fill="#544245" fill-rule="evenodd" stroke="none"/>
      <path d="M22.8 28.5 Q22.7 28.6 22.55 28.65 L22.35 28.75 Q21.75 28.9 21.6 28.2 21.45 27.65 22.05 27.4 22.55 27.15 22.9 27.6 23.25 28.15 22.8 28.5" fill="#766d76" fill-rule="evenodd" stroke="none"/>
    </g>
  </defs>
</svg>
