<?xml version="1.0" encoding="UTF-8" standalone="no"?>
<svg xmlns:xlink="http://www.w3.org/1999/xlink" height="43.75px" width="56.9px" xmlns="http://www.w3.org/2000/svg">
  <g transform="matrix(1.0, 0.0, 0.0, 1.0, 10.0, -18.0)">
    <use height="43.75" transform="matrix(1.0, 0.0, 0.0, 1.0, -10.0, 18.0)" width="56.9" xlink:href="#shape0"/>
    <use height="8.35" transform="matrix(0.3875, 0.0, 0.0, 0.3875, 21.9, 21.75)" width="4.15" xlink:href="#shape1"/>
    <use height="8.35" transform="matrix(0.3875, 0.0, 0.0, 0.3875, 31.05, 21.75)" width="4.15" xlink:href="#shape1"/>
    <use height="8.35" transform="matrix(0.3875, 0.0, 0.0, 0.3875, 23.05, 21.75)" width="4.15" xlink:href="#shape1"/>
    <use height="8.35" transform="matrix(0.3875, 0.0, 0.0, 0.3875, 24.15, 21.75)" width="4.15" xlink:href="#shape1"/>
    <use height="8.35" transform="matrix(0.3875, 0.0, 0.0, 0.3875, 25.3, 21.75)" width="4.15" xlink:href="#shape1"/>
    <use height="8.35" transform="matrix(0.3875, 0.0, 0.0, 0.3875, 26.45, 21.75)" width="4.15" xlink:href="#shape1"/>
    <use height="8.35" transform="matrix(0.3875, 0.0, 0.0, 0.3875, 27.65, 21.75)" width="4.15" xlink:href="#shape1"/>
    <use height="8.35" transform="matrix(0.3875, 0.0, 0.0, 0.3875, 28.75, 21.75)" width="4.15" xlink:href="#shape1"/>
    <use height="8.35" transform="matrix(0.3875, 0.0, 0.0, 0.3875, 29.9, 21.75)" width="4.15" xlink:href="#shape1"/>
  </g>
  <defs>
    <g id="shape0" transform="matrix(1.0, 0.0, 0.0, 1.0, 10.0, -18.0)">
      <path d="M46.0 54.0 L-10.0 54.0 -10.0 18.0 46.0 18.0 46.0 54.0" fill="#010101" fill-opacity="0.0" fill-rule="evenodd" stroke="none"/>
      <path d="M41.7 20.75 L41.75 20.6 41.55 20.2 41.15 20.05 Q40.9 20.0 40.75 20.2 L40.6 20.6 40.75 21.0 41.0 21.15 41.15 21.15 41.55 21.0 41.7 20.75 M39.1 20.2 Q39.75 20.4 40.4 19.95 L40.5 19.85 Q40.8 19.55 41.25 19.55 41.65 19.55 42.0 19.85 L42.3 20.45 42.3 20.6 42.25 20.95 42.2 21.15 41.95 21.85 41.45 23.45 Q40.4 21.5 39.25 20.4 L39.1 20.2" fill="#bbbbbb" fill-rule="evenodd" stroke="none"/>
      <path d="M41.7 20.75 L41.55 21.0 41.15 21.15 41.0 21.15 41.6 20.85 41.7 20.75 M42.3 20.45 L42.45 20.45 43.2 20.75 43.5 21.5 43.4 22.05 42.65 24.35 43.35 25.9 Q43.6 27.1 44.25 28.0 L43.8 27.85 Q42.5 26.8 42.15 25.0 L41.45 23.45 41.95 21.85 41.95 21.9 42.35 22.05 42.75 21.9 42.95 21.5 42.75 21.1 42.35 20.95 42.25 20.95 42.3 20.6 42.3 20.45 M45.55 28.9 L46.75 29.25 46.75 30.4 Q41.6 31.25 41.75 35.0 L46.45 47.55 Q47.45 50.7 46.25 53.65 L45.75 53.65 45.95 54.35 Q45.95 54.9 45.55 55.35 45.1 55.75 44.55 55.75 44.0 55.75 43.6 55.35 L43.3 54.85 43.35 54.85 Q43.9 54.85 44.35 54.45 44.75 54.0 44.75 53.45 L44.55 52.75 43.75 52.75 44.0 52.9 44.25 53.45 44.0 53.95 43.45 54.2 43.2 54.15 42.95 53.95 42.85 53.9 42.7 53.45 Q42.7 53.1 42.95 52.9 L43.15 52.75 42.2 52.75 42.0 53.45 Q42.0 54.0 42.4 54.45 L42.55 54.55 42.2 54.85 32.25 55.25 32.25 54.3 41.0 53.95 41.65 53.35 41.65 52.75 32.75 52.75 31.05 53.35 31.05 53.05 32.75 52.4 44.3 52.4 45.05 52.75 Q46.25 49.8 45.25 46.65 L40.55 34.1 Q40.4 30.35 45.55 29.5 L45.55 28.9 M28.45 39.7 L26.3 39.6 Q20.8 40.9 14.75 38.15 L14.95 37.85 Q18.3 39.1 21.45 39.15 L24.6 38.8 25.1 38.7 Q27.35 38.25 28.45 39.7 M12.3 31.35 Q11.65 31.0 11.0 31.0 L9.15 30.9 -2.3 30.9 -2.3 30.05 -6.4 30.05 -6.4 29.15 -3.5 29.15 -3.5 30.0 7.95 30.0 9.8 30.1 Q10.7 30.15 11.55 30.75 L12.3 31.35 M-7.6 24.75 L-8.4 24.8 -8.7 23.85 -7.6 23.85 -7.6 24.4 -7.6 24.75 M-4.25 19.3 L-3.95 19.3 -3.55 20.1 -3.95 19.8 -4.25 19.3 M-3.5 20.15 L-3.1 20.15 -3.0 20.3 -3.25 20.3 -3.5 20.15 M36.15 18.75 L37.0 18.75 37.2 19.3 36.35 19.3 36.15 18.75 M44.05 51.95 L34.3 51.95 Q35.2 50.8 37.3 50.65 L40.6 50.65 Q42.95 50.8 44.05 51.95 M37.15 19.7 L37.3 19.8 37.45 19.9 37.7 20.2 Q37.95 20.6 37.85 21.3 L37.75 21.75 Q36.85 22.35 35.65 22.0 L35.65 21.75 Q36.8 22.05 37.7 21.45 37.85 20.6 37.25 19.8 L37.15 19.7 M17.35 30.75 L17.95 30.7 21.55 30.7 21.8 31.6 19.15 31.6 18.55 31.65 Q17.55 31.8 16.75 32.6 15.8 33.55 15.8 34.95 15.8 36.25 16.6 37.15 L16.1 36.9 15.55 36.4 15.15 35.9 Q15.05 34.75 14.6 33.8 14.65 32.55 15.55 31.7 16.35 30.9 17.35 30.75 M24.25 30.75 L24.35 30.75 Q25.65 30.75 26.6 31.7 L26.75 31.9 25.55 31.65 25.45 31.65 24.35 32.65 24.35 34.7 23.8 34.7 Q23.7 37.0 20.6 38.25 L20.25 38.25 20.2 37.9 Q22.8 36.05 23.05 33.8 L23.15 33.8 23.15 31.75 24.25 30.75" fill="#000000" fill-rule="evenodd" stroke="none"/>
      <path d="M34.45 19.3 L34.9 18.0 35.85 18.0 36.15 18.75 36.35 19.3 34.45 19.3 M37.65 19.3 L38.55 19.8 39.1 20.2 39.25 20.4 Q40.4 21.5 41.45 23.45 L42.15 25.0 41.2 25.4 41.1 25.0 39.65 21.75 38.55 21.75 Q38.55 20.9 38.2 20.2 L38.0 19.8 37.65 19.3 M35.2 61.6 L36.05 61.6 36.1 61.75 35.15 61.75 35.2 61.6" fill="#666666" fill-rule="evenodd" stroke="none"/>
      <path d="M14.95 37.85 L13.55 37.25 Q13.95 36.8 13.95 35.45 13.95 33.25 12.65 31.75 L12.3 31.35 11.55 30.75 17.35 30.75 Q16.35 30.9 15.55 31.7 14.65 32.55 14.6 33.8 L14.6 34.05 Q14.6 35.1 15.15 35.9 L15.55 36.4 16.1 36.9 16.6 37.15 Q18.4 38.05 20.25 38.25 L20.6 38.25 Q23.5 38.35 26.45 36.6 L26.6 36.45 27.0 36.0 27.2 35.7 26.65 37.75 27.0 37.85 27.05 37.9 26.35 38.2 25.7 38.45 25.1 38.7 24.6 38.8 21.45 39.15 Q18.3 39.1 14.95 37.85 M41.2 25.4 L42.15 25.0 Q42.5 26.8 43.8 27.85 39.0 29.65 39.9 34.3 L44.05 45.4 Q45.75 49.65 44.3 52.4 L32.75 52.4 32.75 49.25 30.55 39.4 29.4 37.45 28.65 37.05 28.35 36.65 28.2 36.05 28.25 35.65 28.55 35.1 28.55 35.05 28.75 34.5 28.9 33.35 28.9 33.3 Q28.9 31.3 27.5 29.95 26.2 28.65 24.4 28.6 L24.2 28.6 23.75 28.6 20.95 28.65 20.95 25.55 20.95 25.0 26.1 25.0 25.7 25.6 22.4 25.6 21.95 25.7 Q21.2 25.9 21.35 26.85 21.55 27.55 22.15 27.5 L26.7 27.5 Q26.7 26.7 27.2 26.35 L28.05 26.1 31.05 26.1 31.05 25.0 35.55 25.0 35.55 25.5 34.9 25.5 31.75 25.5 31.75 26.9 28.1 26.9 30.0 34.65 30.65 35.0 Q31.1 35.4 31.1 36.05 L30.65 37.05 30.6 37.1 34.3 51.95 44.05 51.95 Q44.95 49.3 44.05 46.65 L39.6 34.85 Q38.25 30.7 41.9 28.15 L41.2 25.4 M32.75 52.75 L41.65 52.75 41.65 53.35 32.75 53.7 32.75 52.75 M15.0 25.55 L14.35 26.3 14.45 28.2 Q14.3 28.35 14.3 28.65 L14.5 29.15 Q14.7 29.35 15.05 29.4 L15.55 29.15 15.6 29.1 Q17.25 28.8 17.85 27.45 L17.85 26.95 18.95 26.95 18.75 29.75 12.2 29.75 Q10.3 27.9 7.7 27.8 L-3.5 27.8 -3.5 26.0 -3.5 25.55 15.0 25.55 M21.8 31.6 L21.55 30.7 24.25 30.75 23.15 31.75 23.15 33.8 23.05 33.8 22.6 33.8 Q22.5 36.25 19.1 37.5 L19.0 37.0 Q22.3 34.65 21.8 31.6 M29.0 35.85 L29.15 36.3 29.6 36.45 30.05 36.3 30.2 35.85 30.05 35.45 29.6 35.25 29.15 35.45 Q29.0 35.6 29.0 35.85" fill="#b2b2b2" fill-rule="evenodd" stroke="none"/>
      <path d="M41.1 25.0 L41.2 25.4 41.9 28.15 Q38.25 30.7 39.6 34.85 L44.05 46.65 Q44.95 49.3 44.05 51.95 42.95 50.8 40.6 50.65 L37.3 50.65 Q35.2 50.8 34.3 51.95 L30.6 37.1 30.65 37.05 31.1 36.05 Q31.1 35.4 30.65 35.0 L30.0 34.65 28.1 26.9 31.75 26.9 34.4 26.9 Q36.05 29.6 38.8 30.1 38.85 29.7 39.05 29.35 39.55 28.2 40.8 27.35 L40.2 25.0 41.1 25.0 M34.45 28.85 L34.45 28.65 Q34.45 28.15 34.1 27.8 33.8 27.45 33.3 27.45 32.8 27.45 32.45 27.8 32.1 28.15 32.15 28.65 L32.15 28.85 29.25 28.85 30.5 33.35 Q31.15 33.55 31.65 34.05 32.45 34.85 32.45 36.0 32.45 37.05 31.7 37.85 L34.85 49.9 43.6 49.9 Q43.75 47.25 42.85 44.6 L39.35 35.7 Q38.7 33.8 38.65 31.95 L35.1 28.85 34.45 28.85" fill="url(#gradient0)" fill-rule="evenodd" stroke="none"/>
      <path d="M44.25 28.0 L45.55 28.35 45.55 28.9 45.55 29.5 Q40.4 30.35 40.55 34.1 L45.25 46.65 Q46.25 49.8 45.05 52.75 L44.3 52.4 Q45.75 49.65 44.05 45.4 L39.9 34.3 Q39.0 29.65 43.8 27.85 L44.25 28.0 M32.25 54.3 L31.05 54.35 31.05 53.35 32.75 52.75 32.75 53.7 41.65 53.35 41.0 53.95 32.25 54.3 M31.05 53.05 L31.05 50.4 30.55 46.65 28.7 40.1 28.45 39.7 Q27.35 38.25 25.1 38.7 L25.7 38.45 26.35 38.2 27.05 37.9 28.3 38.4 29.4 37.45 30.55 39.4 32.75 49.25 32.75 52.4 31.05 53.05 M20.95 28.65 L23.75 28.6 24.2 28.6 24.4 28.6 Q26.2 28.65 27.5 29.95 28.9 31.3 28.9 33.3 L28.9 33.35 28.75 34.5 28.55 35.05 28.55 35.1 27.2 35.7 27.6 34.25 27.6 34.1 Q27.55 32.85 26.75 31.9 L26.6 31.7 Q25.65 30.75 24.35 30.75 L24.25 30.75 21.55 30.7 17.95 30.7 17.35 30.75 11.55 30.75 Q10.7 30.15 9.8 30.1 L7.95 30.0 -3.5 30.0 -3.5 29.15 -3.5 27.8 7.7 27.8 Q10.3 27.9 12.2 29.75 L18.75 29.75 19.2 29.75 Q20.3 29.4 20.95 28.65 M15.6 29.1 L15.55 29.15 15.05 29.4 Q14.7 29.35 14.5 29.15 L14.3 28.65 Q14.3 28.35 14.45 28.2 L14.5 28.1 15.05 27.9 15.55 28.1 Q15.75 28.3 15.75 28.65 L15.75 28.75 15.6 29.1" fill="#555555" fill-rule="evenodd" stroke="none"/>
      <path d="M21.7 19.8 L21.7 19.3 34.45 19.3 36.35 19.3 37.2 19.3 37.65 19.3 38.0 19.8 37.3 19.8 37.15 19.7 35.85 19.65 34.95 19.7 34.95 19.8 21.7 19.8" fill="#525252" fill-rule="evenodd" stroke="none"/>
      <path d="M43.3 54.85 Q42.85 54.8 42.55 54.55 L42.4 54.45 Q42.0 54.0 42.0 53.45 L42.2 52.75 43.15 52.75 42.95 52.9 Q42.7 53.1 42.7 53.45 L42.85 53.9 42.95 53.95 43.2 54.15 43.45 54.2 44.0 53.95 44.25 53.45 44.0 52.9 43.75 52.75 44.55 52.75 44.75 53.45 Q44.75 54.0 44.35 54.45 43.9 54.85 43.35 54.85 L43.3 54.85 M-7.6 20.3 L-7.6 19.8 -7.0 19.25 -4.75 19.25 -4.3 19.25 -4.25 19.3 -3.95 19.8 -3.55 20.1 -3.5 20.15 -3.25 20.3 -2.4 20.9 14.85 20.9 15.1 21.15 21.7 21.15 21.7 20.3 21.7 19.8 34.95 19.8 34.7 20.5 32.5 20.5 32.45 21.75 -3.15 21.75 Q-4.45 20.65 -6.15 20.5 L-7.6 20.5 -7.6 20.3 M37.75 21.75 L37.85 21.3 Q37.95 20.6 37.7 20.2 L37.45 19.9 37.3 19.8 38.0 19.8 38.2 20.2 Q38.55 20.9 38.55 21.75 L37.75 21.75" fill="#737373" fill-rule="evenodd" stroke="none"/>
      <path d="M37.15 19.7 L37.25 19.8 Q37.85 20.6 37.7 21.45 36.8 22.05 35.65 21.75 L35.65 20.5 34.7 20.5 34.95 19.8 34.95 19.7 35.85 19.65 37.15 19.7" fill="#b0b0b0" fill-rule="evenodd" stroke="none"/>
      <path d="M35.65 22.0 Q36.85 22.35 37.75 21.75 L35.55 25.0 Q33.25 24.3 32.7 22.3 L35.65 22.3 35.65 22.0 M35.5 23.55 L35.2 23.45 34.85 23.55 34.75 23.9 34.85 24.2 35.2 24.35 35.5 24.2 35.65 23.9 35.5 23.55" fill="#646464" fill-rule="evenodd" stroke="none"/>
      <path d="M35.65 21.75 L35.65 22.0 35.65 22.3 32.7 22.3 32.45 22.3 32.45 21.75 32.5 20.5 34.7 20.5 35.65 20.5 35.65 21.75 M35.5 23.55 L35.65 23.9 35.5 24.2 35.2 24.35 34.85 24.2 34.75 23.9 34.85 23.55 35.2 23.45 35.5 23.55" fill="#131313" fill-rule="evenodd" stroke="none"/>
      <path d="M35.55 25.0 L37.75 21.75 38.55 21.75 39.65 21.75 41.1 25.0 40.2 25.0 35.55 25.0" fill="#c3c3c3" fill-rule="evenodd" stroke="none"/>
      <path d="M35.55 25.0 L31.05 25.0 26.1 25.0 20.95 25.0 -3.15 25.0 -3.15 21.75 32.45 21.75 32.45 22.3 32.7 22.3 Q33.25 24.3 35.55 25.0" fill="url(#gradient1)" fill-rule="evenodd" stroke="none"/>
      <path d="M34.9 25.5 L35.55 25.5 35.55 25.0 40.2 25.0 40.8 27.35 Q39.55 28.2 39.05 29.35 L34.9 25.5" fill="#4f4f4f" fill-rule="evenodd" stroke="none"/>
      <path d="M31.75 26.9 L31.75 25.5 34.9 25.5 34.4 26.9 31.75 26.9" fill="#242424" fill-rule="evenodd" stroke="none"/>
      <path d="M39.05 29.35 Q38.85 29.7 38.8 30.1 36.05 29.6 34.4 26.9 L34.9 25.5 39.05 29.35" fill="url(#gradient2)" fill-rule="evenodd" stroke="none"/>
      <path d="M31.05 25.0 L31.05 26.1 Q30.55 25.75 30.05 25.65 L29.1 25.65 28.05 26.1 27.2 26.35 Q26.7 26.7 26.7 27.5 L22.15 27.5 Q21.55 27.55 21.35 26.85 21.2 25.9 21.95 25.7 L22.4 25.6 25.7 25.6 26.1 25.0 31.05 25.0" fill="#5e5e5e" fill-rule="evenodd" stroke="none"/>
      <path d="M-3.0 20.3 L21.7 20.3 21.7 21.15 15.1 21.15 14.85 20.9 -2.4 20.9 -3.25 20.3 -3.0 20.3 M34.45 28.85 L34.1 29.45 33.3 29.8 32.45 29.45 32.15 28.85 32.15 28.65 Q32.1 28.15 32.45 27.8 32.8 27.45 33.3 27.45 33.8 27.45 34.1 27.8 34.45 28.15 34.45 28.65 L34.45 28.85 M38.7 48.15 Q38.4 48.5 37.95 48.5 37.45 48.5 37.1 48.15 36.75 47.85 36.8 47.4 36.75 46.9 37.1 46.55 37.45 46.2 37.95 46.25 L38.7 46.55 Q39.05 46.9 39.05 47.4 L38.7 48.15" fill="#c8c8c8" fill-rule="evenodd" stroke="none"/>
      <path d="M32.15 28.85 L32.45 29.45 33.3 29.8 34.1 29.45 34.45 28.85 35.1 28.85 38.65 31.95 Q38.7 33.8 39.35 35.7 L42.85 44.6 Q43.75 47.25 43.6 49.9 L34.85 49.9 31.7 37.85 Q32.45 37.05 32.45 36.0 32.45 34.85 31.65 34.05 31.15 33.55 30.5 33.35 L29.25 28.85 32.15 28.85 M37.5 35.7 Q36.75 34.9 35.7 34.9 34.6 34.9 33.8 35.7 33.05 36.45 33.05 37.55 33.05 38.6 33.8 39.4 34.6 40.15 35.7 40.15 36.75 40.15 37.5 39.4 38.25 38.6 38.3 37.55 38.25 36.45 37.5 35.7 M38.7 48.15 L39.05 47.4 Q39.05 46.9 38.7 46.55 L37.95 46.25 Q37.45 46.2 37.1 46.55 36.75 46.9 36.8 47.4 36.75 47.85 37.1 48.15 37.45 48.5 37.95 48.5 38.4 48.5 38.7 48.15" fill="url(#gradient3)" fill-rule="evenodd" stroke="none"/>
      <path d="M37.5 35.7 Q38.25 36.45 38.3 37.55 38.25 38.6 37.5 39.4 36.75 40.15 35.7 40.15 34.6 40.15 33.8 39.4 33.05 38.6 33.05 37.55 33.05 36.45 33.8 35.7 34.6 34.9 35.7 34.9 36.75 34.9 37.5 35.7 M36.25 36.4 Q35.5 36.95 36.15 37.7 L36.1 38.2 35.7 38.2 35.65 37.7 Q36.1 37.1 35.5 36.55 L35.35 35.6 35.1 35.6 35.2 36.55 Q34.75 37.15 35.35 37.75 L35.4 38.2 35.05 38.15 34.85 37.65 Q35.1 37.05 34.55 36.7 L34.25 35.9 33.95 36.1 34.25 36.9 Q33.75 37.6 34.6 37.9 L34.65 38.15 34.95 38.65 36.3 38.65 36.4 37.8 Q37.15 37.1 36.5 36.4 L36.55 35.7 36.35 35.7 36.25 36.4 M34.2 39.3 Q35.7 40.5 37.6 38.8 L37.25 38.1 35.9 39.1 Q35.05 39.2 34.35 38.7 L34.2 39.3" fill="#535353" fill-rule="evenodd" stroke="none"/>
      <path d="M34.2 39.3 L34.35 38.7 Q35.05 39.2 35.9 39.1 L37.25 38.1 37.6 38.8 Q35.7 40.5 34.2 39.3 M36.25 36.4 L36.35 35.7 36.55 35.7 36.5 36.4 Q37.15 37.1 36.4 37.8 L36.3 38.65 34.95 38.65 34.65 38.15 34.6 37.9 Q33.75 37.6 34.25 36.9 L33.95 36.1 34.25 35.9 34.55 36.7 Q35.1 37.05 34.85 37.65 L35.05 38.15 35.4 38.2 35.35 37.75 Q34.75 37.15 35.2 36.55 L35.1 35.6 35.35 35.6 35.5 36.55 Q36.1 37.1 35.65 37.7 L35.7 38.2 36.1 38.2 36.15 37.7 Q35.5 36.95 36.25 36.4" fill="#3d3d3d" fill-rule="evenodd" stroke="none"/>
      <path d="M-7.6 25.45 L-7.6 24.75 -7.6 24.4 -3.15 25.0 20.95 25.0 20.95 25.55 20.0 25.55 20.0 25.3 15.2 25.3 15.0 25.55 -3.5 25.55 -3.5 26.0 -6.4 25.45 -7.6 25.45 M31.05 26.1 L28.05 26.1 29.1 25.65 30.05 25.65 Q30.55 25.75 31.05 26.1 M18.95 26.95 L17.85 26.95 17.85 26.45 20.0 26.45 20.0 27.0 18.95 26.95 M17.85 27.45 Q17.25 28.8 15.6 29.1 L15.75 28.75 Q17.15 28.55 17.85 27.45" fill="#151515" fill-rule="evenodd" stroke="none"/>
      <path d="M20.95 25.55 L20.95 28.65 Q20.3 29.4 19.2 29.75 L18.75 29.75 18.95 26.95 20.0 27.0 20.0 26.45 20.0 25.55 20.95 25.55" fill="url(#gradient4)" fill-rule="evenodd" stroke="none"/>
      <path d="M28.55 35.1 L28.25 35.65 28.2 36.05 28.35 36.65 28.65 37.05 29.4 37.45 28.3 38.4 27.05 37.9 27.0 37.85 26.65 37.75 27.2 35.7 28.55 35.1 M14.45 28.2 L14.35 26.3 15.0 25.55 15.2 25.3 20.0 25.3 20.0 25.55 20.0 26.45 17.85 26.45 17.85 26.95 17.85 27.45 Q17.15 28.55 15.75 28.75 L15.75 28.65 Q15.75 28.3 15.55 28.1 L15.05 27.9 14.5 28.1 14.45 28.2" fill="#797979" fill-rule="evenodd" stroke="none"/>
      <path d="M29.0 35.85 Q29.0 35.6 29.15 35.45 L29.6 35.25 30.05 35.45 30.2 35.85 30.05 36.3 29.6 36.45 29.15 36.3 29.0 35.85" fill="#676767" fill-rule="evenodd" stroke="none"/>
      <path d="M-7.0 19.25 Q-6.8 18.35 -5.15 18.4 L-4.75 19.25 -7.0 19.25" fill="#b9b9b9" fill-rule="evenodd" stroke="none"/>
      <path d="M-8.7 23.85 L-9.6 23.9 Q-10.4 22.1 -9.6 20.3 L-7.6 20.3 -7.6 20.5 -7.6 23.85 -8.7 23.85" fill="url(#gradient5)" fill-rule="evenodd" stroke="none"/>
      <path d="M-7.6 23.85 L-7.6 20.5 -6.15 20.5 Q-4.45 20.65 -3.15 21.75 L-3.15 25.0 -7.6 24.4 -7.6 23.85" fill="url(#gradient6)" fill-rule="evenodd" stroke="none"/>
      <path d="M-6.4 29.15 L-7.6 29.15 -7.6 25.45 -6.4 25.45 -3.5 26.0 -3.5 27.8 -3.5 29.15 -6.4 29.15" fill="url(#gradient7)" fill-rule="evenodd" stroke="none"/>
    </g>
    <linearGradient gradientTransform="matrix(0.0052, -0.0014, 0.0043, 0.0159, 35.55, 38.3)" gradientUnits="userSpaceOnUse" id="gradient0" spreadMethod="pad" x1="-819.2" x2="819.2">
      <stop offset="0.0" stop-color="#000000"/>
      <stop offset="0.27058823529411763" stop-color="#737373"/>
      <stop offset="0.7215686274509804" stop-color="#808080"/>
      <stop offset="1.0" stop-color="#000000"/>
    </linearGradient>
    <linearGradient gradientTransform="matrix(0.0236, 0.0, 0.0, 0.002, 16.2, 23.35)" gradientUnits="userSpaceOnUse" id="gradient1" spreadMethod="pad" x1="-819.2" x2="819.2">
      <stop offset="0.0" stop-color="#b9b9b9"/>
      <stop offset="1.0" stop-color="#c3c3c3"/>
    </linearGradient>
    <linearGradient gradientTransform="matrix(5.0E-4, -5.0E-4, 0.0026, 0.0026, 36.6, 27.95)" gradientUnits="userSpaceOnUse" id="gradient2" spreadMethod="pad" x1="-819.2" x2="819.2">
      <stop offset="0.027450980392156862" stop-color="#000000"/>
      <stop offset="1.0" stop-color="#4f4f4f"/>
    </linearGradient>
    <linearGradient gradientTransform="matrix(0.0054, -0.0014, 0.0038, 0.0141, 36.5, 39.25)" gradientUnits="userSpaceOnUse" id="gradient3" spreadMethod="pad" x1="-819.2" x2="819.2">
      <stop offset="0.0" stop-color="#000000"/>
      <stop offset="0.27058823529411763" stop-color="#424242"/>
      <stop offset="0.7215686274509804" stop-color="#3d3d3d"/>
      <stop offset="1.0" stop-color="#000000"/>
    </linearGradient>
    <linearGradient gradientTransform="matrix(-0.0014, 0.0, 0.0, -0.0025, 19.85, 27.65)" gradientUnits="userSpaceOnUse" id="gradient4" spreadMethod="pad" x1="-819.2" x2="819.2">
      <stop offset="0.0" stop-color="#000000"/>
      <stop offset="1.0" stop-color="#b2b2b2"/>
    </linearGradient>
    <linearGradient gradientTransform="matrix(0.0, 0.0022, -0.0014, 0.0, -8.8, 22.05)" gradientUnits="userSpaceOnUse" id="gradient5" spreadMethod="pad" x1="-819.2" x2="819.2">
      <stop offset="0.0" stop-color="#4a4a4a"/>
      <stop offset="0.25098039215686274" stop-color="#c1c1c1"/>
      <stop offset="0.6627450980392157" stop-color="#262626"/>
    </linearGradient>
    <linearGradient gradientTransform="matrix(-0.0027, 0.0, 0.0, -0.0028, -5.4, 22.7)" gradientUnits="userSpaceOnUse" id="gradient6" spreadMethod="pad" x1="-819.2" x2="819.2">
      <stop offset="0.027450980392156862" stop-color="#404040"/>
      <stop offset="0.7215686274509804" stop-color="#b2b2b2"/>
    </linearGradient>
    <linearGradient gradientTransform="matrix(0.0, -0.001, 0.0025, 0.0, -5.6, 27.5)" gradientUnits="userSpaceOnUse" id="gradient7" spreadMethod="pad" x1="-819.2" x2="819.2">
      <stop offset="0.0" stop-color="#000000"/>
      <stop offset="1.0" stop-color="#b2b2b2"/>
    </linearGradient>
    <g id="shape1" transform="matrix(1.0, 0.0, 0.0, 1.0, 0.0, 0.0)">
      <path d="M2.65 8.35 L0.0 0.0 1.45 0.0 4.15 8.35 2.65 8.35" fill="#3d3d3d" fill-rule="evenodd" stroke="none"/>
    </g>
  </defs>
</svg>
