<?xml version="1.0" encoding="UTF-8" standalone="no"?>
<svg xmlns:xlink="http://www.w3.org/1999/xlink" height="40.0px" width="50.0px" xmlns="http://www.w3.org/2000/svg">
  <g transform="matrix(1.0, 0.0, 0.0, 1.0, 0.0, 0.0)">
    <use height="40.0" transform="matrix(1.0, 0.0, 0.0, 1.0, 0.0, 0.0)" width="50.0" xlink:href="#shape0"/>
  </g>
  <defs>
    <g id="shape0" transform="matrix(1.0, 0.0, 0.0, 1.0, 0.0, 0.0)">
      <path d="M40.85 15.4 L41.0 15.25 Q41.75 14.6 42.1 15.8 L42.2 16.5 Q42.1 16.95 41.55 16.9 41.05 16.8 40.8 16.25 40.6 15.7 40.85 15.4 M41.35 21.0 Q41.85 19.85 42.6 20.45 43.2 20.9 42.75 21.85 42.3 22.75 41.55 22.45 40.8 22.15 41.35 21.0 M39.4 16.35 Q38.75 15.3 37.85 14.8 36.55 14.0 35.4 14.3 34.1 14.55 33.65 16.0 33.1 17.7 34.55 19.05 35.8 20.25 37.55 20.3 38.55 20.35 39.3 19.85 40.2 19.3 40.15 18.35 40.05 17.35 39.4 16.35 M37.0 13.75 Q38.8 14.15 39.85 15.25 41.15 16.6 41.3 19.0 41.4 20.35 40.35 21.25 39.7 21.8 38.4 21.7 36.05 21.55 34.35 20.15 33.1 19.15 32.75 17.75 32.3 16.15 32.7 15.05 32.9 14.4 33.45 14.1 L34.65 13.7 37.0 13.75" fill="#04e82d" fill-rule="evenodd" stroke="none"/>
      <path d="M42.2 16.5 L42.1 15.8 Q41.75 14.6 41.0 15.25 L40.85 15.4 Q40.0 14.25 39.05 13.75 37.9 13.2 36.65 13.0 L35.15 12.95 Q33.25 13.25 31.9 14.65 31.1 15.45 31.05 16.7 L29.9 17.0 Q29.05 17.45 29.05 18.85 29.05 19.5 29.85 20.3 L30.6 20.75 31.1 20.9 Q31.8 21.0 32.35 20.3 L32.6 19.9 34.6 21.45 35.9 22.1 Q35.05 22.15 35.05 22.75 L35.2 23.2 35.25 23.25 Q35.55 23.95 36.4 23.7 L37.15 23.4 37.65 22.95 37.6 22.85 37.5 22.7 38.4 22.8 39.75 22.9 40.6 22.8 40.6 22.9 40.65 23.0 41.1 23.3 41.7 23.3 42.25 23.1 Q43.45 22.55 43.5 20.8 43.55 19.25 42.8 17.5 L42.2 16.5 M42.8 23.8 L42.1 24.25 42.05 24.25 39.65 24.55 38.0 24.75 36.65 24.65 35.25 24.35 34.65 23.7 34.25 23.35 34.1 23.2 33.5 22.7 Q32.15 21.6 30.3 20.8 28.95 20.2 28.9 18.7 28.75 17.3 29.65 15.8 L30.95 14.3 Q32.85 12.75 34.9 12.35 L37.6 12.45 Q39.7 13.0 41.1 14.1 43.35 15.8 44.3 19.15 44.75 20.85 44.15 22.05 L43.4 23.2 42.8 23.8" fill="#04c52d" fill-rule="evenodd" stroke="none"/>
      <path d="M40.8 13.15 L42.9 14.85 Q43.6 15.4 44.4 17.2 L45.2 19.55 Q45.4 21.7 45.05 22.75 L44.75 23.35 44.2 23.95 43.55 24.4 41.6 25.15 Q38.9 25.95 36.8 25.55 L35.05 25.4 33.3 25.05 29.85 23.85 29.15 23.5 28.35 23.0 27.8 22.5 27.3 21.45 Q27.15 20.2 27.45 18.75 27.7 17.3 28.3 16.2 29.05 14.9 30.05 13.95 30.8 13.25 32.35 12.3 34.75 10.9 38.4 11.95 39.55 12.3 40.8 13.15 M28.45 14.65 L28.75 14.4 Q28.9 14.6 28.05 15.7 L27.3 17.1 26.55 18.45 Q25.95 19.4 25.6 19.35 L25.65 19.1 26.1 18.2 26.75 16.95 27.05 16.45 27.4 15.85 28.2 14.85 28.35 14.7 28.45 14.65 M42.8 23.8 L43.4 23.2 44.15 22.05 Q44.75 20.85 44.3 19.15 43.35 15.8 41.1 14.1 39.7 13.0 37.6 12.45 L34.9 12.35 Q32.85 12.75 30.95 14.3 L29.65 15.8 Q28.75 17.3 28.9 18.7 28.95 20.2 30.3 20.8 32.15 21.6 33.5 22.7 L34.1 23.2 34.25 23.35 34.65 23.7 35.25 24.35 36.65 24.65 38.0 24.75 39.65 24.55 42.05 24.25 42.1 24.25 42.8 23.8" fill="#04bb04" fill-rule="evenodd" stroke="none"/>
      <path d="M40.8 13.15 Q39.55 12.3 38.4 11.95 34.75 10.9 32.35 12.3 30.8 13.25 30.05 13.95 29.05 14.9 28.3 16.2 27.7 17.3 27.45 18.75 27.15 20.2 27.3 21.45 L27.8 22.5 28.35 23.0 29.15 23.5 29.85 23.85 33.3 25.05 35.05 25.4 36.8 25.55 Q38.9 25.95 41.6 25.15 L43.55 24.4 44.2 23.95 44.75 23.35 45.05 22.75 Q45.4 21.7 45.2 19.55 L44.4 17.2 Q43.6 15.4 42.9 14.85 L40.8 13.15 M28.45 14.65 Q29.0 13.9 29.7 13.35 L31.05 12.35 Q32.1 11.65 33.25 11.25 37.25 9.75 41.8 12.75 43.65 13.95 44.8 15.75 45.65 17.15 46.7 20.0 47.5 22.1 46.9 23.65 L46.8 23.85 46.65 24.15 46.6 24.25 46.5 24.45 46.3 24.75 Q45.4 25.85 43.6 26.3 L34.0 26.65 35.5 26.75 36.7 26.75 37.85 26.6 38.35 26.5 Q38.65 26.35 38.35 26.2 L37.5 26.05 35.25 25.95 32.25 25.45 Q31.05 25.1 29.85 24.35 L28.4 23.6 28.2 23.5 27.5 23.05 27.4 23.0 26.9 22.5 26.75 22.25 Q26.2 21.4 26.1 20.15 L26.0 19.65 25.7 19.6 Q25.35 19.95 25.15 20.55 L25.45 19.75 25.6 19.35 Q25.95 19.4 26.55 18.45 L27.3 17.1 28.05 15.7 Q28.9 14.6 28.75 14.4 L28.45 14.65 M46.5 25.65 L47.0 25.85 47.05 25.9 Q49.3 28.15 46.15 28.25 L46.1 28.25 44.6 27.9 Q43.8 27.45 44.45 26.6 L45.7 25.7 46.5 25.65 M45.65 30.05 Q46.15 30.95 45.85 31.7 L45.55 32.2 45.25 32.55 Q44.2 33.45 42.2 33.7 L41.05 33.8 39.9 33.8 38.45 33.5 37.8 33.3 37.2 32.95 36.9 32.75 36.2 31.85 36.1 31.3 Q36.15 30.55 36.8 29.7 38.05 28.1 39.8 27.45 41.8 26.75 43.35 27.85 45.05 29.05 45.65 30.05 M19.9 32.45 L18.5 33.2 16.25 33.5 15.1 33.5 Q13.7 33.35 12.75 32.75 L12.3 32.4 Q11.25 31.4 12.4 29.85 13.35 28.55 14.75 27.95 9.85 28.6 7.25 27.5 5.25 26.65 5.35 25.0 L5.4 24.45 5.6 23.9 5.6 23.85 5.75 23.5 Q6.7 21.45 9.2 19.65 10.4 18.8 11.75 18.5 L14.55 18.6 Q15.25 18.85 15.9 19.25 L17.65 20.75 19.05 22.55 19.35 23.05 19.65 23.55 19.7 23.6 19.75 23.55 Q20.05 23.2 20.45 23.0 L21.15 22.65 21.95 22.5 22.35 22.5 23.45 22.9 23.55 22.95 24.2 23.45 Q25.75 24.8 24.9 25.8 24.1 26.75 22.0 26.85 20.55 26.9 19.6 26.35 18.8 27.15 16.8 27.6 17.6 27.7 18.3 28.2 21.55 30.5 20.25 32.1 L19.9 32.45 M10.9 32.65 Q10.3 33.1 9.1 33.15 L7.75 33.05 7.35 32.95 5.95 32.5 5.6 32.3 Q5.1 31.95 5.15 31.45 5.15 30.9 5.6 30.2 6.55 28.75 7.8 28.3 9.2 27.8 10.55 29.0 11.9 30.15 11.55 31.6 L10.9 32.65 M3.25 29.65 Q2.4 29.6 1.75 29.2 L1.55 29.05 Q0.9 28.5 1.45 27.65 L1.55 27.5 1.7 27.35 1.85 27.2 Q2.35 26.65 3.15 26.4 L3.5 26.35 Q4.35 26.15 4.85 26.6 7.85 29.55 3.75 29.65 L3.25 29.65 M46.45 25.95 Q45.5 25.7 44.95 26.65 44.5 27.3 45.45 27.65 L46.9 27.75 Q47.55 27.5 47.4 26.9 47.25 26.35 46.7 26.0 L46.45 25.95 M43.9 28.85 Q42.5 27.35 39.75 28.1 36.9 28.9 37.05 31.1 37.15 32.35 38.3 32.9 L40.6 33.2 Q41.8 33.1 43.15 32.45 44.85 31.6 44.9 30.65 44.9 30.2 43.9 28.85 M24.85 21.7 L25.05 20.95 Q24.9 21.45 24.9 22.1 L24.9 22.45 24.9 22.85 24.85 22.45 24.85 21.7 M26.95 25.3 L27.2 25.25 26.95 25.35 26.95 25.3 M28.9 25.1 L29.9 25.2 30.7 25.55 31.6 26.0 32.3 26.4 32.6 26.5 32.2 26.45 31.05 25.75 Q29.95 25.2 28.9 25.1 M21.75 23.0 L21.15 23.1 20.2 23.5 19.8 23.85 Q19.3 24.3 19.35 25.05 19.4 25.65 19.8 26.05 L20.2 26.25 21.7 26.45 23.35 25.9 Q24.45 25.4 24.5 24.75 24.5 24.15 23.8 23.6 L23.65 23.45 Q23.2 23.05 22.6 22.95 L21.75 23.0 M8.8 20.75 Q8.3 20.75 7.85 21.2 7.3 21.7 7.15 22.35 L7.15 22.8 6.95 23.65 6.95 24.15 7.0 24.7 Q7.15 25.4 8.0 26.05 8.7 26.6 9.5 26.9 L13.3 27.0 Q16.05 26.8 17.5 25.95 18.55 25.35 18.35 24.15 L18.25 23.6 18.05 23.1 17.75 22.6 17.4 22.05 Q15.85 20.05 15.0 19.55 13.8 18.85 12.3 18.95 10.7 19.05 9.65 19.95 9.15 20.4 8.8 20.75 M18.75 29.1 Q17.55 27.75 15.05 28.4 12.5 29.1 12.65 31.1 12.7 32.2 13.8 32.7 L15.85 33.0 18.1 32.3 Q19.6 31.55 19.65 30.7 19.7 30.05 18.75 29.1 M10.4 29.85 L9.7 28.95 Q8.7 28.35 7.35 29.25 6.05 30.15 6.1 31.3 6.15 32.15 7.4 32.45 L9.95 32.4 Q10.5 32.25 10.8 31.8 11.15 31.35 11.0 30.8 L10.4 29.85 M4.1 26.6 Q2.95 26.35 2.15 27.55 1.6 28.4 2.8 28.85 L4.65 28.95 Q5.5 28.65 5.3 27.85 5.15 27.15 4.45 26.75 L4.1 26.6" fill="#04b104" fill-rule="evenodd" stroke="none"/>
      <path d="M40.85 15.4 Q40.6 15.7 40.8 16.25 41.05 16.8 41.55 16.9 42.1 16.95 42.2 16.5 L42.8 17.5 Q43.55 19.25 43.5 20.8 43.45 22.55 42.25 23.1 L41.7 23.3 41.1 23.3 40.65 23.0 40.6 22.9 40.6 22.8 39.75 22.9 38.4 22.8 37.5 22.7 37.6 22.85 37.65 22.95 37.15 23.4 36.4 23.7 Q35.55 23.95 35.25 23.25 L35.2 23.2 35.05 22.75 Q35.05 22.15 35.9 22.1 L34.6 21.45 32.6 19.9 32.35 20.3 Q31.8 21.0 31.1 20.9 L30.6 20.75 29.85 20.3 Q29.05 19.5 29.05 18.85 29.05 17.45 29.9 17.0 L31.05 16.7 Q31.1 15.45 31.9 14.65 33.25 13.25 35.15 12.95 L36.65 13.0 Q37.9 13.2 39.05 13.75 40.0 14.25 40.85 15.4 M41.35 21.0 Q40.8 22.15 41.55 22.45 42.3 22.75 42.75 21.85 43.2 20.9 42.6 20.45 41.85 19.85 41.35 21.0 M37.0 13.75 L34.65 13.7 33.45 14.1 Q32.9 14.4 32.7 15.05 32.3 16.15 32.75 17.75 33.1 19.15 34.35 20.15 36.05 21.55 38.4 21.7 39.7 21.8 40.35 21.25 41.4 20.35 41.3 19.0 41.15 16.6 39.85 15.25 38.8 14.15 37.0 13.75" fill="#04d72d" fill-rule="evenodd" stroke="none"/>
      <path d="M46.5 24.45 L46.6 24.25 46.65 24.15 46.8 23.85 46.9 23.65 Q47.5 22.1 46.7 20.0 45.65 17.15 44.8 15.75 43.65 13.95 41.8 12.75 37.25 9.75 33.25 11.25 32.1 11.65 31.05 12.35 L29.7 13.35 Q29.0 13.9 28.45 14.65 L28.35 14.7 28.25 14.6 27.95 14.4 Q26.9 13.4 25.8 12.8 L25.45 12.6 Q22.9 11.25 20.5 12.55 L20.0 12.85 19.35 13.35 Q17.8 14.5 16.6 16.45 15.6 18.15 15.9 19.25 15.25 18.85 14.55 18.6 L11.75 18.5 Q10.4 18.8 9.2 19.65 6.7 21.45 5.75 23.5 L5.6 23.85 5.55 23.9 4.65 25.05 3.5 26.3 Q2.55 26.4 1.85 27.2 L1.7 27.35 1.55 27.5 1.45 27.65 Q0.9 28.5 1.55 29.05 L1.75 29.2 Q2.4 29.6 3.25 29.65 L3.45 29.8 5.15 31.45 Q5.1 31.95 5.6 32.3 L5.95 32.5 7.35 32.95 7.75 33.05 9.1 33.15 Q10.3 33.1 10.9 32.65 L12.2 32.35 12.3 32.4 12.75 32.75 Q13.7 33.35 15.1 33.5 L16.25 33.5 18.5 33.2 19.9 32.45 20.55 32.4 Q21.1 32.4 21.65 32.7 22.0 33.45 23.1 33.85 L27.3 34.7 29.75 34.75 29.9 34.8 30.2 34.8 30.3 34.8 30.5 34.85 31.1 34.8 32.4 34.6 33.8 34.2 35.25 33.55 35.8 33.15 35.95 32.95 36.9 32.75 37.8 33.3 38.45 33.5 39.9 33.8 41.05 33.8 42.2 33.7 Q44.2 33.45 45.25 32.55 L45.85 31.7 Q46.15 30.95 45.65 30.05 45.55 29.0 45.75 28.6 L46.1 28.25 46.15 28.25 Q49.3 28.15 47.05 25.9 L47.0 25.85 46.5 25.65 Q46.4 25.3 46.45 24.75 L46.5 24.45 M47.55 21.25 L47.6 21.65 47.6 22.4 47.35 23.8 47.1 24.35 46.95 24.6 46.95 24.65 46.9 25.25 47.0 25.3 47.4 25.55 48.1 26.5 Q48.6 27.3 48.4 27.8 48.1 28.7 46.25 28.75 L46.15 28.85 46.15 29.9 46.15 30.05 46.3 30.45 Q46.6 31.4 46.1 32.3 L44.75 33.45 43.2 34.0 42.35 34.2 40.4 34.3 40.0 34.25 39.85 34.25 39.45 34.2 39.3 34.15 38.85 34.1 38.25 33.9 37.65 33.7 37.1 33.45 36.8 33.25 36.3 33.35 36.2 33.5 35.5 34.0 34.15 34.6 34.0 34.65 32.5 35.1 31.15 35.3 27.25 35.2 25.1 34.85 22.95 34.3 22.3 34.0 21.8 33.6 21.4 33.15 20.55 32.9 20.05 32.95 Q19.45 33.4 18.4 33.7 L18.3 33.7 17.35 33.9 17.25 33.95 16.25 34.0 16.05 34.05 15.75 34.0 15.25 34.0 15.1 33.95 14.65 33.9 14.55 33.9 14.0 33.8 Q12.85 33.5 12.1 32.85 L11.05 33.15 Q10.2 33.65 9.0 33.65 L7.6 33.5 6.3 33.2 6.3 33.15 6.2 33.15 5.25 32.7 4.9 32.35 4.7 31.9 4.65 31.65 4.15 31.15 3.15 30.2 3.05 30.1 2.2 29.95 2.0 29.85 1.7 29.75 1.55 29.65 1.45 29.6 1.3 29.5 1.2 29.4 1.0 29.25 0.7 28.65 0.7 28.2 0.75 28.0 0.75 27.85 0.85 27.65 0.9 27.6 0.9 27.5 1.65 26.65 2.1 26.3 3.25 25.8 4.25 24.75 4.7 24.1 5.15 23.6 Q5.55 22.65 6.3 21.75 L6.8 21.15 8.4 19.6 8.9 19.25 Q10.9 17.85 13.05 17.85 L14.75 18.1 15.4 18.4 Q15.55 16.9 16.95 15.15 L17.3 14.65 17.45 14.55 17.5 14.45 17.75 14.15 18.7 13.25 20.3 12.1 Q21.7 11.45 22.85 11.45 25.55 11.45 28.15 13.95 L28.3 14.05 Q30.4 11.75 33.05 10.75 34.65 10.25 35.95 10.25 38.9 10.25 42.1 12.35 44.0 13.6 45.15 15.35 46.1 16.85 47.2 19.85 L47.55 21.25" fill="#161202" fill-rule="evenodd" stroke="none"/>
      <path d="M47.75 24.1 L47.8 24.05 48.1 22.4 48.1 21.6 48.05 21.15 47.65 19.7 Q46.55 16.65 45.55 15.1 44.35 13.25 42.35 11.95 39.05 9.75 35.95 9.75 34.45 9.75 32.9 10.3 30.3 11.2 28.25 13.35 25.65 10.95 22.85 10.95 21.4 10.95 20.05 11.7 L19.55 11.95 19.4 12.05 17.4 13.8 17.15 14.1 17.05 14.2 16.95 14.35 16.55 14.8 Q15.4 16.35 15.0 17.7 L14.9 17.65 13.05 17.35 Q10.7 17.35 8.65 18.85 L8.1 19.25 8.0 19.35 7.55 19.7 6.4 20.8 5.9 21.4 4.7 23.3 3.8 24.5 3.0 25.35 1.95 25.8 1.85 25.9 1.35 26.25 1.25 26.35 0.75 26.9 0.45 27.3 0.45 27.4 0.35 27.65 0.3 27.75 0.1 28.1 0.1 28.2 0.0 28.65 0.0 0.0 50.0 0.0 50.0 27.7 Q49.9 26.8 49.05 26.0 L47.5 24.8 47.75 24.1 M0.0 28.8 L0.05 29.2 0.25 29.9 0.6 30.4 0.95 30.75 1.05 30.8 1.25 30.95 1.45 31.05 1.55 31.15 2.05 31.35 2.3 31.4 2.55 31.5 3.0 31.6 3.75 32.35 4.1 32.7 4.1 32.75 4.45 33.45 5.0 34.05 6.2 34.65 6.35 34.7 7.75 35.05 9.35 35.2 Q10.9 35.2 11.85 34.6 L12.1 34.55 12.25 34.5 Q12.95 35.0 14.2 35.3 L14.8 35.4 14.95 35.4 15.05 35.45 15.35 35.45 15.55 35.5 15.95 35.5 16.15 35.55 16.7 35.55 19.0 35.25 19.1 35.2 20.85 34.45 20.95 34.45 21.2 34.5 21.55 34.9 22.25 35.35 23.05 35.75 25.4 36.35 27.7 36.7 31.75 36.85 Q33.7 36.65 34.9 36.1 L35.05 36.05 36.5 35.4 37.25 34.95 37.8 35.2 39.15 35.6 39.65 35.65 39.8 35.7 40.3 35.75 40.45 35.8 42.25 35.8 42.35 35.75 42.55 35.75 43.05 35.7 45.2 35.15 45.75 34.9 47.5 33.35 Q48.25 32.15 47.85 30.7 L47.7 30.3 47.7 30.2 Q49.65 29.85 49.95 28.45 L50.0 28.15 50.0 40.0 0.0 40.0 0.0 28.8" fill="#161202" fill-opacity="0.0" fill-rule="evenodd" stroke="none"/>
      <path d="M0.65 29.55 L1.0 29.9 1.2 30.0 1.35 30.1 1.85 30.35 2.1 30.4 2.35 30.5 3.0 30.6 2.9 30.6 3.8 31.45 4.2 31.9 4.25 32.05 4.3 32.2 4.1 32.0 3.3 31.2 3.2 31.1 3.1 31.1 2.4 30.95 2.2 30.85 2.0 30.8 1.8 30.7 1.65 30.65 1.5 30.55 1.35 30.4 1.2 30.35 0.7 29.7 0.65 29.55 M4.65 32.75 L4.95 33.1 6.15 33.65 7.5 34.0 8.4 34.15 9.35 34.2 11.4 33.7 11.5 33.65 11.55 33.65 12.1 33.5 13.9 34.25 14.45 34.4 14.6 34.4 14.9 34.45 15.1 34.5 15.2 34.5 15.3 34.5 15.5 34.55 15.6 34.55 16.0 34.6 17.8 34.5 18.75 34.3 18.85 34.25 20.3 33.6 20.45 33.55 20.55 33.45 20.9 33.45 21.05 33.55 21.8 34.25 22.8 34.8 27.05 35.65 27.1 35.65 27.25 35.65 27.75 35.7 31.65 35.85 34.55 35.25 36.0 34.55 36.55 34.2 36.9 33.9 38.1 34.4 38.6 34.55 38.75 34.55 39.2 34.65 39.35 34.7 39.8 34.75 39.95 34.75 40.3 34.8 40.4 34.8 40.55 34.85 42.25 34.85 44.6 34.3 45.15 34.05 45.3 34.0 46.65 32.8 Q47.2 32.0 46.95 31.05 L46.8 30.3 46.65 29.9 46.6 29.8 46.6 29.35 47.5 29.2 Q48.85 28.95 48.95 28.25 L49.0 27.7 Q49.1 27.05 48.65 26.3 L49.05 26.75 Q49.65 27.5 49.45 28.35 49.3 29.35 47.6 29.7 L47.0 29.8 47.35 30.85 Q47.75 32.05 47.05 33.1 L45.5 34.45 45.0 34.7 44.95 34.75 42.95 35.25 42.5 35.3 40.35 35.3 39.9 35.25 39.75 35.25 39.25 35.15 39.15 35.1 38.6 34.95 37.45 34.5 37.15 34.3 36.9 34.55 36.25 35.0 34.85 35.6 34.7 35.65 31.7 36.35 27.7 36.2 25.45 35.85 23.25 35.3 22.45 35.0 21.55 34.2 21.5 34.1 21.4 34.05 20.95 33.95 20.7 33.95 20.6 34.0 Q19.9 34.5 19.0 34.7 L18.9 34.75 17.85 34.95 17.7 35.0 16.7 35.1 16.15 35.1 16.0 35.05 15.6 35.05 15.45 35.0 15.2 35.0 15.0 34.95 14.85 34.95 14.3 34.8 Q13.2 34.55 12.55 34.05 L12.35 33.95 11.7 34.15 11.65 34.15 11.6 34.2 9.35 34.7 7.85 34.55 6.5 34.2 5.3 33.65 4.85 33.15 4.65 32.75" fill="#161202" fill-opacity="0.4" fill-rule="evenodd" stroke="none"/>
      <path d="M47.75 24.1 L47.5 24.8 49.05 26.0 Q49.9 26.8 50.0 27.7 L50.0 28.15 49.95 28.45 Q49.65 29.85 47.7 30.2 L47.7 30.3 47.85 30.7 Q48.25 32.15 47.5 33.35 L45.75 34.9 45.2 35.15 43.05 35.7 42.55 35.75 42.35 35.75 42.25 35.8 40.45 35.8 40.3 35.75 39.8 35.7 39.65 35.65 39.15 35.6 37.8 35.2 37.25 34.95 36.5 35.4 35.05 36.05 34.9 36.1 Q33.7 36.65 31.75 36.85 L27.7 36.7 25.4 36.35 23.05 35.75 22.25 35.35 21.55 34.9 21.2 34.5 20.95 34.45 20.85 34.45 19.1 35.2 19.0 35.25 16.7 35.55 16.15 35.55 15.95 35.5 15.55 35.5 15.35 35.45 15.05 35.45 14.95 35.4 14.8 35.4 14.2 35.3 Q12.95 35.0 12.25 34.5 L12.1 34.55 11.85 34.6 Q10.9 35.2 9.35 35.2 L7.75 35.05 6.35 34.7 6.2 34.65 5.0 34.05 4.45 33.45 4.1 32.75 4.1 32.7 3.75 32.35 3.0 31.6 2.55 31.5 2.3 31.4 2.05 31.35 1.55 31.15 1.45 31.05 1.25 30.95 1.05 30.8 0.95 30.75 0.6 30.4 0.25 29.9 0.05 29.2 0.0 28.8 0.0 28.65 0.1 28.2 0.1 28.1 0.3 27.75 0.25 27.85 0.2 28.15 0.2 28.65 0.4 29.2 0.65 29.55 0.7 29.7 1.2 30.35 1.35 30.4 1.5 30.55 1.65 30.65 1.8 30.7 2.0 30.8 2.2 30.85 2.4 30.95 3.1 31.1 3.2 31.1 3.3 31.2 4.1 32.0 4.3 32.2 4.5 32.6 4.65 32.75 4.85 33.15 5.3 33.65 6.5 34.2 7.85 34.55 9.35 34.7 11.6 34.2 11.65 34.15 11.7 34.15 12.35 33.95 12.55 34.05 Q13.2 34.55 14.3 34.8 L14.85 34.95 15.0 34.95 15.2 35.0 15.45 35.0 15.6 35.05 16.0 35.05 16.15 35.1 16.7 35.1 17.7 35.0 17.85 34.95 18.9 34.75 19.0 34.7 Q19.9 34.5 20.6 34.0 L20.7 33.95 20.95 33.95 21.4 34.05 21.5 34.1 21.55 34.2 22.45 35.0 23.25 35.3 25.45 35.85 27.7 36.2 31.7 36.35 34.7 35.65 34.85 35.6 36.25 35.0 36.9 34.55 37.15 34.3 37.45 34.5 38.6 34.95 39.15 35.1 39.25 35.15 39.75 35.25 39.9 35.25 40.35 35.3 42.5 35.3 42.95 35.25 44.95 34.75 45.0 34.7 45.5 34.45 47.05 33.1 Q47.75 32.05 47.35 30.85 L47.0 29.8 47.6 29.7 Q49.3 29.35 49.45 28.35 49.65 27.5 49.05 26.75 L48.65 26.3 47.7 25.2 47.4 24.95 47.4 24.85 47.75 24.1" fill="#161202" fill-opacity="0.2" fill-rule="evenodd" stroke="none"/>
      <path d="M46.45 25.95 L46.7 26.0 Q47.25 26.35 47.4 26.9 47.55 27.5 46.9 27.75 L45.45 27.65 Q44.5 27.3 44.95 26.65 45.5 25.7 46.45 25.95 M46.15 27.05 L46.65 26.7 Q46.8 26.15 46.0 26.15 L45.6 26.45 Q45.45 26.75 45.6 26.95 L46.15 27.05 M7.15 22.8 Q7.2 23.3 7.65 23.55 L8.0 23.65 8.05 23.7 8.1 23.95 8.25 24.5 Q8.85 26.0 11.25 26.45 13.9 26.95 15.8 25.95 17.2 25.15 17.4 24.7 L17.5 23.6 17.35 23.1 17.1 22.6 16.3 21.5 Q14.7 19.75 13.35 19.5 11.45 19.1 10.25 20.05 9.7 20.5 9.35 20.9 L9.05 20.75 8.8 20.75 Q9.15 20.4 9.65 19.95 10.7 19.05 12.3 18.95 13.8 18.85 15.0 19.55 15.85 20.05 17.4 22.05 L17.75 22.6 18.05 23.1 18.25 23.6 18.35 24.15 Q18.55 25.35 17.5 25.95 16.05 26.8 13.3 27.0 L9.5 26.9 Q8.7 26.6 8.0 26.05 7.15 25.4 7.0 24.7 L6.95 24.15 6.95 23.65 7.15 22.8 M4.1 26.6 L4.45 26.75 Q5.15 27.15 5.3 27.85 5.5 28.65 4.65 28.95 L2.8 28.85 Q1.6 28.4 2.15 27.55 2.95 26.35 4.1 26.6 M3.55 26.95 L3.0 27.3 Q2.8 27.65 3.05 27.95 L3.75 28.05 Q4.25 27.9 4.35 27.6 4.45 27.3 4.1 27.1 L3.55 26.95" fill="#04c204" fill-rule="evenodd" stroke="none"/>
      <path d="M34.0 26.65 L43.6 26.3 Q45.4 25.85 46.3 24.75 L46.5 24.45 46.45 24.75 Q46.4 25.3 46.5 25.65 L45.7 25.7 44.45 26.6 Q43.8 27.45 44.6 27.9 L46.1 28.25 45.75 28.6 Q45.55 29.0 45.65 30.05 45.05 29.05 43.35 27.85 41.8 26.75 39.8 27.45 38.05 28.1 36.8 29.7 36.15 30.55 36.1 31.3 L35.95 30.65 34.75 28.8 34.2 28.15 Q33.75 27.45 33.55 27.55 L32.2 26.45 32.6 26.5 32.8 26.5 33.4 26.6 34.0 26.65 M45.85 31.7 L45.25 32.55 45.55 32.2 45.85 31.7 M37.8 33.3 L36.9 32.75 35.95 32.95 Q36.25 32.5 36.2 31.85 L36.9 32.75 37.2 32.95 37.8 33.3 M21.65 32.7 Q21.1 32.4 20.55 32.4 L19.9 32.45 20.25 32.1 Q21.55 30.5 18.3 28.2 17.6 27.7 16.8 27.6 18.8 27.15 19.6 26.35 20.55 26.9 22.0 26.85 24.1 26.75 24.9 25.8 25.75 24.8 24.2 23.45 L23.55 22.95 23.45 22.9 22.35 22.5 21.95 22.5 21.15 22.65 20.45 23.0 Q20.05 23.2 19.75 23.55 L19.7 23.6 19.65 23.55 19.35 23.05 19.05 22.55 17.65 20.75 Q19.95 21.45 21.75 21.55 L24.8 21.65 24.85 21.7 24.85 22.45 24.9 22.85 24.95 22.95 25.05 23.45 25.55 24.35 26.0 24.65 26.15 24.8 26.9 25.3 26.95 25.3 26.95 25.35 Q26.5 25.45 26.05 25.7 23.8 26.85 22.2 29.6 21.0 31.55 21.65 32.7 M12.3 32.4 L12.2 32.35 10.9 32.65 11.55 31.6 Q11.9 30.15 10.55 29.0 9.2 27.8 7.8 28.3 6.55 28.75 5.6 30.2 5.15 30.9 5.15 31.45 L3.45 29.8 3.25 29.65 3.75 29.65 Q7.85 29.55 4.85 26.6 4.35 26.15 3.5 26.35 L3.15 26.4 Q2.35 26.65 1.85 27.2 2.55 26.4 3.5 26.3 L4.65 25.05 5.55 23.9 5.6 23.85 5.6 23.9 5.4 24.45 5.35 25.0 Q5.25 26.65 7.25 27.5 9.85 28.6 14.75 27.95 13.35 28.55 12.4 29.85 11.25 31.4 12.3 32.4" fill="#048d04" fill-rule="evenodd" stroke="none"/>
      <path d="M46.15 27.05 L45.6 26.95 Q45.45 26.75 45.6 26.45 L46.0 26.15 Q46.8 26.15 46.65 26.7 L46.15 27.05 M8.05 23.7 L9.0 23.7 9.0 23.85 9.1 24.35 9.65 25.2 Q10.7 26.1 12.4 26.05 14.0 26.0 15.15 25.15 16.1 24.45 16.3 23.7 L16.3 23.15 16.2 22.65 16.1 22.45 Q15.3 20.8 13.6 20.2 11.95 19.7 11.1 20.2 L9.85 21.5 9.35 20.9 Q9.7 20.5 10.25 20.05 11.45 19.1 13.35 19.5 14.7 19.75 16.3 21.5 L17.1 22.6 17.35 23.1 17.5 23.6 17.4 24.7 Q17.2 25.15 15.8 25.95 13.9 26.95 11.25 26.45 8.85 26.0 8.25 24.5 L8.1 23.95 8.05 23.7 M3.55 26.95 L4.1 27.1 Q4.45 27.3 4.35 27.6 4.25 27.9 3.75 28.05 L3.05 27.95 Q2.8 27.65 3.0 27.3 L3.55 26.95" fill="#04d204" fill-rule="evenodd" stroke="none"/>
      <path d="M8.4 34.15 L9.0 34.15 Q10.3 34.15 11.25 33.6 L11.5 33.5 11.95 33.4 12.1 33.5 11.55 33.65 11.5 33.65 11.4 33.7 9.35 34.2 8.4 34.15 M14.9 34.45 L15.2 34.5 15.1 34.5 14.9 34.45 M15.3 34.5 L15.75 34.5 16.05 34.55 16.3 34.5 17.3 34.45 17.45 34.4 18.45 34.2 18.55 34.15 20.25 33.4 20.55 33.4 20.9 33.45 20.55 33.45 20.45 33.55 20.3 33.6 18.85 34.25 18.75 34.3 17.8 34.5 16.0 34.6 15.6 34.55 15.5 34.55 15.3 34.5 M27.25 35.65 L31.2 35.75 34.2 35.15 34.35 35.05 35.75 34.45 36.55 33.85 36.55 33.8 36.7 33.8 36.85 33.9 36.9 33.9 36.55 34.2 36.0 34.55 34.55 35.25 31.65 35.85 27.75 35.7 27.25 35.65 M40.4 34.8 L41.95 34.75 42.4 34.65 42.65 34.65 43.85 34.35 44.85 33.95 44.95 33.9 46.5 32.55 46.95 31.05 Q47.2 32.0 46.65 32.8 L45.3 34.0 45.15 34.05 44.6 34.3 42.25 34.85 40.55 34.85 40.4 34.8 M46.6 29.35 L46.6 29.25 Q48.45 29.1 48.9 28.0 L49.0 27.7 48.95 28.25 Q48.85 28.95 47.5 29.2 L46.6 29.35" fill="#161202" fill-opacity="0.6" fill-rule="evenodd" stroke="none"/>
      <path d="M25.6 19.35 L25.45 19.75 24.0 19.85 24.25 19.3 24.4 19.25 25.65 19.1 25.6 19.35 M43.9 28.85 Q44.9 30.2 44.9 30.65 44.85 31.6 43.15 32.45 41.8 33.1 40.6 33.2 L38.3 32.9 Q37.15 32.35 37.05 31.1 36.9 28.9 39.75 28.1 42.5 27.35 43.9 28.85 M43.2 29.05 Q41.7 28.05 39.4 28.75 36.95 29.45 37.65 31.55 38.45 33.85 41.85 32.2 45.3 30.45 43.2 29.05 M27.4 15.85 L27.05 16.45 26.35 15.4 Q25.55 14.45 24.6 13.95 L23.0 13.35 Q21.75 13.3 20.2 14.3 18.55 15.4 18.35 16.6 18.2 17.4 18.8 18.1 L20.1 18.95 22.55 19.35 22.8 19.85 20.2 19.5 Q16.05 18.9 17.9 16.15 19.05 14.4 20.85 13.55 L24.65 13.4 Q26.3 14.15 27.35 15.8 L27.4 15.85 M20.9 23.5 L19.9 24.1 Q19.5 24.6 19.75 25.35 L19.95 25.75 22.5 25.8 Q24.75 24.65 23.35 23.7 L22.9 23.45 20.95 23.5 20.9 23.5 M21.75 23.0 L22.6 22.95 Q23.2 23.05 23.65 23.45 L23.8 23.6 Q24.5 24.15 24.5 24.75 24.45 25.4 23.35 25.9 L21.7 26.45 20.2 26.25 19.8 26.05 Q19.4 25.65 19.35 25.05 19.3 24.3 19.8 23.85 L20.2 23.5 21.15 23.1 21.75 23.0 M10.4 29.85 L11.0 30.8 Q11.15 31.35 10.8 31.8 10.5 32.25 9.95 32.4 L7.4 32.45 Q6.15 32.15 6.1 31.3 6.05 30.15 7.35 29.25 8.7 28.35 9.7 28.95 L10.4 29.85 M18.75 29.1 Q19.7 30.05 19.65 30.7 19.6 31.55 18.1 32.3 L15.85 33.0 13.8 32.7 Q12.7 32.2 12.65 31.1 12.5 29.1 15.05 28.4 17.55 27.75 18.75 29.1 M13.2 31.5 Q13.9 33.6 16.95 32.1 20.05 30.55 18.15 29.25 16.8 28.35 14.75 28.95 12.55 29.6 13.2 31.5 M6.8 30.2 Q6.45 30.75 6.75 31.25 7.7 32.85 9.4 31.55 11.15 30.25 9.65 29.35 L7.55 29.4 6.8 30.2 M34.15 30.9 L34.2 30.85 Q35.55 30.4 34.9 32.05 34.25 33.65 33.05 33.2 L32.7 33.0 Q32.45 32.8 32.55 32.5 L31.5 32.8 29.65 33.0 29.85 32.45 30.0 32.4 31.85 32.0 Q32.75 31.6 32.8 30.55 32.85 29.6 31.95 28.5 31.15 27.55 30.2 27.1 28.95 26.5 28.6 26.45 27.3 26.4 25.75 27.45 24.1 28.5 23.9 29.75 23.75 30.5 24.35 31.2 L25.65 32.05 28.15 32.45 Q28.15 32.8 28.4 32.95 L25.75 32.65 Q23.9 32.35 23.25 31.7 22.45 30.85 23.45 29.25 24.6 27.5 26.4 26.65 L30.25 26.5 Q31.9 27.35 32.95 28.9 33.75 30.2 33.7 31.1 L34.15 30.9" fill="#04ca04" fill-rule="evenodd" stroke="none"/>
      <path d="M43.2 29.05 Q45.3 30.45 41.85 32.2 38.45 33.85 37.65 31.55 36.95 29.45 39.4 28.75 41.7 28.05 43.2 29.05 M41.25 29.3 Q39.95 28.8 38.85 29.3 37.7 29.8 38.4 31.2 39.3 32.95 41.35 31.55 43.4 30.2 41.25 29.3 M27.05 16.45 L26.75 16.95 26.1 18.2 25.65 19.1 24.4 19.25 24.25 19.3 24.2 19.1 23.85 18.65 24.55 18.3 24.9 18.05 25.95 18.0 Q26.9 17.45 26.05 16.6 L25.7 16.3 25.65 16.15 Q25.6 15.15 24.1 14.2 L21.05 14.15 Q19.3 14.95 19.0 16.55 18.8 17.55 19.45 18.25 19.9 18.7 20.65 18.75 L21.95 18.75 22.7 18.75 Q22.55 18.9 22.55 19.2 L22.55 19.35 20.1 18.95 18.8 18.1 Q18.2 17.4 18.35 16.6 18.55 15.4 20.2 14.3 21.75 13.3 23.0 13.35 L24.6 13.95 Q25.55 14.45 26.35 15.4 L27.05 16.45 M20.9 23.5 L20.95 23.5 22.9 23.45 23.35 23.7 Q24.75 24.65 22.5 25.8 L19.95 25.75 19.75 25.35 Q19.5 24.6 19.9 24.1 L20.9 23.5 M20.55 23.85 Q19.75 24.2 20.25 25.15 20.85 26.3 22.2 25.35 23.5 24.45 22.1 23.85 21.25 23.5 20.55 23.85 M13.85 31.2 Q14.65 32.75 16.5 31.5 18.35 30.3 16.4 29.5 L14.25 29.45 Q13.2 29.95 13.85 31.2 M6.8 30.2 L7.55 29.4 9.65 29.35 Q11.15 30.25 9.4 31.55 7.7 32.85 6.75 31.25 6.45 30.75 6.8 30.2 M13.2 31.5 Q12.55 29.6 14.75 28.95 16.8 28.35 18.15 29.25 20.05 30.55 16.95 32.1 13.9 33.6 13.2 31.5 M8.9 29.55 L8.1 29.45 Q7.65 29.6 7.4 30.05 7.15 30.55 7.5 30.95 L8.5 31.1 Q9.1 30.8 9.2 30.3 9.3 29.85 8.9 29.55 M31.25 29.45 L31.25 29.3 Q31.2 28.3 29.7 27.3 L26.6 27.25 Q24.85 28.1 24.55 29.65 24.4 30.65 25.0 31.35 25.45 31.85 26.2 31.9 L27.5 31.85 28.35 31.9 Q28.15 32.05 28.15 32.35 L28.15 32.45 25.65 32.05 24.35 31.2 Q23.75 30.5 23.9 29.75 24.1 28.5 25.75 27.45 27.3 26.4 28.6 26.45 28.95 26.5 30.2 27.1 31.15 27.55 31.95 28.5 32.85 29.6 32.8 30.55 32.75 31.6 31.85 32.0 L30.0 32.4 29.85 32.45 29.8 32.25 29.4 31.75 30.15 31.45 30.5 31.2 31.55 31.15 Q32.5 30.6 31.65 29.7 L31.25 29.45" fill="#04d904" fill-rule="evenodd" stroke="none"/>
      <path d="M41.25 29.3 Q43.4 30.2 41.35 31.55 39.3 32.95 38.4 31.2 37.7 29.8 38.85 29.3 39.95 28.8 41.25 29.3 M22.55 19.35 L22.55 19.2 Q22.55 18.9 22.7 18.75 L21.95 18.75 20.65 18.75 Q19.9 18.7 19.45 18.25 18.8 17.55 19.0 16.55 19.3 14.95 21.05 14.15 L24.1 14.2 Q25.6 15.15 25.65 16.15 L25.7 16.3 24.8 16.4 Q24.1 16.8 24.5 17.55 L24.9 18.05 24.55 18.3 23.85 18.65 24.2 19.1 24.25 19.3 24.0 19.85 23.5 19.95 22.8 19.85 22.55 19.35 M21.0 14.55 L20.05 15.6 Q19.65 16.25 19.7 16.9 L19.9 17.55 20.85 18.1 Q21.4 18.3 22.25 18.1 23.85 17.85 24.2 16.85 L24.25 15.65 23.7 14.65 Q23.2 14.2 22.45 14.05 L21.6 14.15 21.0 14.55 M20.55 24.25 Q20.05 24.85 20.9 25.15 21.75 25.5 22.0 24.9 22.25 24.35 21.6 24.1 20.9 23.85 20.55 24.25 M20.55 23.85 Q21.25 23.5 22.1 23.85 23.5 24.45 22.2 25.35 20.85 26.3 20.25 25.15 19.75 24.2 20.55 23.85 M7.15 22.8 L7.15 22.35 Q7.3 21.7 7.85 21.2 8.3 20.75 8.8 20.75 L9.05 20.75 9.35 20.9 9.85 21.5 11.1 20.2 Q11.95 19.7 13.6 20.2 15.3 20.8 16.1 22.45 L16.2 22.65 16.3 23.15 16.3 23.7 Q16.1 24.45 15.15 25.15 14.0 26.0 12.4 26.05 10.7 26.1 9.65 25.2 L9.1 24.35 9.0 23.85 9.0 23.7 8.05 23.7 8.0 23.65 7.65 23.55 Q7.2 23.3 7.15 22.8 M7.75 22.55 Q8.2 23.5 9.0 22.3 9.75 21.2 8.4 21.4 L7.85 21.85 Q7.6 22.25 7.75 22.55 M10.3 23.65 L10.6 24.15 11.75 24.85 Q12.95 25.2 13.85 24.4 L14.35 23.8 14.5 23.3 14.55 22.75 14.45 22.4 Q14.15 21.25 13.05 20.8 12.05 20.35 10.95 21.1 9.8 21.95 10.1 23.2 L10.15 23.35 10.3 23.65 M15.65 29.85 Q14.75 29.5 14.25 30.0 13.55 30.8 14.7 31.25 15.85 31.7 16.2 30.9 16.55 30.2 15.65 29.85 M13.85 31.2 Q13.2 29.95 14.25 29.45 L16.4 29.5 Q18.35 30.3 16.5 31.5 14.65 32.75 13.85 31.2 M7.75 30.25 Q7.65 30.75 8.25 30.65 8.9 30.55 8.8 30.15 L8.3 29.85 Q7.85 29.95 7.75 30.25 M8.9 29.55 Q9.3 29.85 9.2 30.3 9.1 30.8 8.5 31.1 L7.5 30.95 Q7.15 30.55 7.4 30.05 7.65 29.6 8.1 29.45 L8.9 29.55 M38.85 29.9 Q38.1 30.75 39.35 31.25 40.6 31.75 41.0 30.9 41.4 30.1 40.4 29.7 39.35 29.3 38.85 29.9 M31.25 29.45 L30.4 29.55 Q29.7 29.9 30.1 30.65 L30.5 31.2 30.15 31.45 29.4 31.75 29.8 32.25 29.85 32.45 29.65 33.0 29.1 33.1 28.4 32.95 Q28.15 32.8 28.15 32.45 L28.15 32.35 Q28.15 32.05 28.35 31.9 L27.5 31.85 26.2 31.9 Q25.45 31.85 25.0 31.35 24.4 30.65 24.55 29.65 24.85 28.1 26.6 27.25 L29.7 27.3 Q31.2 28.3 31.25 29.3 L31.25 29.45 M28.05 27.2 L27.15 27.3 26.55 27.65 25.6 28.75 Q25.2 29.35 25.25 30.0 L25.45 30.65 Q25.7 31.05 26.4 31.25 L27.8 31.25 Q29.5 30.9 29.8 29.95 L29.85 28.8 29.3 27.75 28.05 27.2" fill="#03e800" fill-rule="evenodd" stroke="none"/>
      <path d="M35.95 32.95 L35.8 33.15 35.25 33.55 33.8 34.2 32.4 34.6 31.1 34.8 30.5 34.85 30.3 34.8 30.2 34.8 Q29.75 34.6 29.95 34.35 L30.7 33.85 31.9 33.4 32.7 33.0 33.05 33.2 Q34.25 33.65 34.9 32.05 35.55 30.4 34.2 30.85 L34.15 30.9 34.2 30.65 Q34.45 29.7 34.15 28.85 L33.9 28.1 33.45 27.6 33.55 27.55 Q33.75 27.45 34.2 28.15 L34.75 28.8 35.95 30.65 36.1 31.3 36.2 31.85 Q36.25 32.5 35.95 32.95 M27.95 14.4 L28.25 14.6 28.35 14.7 28.2 14.85 27.85 14.45 27.9 14.45 27.95 14.4 M25.1 20.75 L25.05 20.95 24.85 21.7 24.8 21.65 Q24.1 21.55 24.35 21.25 24.5 21.05 25.1 20.75" fill="#00ac75" fill-rule="evenodd" stroke="none"/>
      <path d="M25.45 19.75 L25.15 20.55 25.1 20.75 Q24.5 21.05 24.35 21.25 24.1 21.55 24.8 21.65 L21.75 21.55 Q19.95 21.45 17.65 20.75 L15.9 19.25 Q15.6 18.15 16.6 16.45 17.8 14.5 19.35 13.35 L20.0 12.85 20.5 12.55 Q22.9 11.25 25.45 12.6 L25.8 12.8 Q26.9 13.4 27.95 14.4 L27.9 14.45 27.85 14.45 28.2 14.85 27.4 15.85 27.35 15.8 Q26.3 14.15 24.65 13.4 L20.85 13.55 Q19.05 14.4 17.9 16.15 16.05 18.9 20.2 19.5 L22.8 19.85 23.5 19.95 24.0 19.85 25.45 19.75 M30.2 34.8 L29.9 34.8 29.75 34.75 27.3 34.7 23.1 33.85 Q22.0 33.45 21.65 32.7 21.0 31.55 22.2 29.6 23.8 26.85 26.05 25.7 26.5 25.45 26.95 25.35 L27.2 25.25 27.95 25.1 28.9 25.1 Q29.95 25.2 31.05 25.75 L32.2 26.45 33.55 27.55 33.45 27.6 33.9 28.1 34.15 28.85 Q34.45 29.7 34.2 30.65 L34.15 30.9 33.7 31.1 Q33.75 30.2 32.95 28.9 31.9 27.35 30.25 26.5 L26.4 26.65 Q24.6 27.5 23.45 29.25 22.45 30.85 23.25 31.7 23.9 32.35 25.75 32.65 L28.4 32.95 29.1 33.1 29.65 33.0 31.5 32.8 32.55 32.5 Q32.45 32.8 32.7 33.0 L31.9 33.4 30.7 33.85 29.95 34.35 Q29.75 34.6 30.2 34.8" fill="#04c004" fill-rule="evenodd" stroke="none"/>
      <path d="M24.9 18.05 L24.5 17.55 Q24.1 16.8 24.8 16.4 L25.7 16.3 26.05 16.6 Q26.9 17.45 25.95 18.0 L24.9 18.05 M20.7 15.4 Q20.3 16.15 20.75 16.7 L21.55 17.2 22.45 17.05 Q23.15 16.6 22.85 15.55 22.6 14.5 21.8 14.55 21.1 14.65 20.7 15.4 M21.0 14.55 L21.6 14.15 22.45 14.05 Q23.2 14.2 23.7 14.65 L24.25 15.65 24.2 16.85 Q23.85 17.85 22.25 18.1 21.4 18.3 20.85 18.1 L19.9 17.55 19.7 16.9 Q19.65 16.25 20.05 15.6 L21.0 14.55 M20.55 24.25 Q20.9 23.85 21.6 24.1 22.25 24.35 22.0 24.9 21.75 25.5 20.9 25.15 20.05 24.85 20.55 24.25 M39.4 16.35 Q40.05 17.35 40.15 18.35 40.2 19.3 39.3 19.85 38.55 20.35 37.55 20.3 35.8 20.25 34.55 19.05 33.1 17.7 33.65 16.0 34.1 14.55 35.4 14.3 36.55 14.0 37.85 14.8 38.75 15.3 39.4 16.35 M38.15 16.15 Q37.75 15.6 36.8 15.4 35.5 15.05 34.9 15.65 34.15 16.45 34.9 17.8 35.45 18.9 36.35 19.15 L37.95 19.1 Q38.6 18.75 38.65 17.7 38.65 16.75 38.15 16.15 M7.75 22.55 Q7.6 22.25 7.85 21.85 L8.4 21.4 Q9.75 21.2 9.0 22.3 8.2 23.5 7.75 22.55 M11.95 23.8 Q13.2 24.1 13.55 23.35 L13.65 22.85 13.65 22.7 Q13.7 21.65 12.5 21.35 11.35 21.1 10.9 22.05 10.6 22.7 10.8 23.1 L11.25 23.55 11.95 23.8 M15.65 29.85 Q16.55 30.2 16.2 30.9 15.85 31.7 14.7 31.25 13.55 30.8 14.25 30.0 14.75 29.5 15.65 29.85 M10.3 23.65 L10.15 23.35 10.1 23.2 Q9.8 21.95 10.95 21.1 12.05 20.35 13.05 20.8 14.15 21.25 14.45 22.4 L14.55 22.75 14.5 23.3 14.35 23.8 13.85 24.4 Q12.95 25.2 11.75 24.85 L10.6 24.15 10.3 23.65 M7.75 30.25 Q7.85 29.95 8.3 29.85 L8.8 30.15 Q8.9 30.55 8.25 30.65 7.65 30.75 7.75 30.25 M38.85 29.9 Q39.35 29.3 40.4 29.7 41.4 30.1 41.0 30.9 40.6 31.75 39.35 31.25 38.1 30.75 38.85 29.9 M30.5 31.2 L30.1 30.65 Q29.7 29.9 30.4 29.55 L31.25 29.45 31.65 29.7 Q32.5 30.6 31.55 31.15 L30.5 31.2 M28.05 27.2 L29.3 27.75 29.85 28.8 29.8 29.95 Q29.5 30.9 27.8 31.25 L26.4 31.25 Q25.7 31.05 25.45 30.65 L25.25 30.0 Q25.2 29.35 25.6 28.75 L26.55 27.65 27.15 27.3 28.05 27.2 M27.1 30.35 L28.05 30.2 Q28.75 29.75 28.45 28.7 28.2 27.65 27.35 27.7 26.65 27.75 26.25 28.5 25.85 29.25 26.3 29.85 L27.1 30.35" fill="#5cff35" fill-rule="evenodd" stroke="none"/>
      <path d="M20.7 15.4 Q21.1 14.65 21.8 14.55 22.6 14.5 22.85 15.55 23.15 16.6 22.45 17.05 L21.55 17.2 20.75 16.7 Q20.3 16.15 20.7 15.4 M35.55 15.7 Q35.05 16.0 35.05 16.9 35.15 17.75 35.9 18.2 36.75 18.7 37.2 17.8 37.6 16.85 37.0 16.2 L36.35 15.7 Q35.85 15.5 35.55 15.7 M38.15 16.15 Q38.65 16.75 38.65 17.7 38.6 18.75 37.95 19.1 L36.35 19.15 Q35.45 18.9 34.9 17.8 34.15 16.45 34.9 15.65 35.5 15.05 36.8 15.4 37.75 15.6 38.15 16.15 M11.95 23.8 L11.25 23.55 10.8 23.1 Q10.6 22.7 10.9 22.05 11.35 21.1 12.5 21.35 13.7 21.65 13.65 22.7 L13.65 22.85 13.55 23.35 Q13.2 24.1 11.95 23.8 M27.1 30.35 L26.3 29.85 Q25.85 29.25 26.25 28.5 26.65 27.75 27.35 27.7 28.2 27.65 28.45 28.7 28.75 29.75 28.05 30.2 L27.1 30.35" fill="#a3ff8e" fill-rule="evenodd" stroke="none"/>
      <path d="M25.15 20.55 Q25.35 19.95 25.7 19.6 L26.0 19.65 26.1 20.15 Q26.2 21.4 26.75 22.25 L26.9 22.5 27.4 23.0 27.5 23.05 28.2 23.5 28.4 23.6 29.85 24.35 Q31.05 25.1 32.25 25.45 L35.25 25.95 37.5 26.05 38.35 26.2 Q38.65 26.35 38.35 26.5 L37.85 26.6 36.7 26.75 35.5 26.75 34.0 26.65 33.4 26.6 32.8 26.5 32.6 26.5 32.3 26.4 31.6 26.0 30.7 25.55 29.9 25.2 28.9 25.1 27.95 25.1 27.2 25.25 26.95 25.3 26.9 25.3 26.15 24.8 26.0 24.65 25.55 24.35 25.05 23.45 24.95 22.95 24.9 22.85 24.9 22.45 24.9 22.1 Q24.9 21.45 25.05 20.95 L25.1 20.75 25.15 20.55" fill="#0ea958" fill-rule="evenodd" stroke="none"/>
      <path d="M35.55 15.7 Q35.85 15.5 36.35 15.7 L37.0 16.2 Q37.6 16.85 37.2 17.8 36.75 18.7 35.9 18.2 35.15 17.75 35.05 16.9 35.05 16.0 35.55 15.7" fill="#daffd2" fill-rule="evenodd" stroke="none"/>
    </g>
  </defs>
</svg>
