<?xml version="1.0" encoding="UTF-8" standalone="no"?>
<svg xmlns:xlink="http://www.w3.org/1999/xlink" height="40.0px" width="50.0px" xmlns="http://www.w3.org/2000/svg">
  <g transform="matrix(1.0, 0.0, 0.0, 1.0, 0.0, 0.0)">
    <use height="40.0" transform="matrix(1.0, 0.0, 0.0, 1.0, 0.0, 0.0)" width="50.0" xlink:href="#shape0"/>
  </g>
  <defs>
    <g id="shape0" transform="matrix(1.0, 0.0, 0.0, 1.0, 0.0, 0.0)">
      <path d="M47.2 16.1 L47.2 16.0 44.85 17.5 44.9 17.5 44.95 17.55 44.4 17.85 44.75 17.0 44.25 16.35 43.8 16.5 43.5 17.75 43.5 17.8 43.65 18.25 42.5 18.65 42.25 18.4 42.2 16.5 41.9 17.0 41.7 18.45 41.25 16.7 40.65 17.9 40.55 19.7 40.6 20.6 40.85 20.35 40.8 20.5 40.2 22.5 39.75 22.35 39.75 20.4 40.25 16.9 41.55 15.55 44.1 15.15 43.25 15.2 44.15 15.1 47.3 16.0 47.25 16.05 47.2 16.1 M36.6 16.6 L36.65 16.6 37.05 16.4 37.7 16.55 37.8 16.55 38.0 17.9 37.85 19.05 37.85 19.1 38.05 20.75 37.0 20.0 36.35 19.7 36.0 19.05 36.6 16.6 M43.65 18.25 L43.65 18.35 41.75 19.55 43.65 18.25 M17.15 21.85 L19.0 20.95 19.8 21.0 19.75 25.6 19.5 25.75 18.15 26.6 18.0 26.7 18.0 26.25 17.9 24.75 16.75 22.1 17.15 21.85 M38.25 22.3 L38.0 21.95 38.1 21.3 38.25 22.3" fill="#615e65" fill-rule="evenodd" stroke="none"/>
      <path d="M47.25 16.05 L47.3 16.0 44.15 15.1 43.25 15.2 41.4 15.3 39.45 16.4 37.7 16.55 37.05 16.4 36.65 16.6 36.6 16.6 35.75 16.65 35.75 16.6 35.95 16.35 36.7 15.65 37.5 15.2 40.3 13.8 40.95 13.1 41.05 11.95 36.25 11.0 33.75 11.35 28.95 12.75 28.95 12.35 28.95 12.3 28.7 11.8 27.05 11.05 26.6 10.9 25.15 10.2 25.35 10.35 25.05 10.2 24.65 8.4 18.45 5.55 16.3 5.25 16.55 8.75 16.75 8.95 16.95 9.45 17.1 9.85 18.05 12.1 18.3 13.7 18.4 13.75 18.7 15.35 18.7 15.45 16.35 16.1 12.75 16.15 9.8 17.9 8.05 18.95 6.95 20.7 6.2 20.9 1.85 23.25 2.4 25.8 2.5 25.85 3.45 26.55 3.8 26.65 3.85 26.65 4.2 26.85 10.7 27.85 11.7 26.9 12.25 26.4 12.05 27.2 11.0 29.25 7.95 32.15 6.85 33.15 7.05 33.95 8.7 34.4 8.75 34.4 10.55 35.5 16.8 34.75 17.85 34.8 18.95 34.5 21.1 34.7 22.0 34.0 25.55 33.9 25.7 33.9 29.65 32.55 32.85 31.05 33.2 30.85 33.65 31.0 39.15 33.5 40.4 33.7 41.9 33.75 42.35 33.25 42.5 32.65 42.5 32.6 41.7 30.8 41.45 29.95 40.2 27.75 40.05 27.45 39.8 27.0 39.65 26.3 40.6 25.6 40.9 25.4 44.4 22.9 44.45 22.9 45.05 22.05 46.65 19.8 47.15 17.4 47.2 16.15 47.25 16.05 M47.95 15.65 L47.7 16.2 47.65 17.45 47.15 19.9 47.05 20.1 44.85 23.2 44.8 23.25 44.65 23.3 40.2 26.45 40.3 26.8 41.85 29.7 42.15 30.6 42.95 32.4 43.05 32.55 43.0 32.7 42.85 33.4 42.8 33.5 42.1 34.25 40.35 34.2 39.05 34.0 39.0 33.95 38.95 33.95 33.25 31.4 25.85 34.4 22.2 34.5 21.25 35.2 21.05 35.2 19.0 35.05 18.0 35.3 17.9 35.35 17.85 35.3 16.75 35.25 10.65 36.0 10.45 36.0 10.3 35.95 8.5 34.85 8.55 34.9 7.4 34.6 7.35 34.6 6.9 34.4 6.65 34.35 6.55 34.1 6.55 34.05 6.3 33.0 10.6 28.95 10.85 28.4 4.1 27.35 4.0 27.35 3.95 27.3 3.7 27.15 3.3 27.05 3.2 27.05 3.15 27.0 2.15 26.25 2.0 26.1 1.95 25.95 1.35 23.4 1.3 23.0 5.95 20.45 6.0 20.45 6.05 20.4 6.65 20.25 7.65 18.7 7.7 18.55 7.8 18.5 12.5 15.7 12.6 15.65 16.3 15.6 18.1 15.05 17.55 12.2 16.35 9.25 16.2 9.1 16.05 9.0 16.05 8.8 15.75 4.65 18.5 5.1 18.65 5.1 25.05 8.05 25.5 9.8 28.95 11.35 29.1 11.45 29.2 11.6 29.25 11.8 29.4 12.1 31.55 11.35 36.2 10.5 36.3 10.45 36.35 10.5 41.6 11.55 41.45 13.15 41.45 13.35 41.3 13.45 40.65 14.15 40.6 14.25 40.5 14.25 38.25 15.35 38.15 15.45 37.2 15.95 37.75 16.05 39.3 15.9 41.25 14.8 44.25 14.6 47.45 15.55 47.95 15.65 M28.95 12.95 L28.95 12.75 29.0 12.95 28.95 12.95" fill="#161202" fill-rule="evenodd" stroke="none"/>
      <path d="M44.95 17.55 L44.9 17.5 44.85 17.5 47.2 16.0 47.2 16.1 47.2 16.15 47.15 17.4 46.65 19.8 Q44.3 20.85 41.9 21.85 L44.65 20.0 45.4 19.75 46.6 18.85 46.5 17.8 46.35 17.8 46.25 17.75 44.95 17.55 M43.25 15.2 L44.1 15.15 41.55 15.55 40.25 16.9 39.75 20.4 39.75 22.35 39.55 19.6 38.7 17.85 39.45 16.4 41.4 15.3 43.25 15.2 M40.8 20.5 L40.85 20.35 41.0 20.2 41.65 18.65 41.7 18.55 41.7 18.45 41.9 17.0 42.2 16.5 42.25 18.4 42.5 18.65 43.65 18.25 41.75 19.55 40.8 20.5 M27.9 29.4 L27.65 29.6 28.9 28.1 29.95 27.75 31.0 29.75 28.85 28.65 28.05 29.3 27.9 29.4" fill="#737077" fill-rule="evenodd" stroke="none"/>
      <path d="M47.2 16.1 L47.25 16.05 47.2 16.15 47.2 16.1 M39.75 22.35 L40.2 22.5 40.8 20.5 41.75 19.55 43.65 18.35 44.4 17.85 44.95 17.55 46.25 17.75 46.35 17.8 46.25 17.85 43.25 19.75 41.05 22.25 39.55 23.0 38.8 23.3 38.25 22.3 38.1 21.3 38.2 20.85 38.05 20.75 37.85 19.1 37.85 19.05 38.0 17.9 37.8 16.55 37.7 16.55 39.45 16.4 38.7 17.85 39.55 19.6 39.75 22.35 M35.75 16.65 L36.6 16.6 36.0 19.05 35.25 17.75 35.2 17.05 35.7 16.65 35.75 16.65" fill="#4e5053" fill-rule="evenodd" stroke="none"/>
      <path d="M46.35 17.8 L46.5 17.8 46.6 18.85 45.4 19.75 44.65 20.0 41.9 21.85 Q44.3 20.85 46.65 19.8 L39.8 22.9 39.55 23.0 41.05 22.25 43.25 19.75 46.25 17.85 46.35 17.8 M40.6 25.6 L39.65 26.3 39.65 26.25 Q40.15 25.95 40.6 25.6 M41.45 22.6 L44.3 22.9 40.15 24.85 39.45 24.0 39.8 22.9 41.45 22.6 M35.7 16.65 L35.2 17.05 35.25 17.75 36.0 19.05 36.35 19.7 35.95 19.5 35.9 19.5 34.25 17.2 35.7 16.65 M38.9 24.05 L38.7 23.7 39.55 23.1 38.8 23.65 38.9 24.05" fill="#38393b" fill-rule="evenodd" stroke="none"/>
      <path d="M47.8 19.2 L48.15 17.45 48.2 16.35 48.6 15.35 44.3 14.1 44.05 14.1 41.35 14.3 41.2 14.3 41.95 13.55 41.95 13.2 42.15 11.15 36.4 10.0 36.25 9.95 36.15 10.0 33.5 10.35 29.65 11.45 29.65 11.4 29.55 11.25 29.5 11.05 29.3 10.95 29.15 10.9 25.9 9.45 25.5 7.7 18.8 4.65 18.65 4.6 18.6 4.6 15.2 4.05 15.55 8.85 15.55 9.2 15.7 9.35 15.85 9.45 15.9 9.55 17.05 12.35 17.5 14.7 16.2 15.1 12.45 15.15 12.35 15.2 12.25 15.3 7.55 18.05 7.45 18.15 7.35 18.2 7.25 18.3 7.2 18.45 6.75 19.25 6.35 19.8 5.85 19.95 5.75 20.0 5.7 20.0 0.7 22.75 0.8 23.1 0.85 23.5 1.5 26.15 0.0 26.9 0.0 0.0 50.0 0.0 50.0 20.15 47.8 19.2 M7.95 30.75 L5.95 32.65 5.7 32.85 5.9 33.4 6.15 34.55 6.05 34.65 6.2 37.2 8.8 38.05 10.3 39.25 16.85 37.75 18.0 37.6 18.2 37.6 18.35 37.55 18.4 37.55 19.25 37.25 21.5 37.45 21.65 37.3 22.15 36.95 25.2 36.85 25.5 36.8 26.05 36.35 26.15 36.35 26.2 36.3 33.9 33.25 38.85 35.7 40.6 36.25 43.05 36.55 44.8 36.05 45.2 34.5 44.15 33.45 43.6 32.55 43.6 32.5 43.5 32.35 41.35 27.8 41.75 27.55 45.8 25.75 49.35 22.6 49.35 21.6 49.5 21.2 50.0 20.15 50.0 40.0 0.0 40.0 0.0 26.9 0.45 28.85 0.95 29.0 4.25 30.4 7.95 30.75" fill="#161202" fill-opacity="0.0" fill-rule="evenodd" stroke="none"/>
      <path d="M40.85 20.35 L40.6 20.6 40.55 19.7 40.65 17.9 41.25 16.7 41.7 18.45 41.7 18.55 41.65 18.65 41.0 20.2 40.85 20.35" fill="#989aa5" fill-rule="evenodd" stroke="none"/>
      <path d="M43.65 18.25 L43.5 17.8 43.5 17.75 43.8 16.5 44.25 16.35 44.75 17.0 44.4 17.85 43.65 18.35 43.65 18.25 M16.75 22.05 L17.15 21.85 16.75 22.1 16.75 22.05 M23.95 25.25 L26.7 24.65 25.75 25.1 24.45 25.7 22.85 26.95 21.35 26.1 20.6 25.8 19.65 25.95 19.15 26.0 19.5 25.75 19.75 25.6 20.1 25.35 21.5 25.25 21.6 25.3 22.3 25.7 23.6 25.3 23.95 25.25 M18.0 26.25 L17.95 25.9 16.6 26.05 16.5 27.1 16.3 26.8 16.9 24.85 16.75 22.1 17.9 24.75 18.0 26.25 M16.5 27.1 L16.85 28.1 16.65 28.35 15.65 30.55 16.0 28.45 16.1 27.8 16.2 27.85 16.5 27.1 M12.95 31.9 L13.1 31.85 11.0 32.8 10.35 33.9 9.75 33.6 9.05 33.65 8.95 33.15 8.65 33.1 8.45 33.0 12.95 31.9" fill="#909098" fill-rule="evenodd" stroke="none"/>
      <path d="M2.2 26.9 L2.95 27.45 3.1 27.5 3.15 27.55 3.55 27.65 3.75 27.75 3.95 27.8 4.0 27.85 10.05 28.75 9.0 29.8 4.55 29.4 4.0 29.25 1.3 28.1 1.15 27.45 2.1 26.9 2.2 26.9 M7.1 35.0 L8.45 35.4 8.65 35.5 10.35 36.55 10.5 36.5 10.7 36.5 16.75 35.75 17.9 35.85 18.05 35.8 18.15 35.8 19.05 35.55 21.05 35.7 21.2 35.7 21.4 35.75 21.55 35.6 22.3 35.0 25.95 34.9 26.0 34.85 30.7 33.2 33.25 31.95 33.8 32.2 25.85 35.4 25.75 35.4 25.65 35.45 25.55 35.45 25.1 35.85 21.8 35.95 21.7 36.05 21.2 36.4 19.3 36.25 19.1 36.25 19.0 36.3 18.9 36.3 18.05 36.6 18.0 36.6 17.95 36.65 16.7 36.8 10.55 38.15 9.4 37.25 9.3 37.2 9.15 37.1 7.15 36.5 7.05 35.0 7.1 35.0 M36.25 33.3 L38.8 34.45 38.9 34.45 39.0 34.5 41.9 34.75 42.25 34.75 43.25 33.85 43.3 33.95 43.3 34.0 44.05 34.8 43.95 35.25 42.95 35.55 40.75 35.3 39.2 34.75 36.25 33.3 M40.9 26.9 L40.8 26.65 44.85 23.75 44.95 23.75 45.15 23.65 47.45 20.4 47.5 20.3 47.6 20.2 48.65 20.65 48.45 21.2 48.4 21.25 48.35 21.45 48.35 22.1 45.25 24.9 41.35 26.6 40.9 26.9" fill="#161202" fill-opacity="0.6" fill-rule="evenodd" stroke="none"/>
      <path d="M39.8 22.9 L46.65 19.8 45.05 22.05 44.45 22.9 44.4 22.9 40.9 25.4 40.6 25.6 Q40.15 25.95 39.65 26.25 L39.4 25.1 39.0 24.55 38.9 24.05 38.8 23.65 39.55 23.1 39.8 22.9 39.45 24.0 40.15 24.85 44.3 22.9 41.45 22.6 39.8 22.9" fill="#29262c" fill-rule="evenodd" stroke="none"/>
      <path d="M47.8 19.2 L50.0 20.15 49.5 21.2 49.35 21.6 49.35 22.6 45.8 25.75 41.75 27.55 41.35 27.8 41.15 27.35 41.55 27.1 45.55 25.3 48.85 22.35 48.85 21.45 48.9 21.4 49.05 21.0 49.35 20.4 47.7 19.7 47.8 19.2 M0.0 26.9 L1.5 26.15 1.5 26.25 1.55 26.4 1.75 26.6 0.6 27.15 0.85 28.5 1.1 28.55 4.4 29.9 8.45 30.3 7.95 30.75 4.25 30.4 0.95 29.0 0.45 28.85 0.0 26.9 M6.15 34.55 L6.2 34.75 6.5 34.8 6.55 34.85 6.65 36.85 8.95 37.55 9.0 37.6 9.1 37.65 10.45 38.7 16.8 37.25 17.95 37.1 18.2 37.1 19.05 36.8 19.15 36.75 21.35 36.9 22.0 36.45 25.3 36.35 25.8 35.9 25.9 35.9 26.0 35.85 33.7 32.8 33.9 32.7 34.1 32.85 39.0 35.25 40.65 35.8 43.0 36.05 44.35 35.65 44.6 34.65 43.75 33.75 43.75 33.7 43.45 33.15 43.6 32.55 44.15 33.45 45.2 34.5 44.8 36.05 43.05 36.55 40.6 36.25 38.85 35.7 33.9 33.25 26.2 36.3 26.15 36.35 26.05 36.35 25.5 36.8 25.2 36.85 22.15 36.95 21.65 37.3 21.5 37.45 19.25 37.25 18.4 37.55 18.35 37.55 18.2 37.6 18.0 37.6 16.85 37.75 10.3 39.25 8.8 38.05 6.2 37.2 6.05 34.65 6.15 34.55" fill="#161202" fill-opacity="0.2" fill-rule="evenodd" stroke="none"/>
      <path d="M1.75 26.6 L2.2 26.9 2.1 26.9 1.15 27.45 1.3 28.1 4.0 29.25 4.55 29.4 9.0 29.8 8.45 30.3 4.4 29.9 1.1 28.55 0.85 28.5 0.6 27.15 1.75 26.6 M6.55 34.85 L7.1 35.0 7.05 35.0 7.15 36.5 9.15 37.1 9.3 37.2 9.4 37.25 10.55 38.15 16.7 36.8 17.95 36.65 18.0 36.6 18.05 36.6 18.9 36.3 19.0 36.3 19.1 36.25 19.3 36.25 21.2 36.4 21.7 36.05 21.8 35.95 25.1 35.85 25.55 35.45 25.65 35.45 25.75 35.4 25.85 35.4 33.8 32.2 36.25 33.3 39.2 34.75 40.75 35.3 42.95 35.55 43.95 35.25 44.05 34.8 43.3 34.0 43.3 33.95 43.25 33.85 43.25 33.8 43.45 33.15 43.75 33.7 43.75 33.75 44.6 34.65 44.35 35.65 43.0 36.05 40.65 35.8 39.0 35.25 34.1 32.85 33.9 32.7 33.7 32.8 26.0 35.85 25.9 35.9 25.8 35.9 25.3 36.35 22.0 36.45 21.35 36.9 19.15 36.75 19.05 36.8 18.2 37.1 17.95 37.1 16.8 37.25 10.45 38.7 9.1 37.65 9.0 37.6 8.95 37.55 6.65 36.85 6.55 34.85 M41.15 27.35 L40.9 26.9 41.35 26.6 45.25 24.9 48.35 22.1 48.35 21.45 48.4 21.25 48.45 21.2 48.65 20.65 47.6 20.2 47.6 20.1 47.65 20.0 47.7 19.7 49.35 20.4 49.05 21.0 48.9 21.4 48.85 21.45 48.85 22.35 45.55 25.3 41.55 27.1 41.15 27.35" fill="#161202" fill-opacity="0.4" fill-rule="evenodd" stroke="none"/>
      <path d="M41.05 11.95 L40.95 13.1 39.65 13.65 37.75 14.1 36.35 14.45 34.95 14.75 35.75 12.45 36.05 12.45 36.75 11.75 41.05 11.95 M37.5 15.2 L36.7 15.65 36.8 15.5 37.5 15.2" fill="#423d3f" fill-rule="evenodd" stroke="none"/>
      <path d="M41.7 30.8 L42.5 32.6 42.5 32.65 42.35 33.25 41.9 33.75 40.4 33.7 39.15 33.5 40.35 33.25 38.5 32.8 36.1 31.45 36.95 31.9 34.8 29.95 33.35 27.7 33.8 27.2 33.15 26.05 33.25 24.9 33.3 24.75 33.3 24.7 34.35 26.05 36.15 28.45 37.7 30.5 39.5 32.55 39.9 32.75 40.4 33.25 41.4 33.0 41.8 32.1 41.45 30.25 41.7 30.8 M33.65 31.0 L33.2 30.85 33.1 30.8 33.15 30.75 33.65 31.0 M37.7 30.4 L37.75 30.45 37.7 30.5 37.7 30.4" fill="#504e4f" fill-rule="evenodd" stroke="none"/>
      <path d="M39.65 26.3 L39.8 27.0 40.05 27.45 40.2 27.75 41.45 29.95 41.7 30.8 41.45 30.25 41.8 32.1 41.4 33.0 40.4 33.25 39.9 32.75 39.95 32.75 39.75 28.25 39.5 32.05 38.9 31.65 38.8 31.6 38.7 31.5 38.3 30.95 38.55 27.95 38.45 28.3 38.55 27.9 38.6 26.7 38.75 24.75 39.0 24.55 39.4 25.1 39.65 26.25 39.65 26.3" fill="#74717d" fill-rule="evenodd" stroke="none"/>
      <path d="M32.85 12.65 L35.5 11.75 34.75 12.3 34.8 12.55 34.95 13.25 33.55 13.9 33.4 13.9 33.55 13.45 32.85 12.65 M30.65 13.35 L31.95 12.95 31.85 13.35 32.5 13.7 30.7 13.35 30.65 13.35 M7.8 21.1 L7.7 21.0 7.9 20.25 8.55 20.15 8.6 20.15 9.25 20.85 8.9 21.7 8.2 21.6 7.8 21.1 M11.95 22.05 L12.2 21.8 11.15 22.0 10.95 22.0 10.7 21.95 10.7 20.4 11.9 20.3 12.15 20.45 12.85 20.9 12.9 21.7 11.95 22.05 M18.1 19.7 L14.9 17.8 14.45 17.15 16.65 17.55 17.3 18.4 17.4 19.1 18.1 19.7" fill="#46494b" fill-rule="evenodd" stroke="none"/>
      <path d="M11.7 26.9 L10.7 27.85 4.2 26.85 3.85 26.65 3.8 26.65 2.5 25.85 2.4 25.8 7.55 25.05 9.45 25.65 9.5 25.65 11.7 26.9 M9.8 17.9 L12.75 16.15 16.35 16.1 18.95 17.7 19.4 18.8 21.7 20.3 18.6 20.45 15.95 21.75 12.7 19.75 11.7 19.1 13.0 19.4 15.85 21.1 14.45 19.45 13.95 17.8 12.55 16.6 10.8 18.0 11.05 18.15 10.35 18.25 9.8 17.9 M28.95 12.75 L33.75 11.35 36.25 11.0 41.05 11.95 36.75 11.75 36.05 12.45 35.75 12.45 35.2 12.35 34.8 12.55 34.75 12.3 35.5 11.75 32.85 12.65 32.7 12.5 32.05 12.5 31.95 12.95 30.65 13.35 29.0 13.4 29.0 12.95 28.95 12.75 M40.95 13.1 L40.3 13.8 37.5 15.2 36.8 15.5 36.7 15.65 35.95 16.35 36.45 15.8 34.4 15.85 35.6 15.55 37.75 14.1 39.65 13.65 40.95 13.1 M35.75 16.6 L35.75 16.65 35.7 16.65 35.75 16.6 M22.7 20.25 L21.65 19.4 22.75 20.25 22.7 20.25 M36.35 14.45 L34.1 15.0 33.7 15.05 34.95 14.75 36.35 14.45 M17.3 18.4 L16.65 17.55 14.45 17.15 14.9 17.8 18.1 19.7 18.45 19.9 19.3 19.75 19.05 19.15 18.5 18.55 17.55 18.25 Q17.45 18.35 17.3 18.4" fill="#383a3d" fill-rule="evenodd" stroke="none"/>
      <path d="M22.55 10.7 L22.75 9.75 23.8 9.25 23.95 10.0 23.25 10.8 22.55 10.7 M20.65 8.2 L21.4 8.75 21.35 10.05 20.7 10.5 20.1 9.5 20.65 8.2" fill="#dfe0e4" fill-rule="evenodd" stroke="none"/>
      <path d="M20.65 8.2 L20.1 9.5 20.7 10.5 21.35 10.05 21.4 8.75 20.65 8.2 M22.55 10.7 L23.25 10.8 23.95 10.0 23.8 9.25 22.75 9.75 22.55 10.7 M19.4 11.2 L17.25 9.5 17.6 7.4 18.7 6.9 23.85 8.75 24.85 10.4 24.85 10.45 23.3 11.7 23.3 11.65 23.4 11.15 22.25 11.5 20.95 11.55 18.8 10.7 19.4 11.2 M30.65 21.05 L31.35 21.3 32.25 21.6 32.35 22.3 32.25 23.05 31.95 22.25 31.4 21.65 30.65 21.05 M32.75 15.1 L33.2 15.8 33.65 16.5 33.6 16.6 33.4 17.3 33.3 17.5 32.75 16.6 32.65 16.4 32.75 15.1" fill="#a3a4ae" fill-rule="evenodd" stroke="none"/>
      <path d="M23.4 11.15 L22.55 12.25 20.75 12.25 19.4 11.2 18.8 10.7 20.95 11.55 22.25 11.5 23.4 11.15" fill="#d4d5da" fill-rule="evenodd" stroke="none"/>
      <path d="M18.4 13.75 L18.3 13.7 18.05 12.1 18.4 13.75 M16.95 9.45 L16.75 8.95 17.25 9.5 19.4 11.2 20.75 12.25 22.55 12.25 23.4 11.15 23.3 11.65 23.3 11.7 24.85 10.45 25.05 10.2 23.2 12.85 26.95 15.55 26.95 15.5 27.1 15.7 27.3 16.5 27.35 17.35 27.25 18.1 22.25 14.55 22.5 12.6 21.65 12.8 21.9 13.5 21.95 14.95 20.9 14.6 20.95 13.3 19.95 12.1 18.8 11.15 19.9 14.25 19.05 13.95 19.0 13.65 18.5 11.8 16.8 9.05 16.95 9.45 M23.95 25.25 L24.1 25.0 24.45 24.25 25.1 23.7 25.7 23.4 26.0 22.85 27.2 23.8 26.95 24.25 26.7 24.65 23.95 25.25 M24.45 25.7 L25.75 25.1 25.25 25.45 24.45 25.7" fill="#75727e" fill-rule="evenodd" stroke="none"/>
      <path d="M16.75 8.95 L16.55 8.75 16.3 5.25 18.45 5.55 24.65 8.4 25.05 10.2 24.85 10.45 24.85 10.4 23.85 8.75 18.7 6.9 17.6 7.4 17.25 9.5 16.75 8.95" fill="#c3c3cb" fill-rule="evenodd" stroke="none"/>
      <path d="M25.55 12.65 L26.1 13.75 25.7 13.35 25.75 13.25 25.45 12.4 25.55 12.65 M25.0 12.15 L25.15 11.1 25.25 11.65 25.3 12.15 25.35 12.2 25.0 12.15 M21.95 14.95 L21.9 13.5 21.65 12.8 22.5 12.6 22.25 14.55 21.95 15.15 21.95 15.05 21.95 14.95" fill="#9b9da8" fill-rule="evenodd" stroke="none"/>
      <path d="M34.35 26.05 L33.3 24.7 33.3 24.75 32.1 23.15 30.85 22.3 30.5 21.55 30.65 21.05 31.4 21.65 31.95 22.25 32.25 23.05 32.35 22.3 33.3 23.3 33.65 24.3 33.5 24.15 33.3 24.7 33.55 24.85 33.9 25.15 34.0 25.1 34.25 25.75 34.35 26.05 M25.05 10.2 L25.65 10.6 25.55 12.65 25.45 12.4 25.35 12.2 25.3 12.15 25.25 11.65 25.05 10.2 M26.85 15.35 L27.4 15.75 26.9 15.4 26.85 15.35 M27.25 18.1 L26.5 18.25 23.95 18.55 23.75 18.6 21.9 18.55 21.2 18.25 22.65 18.15 22.8 17.95 20.9 17.35 21.3 16.9 27.25 18.1 21.55 15.7 21.95 15.05 21.95 15.15 22.25 14.55 27.25 18.1 M25.85 19.1 L26.65 19.3 25.5 19.05 25.6 19.05 25.85 19.1 M24.75 18.9 L24.9 18.9 25.45 19.05 24.75 18.9" fill="#686571" fill-rule="evenodd" stroke="none"/>
      <path d="M26.1 13.75 L26.85 15.35 26.9 15.4 26.95 15.5 26.95 15.55 23.2 12.85 25.05 10.2 25.25 11.65 25.15 11.1 25.0 12.15 24.6 12.05 24.6 13.2 25.4 13.8 25.7 13.35 26.1 13.75" fill="#82808b" fill-rule="evenodd" stroke="none"/>
      <path d="M25.7 13.35 L25.4 13.8 24.6 13.2 24.6 12.05 25.0 12.15 25.35 12.2 25.45 12.4 25.75 13.25 25.7 13.35" fill="#a9aeb3" fill-rule="evenodd" stroke="none"/>
      <path d="M25.35 10.35 L25.15 10.2 26.6 10.9 27.05 11.05 28.7 11.8 28.95 12.35 28.8 13.85 28.85 15.35 28.05 13.75 25.75 11.15 25.75 10.6 25.35 10.35" fill="#494b57" fill-rule="evenodd" stroke="none"/>
      <path d="M25.05 10.2 L25.35 10.35 25.75 10.6 25.75 11.15 28.05 13.75 28.85 15.35 28.8 13.85 30.9 14.7 31.55 15.15 31.9 15.55 31.8 16.55 31.55 16.3 30.8 16.3 30.75 16.25 29.7 14.65 30.3 18.05 31.05 18.7 31.5 19.65 31.35 21.3 30.65 21.05 30.7 19.45 29.45 18.7 28.7 16.55 27.4 15.75 26.85 15.35 26.1 13.75 25.55 12.65 25.65 10.6 25.05 10.2 M28.7 11.8 L28.95 12.3 28.95 12.35 28.7 11.8 M21.95 14.95 L21.95 15.05 21.55 15.7 27.25 18.1 21.3 16.9 20.9 17.35 22.8 17.95 22.65 18.15 21.2 18.25 20.25 17.8 19.65 16.65 19.15 15.3 19.05 13.95 19.9 14.25 20.0 14.7 20.85 15.45 20.9 14.6 21.95 14.95" fill="#565864" fill-rule="evenodd" stroke="none"/>
      <path d="M33.4 13.9 L33.55 13.9 34.95 13.25 34.8 12.55 35.2 12.35 35.75 12.45 34.95 14.75 33.7 15.05 32.75 15.1 28.95 13.8 28.95 12.95 29.0 12.95 29.0 13.4 30.65 13.35 30.7 13.35 32.5 13.7 33.3 14.1 33.4 13.9" fill="#252221" fill-rule="evenodd" stroke="none"/>
      <path d="M28.95 12.35 L28.95 12.75 28.95 12.95 28.95 13.8 32.75 15.1 32.65 16.4 32.75 16.6 31.9 15.55 31.55 15.15 30.9 14.7 28.8 13.85 28.95 12.35 M31.5 19.65 L31.05 18.7 30.3 18.05 29.7 14.65 30.75 16.25 30.8 16.3 31.2 17.6 31.8 18.8 31.55 19.75 31.5 19.65 M33.2 15.8 L34.15 17.2 34.25 17.2 35.9 19.5 35.85 19.5 36.2 19.9 37.25 21.35 37.25 22.0 36.75 21.1 33.8 17.75 33.4 17.3 33.6 16.6 33.65 16.5 33.2 15.8" fill="#7f818f" fill-rule="evenodd" stroke="none"/>
      <path d="M39.9 32.75 L39.5 32.55 37.7 30.5 36.15 28.45 34.95 26.7 36.25 28.15 37.35 29.45 37.8 29.65 37.75 30.05 37.7 30.4 37.7 30.5 37.75 30.45 37.8 30.05 38.0 28.6 37.9 25.8 38.05 26.45 38.4 25.35 38.15 24.1 37.8 23.75 37.2 22.85 37.25 22.0 37.25 21.35 37.8 22.75 39.0 24.55 38.75 24.75 38.6 26.7 38.5 27.85 38.55 27.9 38.45 28.3 38.55 27.95 38.3 30.95 38.7 31.5 38.8 31.6 38.9 31.65 39.5 32.05 39.75 28.25 39.95 32.75 39.9 32.75 M27.4 15.75 L28.7 16.55 28.8 18.25 28.35 17.5 28.05 17.6 27.75 18.6 28.9 19.75 26.65 19.3 25.85 19.1 26.65 19.25 24.95 18.65 23.75 18.6 23.95 18.55 26.5 18.25 27.25 18.1 27.35 17.35 27.3 16.5 27.1 15.7 26.95 15.5 26.9 15.4 27.4 15.75 M33.65 24.3 L33.85 24.4 34.05 25.05 34.0 25.1 33.9 25.15 33.55 24.85 33.3 24.7 33.5 24.15 33.65 24.3" fill="#878996" fill-rule="evenodd" stroke="none"/>
      <path d="M28.9 19.75 L27.75 18.6 28.05 17.6 28.35 17.5 28.8 18.25 28.85 18.3 28.9 19.75" fill="#a9a9b3" fill-rule="evenodd" stroke="none"/>
      <path d="M28.7 16.55 L29.45 18.7 30.7 19.45 30.65 21.05 30.5 21.55 28.9 19.75 28.85 18.3 28.8 18.25 28.7 16.55" fill="#7d7c8b" fill-rule="evenodd" stroke="none"/>
      <path d="M20.9 14.6 L20.85 15.45 20.0 14.7 19.9 14.25 18.8 11.15 19.95 12.1 20.95 13.3 20.9 14.6" fill="#4a4c58" fill-rule="evenodd" stroke="none"/>
      <path d="M18.7 15.35 L18.4 13.75 18.05 12.1 17.1 9.85 16.95 9.45 16.8 9.05 18.5 11.8 19.0 13.65 19.05 13.95 19.15 15.3 19.65 16.65 20.25 17.8 21.2 18.25 21.9 18.55 23.75 18.6 24.95 18.65 26.65 19.25 25.85 19.1 25.6 19.05 25.5 19.05 25.45 19.05 24.9 18.9 24.75 18.9 22.15 18.9 20.8 18.75 19.9 18.25 19.6 17.55 18.75 15.45 18.7 15.35" fill="#777481" fill-rule="evenodd" stroke="none"/>
      <path d="M26.65 19.3 L28.9 19.75 27.0 19.6 24.65 20.0 24.55 20.55 27.0 23.35 25.35 22.2 24.3 21.4 23.85 21.1 22.8 20.25 22.75 20.25 21.65 19.4 20.8 18.75 22.15 18.9 24.75 18.9 25.45 19.05 25.5 19.05 26.65 19.3" fill="#605b5e" fill-rule="evenodd" stroke="none"/>
      <path d="M36.15 28.45 L34.35 26.05 34.25 25.75 36.25 28.15 34.95 26.7 36.15 28.45 M33.3 24.75 L33.25 24.9 33.15 26.05 33.8 27.2 33.35 27.7 33.65 29.3 33.4 30.0 31.4 29.35 29.95 25.05 30.85 22.3 32.1 23.15 33.3 24.75 M27.0 23.35 L24.55 20.55 24.65 20.0 27.0 19.6 28.9 19.75 30.5 21.55 29.7 23.0 29.25 24.25 28.35 24.3 27.0 23.35 M37.75 30.05 L37.8 30.05 37.75 30.45 37.7 30.4 37.75 30.05" fill="#403d3e" fill-rule="evenodd" stroke="none"/>
      <path d="M23.85 21.1 L24.3 21.4 24.3 21.45 23.85 21.1 M19.8 21.0 L19.9 21.0 19.9 21.15 21.9 21.0 22.35 21.15 22.6 21.4 21.6 25.3 21.5 25.25 20.1 25.35 19.75 25.6 19.8 21.0 M19.5 25.75 L19.15 26.0 18.5 26.4 18.15 26.65 18.15 26.6 19.5 25.75" fill="#565456" fill-rule="evenodd" stroke="none"/>
      <path d="M22.8 20.25 L23.85 21.1 24.3 21.45 24.75 21.8 26.0 22.8 25.7 22.65 23.75 21.5 22.6 21.4 22.35 21.15 21.9 21.0 19.9 21.15 19.9 21.0 22.25 20.4 22.85 20.4 22.7 20.3 22.75 20.3 22.8 20.25 M19.15 26.0 L19.65 25.95 23.45 30.9 22.7 31.35 22.25 31.25 22.25 31.2 21.4 30.6 20.9 29.15 20.35 28.5 20.3 29.15 19.9 30.8 19.15 26.0" fill="#272423" fill-rule="evenodd" stroke="none"/>
      <path d="M24.3 21.4 L25.35 22.2 24.75 21.8 24.3 21.45 24.3 21.4 M26.7 24.65 L26.95 24.25 27.6 24.75 28.55 26.85 27.9 28.2 27.0 29.4 23.7 30.7 23.6 29.6 22.85 26.95 24.45 25.7 25.25 25.45 25.75 25.1 26.7 24.65 M26.45 26.1 L26.05 26.9 25.9 27.8 25.6 28.55 25.1 29.3 26.0 28.9 26.85 28.35 27.35 27.25 27.1 26.0 26.45 26.1 M27.7 29.6 L27.9 29.4 28.05 29.3 27.7 29.6" fill="#585a5d" fill-rule="evenodd" stroke="none"/>
      <path d="M21.7 20.3 L21.85 20.4 22.25 20.4 19.9 21.0 19.8 21.0 19.0 20.95 17.15 21.85 16.75 22.05 16.6 22.15 16.15 22.35 16.0 22.4 13.15 24.5 13.15 24.55 13.1 24.55 13.05 24.55 12.5 25.35 12.55 24.3 12.85 23.45 12.9 23.2 15.95 21.75 18.6 20.45 21.7 20.3 M22.7 20.3 L22.7 20.25 22.75 20.25 22.8 20.25 22.75 20.3 22.7 20.3" fill="#000000" fill-rule="evenodd" stroke="none"/>
      <path d="M1.85 23.25 L6.2 20.9 6.95 20.7 8.05 18.95 9.8 17.9 8.55 20.15 7.9 20.25 7.7 21.0 7.8 21.1 7.0 21.65 6.6 21.95 1.85 23.25 M16.35 16.1 L18.7 15.45 18.7 15.35 18.75 15.45 19.6 17.55 19.9 18.25 20.8 18.75 21.65 19.4 22.7 20.25 22.7 20.3 22.85 20.4 22.25 20.4 21.85 20.4 21.7 20.3 19.4 18.8 18.95 17.7 16.35 16.1 M35.95 16.35 L35.75 16.6 35.7 16.65 34.25 17.2 34.15 17.2 33.2 15.8 32.75 15.1 33.7 15.05 34.1 15.0 34.4 15.85 36.45 15.8 35.95 16.35 M25.35 22.2 L27.0 23.35 28.35 24.3 29.25 24.25 31.0 29.75 29.95 27.75 28.3 24.7 27.2 23.8 26.0 22.85 25.7 22.65 26.0 22.8 24.75 21.8 25.35 22.2 M15.95 21.75 L12.9 23.2 12.85 23.45 11.25 22.7 11.95 22.05 12.9 21.7 12.85 20.9 12.15 20.45 12.7 19.75 15.95 21.75 M11.15 22.0 L10.95 22.05 10.6 22.45 10.95 22.0 11.15 22.0 M19.15 26.0 L19.9 30.8 19.85 30.9 17.55 31.05 18.5 26.4 19.15 26.0" fill="#181514" fill-rule="evenodd" stroke="none"/>
      <path d="M16.0 22.4 L16.15 22.35 16.6 22.15 16.75 22.05 16.75 22.1 16.9 24.85 16.3 26.8 16.0 26.25 14.5 26.0 14.8 26.75 16.1 27.8 16.0 28.45 13.9 30.45 12.4 30.65 12.3 30.5 12.05 28.9 12.8 27.2 13.0 25.45 16.0 22.4 M26.0 22.85 L25.7 23.4 25.1 23.7 24.45 24.25 24.1 25.0 23.95 25.25 23.6 25.3 22.3 25.7 21.6 25.3 22.6 21.4 23.75 21.5 25.7 22.65 26.0 22.85 M26.95 24.25 L27.2 23.8 28.3 24.7 29.95 27.75 28.9 28.1 27.65 29.6 27.9 29.4 27.7 29.6 27.65 29.6 27.6 29.65 25.3 30.25 23.7 30.7 27.0 29.4 27.9 28.2 28.55 26.85 27.6 24.75 26.95 24.25 M18.15 26.6 L18.15 26.65 18.0 26.7 18.15 26.6 M16.3 29.35 L16.55 28.6 16.6 28.6 16.3 29.35 M14.0 31.5 L12.95 33.1 13.5 32.65 11.55 34.35 10.55 35.5 8.9 34.35 10.35 33.9 11.0 32.8 13.1 31.85 12.95 31.9 14.0 31.5" fill="#69666d" fill-rule="evenodd" stroke="none"/>
      <path d="M39.15 33.5 L33.65 31.0 33.15 30.75 31.0 29.75 29.25 24.25 29.7 23.0 30.5 21.55 30.85 22.3 29.95 25.05 31.4 29.35 33.4 30.0 36.1 31.45 38.5 32.8 40.35 33.25 39.15 33.5" fill="#2e2b2c" fill-rule="evenodd" stroke="none"/>
      <path d="M36.35 14.45 L37.75 14.1 35.6 15.55 34.4 15.85 34.1 15.0 36.35 14.45" fill="#444649" fill-rule="evenodd" stroke="none"/>
      <path d="M32.85 12.65 L33.55 13.45 33.4 13.9 33.3 14.1 32.5 13.7 31.85 13.35 31.95 12.95 32.05 12.5 32.7 12.5 32.85 12.65 M11.25 22.7 L9.55 24.25 9.05 24.6 8.6 24.9 7.55 25.05 4.4 25.1 7.75 24.0 7.9 23.95 10.3 22.75 10.5 22.55 10.6 22.45 10.95 22.05 11.15 22.0 12.2 21.8 11.95 22.05 11.25 22.7" fill="#646568" fill-rule="evenodd" stroke="none"/>
      <path d="M30.8 16.3 L31.55 16.3 31.8 16.55 33.55 18.35 33.7 18.5 35.6 21.1 33.15 19.7 32.95 19.75 32.35 19.8 31.55 19.75 31.8 18.8 31.2 17.6 30.8 16.3" fill="#6f6c78" fill-rule="evenodd" stroke="none"/>
      <path d="M31.35 21.3 L31.5 19.65 31.55 19.75 32.35 19.8 32.95 19.75 32.8 20.15 32.55 20.7 32.25 21.6 31.35 21.3 M31.8 16.55 L31.9 15.55 32.75 16.6 33.3 17.5 33.4 17.3 33.8 17.75 33.55 18.35 31.8 16.55" fill="#676772" fill-rule="evenodd" stroke="none"/>
      <path d="M32.35 22.3 L32.25 21.6 32.55 20.7 32.8 20.15 32.95 19.75 33.15 19.7 35.6 21.1 33.7 18.5 33.55 18.35 33.8 17.75 36.75 21.1 37.25 22.0 37.2 22.85 37.8 23.75 37.65 24.85 37.9 25.8 38.0 28.6 37.8 30.05 37.75 30.05 37.8 29.65 37.35 29.45 36.25 28.15 34.25 25.75 34.0 25.1 34.05 25.05 33.85 24.4 33.65 24.3 33.3 23.3 32.35 22.3 M38.6 26.7 L38.55 27.9 38.5 27.85 38.6 26.7" fill="#65606a" fill-rule="evenodd" stroke="none"/>
      <path d="M39.55 23.0 L39.8 22.9 39.55 23.1 38.7 23.7 38.9 24.05 39.0 24.55 37.8 22.75 37.25 21.35 36.2 19.9 35.85 19.5 35.9 19.5 35.95 19.5 36.35 19.7 37.0 20.0 38.05 20.75 38.2 20.85 38.1 21.3 38.0 21.95 38.25 22.3 38.8 23.3 39.55 23.0" fill="#303133" fill-rule="evenodd" stroke="none"/>
      <path d="M37.9 25.8 L37.65 24.85 37.8 23.75 38.15 24.1 38.4 25.35 38.05 26.45 37.9 25.8" fill="#a5a7b0" fill-rule="evenodd" stroke="none"/>
      <path d="M12.25 26.4 L11.7 26.9 9.5 25.65 9.45 25.65 7.55 25.05 2.4 25.8 1.85 23.25 4.65 24.05 5.35 23.2 7.75 24.0 4.4 25.1 7.55 25.05 8.6 24.9 9.05 24.6 10.15 25.3 12.25 26.2 12.35 26.25 12.25 26.4 M11.05 18.15 L10.8 18.0 12.55 16.6 13.95 17.8 14.45 19.45 15.85 21.1 13.0 19.4 13.95 19.55 11.95 18.05 11.05 18.15" fill="#555759" fill-rule="evenodd" stroke="none"/>
      <path d="M12.85 23.45 L12.55 24.3 12.5 25.35 13.05 24.55 13.1 24.55 13.15 24.55 12.5 25.35 12.25 26.2 10.15 25.3 9.05 24.6 9.55 24.25 11.25 22.7 12.85 23.45 M7.75 24.0 L5.35 23.2 4.65 24.05 1.85 23.25 6.6 21.95 7.0 21.65 9.45 22.75 10.5 22.55 10.3 22.75 7.9 23.95 7.75 24.0" fill="#444447" fill-rule="evenodd" stroke="none"/>
      <path d="M3.8 26.65 L3.45 26.55 2.5 25.85 3.8 26.65 M7.0 21.65 L7.8 21.1 8.2 21.6 8.9 21.7 9.25 20.85 8.6 20.15 8.55 20.15 9.8 17.9 10.35 18.25 10.0 18.25 10.55 18.7 11.7 19.1 12.7 19.75 12.15 20.45 11.9 20.3 10.7 20.4 10.7 21.95 10.95 22.0 10.6 22.45 10.5 22.55 9.45 22.75 7.0 21.65" fill="#393635" fill-rule="evenodd" stroke="none"/>
      <path d="M17.3 18.4 Q17.45 18.35 17.55 18.25 L18.5 18.55 19.05 19.15 19.3 19.75 18.45 19.9 18.1 19.7 17.4 19.1 17.3 18.4" fill="#48494e" fill-rule="evenodd" stroke="none"/>
      <path d="M10.35 18.25 L11.05 18.15 11.95 18.05 13.95 19.55 13.0 19.4 11.7 19.1 10.55 18.7 10.0 18.25 10.35 18.25" fill="#6b6c6f" fill-rule="evenodd" stroke="none"/>
      <path d="M6.85 33.15 L7.95 32.15 8.35 32.05 6.85 33.15 M11.0 29.25 L12.05 27.2 12.25 26.4 12.35 26.25 12.25 26.2 12.5 25.35 13.15 24.55 13.15 24.5 16.0 22.4 13.0 25.45 12.8 27.2 12.05 28.9 12.3 30.5 11.35 29.85 10.6 30.25 10.2 30.6 11.0 29.25 M16.85 28.1 L16.9 28.2 16.6 28.6 16.55 28.6 16.3 29.35 16.0 30.1 15.5 30.95 13.5 32.65 12.95 33.1 14.0 31.5 14.15 31.25 13.9 30.45 16.0 28.45 15.65 30.55 16.65 28.35 16.85 28.1" fill="#7f7e87" fill-rule="evenodd" stroke="none"/>
      <path d="M16.5 27.1 L16.6 26.05 17.95 25.9 18.0 26.25 18.0 26.7 16.9 28.25 16.9 28.2 16.85 28.1 16.5 27.1" fill="#b1b5ba" fill-rule="evenodd" stroke="none"/>
      <path d="M18.15 26.65 L18.5 26.4 17.55 31.05 17.0 31.1 15.5 30.95 16.0 30.1 16.3 29.35 16.6 28.6 16.9 28.2 16.9 28.25 18.0 26.7 18.15 26.65" fill="#33302f" fill-rule="evenodd" stroke="none"/>
      <path d="M16.3 26.8 L16.5 27.1 16.2 27.85 16.1 27.8 14.8 26.75 14.5 26.0 16.0 26.25 16.3 26.8" fill="#909598" fill-rule="evenodd" stroke="none"/>
      <path d="M19.9 30.8 L20.3 29.15 20.35 28.5 20.9 29.15 21.4 30.6 22.25 31.2 22.25 31.25 22.05 33.7 22.0 33.7 19.6 33.9 19.55 32.2 19.5 32.35 19.85 30.9 19.9 30.8" fill="#5a5b5e" fill-rule="evenodd" stroke="none"/>
      <path d="M8.75 34.4 L8.7 34.4 7.05 33.95 6.85 33.15 8.35 32.05 10.0 31.4 9.95 30.95 10.2 30.6 10.6 30.25 11.35 29.85 12.3 30.5 12.4 30.65 13.9 30.45 14.15 31.25 14.0 31.5 12.95 31.9 8.45 33.0 8.65 33.1 8.95 33.15 9.05 33.65 9.75 33.6 10.35 33.9 8.9 34.35 8.75 34.4" fill="#6f717c" fill-rule="evenodd" stroke="none"/>
      <path d="M7.95 32.15 L11.0 29.25 10.2 30.6 9.95 30.95 10.0 31.4 8.35 32.05 7.95 32.15" fill="#b6b6bc" fill-rule="evenodd" stroke="none"/>
      <path d="M10.55 35.5 L8.75 34.4 8.9 34.35 10.55 35.5 11.55 34.35 13.5 32.65 15.5 30.95 17.0 31.1 17.55 31.05 19.85 30.9 19.5 32.35 18.95 33.3 18.55 33.8 10.55 35.5" fill="#424345" fill-rule="evenodd" stroke="none"/>
      <path d="M25.55 33.9 L22.0 34.0 21.1 34.7 18.95 34.5 17.85 34.8 16.8 34.75 10.55 35.5 18.55 33.8 18.95 33.3 19.5 32.35 19.55 32.2 19.6 33.9 22.0 33.7 22.05 33.7 25.55 33.9" fill="#606164" fill-rule="evenodd" stroke="none"/>
      <path d="M33.2 30.85 L32.85 31.05 29.65 32.55 27.6 29.65 27.65 29.6 27.7 29.6 28.05 29.3 28.85 28.65 31.0 29.75 33.15 30.75 33.1 30.8 33.2 30.85" fill="#4c4d4f" fill-rule="evenodd" stroke="none"/>
      <path d="M33.35 27.7 L34.8 29.95 36.95 31.9 36.1 31.45 33.4 30.0 33.65 29.3 33.35 27.7" fill="#5b5865" fill-rule="evenodd" stroke="none"/>
      <path d="M26.45 26.1 L27.1 26.0 27.35 27.25 26.85 28.35 26.0 28.9 25.1 29.3 25.6 28.55 25.9 27.8 26.05 26.9 26.45 26.1" fill="#828186" fill-rule="evenodd" stroke="none"/>
      <path d="M19.65 25.95 L20.6 25.8 21.35 26.1 22.85 26.95 23.6 29.6 23.7 30.7 23.45 30.9 19.65 25.95" fill="#403d3d" fill-rule="evenodd" stroke="none"/>
      <path d="M22.25 31.25 L22.7 31.35 23.45 30.9 23.7 30.7 25.3 30.25 25.55 33.9 22.05 33.7 22.25 31.25" fill="#4e4f51" fill-rule="evenodd" stroke="none"/>
      <path d="M29.65 32.55 L25.7 33.9 25.55 33.9 25.3 30.25 27.6 29.65 29.65 32.55" fill="#3f4042" fill-rule="evenodd" stroke="none"/>
    </g>
  </defs>
</svg>
