<?xml version="1.0" encoding="UTF-8" standalone="no"?>
<svg xmlns:xlink="http://www.w3.org/1999/xlink" height="40.0px" width="50.0px" xmlns="http://www.w3.org/2000/svg">
  <g transform="matrix(1.0, 0.0, 0.0, 1.0, 0.0, 0.0)">
    <use height="40.0" transform="matrix(1.0, 0.0, 0.0, 1.0, 0.0, 0.0)" width="50.0" xlink:href="#shape0"/>
  </g>
  <defs>
    <g id="shape0" transform="matrix(1.0, 0.0, 0.0, 1.0, 0.0, 0.0)">
      <path d="M38.4 21.5 Q39.75 21.1 40.5 20.6 L41.0 20.05 41.3 19.2 41.25 19.0 42.2 20.7 Q41.45 21.75 39.7 22.05 L38.65 22.15 38.1 22.15 37.7 21.9 37.75 21.65 37.95 21.6 38.4 21.5 M25.6 26.85 L25.9 26.8 26.0 26.8 Q27.45 26.45 27.95 25.7 28.25 25.3 28.15 24.95 L28.8 26.15 Q28.25 26.9 27.0 27.15 L26.15 27.2 25.85 27.2 25.6 27.0 25.6 26.85" fill="#00724e" fill-rule="evenodd" stroke="none"/>
      <path d="M41.3 19.2 L41.0 20.05 40.5 20.6 Q39.75 21.1 38.4 21.5 L36.4 16.65 Q39.85 17.15 40.95 18.45 L41.25 19.0 41.25 19.1 41.3 19.2" fill="url(#gradient0)" fill-rule="evenodd" stroke="none"/>
      <path d="M42.2 20.7 L41.25 19.0 40.95 18.45 37.6 12.4 37.55 12.4 37.55 9.55 37.6 9.5 37.6 8.25 37.55 8.3 37.55 8.1 37.55 8.05 Q38.9 7.6 38.9 6.8 L38.9 5.9 38.9 5.85 Q38.9 5.05 37.4 4.5 35.9 3.95 33.75 3.95 31.6 3.95 30.1 4.5 28.6 5.05 28.6 5.85 L28.6 6.1 28.6 6.8 Q28.6 7.6 29.95 8.05 L29.95 8.1 29.95 10.95 29.95 12.4 29.9 12.4 26.65 18.25 26.1 19.3 26.1 19.35 26.05 19.3 25.55 20.25 25.3 19.8 25.3 17.6 25.3 16.6 25.3 16.5 Q26.35 16.0 26.35 15.5 L26.35 14.85 26.35 14.8 Q26.35 14.2 25.2 13.8 L22.4 13.35 Q20.75 13.35 19.6 13.8 18.4 14.2 18.4 14.8 L18.4 14.85 18.3 14.65 18.25 14.65 18.25 12.0 18.25 10.9 18.25 10.8 18.25 10.75 Q19.5 10.25 19.5 9.6 L19.5 8.85 19.5 8.8 Q19.5 8.1 18.15 7.6 L14.9 7.1 11.6 7.6 Q10.25 8.1 10.25 8.8 L10.25 9.0 10.25 9.6 Q10.25 10.25 11.5 10.75 L11.5 10.8 11.5 12.05 11.5 14.65 11.45 14.65 8.55 19.85 8.1 20.65 4.3 27.45 4.25 27.5 Q3.65 28.25 3.65 28.8 L3.8 29.45 4.0 29.85 4.35 30.3 Q5.0 30.9 6.2 31.45 8.4 32.4 11.7 32.8 L13.05 32.95 13.0 32.85 13.05 32.85 Q13.55 33.6 14.95 34.25 17.1 35.2 20.4 35.45 L23.65 35.5 27.85 34.9 29.15 34.5 31.1 33.55 31.2 33.45 31.25 33.4 31.75 32.9 32.35 32.95 32.85 32.95 32.95 32.95 33.15 32.85 37.4 32.75 40.9 32.1 42.6 31.6 Q46.3 30.25 46.3 28.3 L46.3 28.05 46.1 27.45 46.05 27.4 45.95 27.2 45.7 26.85 42.2 20.7 M46.45 27.05 L46.75 27.7 46.8 28.3 46.8 28.4 Q46.7 30.65 42.8 32.05 L41.0 32.6 40.75 32.65 40.6 32.7 38.0 33.15 37.8 33.2 36.0 33.35 35.7 33.4 33.75 33.45 31.9 33.35 Q31.25 34.2 29.35 34.95 L28.6 35.2 28.5 35.2 27.95 35.4 27.75 35.4 27.65 35.45 23.7 36.0 20.35 35.95 Q14.6 35.45 12.8 33.35 L12.55 33.35 Q8.7 33.05 6.1 31.95 4.6 31.3 3.85 30.5 L3.55 30.05 3.3 29.65 3.15 28.8 Q3.15 28.0 3.85 27.2 L11.0 14.5 11.0 11.1 Q9.75 10.5 9.75 9.6 L9.75 8.8 Q9.75 7.75 11.35 7.15 12.85 6.6 14.9 6.6 16.95 6.6 18.4 7.15 20.0 7.8 20.0 8.8 L20.0 9.6 Q20.0 10.5 18.75 11.1 L18.75 13.6 Q20.05 12.85 22.4 12.85 24.2 12.85 25.45 13.35 26.85 13.9 26.85 14.8 L26.85 15.5 Q26.85 16.3 25.8 16.8 L25.8 18.75 29.45 12.25 29.45 8.4 Q28.1 7.75 28.1 6.8 L28.1 5.85 Q28.1 4.75 29.9 4.05 31.5 3.45 33.75 3.45 L37.65 4.05 Q39.4 4.75 39.4 5.85 L39.4 6.8 Q39.4 7.75 38.05 8.4 L38.05 12.25 46.1 26.55 46.45 27.05 M34.25 7.25 L33.75 7.25 32.6 7.2 34.25 7.25 M30.1 5.45 Q30.35 5.1 31.05 4.85 L31.95 4.65 30.65 5.05 30.1 5.45 M34.95 8.6 L34.6 8.65 32.8 8.65 34.95 8.6 M23.9 13.9 L23.0 13.75 22.4 13.7 23.9 13.9 M21.6 15.85 L21.25 15.8 21.5 15.8 21.6 15.85 M19.45 16.5 L19.45 16.7 19.3 16.45 19.45 16.5 M16.1 10.0 L14.9 10.05 12.45 9.7 12.35 9.65 13.85 9.95 14.9 10.05 15.6 10.0 16.1 10.0 M11.5 8.65 Q11.6 8.25 12.45 7.9 L12.7 7.85 12.15 8.05 Q11.6 8.35 11.5 8.65" fill="#161202" fill-rule="evenodd" stroke="none"/>
      <path d="M38.65 22.15 L39.7 22.05 Q41.45 21.75 42.2 20.7 L45.7 26.85 45.95 27.2 45.65 26.8 45.45 26.65 44.45 25.9 Q42.6 24.8 39.55 24.2 L38.65 22.15 M41.25 19.0 L41.3 19.2 41.25 19.1 41.25 19.0" fill="url(#gradient1)" fill-rule="evenodd" stroke="none"/>
      <path d="M45.95 27.2 L46.05 27.4 46.1 27.45 46.3 28.05 46.3 28.3 Q46.3 30.25 42.6 31.6 L40.9 32.1 Q41.7 31.65 41.95 30.9 44.75 29.9 45.9 28.45 46.25 27.9 45.85 27.45 45.65 27.15 45.35 27.25 L45.05 27.35 Q44.1 28.65 41.85 29.6 L41.45 28.8 39.55 24.2 Q42.6 24.8 44.45 25.9 L45.45 26.65 45.65 26.8 45.95 27.2" fill="url(#gradient2)" fill-rule="evenodd" stroke="none"/>
      <path d="M47.2 27.45 L46.5 26.3 38.55 12.1 38.55 8.7 Q39.9 7.95 39.9 6.8 L39.9 5.85 Q39.9 4.45 37.95 3.65 36.25 2.95 33.75 2.95 31.25 2.95 29.55 3.65 27.6 4.45 27.6 5.85 L27.6 6.8 Q27.6 7.95 28.95 8.7 L28.95 12.1 27.35 15.0 27.35 14.8 Q27.35 13.6 25.8 12.95 24.45 12.35 22.4 12.35 L19.25 12.8 19.25 11.4 Q20.5 10.65 20.5 9.6 L20.5 8.8 Q20.5 7.5 18.75 6.75 17.15 6.1 14.9 6.1 12.6 6.1 11.05 6.75 9.3 7.5 9.3 8.8 L9.3 9.6 Q9.3 10.7 10.5 11.4 L10.5 14.35 3.45 26.9 Q2.65 27.85 2.65 28.8 L2.85 29.85 2.65 29.9 2.6 30.1 Q2.6 32.65 5.85 34.25 8.6 35.6 12.85 35.95 15.2 38.25 20.85 38.7 L22.95 38.8 27.2 38.45 28.45 38.15 28.6 38.15 29.4 37.9 29.5 37.85 30.3 37.6 Q32.1 36.85 32.95 36.0 L36.7 36.0 38.65 35.8 38.8 35.75 42.65 34.95 42.85 34.85 43.85 34.5 Q48.55 32.75 48.55 29.6 48.55 28.95 47.9 28.15 L47.2 27.45 M50.0 40.0 L0.0 40.0 0.0 0.0 50.0 0.0 50.0 40.0 M23.0 38.3 L28.35 37.7 24.7 38.25 23.0 38.3" fill="#161202" fill-opacity="0.0" fill-rule="evenodd" stroke="none"/>
      <path d="M3.1 30.35 L3.85 31.15 Q4.45 32.6 6.95 33.65 9.45 34.65 12.95 34.95 L13.15 35.0 13.3 35.0 13.45 35.1 13.6 35.25 Q15.6 37.3 20.9 37.7 L22.95 37.8 23.0 37.8 25.8 37.65 28.25 37.2 29.95 36.65 Q31.3 36.2 32.25 35.3 L32.55 35.0 36.65 35.0 38.45 34.8 38.65 34.75 41.25 34.3 41.55 34.2 41.7 34.2 42.35 34.0 42.55 33.9 43.5 33.6 Q47.55 32.05 47.55 29.6 L47.25 28.95 47.3 28.3 47.3 28.2 47.5 28.45 Q48.05 29.15 48.05 29.6 48.05 32.35 43.65 34.05 L41.1 34.85 36.7 35.5 32.75 35.5 32.6 35.65 Q31.7 36.45 30.1 37.15 L28.35 37.7 23.0 38.3 22.95 38.3 20.85 38.2 Q15.4 37.75 13.25 35.6 L13.1 35.5 12.9 35.45 Q8.9 35.1 6.3 33.9 3.25 32.55 3.1 30.35" fill="#161202" fill-opacity="0.4" fill-rule="evenodd" stroke="none"/>
      <path d="M3.85 31.15 Q4.6 31.85 5.85 32.4 8.55 33.55 12.5 33.85 L12.6 33.85 Q14.65 35.95 20.3 36.45 L23.7 36.5 26.5 36.2 28.65 35.7 28.75 35.65 29.5 35.4 Q31.3 34.8 32.1 33.9 L35.75 33.9 36.0 33.85 37.9 33.7 38.05 33.65 40.7 33.2 42.95 32.5 Q46.75 31.15 47.25 28.95 L47.55 29.6 Q47.55 32.05 43.5 33.6 L42.55 33.9 42.35 34.0 41.7 34.2 41.55 34.2 41.25 34.3 38.65 34.75 38.45 34.8 36.65 35.0 32.55 35.0 32.25 35.3 Q31.3 36.2 29.95 36.65 L28.25 37.2 25.8 37.65 23.0 37.8 22.95 37.8 20.9 37.7 Q15.6 37.3 13.6 35.25 L13.45 35.1 13.3 35.0 13.15 35.0 12.95 34.95 Q9.45 34.65 6.95 33.65 4.45 32.6 3.85 31.15" fill="#161202" fill-opacity="0.6" fill-rule="evenodd" stroke="none"/>
      <path d="M47.2 27.45 L47.9 28.15 Q48.55 28.95 48.55 29.6 48.55 32.75 43.85 34.5 L42.85 34.85 42.65 34.95 38.8 35.75 38.65 35.8 36.7 36.0 32.95 36.0 Q32.1 36.85 30.3 37.6 L29.5 37.85 29.4 37.9 28.6 38.15 28.45 38.15 27.2 38.45 22.95 38.8 20.85 38.7 Q15.2 38.25 12.85 35.95 8.6 35.6 5.85 34.25 2.6 32.65 2.6 30.1 L2.65 29.9 2.85 29.85 3.1 30.35 Q3.25 32.55 6.3 33.9 8.9 35.1 12.9 35.45 L13.1 35.5 13.25 35.6 Q15.4 37.75 20.85 38.2 L22.95 38.3 23.0 38.3 24.7 38.25 28.35 37.7 30.1 37.15 Q31.7 36.45 32.6 35.65 L32.75 35.5 36.7 35.5 41.1 34.85 43.65 34.05 Q48.05 32.35 48.05 29.6 48.05 29.15 47.5 28.45 L47.3 28.2 47.2 27.45" fill="#161202" fill-opacity="0.2" fill-rule="evenodd" stroke="none"/>
      <path d="M41.85 29.6 Q44.1 28.65 45.05 27.35 L45.35 27.25 Q45.65 27.15 45.85 27.45 46.25 27.9 45.9 28.45 44.75 29.9 41.95 30.9 L41.65 31.0 41.8 29.6 41.85 29.6" fill="#00c27e" fill-rule="evenodd" stroke="none"/>
      <path d="M39.55 24.2 L41.45 28.8 41.85 29.6 41.8 29.6 Q39.85 30.4 37.1 30.9 L34.75 31.25 34.3 31.4 34.25 31.55 34.55 31.85 34.85 31.85 Q38.7 32.0 41.65 31.0 L41.95 30.9 Q41.7 31.65 40.9 32.1 L37.4 32.75 33.15 32.85 33.1 32.85 Q34.05 32.1 33.5 31.0 L32.7 29.7 31.0 27.05 30.9 26.9 31.3 23.75 33.7 23.7 39.55 24.2 M30.6 29.25 L30.6 29.15 31.4 30.55 31.5 30.75 31.85 31.35 31.5 30.85 30.6 29.25" fill="url(#gradient3)" fill-rule="evenodd" stroke="none"/>
      <path d="M41.8 29.6 L41.65 31.0 Q38.7 32.0 34.85 31.85 L34.55 31.85 34.25 31.55 34.3 31.4 34.75 31.25 37.1 30.9 Q39.85 30.4 41.8 29.6" fill="#00bb74" fill-rule="evenodd" stroke="none"/>
      <path d="M34.6 4.5 L36.3 4.8 36.45 4.85 37.15 5.15 37.25 5.25 Q37.6 5.5 37.6 5.85 L37.6 5.9 Q37.55 6.45 36.45 6.85 L34.6 7.25 34.6 4.5" fill="url(#gradient4)" fill-rule="evenodd" stroke="none"/>
      <path d="M28.6 6.1 L28.6 5.85 Q28.6 5.05 30.1 4.5 31.6 3.95 33.75 3.95 35.9 3.95 37.4 4.5 38.9 5.05 38.9 5.85 L38.9 5.9 Q38.8 6.8 37.3 7.4 35.8 8.0 33.75 8.0 31.8 8.0 30.3 7.45 28.85 6.9 28.6 6.1 M34.6 7.25 L36.45 6.85 Q37.55 6.45 37.6 5.9 L37.6 5.85 Q37.6 5.5 37.25 5.25 L37.15 5.15 36.45 4.85 36.3 4.8 34.6 4.5 34.4 4.5 33.9 4.45 33.75 4.45 32.75 4.5 32.6 4.55 32.6 4.5 31.95 4.65 31.05 4.85 Q30.35 5.1 30.1 5.45 L29.95 5.75 29.9 5.85 29.9 5.95 Q30.0 6.5 31.05 6.85 L31.55 7.0 32.1 7.15 32.6 7.2 33.75 7.25 34.25 7.25 34.6 7.25" fill="url(#gradient5)" fill-rule="evenodd" stroke="none"/>
      <path d="M32.6 7.2 L32.1 7.15 31.55 7.0 31.05 6.85 Q30.0 6.5 29.9 5.95 L29.9 5.85 29.95 5.75 30.1 5.45 30.65 5.05 31.95 4.65 32.6 4.5 32.6 4.55 32.6 7.2" fill="url(#gradient6)" fill-rule="evenodd" stroke="none"/>
      <path d="M34.6 4.5 L34.6 7.25 34.25 7.25 32.6 7.2 32.6 4.55 32.75 4.5 33.75 4.45 33.9 4.45 34.4 4.5 34.6 4.5" fill="url(#gradient7)" fill-rule="evenodd" stroke="none"/>
      <path d="M37.55 8.1 L37.55 8.3 34.6 8.8 34.6 8.65 34.95 8.6 35.2 8.6 35.6 8.55 37.55 8.1" fill="url(#gradient8)" fill-rule="evenodd" stroke="none"/>
      <path d="M34.6 8.65 L34.6 8.8 32.8 8.75 32.8 8.65 34.6 8.65" fill="url(#gradient9)" fill-rule="evenodd" stroke="none"/>
      <path d="M29.95 8.1 L29.95 8.05 Q28.6 7.6 28.6 6.8 L28.6 6.1 Q28.85 6.9 30.3 7.45 31.8 8.0 33.75 8.0 35.8 8.0 37.3 7.4 38.8 6.8 38.9 5.9 L38.9 6.8 Q38.9 7.6 37.55 8.05 L37.55 8.1 35.6 8.55 35.2 8.6 34.95 8.6 32.8 8.65 29.95 8.1" fill="url(#gradient10)" fill-rule="evenodd" stroke="none"/>
      <path d="M31.65 9.45 L31.5 8.8 30.85 8.35 29.95 8.1 32.8 8.65 32.8 8.75 Q32.3 8.8 32.05 9.0 L31.95 9.25 Q31.9 9.5 32.4 9.7 L31.65 9.7 31.65 9.45" fill="url(#gradient11)" fill-rule="evenodd" stroke="none"/>
      <path d="M32.4 9.7 Q31.9 9.5 31.95 9.25 L32.05 9.0 Q32.3 8.8 32.8 8.75 L34.6 8.8 34.6 10.05 32.85 9.85 32.8 9.85 32.4 9.7 M21.3 17.75 L21.0 17.4 21.1 17.2 21.65 17.0 23.05 17.05 23.05 18.0 21.7 17.85 21.65 17.85 21.35 17.75 21.3 17.75 M13.95 12.25 L13.75 12.2 Q13.3 12.0 13.35 11.8 L13.45 11.6 Q13.6 11.35 14.05 11.35 L14.15 11.35 15.65 11.4 15.65 12.45 14.15 12.3 14.05 12.3 13.95 12.25" fill="#00888d" fill-rule="evenodd" stroke="none"/>
      <path d="M29.95 10.95 L29.95 8.1 30.85 8.35 31.5 8.8 31.65 9.45 31.35 9.7 Q30.6 10.25 29.95 10.95" fill="#009a81" fill-rule="evenodd" stroke="none"/>
      <path d="M26.65 18.25 L29.9 12.4 29.95 12.4 30.2 12.5 30.9 11.95 31.3 11.1 31.65 9.7 32.4 9.7 32.8 9.85 32.8 12.55 32.3 16.55 31.0 16.65 31.15 15.55 Q31.55 13.7 30.95 13.65 30.45 13.65 29.95 14.65 L28.6 17.25 Q27.25 17.65 26.65 18.25" fill="url(#gradient12)" fill-rule="evenodd" stroke="none"/>
      <path d="M32.8 9.85 L32.85 9.85 34.6 10.05 34.6 12.4 36.4 16.65 33.7 16.5 32.3 16.55 32.8 12.55 32.8 9.85" fill="url(#gradient13)" fill-rule="evenodd" stroke="none"/>
      <path d="M29.95 12.4 L29.95 10.95 Q30.6 10.25 31.35 9.7 L31.65 9.45 31.65 9.7 31.3 11.1 30.9 11.95 30.2 12.5 29.95 12.4" fill="#0db895" fill-rule="evenodd" stroke="none"/>
      <path d="M18.25 10.9 L18.25 12.0 15.65 12.45 15.65 11.4 18.25 10.9 M25.3 16.6 L25.3 17.6 23.05 18.0 23.05 17.05 25.3 16.6 M37.55 8.3 L37.6 8.25 37.6 9.5 37.55 9.55 34.6 10.05 34.6 8.8 37.55 8.3 M14.9 11.3 L17.6 11.0 16.45 11.2 16.2 11.2 15.65 11.25 14.9 11.3" fill="#00747e" fill-rule="evenodd" stroke="none"/>
      <path d="M40.95 18.45 Q39.85 17.15 36.4 16.65 L34.6 12.4 34.6 10.05 37.55 9.55 37.55 12.4 37.6 12.4 40.95 18.45" fill="url(#gradient14)" fill-rule="evenodd" stroke="none"/>
      <path d="M18.4 14.85 L18.4 14.8 Q18.4 14.2 19.6 13.8 20.75 13.35 22.4 13.35 L25.2 13.8 Q26.35 14.2 26.35 14.8 L26.35 14.85 Q26.25 15.55 25.1 16.0 L22.35 16.45 19.7 16.0 18.8 15.5 18.4 14.95 18.4 14.85 M23.0 15.85 L24.45 15.55 25.25 15.05 25.3 14.85 25.3 14.75 Q25.25 14.35 24.45 14.05 L23.9 13.9 22.4 13.7 21.5 13.75 21.45 13.75 21.3 13.8 20.3 14.05 Q19.5 14.35 19.45 14.75 L19.45 14.85 19.5 14.95 20.3 15.55 20.6 15.65 21.1 15.75 21.25 15.8 21.6 15.85 22.4 15.85 22.55 15.85 23.0 15.85" fill="url(#gradient15)" fill-rule="evenodd" stroke="none"/>
      <path d="M26.35 14.85 L26.35 15.5 Q26.35 16.0 25.3 16.5 L24.1 16.8 23.75 16.85 23.5 16.85 23.05 16.9 22.4 16.95 21.65 16.9 20.6 16.8 19.45 16.5 19.3 16.45 Q18.4 15.95 18.4 15.5 L18.4 14.95 18.8 15.5 19.7 16.0 22.35 16.45 25.1 16.0 Q26.25 15.55 26.35 14.85" fill="url(#gradient16)" fill-rule="evenodd" stroke="none"/>
      <path d="M28.6 17.25 L29.95 14.65 Q30.45 13.65 30.95 13.65 31.55 13.7 31.15 15.55 L31.0 16.65 28.6 17.25" fill="url(#gradient17)" fill-rule="evenodd" stroke="none"/>
      <path d="M26.1 19.35 L26.1 19.3 26.65 18.25 Q27.25 17.65 28.6 17.25 L26.85 20.5 26.1 19.4 26.1 19.35" fill="url(#gradient18)" fill-rule="evenodd" stroke="none"/>
      <path d="M23.9 13.9 L24.45 14.05 Q25.25 14.35 25.3 14.75 L25.3 14.85 25.25 15.05 24.45 15.55 23.0 15.85 23.0 13.75 23.9 13.9" fill="url(#gradient19)" fill-rule="evenodd" stroke="none"/>
      <path d="M21.25 15.8 L21.1 15.75 20.6 15.65 20.3 15.55 19.5 14.95 19.45 14.85 19.45 14.75 Q19.5 14.35 20.3 14.05 L21.3 13.8 21.45 13.75 21.5 13.75 21.5 15.8 21.25 15.8" fill="url(#gradient20)" fill-rule="evenodd" stroke="none"/>
      <path d="M23.0 13.75 L23.0 15.85 22.55 15.85 22.4 15.85 21.6 15.85 21.5 15.8 21.5 13.75 22.4 13.7 23.0 13.75" fill="url(#gradient21)" fill-rule="evenodd" stroke="none"/>
      <path d="M21.65 17.0 L21.65 16.9 22.4 16.95 23.05 16.9 23.05 17.05 21.65 17.0" fill="url(#gradient22)" fill-rule="evenodd" stroke="none"/>
      <path d="M21.65 16.9 L21.65 17.0 21.1 17.2 21.0 17.4 21.3 17.75 19.45 17.6 19.45 16.7 19.45 16.5 20.6 16.8 21.65 16.9" fill="url(#gradient23)" fill-rule="evenodd" stroke="none"/>
      <path d="M19.45 17.6 L21.3 17.75 21.35 17.75 21.65 17.85 21.65 19.9 21.25 22.95 20.25 23.05 20.4 22.25 20.45 22.2 Q20.7 20.8 20.2 20.75 19.85 20.75 19.45 21.5 L18.4 23.5 Q17.45 23.8 16.95 24.3 L17.65 23.05 18.55 21.45 18.9 20.85 19.45 19.8 19.45 18.95 19.45 17.6" fill="url(#gradient24)" fill-rule="evenodd" stroke="none"/>
      <path d="M21.65 17.85 L21.7 17.85 23.05 18.0 23.05 19.8 24.4 23.05 24.0 23.05 23.95 23.05 23.7 23.0 23.45 23.0 23.3 23.0 23.0 23.0 22.35 22.95 21.25 22.95 21.65 19.9 21.65 17.85" fill="url(#gradient25)" fill-rule="evenodd" stroke="none"/>
      <path d="M25.3 16.5 L25.3 16.6 23.05 17.05 23.05 16.9 23.5 16.85 23.75 16.85 24.1 16.8 25.3 16.5" fill="url(#gradient26)" fill-rule="evenodd" stroke="none"/>
      <path d="M25.3 17.6 L25.3 19.8 25.55 20.25 26.3 21.6 27.9 24.4 27.8 24.25 Q27.05 23.6 25.45 23.25 L24.4 23.05 23.05 19.8 23.05 18.0 25.3 17.6" fill="url(#gradient27)" fill-rule="evenodd" stroke="none"/>
      <path d="M18.4 23.5 L19.45 21.5 Q19.85 20.75 20.2 20.75 20.7 20.8 20.45 22.2 L20.4 22.25 20.25 23.05 19.3 23.25 18.4 23.5" fill="url(#gradient28)" fill-rule="evenodd" stroke="none"/>
      <path d="M20.25 23.05 L21.25 22.95 20.7 27.1 19.75 27.0 20.0 25.2 20.0 25.05 20.25 23.05" fill="url(#gradient29)" fill-rule="evenodd" stroke="none"/>
      <path d="M21.25 22.95 L22.35 22.95 23.0 23.0 23.3 23.0 23.45 23.0 23.7 23.0 23.95 23.05 24.0 23.05 24.4 23.05 25.95 26.75 25.9 26.8 25.6 26.85 25.2 26.95 24.95 27.0 23.4 27.2 22.35 27.2 21.55 27.2 20.9 27.15 20.7 27.1 21.25 22.95" fill="url(#gradient30)" fill-rule="evenodd" stroke="none"/>
      <path d="M25.55 20.25 L26.05 19.3 26.1 19.35 26.1 19.4 26.85 20.5 26.3 21.6 25.55 20.25" fill="#008653" fill-rule="evenodd" stroke="none"/>
      <path d="M27.9 24.4 L26.3 21.6 26.85 20.5 29.1 24.05 29.9 25.3 29.95 25.4 29.8 25.85 29.45 27.1 29.1 26.5 28.15 24.85 27.9 24.4" fill="#00a753" fill-rule="evenodd" stroke="none"/>
      <path d="M25.95 26.75 L24.4 23.05 25.45 23.25 Q27.05 23.6 27.8 24.25 L27.9 24.4 28.15 24.85 28.15 24.95 28.15 25.1 28.0 25.6 Q27.55 26.3 25.95 26.75" fill="url(#gradient31)" fill-rule="evenodd" stroke="none"/>
      <path d="M30.3 21.8 L30.05 23.9 29.1 24.05 26.85 20.5 Q28.0 21.35 30.3 21.8" fill="url(#gradient32)" fill-rule="evenodd" stroke="none"/>
      <path d="M30.3 21.8 L31.55 21.95 31.3 23.75 30.05 23.9 30.3 21.8" fill="url(#gradient33)" fill-rule="evenodd" stroke="none"/>
      <path d="M29.1 24.05 L30.05 23.9 29.9 25.3 29.1 24.05 M29.45 27.1 L29.6 27.4 29.1 26.5 29.45 27.1" fill="url(#gradient34)" fill-rule="evenodd" stroke="none"/>
      <path d="M28.6 17.25 L31.0 16.65 30.3 21.8 Q28.0 21.35 26.85 20.5 L28.6 17.25" fill="url(#gradient35)" fill-rule="evenodd" stroke="none"/>
      <path d="M38.4 21.5 L37.95 21.6 37.75 21.65 33.7 22.1 31.55 21.95 32.3 16.55 33.7 16.5 36.4 16.65 38.4 21.5" fill="url(#gradient36)" fill-rule="evenodd" stroke="none"/>
      <path d="M31.0 16.65 L32.3 16.55 31.55 21.95 30.3 21.8 31.0 16.65" fill="url(#gradient37)" fill-rule="evenodd" stroke="none"/>
      <path d="M37.75 21.65 L37.7 21.9 38.1 22.15 38.65 22.15 39.55 24.2 33.7 23.7 31.3 23.75 31.55 21.95 33.7 22.1 37.75 21.65" fill="url(#gradient38)" fill-rule="evenodd" stroke="none"/>
      <path d="M30.05 23.9 L31.3 23.75 30.9 26.9 29.95 25.4 29.9 25.3 30.05 23.9 M30.55 29.05 L30.6 29.15 30.6 29.25 29.6 27.4 30.55 29.05" fill="url(#gradient39)" fill-rule="evenodd" stroke="none"/>
      <path d="M10.25 9.0 L10.25 8.8 Q10.25 8.1 11.6 7.6 L14.9 7.1 18.15 7.6 Q19.5 8.1 19.5 8.8 L19.5 8.85 Q19.4 9.65 18.05 10.15 L14.85 10.7 11.8 10.2 Q10.5 9.7 10.25 9.0 M15.6 7.6 L15.1 7.55 14.9 7.55 13.85 7.6 12.75 7.8 12.7 7.85 12.45 7.9 Q11.6 8.25 11.5 8.65 L11.45 8.75 11.45 8.8 Q11.45 9.35 12.35 9.65 L12.45 9.7 14.9 10.05 16.1 10.0 16.25 9.95 16.35 9.95 16.75 9.85 16.9 9.8 17.1 9.75 17.3 9.7 Q18.15 9.35 18.3 8.95 L18.3 8.8 Q18.25 8.3 17.3 7.9 L15.6 7.6" fill="url(#gradient40)" fill-rule="evenodd" stroke="none"/>
      <path d="M12.35 9.65 Q11.45 9.35 11.45 8.8 L11.45 8.75 11.5 8.65 Q11.6 8.35 12.15 8.05 L12.7 7.85 12.75 7.8 13.85 7.6 13.85 9.95 12.35 9.65" fill="url(#gradient41)" fill-rule="evenodd" stroke="none"/>
      <path d="M13.85 7.6 L14.9 7.55 15.1 7.55 15.6 7.6 15.6 10.0 14.9 10.05 13.85 9.95 13.85 7.6" fill="url(#gradient42)" fill-rule="evenodd" stroke="none"/>
      <path d="M11.5 10.8 L11.5 10.75 Q10.25 10.25 10.25 9.6 L10.25 9.0 Q10.5 9.7 11.8 10.2 L14.85 10.7 18.05 10.15 Q19.4 9.65 19.5 8.85 L19.5 9.6 Q19.5 10.25 18.25 10.75 L18.25 10.8 17.6 11.0 14.9 11.3 14.05 11.25 12.8 11.1 11.5 10.8" fill="url(#gradient43)" fill-rule="evenodd" stroke="none"/>
      <path d="M11.5 12.05 L11.5 10.8 12.8 11.1 14.05 11.25 14.05 11.35 Q13.6 11.35 13.45 11.6 L13.35 11.8 Q13.3 12.0 13.75 12.2 L13.95 12.25 11.5 12.05" fill="url(#gradient44)" fill-rule="evenodd" stroke="none"/>
      <path d="M14.05 12.3 L14.15 12.3 15.65 12.45 15.65 14.65 17.25 18.45 14.85 18.25 13.55 18.3 14.05 14.75 14.05 12.3" fill="url(#gradient45)" fill-rule="evenodd" stroke="none"/>
      <path d="M14.05 11.35 L14.05 11.25 14.9 11.3 15.65 11.25 15.65 11.4 14.15 11.35 14.05 11.35" fill="url(#gradient46)" fill-rule="evenodd" stroke="none"/>
      <path d="M8.55 19.85 L11.45 14.65 11.5 14.65 11.5 12.05 13.95 12.25 14.05 12.3 14.05 14.75 13.55 18.3 12.4 18.45 12.55 17.45 Q12.9 15.8 12.35 15.7 11.95 15.7 11.5 16.6 L10.25 18.95 Q9.05 19.35 8.55 19.85" fill="url(#gradient47)" fill-rule="evenodd" stroke="none"/>
      <path d="M15.6 7.6 L17.3 7.9 Q18.25 8.3 18.3 8.8 L18.3 8.95 Q18.15 9.35 17.3 9.7 L17.1 9.75 16.9 9.8 16.75 9.85 16.35 9.95 16.25 9.95 16.1 10.0 15.6 10.0 15.6 7.6" fill="url(#gradient48)" fill-rule="evenodd" stroke="none"/>
      <path d="M18.25 10.8 L18.25 10.9 15.65 11.4 15.65 11.25 16.2 11.2 16.45 11.2 17.6 11.0 18.25 10.8" fill="url(#gradient49)" fill-rule="evenodd" stroke="none"/>
      <path d="M8.1 20.65 L8.55 19.85 Q9.05 19.35 10.25 18.95 L8.75 21.85 Q8.1 21.35 8.1 20.75 L8.1 20.65" fill="url(#gradient50)" fill-rule="evenodd" stroke="none"/>
      <path d="M4.3 27.45 L8.1 20.65 8.1 20.75 Q8.1 21.35 8.75 21.85 L6.55 26.05 Q5.0 26.65 4.3 27.45" fill="url(#gradient51)" fill-rule="evenodd" stroke="none"/>
      <path d="M18.25 12.0 L18.25 14.65 18.3 14.65 18.4 14.85 18.4 14.95 18.4 15.5 Q18.4 15.95 19.3 16.45 L19.45 16.7 19.45 17.6 19.45 18.95 19.05 18.8 17.25 18.45 15.65 14.65 15.65 12.45 18.25 12.0" fill="url(#gradient52)" fill-rule="evenodd" stroke="none"/>
      <path d="M10.25 18.95 L11.5 16.6 Q11.95 15.7 12.35 15.7 12.9 15.8 12.55 17.45 L12.4 18.45 10.25 18.95" fill="url(#gradient53)" fill-rule="evenodd" stroke="none"/>
      <path d="M12.4 18.45 L13.55 18.3 12.95 23.15 11.8 23.0 12.4 18.45" fill="url(#gradient54)" fill-rule="evenodd" stroke="none"/>
      <path d="M13.55 18.3 L14.85 18.25 17.25 18.45 18.1 20.4 16.45 23.1 16.4 23.2 15.65 23.25 14.85 23.25 12.95 23.15 13.55 18.3 M18.55 21.45 L17.65 23.05 18.55 21.45" fill="url(#gradient55)" fill-rule="evenodd" stroke="none"/>
      <path d="M11.8 23.0 L12.95 23.15 12.7 24.75 11.55 24.85 11.8 23.0" fill="url(#gradient56)" fill-rule="evenodd" stroke="none"/>
      <path d="M12.95 23.15 L14.85 23.25 15.65 23.25 16.4 23.2 15.55 24.6 15.5 24.7 14.85 24.7 12.7 24.75 12.95 23.15 M17.65 23.05 L16.95 24.3 16.7 24.75 16.75 24.6 17.6 23.1 17.65 23.05" fill="url(#gradient57)" fill-rule="evenodd" stroke="none"/>
      <path d="M18.1 20.4 L17.25 18.45 19.05 18.8 18.1 20.4 M18.9 20.85 L18.55 21.45 18.9 20.85" fill="url(#gradient58)" fill-rule="evenodd" stroke="none"/>
      <path d="M16.45 23.1 L18.1 20.4 19.05 18.8 19.45 18.95 19.45 19.8 18.9 20.85 18.55 21.45 17.65 23.05 17.6 23.1 16.45 23.1" fill="#1b9277" fill-rule="evenodd" stroke="none"/>
      <path d="M16.4 23.2 L16.45 23.1 17.6 23.1 16.75 24.6 15.55 24.6 16.4 23.2" fill="#008151" fill-rule="evenodd" stroke="none"/>
      <path d="M15.5 24.7 L15.55 24.6 16.75 24.6 16.7 24.75 14.05 29.4 13.05 28.7 15.5 24.7" fill="#006f56" fill-rule="evenodd" stroke="none"/>
      <path d="M18.4 23.5 L19.3 23.25 20.25 23.05 20.0 25.05 20.0 25.2 19.75 27.0 18.0 26.5 17.3 26.15 17.1 26.0 18.4 23.5" fill="url(#gradient59)" fill-rule="evenodd" stroke="none"/>
      <path d="M16.95 24.3 Q17.45 23.8 18.4 23.5 L17.1 26.0 16.8 25.75 Q16.55 25.4 16.55 25.05 L16.55 25.0 16.7 24.75 16.95 24.3" fill="url(#gradient60)" fill-rule="evenodd" stroke="none"/>
      <path d="M8.75 21.85 L10.25 18.95 12.4 18.45 11.8 23.0 Q9.75 22.6 8.75 21.85" fill="url(#gradient61)" fill-rule="evenodd" stroke="none"/>
      <path d="M13.05 32.85 L13.0 32.85 12.75 32.45 12.8 31.75 12.75 32.0 13.05 32.85 M12.7 24.75 L14.85 24.7 15.5 24.7 13.05 28.7 11.95 30.5 12.7 24.75 M16.7 24.75 L16.55 25.0 13.3 30.8 13.25 30.85 12.95 31.35 13.2 30.85 14.05 29.4 16.7 24.75" fill="url(#gradient62)" fill-rule="evenodd" stroke="none"/>
      <path d="M8.75 21.85 Q9.75 22.6 11.8 23.0 L11.55 24.85 Q8.55 25.25 6.55 26.05 L8.75 21.85" fill="url(#gradient63)" fill-rule="evenodd" stroke="none"/>
      <path d="M17.1 26.0 L17.3 26.15 18.0 26.5 19.75 27.0 19.55 28.6 Q17.05 28.9 15.25 29.6 L17.1 26.0" fill="url(#gradient64)" fill-rule="evenodd" stroke="none"/>
      <path d="M16.55 25.0 L16.55 25.05 Q16.55 25.4 16.8 25.75 L17.1 26.0 15.25 29.6 Q13.85 30.2 13.3 30.8 L16.55 25.0" fill="url(#gradient65)" fill-rule="evenodd" stroke="none"/>
      <path d="M17.05 29.6 Q16.5 29.6 16.05 30.0 15.65 30.45 15.65 31.0 15.65 31.6 16.05 32.05 16.5 32.45 17.05 32.45 17.65 32.45 18.1 32.05 18.5 31.6 18.5 31.0 18.5 30.45 18.1 30.0 17.65 29.6 17.05 29.6 M15.25 29.6 Q17.05 28.9 19.55 28.6 L19.0 32.55 19.0 32.6 Q18.9 33.2 18.45 33.35 L18.05 33.35 16.05 32.9 15.75 32.8 14.6 32.3 Q14.15 32.05 14.3 31.5 L14.55 30.95 15.25 29.6" fill="url(#gradient66)" fill-rule="evenodd" stroke="none"/>
      <path d="M17.05 29.6 Q17.65 29.6 18.1 30.0 18.5 30.45 18.5 31.0 18.5 31.6 18.1 32.05 17.65 32.45 17.05 32.45 16.5 32.45 16.05 32.05 15.65 31.6 15.65 31.0 15.65 30.45 16.05 30.0 16.5 29.6 17.05 29.6 M10.35 27.3 L10.3 27.75 10.05 28.35 9.85 28.55 Q9.3 29.05 8.6 29.05 L8.05 28.95 7.45 28.65 7.35 28.55 7.1 28.25 6.85 27.3 Q6.85 26.6 7.35 26.05 L7.9 25.7 8.6 25.55 9.35 25.7 9.85 26.05 Q10.3 26.55 10.35 27.25 L10.35 27.3" fill="#bdffcf" fill-rule="evenodd" stroke="none"/>
      <path d="M19.75 27.0 L20.7 27.1 20.5 28.5 19.55 28.6 19.75 27.0" fill="url(#gradient67)" fill-rule="evenodd" stroke="none"/>
      <path d="M6.55 26.05 Q8.55 25.25 11.55 24.85 L10.95 29.55 Q10.8 30.25 10.3 30.4 L9.85 30.45 7.15 29.75 5.8 29.15 5.5 28.8 5.5 28.2 5.75 27.6 6.55 26.05 M10.35 27.3 L10.35 27.25 Q10.3 26.55 9.85 26.05 L9.35 25.7 8.6 25.55 7.9 25.7 7.35 26.05 Q6.85 26.6 6.85 27.3 L7.1 28.25 7.35 28.55 7.45 28.65 8.05 28.95 8.6 29.05 Q9.3 29.05 9.85 28.55 L10.05 28.35 10.3 27.75 10.35 27.3" fill="url(#gradient68)" fill-rule="evenodd" stroke="none"/>
      <path d="M11.7 32.8 Q8.4 32.4 6.2 31.45 5.0 30.9 4.35 30.3 L4.0 29.85 3.8 29.45 3.65 28.8 Q3.65 28.25 4.25 27.5 L4.3 27.45 Q5.0 26.65 6.55 26.05 L5.75 27.6 5.5 28.2 5.5 28.8 5.8 29.15 7.15 29.75 9.85 30.45 10.3 30.4 Q10.8 30.25 10.95 29.55 L11.55 24.85 12.7 24.75 11.95 30.5 11.5 31.25 11.35 31.8 Q11.3 32.45 11.7 32.8" fill="url(#gradient69)" fill-rule="evenodd" stroke="none"/>
      <path d="M13.0 32.85 L13.05 32.95 11.7 32.8 Q11.3 32.45 11.35 31.8 L11.5 31.25 11.95 30.5 13.05 28.7 14.05 29.4 13.2 30.85 12.95 31.35 Q12.8 31.5 12.8 31.75 L12.75 32.45 13.0 32.85" fill="#006249" fill-rule="evenodd" stroke="none"/>
      <path d="M20.4 35.45 Q17.1 35.2 14.95 34.25 13.55 33.6 13.05 32.85 L12.75 32.0 12.8 31.75 Q12.8 31.5 12.95 31.35 L13.25 30.85 13.3 30.8 Q13.85 30.2 15.25 29.6 L14.55 30.95 14.3 31.5 Q14.15 32.05 14.6 32.3 L15.75 32.8 16.05 32.9 18.05 33.35 18.45 33.35 Q18.9 33.2 19.0 32.6 L19.0 32.55 19.55 28.6 20.5 28.5 19.8 33.8 19.75 34.45 Q19.85 35.15 20.4 35.45" fill="url(#gradient70)" fill-rule="evenodd" stroke="none"/>
      <path d="M27.85 34.9 L23.65 35.5 20.4 35.45 Q19.85 35.15 19.75 34.45 L19.8 33.8 20.5 28.5 22.35 28.45 22.5 28.45 23.3 28.5 25.7 28.7 26.05 28.75 26.1 28.75 26.8 28.85 28.3 32.35 28.4 32.55 28.55 32.85 28.45 32.9 25.0 33.85 23.3 34.1 23.0 34.25 22.95 34.35 23.05 34.5 23.0 34.55 22.95 34.65 23.2 34.85 23.4 34.85 28.3 34.25 28.35 33.95 28.65 33.85 Q28.55 34.5 27.85 34.9" fill="url(#gradient71)" fill-rule="evenodd" stroke="none"/>
      <path d="M30.9 26.9 L31.0 27.05 30.7 28.65 30.55 29.05 29.6 27.4 29.45 27.1 29.8 25.85 29.95 25.4 30.9 26.9" fill="#009553" fill-rule="evenodd" stroke="none"/>
      <path d="M31.75 32.9 L31.25 33.4 31.45 33.2 31.75 32.75 31.85 32.65 31.7 32.85 31.75 32.9 M26.8 28.85 L26.15 27.2 27.0 27.15 Q28.25 26.9 28.8 26.15 L28.15 24.95 28.15 24.85 29.1 26.5 29.6 27.4 30.6 29.25 31.5 30.85 31.85 31.35 32.0 32.0 31.9 32.6 31.95 32.1 31.95 32.0 Q31.95 30.95 30.55 30.15 L30.5 30.1 29.2 29.5 Q28.15 29.1 26.8 28.85 M28.15 24.95 Q28.25 25.3 27.95 25.7 27.45 26.45 26.0 26.8 L25.95 26.75 Q27.55 26.3 28.0 25.6 L28.15 25.1 28.15 24.95" fill="url(#gradient72)" fill-rule="evenodd" stroke="none"/>
      <path d="M31.25 33.4 L31.2 33.45 31.1 33.55 29.15 34.5 27.85 34.9 Q28.55 34.5 28.65 33.85 30.6 33.1 31.4 32.1 31.65 31.7 31.4 31.35 L31.0 31.2 30.8 31.3 28.55 32.85 28.4 32.55 28.3 32.35 26.8 28.85 Q28.15 29.1 29.2 29.5 L30.5 30.1 30.55 30.15 Q31.95 30.95 31.95 32.0 L31.95 32.1 31.9 32.6 31.85 32.65 31.75 32.75 31.45 33.2 31.25 33.4" fill="url(#gradient73)" fill-rule="evenodd" stroke="none"/>
      <path d="M33.15 32.85 L32.95 32.95 32.85 32.95 32.35 32.95 31.75 32.9 31.7 32.85 31.85 32.65 31.9 32.6 32.0 32.0 31.85 31.35 31.5 30.75 31.4 30.55 32.7 29.7 33.5 31.0 Q34.05 32.1 33.1 32.85 L33.15 32.85" fill="#006223" fill-rule="evenodd" stroke="none"/>
      <path d="M31.0 27.05 L32.7 29.7 31.4 30.55 30.6 29.15 30.55 29.05 30.7 28.65 31.0 27.05" fill="#007430" fill-rule="evenodd" stroke="none"/>
      <path d="M28.55 32.85 L30.8 31.3 31.0 31.2 31.4 31.35 Q31.65 31.7 31.4 32.1 30.6 33.1 28.65 33.85 L28.35 33.95 28.45 33.2 28.4 33.25 28.45 32.9 28.55 32.85" fill="#00ae74" fill-rule="evenodd" stroke="none"/>
      <path d="M20.7 27.1 L20.9 27.15 21.55 27.2 22.35 27.2 23.4 27.2 24.95 27.0 25.2 26.95 25.6 26.85 25.6 27.0 25.85 27.2 26.15 27.2 26.8 28.85 26.1 28.75 26.05 28.75 25.7 28.7 23.3 28.5 22.5 28.45 22.35 28.45 20.5 28.5 20.7 27.1 M25.9 26.8 L25.95 26.75 26.0 26.8 25.9 26.8" fill="url(#gradient74)" fill-rule="evenodd" stroke="none"/>
      <path d="M28.35 33.95 L28.3 34.25 23.4 34.85 23.2 34.85 22.95 34.65 23.0 34.55 23.05 34.5 22.95 34.35 23.0 34.25 23.3 34.1 25.0 33.85 28.45 32.9 28.4 33.25 28.45 33.2 28.35 33.95" fill="#00ae6d" fill-rule="evenodd" stroke="none"/>
    </g>
    <linearGradient gradientTransform="matrix(0.0, -0.0033, -0.0033, 0.0, 38.85, 19.25)" gradientUnits="userSpaceOnUse" id="gradient0" spreadMethod="pad" x1="-819.2" x2="819.2">
      <stop offset="0.0" stop-color="#3ec676"/>
      <stop offset="1.0" stop-color="#008d68"/>
    </linearGradient>
    <linearGradient gradientTransform="matrix(0.0, -0.0078, -0.0078, 0.0, 42.35, 25.55)" gradientUnits="userSpaceOnUse" id="gradient1" spreadMethod="pad" x1="-819.2" x2="819.2">
      <stop offset="0.0" stop-color="#21a98b"/>
      <stop offset="1.0" stop-color="#007e32"/>
    </linearGradient>
    <linearGradient gradientTransform="matrix(0.0, -0.0068, -0.0068, 0.0, 42.9, 27.25)" gradientUnits="userSpaceOnUse" id="gradient2" spreadMethod="pad" x1="-819.2" x2="819.2">
      <stop offset="0.0" stop-color="#1a9d4f"/>
      <stop offset="1.0" stop-color="#00651c"/>
    </linearGradient>
    <linearGradient gradientTransform="matrix(0.0, -0.0068, -0.0068, 0.0, 36.15, 27.25)" gradientUnits="userSpaceOnUse" id="gradient3" spreadMethod="pad" x1="-819.2" x2="819.2">
      <stop offset="0.0" stop-color="#00ac58"/>
      <stop offset="1.0" stop-color="#007e60"/>
    </linearGradient>
    <linearGradient gradientTransform="matrix(0.0017, 0.0, 0.0, -0.0017, 36.05, 5.85)" gradientUnits="userSpaceOnUse" id="gradient4" spreadMethod="pad" x1="-819.2" x2="819.2">
      <stop offset="0.0" stop-color="#2cb49d"/>
      <stop offset="1.0" stop-color="#149dae"/>
    </linearGradient>
    <linearGradient gradientTransform="matrix(0.0065, 0.0, 0.0, -0.0065, 33.85, 6.0)" gradientUnits="userSpaceOnUse" id="gradient5" spreadMethod="pad" x1="-819.2" x2="819.2">
      <stop offset="0.0" stop-color="#def9e5"/>
      <stop offset="1.0" stop-color="#14d2ae"/>
    </linearGradient>
    <linearGradient gradientTransform="matrix(0.0015, 0.0, 0.0, -0.0015, 31.2, 5.85)" gradientUnits="userSpaceOnUse" id="gradient6" spreadMethod="pad" x1="-819.2" x2="819.2">
      <stop offset="0.0" stop-color="#0a9779"/>
      <stop offset="1.0" stop-color="#14cdae"/>
    </linearGradient>
    <linearGradient gradientTransform="matrix(0.0012, 0.0, 0.0, -0.0012, 33.55, 5.85)" gradientUnits="userSpaceOnUse" id="gradient7" spreadMethod="pad" x1="-819.2" x2="819.2">
      <stop offset="0.0" stop-color="#32d699"/>
      <stop offset="1.0" stop-color="#14cdae"/>
    </linearGradient>
    <linearGradient gradientTransform="matrix(0.0, -5.0E-4, -5.0E-4, 0.0, 36.1, 8.85)" gradientUnits="userSpaceOnUse" id="gradient8" spreadMethod="pad" x1="-819.2" x2="819.2">
      <stop offset="0.0" stop-color="#0296a7"/>
      <stop offset="1.0" stop-color="#0095a7"/>
    </linearGradient>
    <linearGradient gradientTransform="matrix(0.0, -6.0E-4, -6.0E-4, 0.0, 33.7, 9.05)" gradientUnits="userSpaceOnUse" id="gradient9" spreadMethod="pad" x1="-819.2" x2="819.2">
      <stop offset="0.0" stop-color="#19a0a6"/>
      <stop offset="1.0" stop-color="#119ca4"/>
    </linearGradient>
    <linearGradient gradientTransform="matrix(0.0065, 0.0, 0.0, -0.0065, 33.85, 7.3)" gradientUnits="userSpaceOnUse" id="gradient10" spreadMethod="pad" x1="-819.2" x2="819.2">
      <stop offset="0.0" stop-color="#5be17c"/>
      <stop offset="1.0" stop-color="#149dae"/>
    </linearGradient>
    <linearGradient gradientTransform="matrix(0.0, -8.0E-4, -8.0E-4, 0.0, 31.4, 9.15)" gradientUnits="userSpaceOnUse" id="gradient11" spreadMethod="pad" x1="-819.2" x2="819.2">
      <stop offset="0.0" stop-color="#26aeaa"/>
      <stop offset="1.0" stop-color="#09a2a0"/>
    </linearGradient>
    <linearGradient gradientTransform="matrix(0.0, -0.0052, -0.0052, 0.0, 29.75, 14.15)" gradientUnits="userSpaceOnUse" id="gradient12" spreadMethod="pad" x1="-819.2" x2="819.2">
      <stop offset="0.0" stop-color="#a9eec5"/>
      <stop offset="1.0" stop-color="#3cb6b4"/>
    </linearGradient>
    <linearGradient gradientTransform="matrix(0.0, -0.0054, -0.0054, 0.0, 34.35, 13.85)" gradientUnits="userSpaceOnUse" id="gradient13" spreadMethod="pad" x1="-819.2" x2="819.2">
      <stop offset="0.0" stop-color="#5dde74"/>
      <stop offset="1.0" stop-color="#3caeb4"/>
    </linearGradient>
    <linearGradient gradientTransform="matrix(0.0, -0.0056, -0.0056, 0.0, 37.8, 13.85)" gradientUnits="userSpaceOnUse" id="gradient14" spreadMethod="pad" x1="-819.2" x2="819.2">
      <stop offset="0.0" stop-color="#5be17c"/>
      <stop offset="1.0" stop-color="#149dae"/>
    </linearGradient>
    <linearGradient gradientTransform="matrix(0.0049, 0.0, 0.0, -0.0049, 22.45, 14.9)" gradientUnits="userSpaceOnUse" id="gradient15" spreadMethod="pad" x1="-819.2" x2="819.2">
      <stop offset="0.0" stop-color="#def9e5"/>
      <stop offset="1.0" stop-color="#14d2ae"/>
    </linearGradient>
    <linearGradient gradientTransform="matrix(0.0049, 0.0, 0.0, -0.0049, 22.45, 15.9)" gradientUnits="userSpaceOnUse" id="gradient16" spreadMethod="pad" x1="-819.2" x2="819.2">
      <stop offset="0.0" stop-color="#5be17c"/>
      <stop offset="1.0" stop-color="#149dae"/>
    </linearGradient>
    <linearGradient gradientTransform="matrix(0.0, -0.0057, -0.0057, 0.0, 29.9, 12.8)" gradientUnits="userSpaceOnUse" id="gradient17" spreadMethod="pad" x1="-819.2" x2="819.2">
      <stop offset="0.0" stop-color="#ffffff"/>
      <stop offset="1.0" stop-color="#3cb6b4"/>
    </linearGradient>
    <linearGradient gradientTransform="matrix(0.0, -0.0033, -0.0033, 0.0, 27.35, 19.25)" gradientUnits="userSpaceOnUse" id="gradient18" spreadMethod="pad" x1="-819.2" x2="819.2">
      <stop offset="0.0" stop-color="#5bed7c"/>
      <stop offset="1.0" stop-color="#00b381"/>
    </linearGradient>
    <linearGradient gradientTransform="matrix(0.0013, 0.0, 0.0, -0.0013, 24.1, 14.8)" gradientUnits="userSpaceOnUse" id="gradient19" spreadMethod="pad" x1="-819.2" x2="819.2">
      <stop offset="0.0" stop-color="#2cb49d"/>
      <stop offset="1.0" stop-color="#149dae"/>
    </linearGradient>
    <linearGradient gradientTransform="matrix(0.0012, 0.0, 0.0, -0.0012, 20.45, 14.8)" gradientUnits="userSpaceOnUse" id="gradient20" spreadMethod="pad" x1="-819.2" x2="819.2">
      <stop offset="0.0" stop-color="#0a9779"/>
      <stop offset="1.0" stop-color="#14cdae"/>
    </linearGradient>
    <linearGradient gradientTransform="matrix(9.0E-4, 0.0, 0.0, -9.0E-4, 22.2, 14.8)" gradientUnits="userSpaceOnUse" id="gradient21" spreadMethod="pad" x1="-819.2" x2="819.2">
      <stop offset="0.0" stop-color="#32d699"/>
      <stop offset="1.0" stop-color="#14cdae"/>
    </linearGradient>
    <linearGradient gradientTransform="matrix(0.0, -4.0E-4, -4.0E-4, 0.0, 22.35, 17.25)" gradientUnits="userSpaceOnUse" id="gradient22" spreadMethod="pad" x1="-819.2" x2="819.2">
      <stop offset="0.0" stop-color="#19a0a6"/>
      <stop offset="1.0" stop-color="#119ca4"/>
    </linearGradient>
    <linearGradient gradientTransform="matrix(0.0, -6.0E-4, -6.0E-4, 0.0, 20.55, 17.3)" gradientUnits="userSpaceOnUse" id="gradient23" spreadMethod="pad" x1="-819.2" x2="819.2">
      <stop offset="0.0" stop-color="#26aeaa"/>
      <stop offset="1.0" stop-color="#09a2a0"/>
    </linearGradient>
    <linearGradient gradientTransform="matrix(0.0, -0.004, -0.004, 0.0, 19.3, 21.15)" gradientUnits="userSpaceOnUse" id="gradient24" spreadMethod="pad" x1="-819.2" x2="819.2">
      <stop offset="0.0" stop-color="#a9eec5"/>
      <stop offset="1.0" stop-color="#3cb6b4"/>
    </linearGradient>
    <linearGradient gradientTransform="matrix(0.0, -0.0041, -0.0041, 0.0, 22.85, 20.9)" gradientUnits="userSpaceOnUse" id="gradient25" spreadMethod="pad" x1="-819.2" x2="819.2">
      <stop offset="0.0" stop-color="#5dde74"/>
      <stop offset="1.0" stop-color="#3caeb4"/>
    </linearGradient>
    <linearGradient gradientTransform="matrix(0.0, -4.0E-4, -4.0E-4, 0.0, 24.15, 17.1)" gradientUnits="userSpaceOnUse" id="gradient26" spreadMethod="pad" x1="-819.2" x2="819.2">
      <stop offset="0.0" stop-color="#0296a7"/>
      <stop offset="1.0" stop-color="#0095a7"/>
    </linearGradient>
    <linearGradient gradientTransform="matrix(0.0, -0.0043, -0.0043, 0.0, 25.45, 20.9)" gradientUnits="userSpaceOnUse" id="gradient27" spreadMethod="pad" x1="-819.2" x2="819.2">
      <stop offset="0.0" stop-color="#5be17c"/>
      <stop offset="1.0" stop-color="#149dae"/>
    </linearGradient>
    <linearGradient gradientTransform="matrix(0.0, -0.0044, -0.0044, 0.0, 19.45, 20.1)" gradientUnits="userSpaceOnUse" id="gradient28" spreadMethod="pad" x1="-819.2" x2="819.2">
      <stop offset="0.0" stop-color="#ffffff"/>
      <stop offset="1.0" stop-color="#3cb6b4"/>
    </linearGradient>
    <linearGradient gradientTransform="matrix(0.0, -0.0026, -0.0026, 0.0, 20.5, 25.05)" gradientUnits="userSpaceOnUse" id="gradient29" spreadMethod="pad" x1="-819.2" x2="819.2">
      <stop offset="0.0" stop-color="#5bed7c"/>
      <stop offset="1.0" stop-color="#00b381"/>
    </linearGradient>
    <linearGradient gradientTransform="matrix(0.0, -0.0026, -0.0026, 0.0, 23.3, 25.05)" gradientUnits="userSpaceOnUse" id="gradient30" spreadMethod="pad" x1="-819.2" x2="819.2">
      <stop offset="0.011764705882352941" stop-color="#4cca8d"/>
      <stop offset="1.0" stop-color="#42a786"/>
    </linearGradient>
    <linearGradient gradientTransform="matrix(0.0, -0.0026, -0.0026, 0.0, 26.3, 25.05)" gradientUnits="userSpaceOnUse" id="gradient31" spreadMethod="pad" x1="-819.2" x2="819.2">
      <stop offset="0.0" stop-color="#3ec676"/>
      <stop offset="1.0" stop-color="#008d68"/>
    </linearGradient>
    <linearGradient gradientTransform="matrix(0.0, -0.0076, -0.0076, 0.0, 27.35, 25.75)" gradientUnits="userSpaceOnUse" id="gradient32" spreadMethod="pad" x1="-819.2" x2="819.2">
      <stop offset="0.0" stop-color="#c7fdd7"/>
      <stop offset="1.0" stop-color="#90efa9"/>
    </linearGradient>
    <linearGradient gradientTransform="matrix(0.0, -0.0078, -0.0078, 0.0, 30.8, 25.55)" gradientUnits="userSpaceOnUse" id="gradient33" spreadMethod="pad" x1="-819.2" x2="819.2">
      <stop offset="0.011764705882352941" stop-color="#86fe92"/>
      <stop offset="1.0" stop-color="#00a432"/>
    </linearGradient>
    <linearGradient gradientTransform="matrix(0.0, -0.0057, -0.0057, 0.0, 26.6, 27.75)" gradientUnits="userSpaceOnUse" id="gradient34" spreadMethod="pad" x1="-819.2" x2="819.2">
      <stop offset="0.0" stop-color="#98f6af"/>
      <stop offset="1.0" stop-color="#71ff90"/>
    </linearGradient>
    <linearGradient gradientTransform="matrix(0.0, -0.0034, -0.0034, 0.0, 28.95, 19.15)" gradientUnits="userSpaceOnUse" id="gradient35" spreadMethod="pad" x1="-819.2" x2="819.2">
      <stop offset="0.00392156862745098" stop-color="#cdffd8"/>
      <stop offset="1.0" stop-color="#9cf3b2"/>
    </linearGradient>
    <linearGradient gradientTransform="matrix(0.0, -0.0033, -0.0033, 0.0, 35.0, 19.25)" gradientUnits="userSpaceOnUse" id="gradient36" spreadMethod="pad" x1="-819.2" x2="819.2">
      <stop offset="0.011764705882352941" stop-color="#4cca8d"/>
      <stop offset="1.0" stop-color="#42a786"/>
    </linearGradient>
    <linearGradient gradientTransform="matrix(0.0, -0.0033, -0.0033, 0.0, 31.3, 19.25)" gradientUnits="userSpaceOnUse" id="gradient37" spreadMethod="pad" x1="-819.2" x2="819.2">
      <stop offset="0.0" stop-color="#5bed7c"/>
      <stop offset="1.0" stop-color="#00b381"/>
    </linearGradient>
    <linearGradient gradientTransform="matrix(0.0, -0.0078, -0.0078, 0.0, 35.45, 25.55)" gradientUnits="userSpaceOnUse" id="gradient38" spreadMethod="pad" x1="-819.2" x2="819.2">
      <stop offset="0.0" stop-color="#2be686"/>
      <stop offset="1.0" stop-color="#007432"/>
    </linearGradient>
    <linearGradient gradientTransform="matrix(0.0, -0.0068, -0.0068, 0.0, 26.25, 27.25)" gradientUnits="userSpaceOnUse" id="gradient39" spreadMethod="pad" x1="-819.2" x2="819.2">
      <stop offset="0.0" stop-color="#1ad74f"/>
      <stop offset="1.0" stop-color="#00a76a"/>
    </linearGradient>
    <linearGradient gradientTransform="matrix(0.0058, 0.0, 0.0, -0.0058, 14.95, 8.9)" gradientUnits="userSpaceOnUse" id="gradient40" spreadMethod="pad" x1="-819.2" x2="819.2">
      <stop offset="0.0" stop-color="#def9e5"/>
      <stop offset="1.0" stop-color="#14d2ae"/>
    </linearGradient>
    <linearGradient gradientTransform="matrix(0.0013, 0.0, 0.0, -0.0013, 12.6, 8.8)" gradientUnits="userSpaceOnUse" id="gradient41" spreadMethod="pad" x1="-819.2" x2="819.2">
      <stop offset="0.0" stop-color="#0a9779"/>
      <stop offset="1.0" stop-color="#14cdae"/>
    </linearGradient>
    <linearGradient gradientTransform="matrix(0.001, 0.0, 0.0, -0.001, 14.7, 8.8)" gradientUnits="userSpaceOnUse" id="gradient42" spreadMethod="pad" x1="-819.2" x2="819.2">
      <stop offset="0.0" stop-color="#32d699"/>
      <stop offset="1.0" stop-color="#14cdae"/>
    </linearGradient>
    <linearGradient gradientTransform="matrix(0.0058, 0.0, 0.0, -0.0058, 14.95, 10.05)" gradientUnits="userSpaceOnUse" id="gradient43" spreadMethod="pad" x1="-819.2" x2="819.2">
      <stop offset="0.0" stop-color="#5be17c"/>
      <stop offset="1.0" stop-color="#149dae"/>
    </linearGradient>
    <linearGradient gradientTransform="matrix(0.0, -7.0E-4, -7.0E-4, 0.0, 12.75, 11.7)" gradientUnits="userSpaceOnUse" id="gradient44" spreadMethod="pad" x1="-819.2" x2="819.2">
      <stop offset="0.0" stop-color="#26aeaa"/>
      <stop offset="1.0" stop-color="#09a2a0"/>
    </linearGradient>
    <linearGradient gradientTransform="matrix(0.0, -0.0048, -0.0048, 0.0, 15.4, 15.9)" gradientUnits="userSpaceOnUse" id="gradient45" spreadMethod="pad" x1="-819.2" x2="819.2">
      <stop offset="0.0" stop-color="#5dde74"/>
      <stop offset="1.0" stop-color="#3caeb4"/>
    </linearGradient>
    <linearGradient gradientTransform="matrix(0.0, -5.0E-4, -5.0E-4, 0.0, 14.85, 11.65)" gradientUnits="userSpaceOnUse" id="gradient46" spreadMethod="pad" x1="-819.2" x2="819.2">
      <stop offset="0.0" stop-color="#19a0a6"/>
      <stop offset="1.0" stop-color="#119ca4"/>
    </linearGradient>
    <linearGradient gradientTransform="matrix(0.0, -0.0046, -0.0046, 0.0, 11.3, 16.2)" gradientUnits="userSpaceOnUse" id="gradient47" spreadMethod="pad" x1="-819.2" x2="819.2">
      <stop offset="0.0" stop-color="#a9eec5"/>
      <stop offset="1.0" stop-color="#3cb6b4"/>
    </linearGradient>
    <linearGradient gradientTransform="matrix(0.0015, 0.0, 0.0, -0.0015, 16.9, 8.8)" gradientUnits="userSpaceOnUse" id="gradient48" spreadMethod="pad" x1="-819.2" x2="819.2">
      <stop offset="0.0" stop-color="#2cb49d"/>
      <stop offset="1.0" stop-color="#149dae"/>
    </linearGradient>
    <linearGradient gradientTransform="matrix(0.0, -5.0E-4, -5.0E-4, 0.0, 16.95, 11.45)" gradientUnits="userSpaceOnUse" id="gradient49" spreadMethod="pad" x1="-819.2" x2="819.2">
      <stop offset="0.0" stop-color="#0296a7"/>
      <stop offset="1.0" stop-color="#0095a7"/>
    </linearGradient>
    <linearGradient gradientTransform="matrix(0.0, -0.003, -0.003, 0.0, 9.15, 20.75)" gradientUnits="userSpaceOnUse" id="gradient50" spreadMethod="pad" x1="-819.2" x2="819.2">
      <stop offset="0.0" stop-color="#5bed7c"/>
      <stop offset="1.0" stop-color="#00b381"/>
    </linearGradient>
    <linearGradient gradientTransform="matrix(0.0, -0.007, -0.007, 0.0, 6.5, 26.35)" gradientUnits="userSpaceOnUse" id="gradient51" spreadMethod="pad" x1="-819.2" x2="819.2">
      <stop offset="0.011764705882352941" stop-color="#86fe92"/>
      <stop offset="1.0" stop-color="#00a432"/>
    </linearGradient>
    <linearGradient gradientTransform="matrix(0.0, -0.005, -0.005, 0.0, 18.5, 15.9)" gradientUnits="userSpaceOnUse" id="gradient52" spreadMethod="pad" x1="-819.2" x2="819.2">
      <stop offset="0.0" stop-color="#5be17c"/>
      <stop offset="1.0" stop-color="#149dae"/>
    </linearGradient>
    <linearGradient gradientTransform="matrix(0.0, -0.0051, -0.0051, 0.0, 11.45, 15.0)" gradientUnits="userSpaceOnUse" id="gradient53" spreadMethod="pad" x1="-819.2" x2="819.2">
      <stop offset="0.0" stop-color="#ffffff"/>
      <stop offset="1.0" stop-color="#3cb6b4"/>
    </linearGradient>
    <linearGradient gradientTransform="matrix(0.0, -0.003, -0.003, 0.0, 12.7, 20.75)" gradientUnits="userSpaceOnUse" id="gradient54" spreadMethod="pad" x1="-819.2" x2="819.2">
      <stop offset="0.0" stop-color="#5bed7c"/>
      <stop offset="1.0" stop-color="#00b381"/>
    </linearGradient>
    <linearGradient gradientTransform="matrix(0.0, -0.003, -0.003, 0.0, 16.0, 20.75)" gradientUnits="userSpaceOnUse" id="gradient55" spreadMethod="pad" x1="-819.2" x2="819.2">
      <stop offset="0.011764705882352941" stop-color="#4cca8d"/>
      <stop offset="1.0" stop-color="#42a786"/>
    </linearGradient>
    <linearGradient gradientTransform="matrix(0.0, -0.007, -0.007, 0.0, 12.25, 26.35)" gradientUnits="userSpaceOnUse" id="gradient56" spreadMethod="pad" x1="-819.2" x2="819.2">
      <stop offset="0.011764705882352941" stop-color="#86fe92"/>
      <stop offset="1.0" stop-color="#00a432"/>
    </linearGradient>
    <linearGradient gradientTransform="matrix(0.0, -0.007, -0.007, 0.0, 16.4, 26.35)" gradientUnits="userSpaceOnUse" id="gradient57" spreadMethod="pad" x1="-819.2" x2="819.2">
      <stop offset="0.0" stop-color="#2be686"/>
      <stop offset="1.0" stop-color="#007432"/>
    </linearGradient>
    <linearGradient gradientTransform="matrix(0.0, -0.003, -0.003, 0.0, 19.45, 20.75)" gradientUnits="userSpaceOnUse" id="gradient58" spreadMethod="pad" x1="-819.2" x2="819.2">
      <stop offset="0.0" stop-color="#3ec676"/>
      <stop offset="1.0" stop-color="#008d68"/>
    </linearGradient>
    <linearGradient gradientTransform="matrix(0.0, -0.0026, -0.0026, 0.0, 18.7, 24.95)" gradientUnits="userSpaceOnUse" id="gradient59" spreadMethod="pad" x1="-819.2" x2="819.2">
      <stop offset="0.00392156862745098" stop-color="#cdffd8"/>
      <stop offset="1.0" stop-color="#9cf3b2"/>
    </linearGradient>
    <linearGradient gradientTransform="matrix(0.0, -0.0026, -0.0026, 0.0, 17.5, 25.05)" gradientUnits="userSpaceOnUse" id="gradient60" spreadMethod="pad" x1="-819.2" x2="819.2">
      <stop offset="0.0" stop-color="#5bed7c"/>
      <stop offset="1.0" stop-color="#00b381"/>
    </linearGradient>
    <linearGradient gradientTransform="matrix(0.0, -0.003, -0.003, 0.0, 10.6, 20.65)" gradientUnits="userSpaceOnUse" id="gradient61" spreadMethod="pad" x1="-819.2" x2="819.2">
      <stop offset="0.00392156862745098" stop-color="#cdffd8"/>
      <stop offset="1.0" stop-color="#9cf3b2"/>
    </linearGradient>
    <linearGradient gradientTransform="matrix(0.0, -0.0061, -0.0061, 0.0, 17.0, 27.85)" gradientUnits="userSpaceOnUse" id="gradient62" spreadMethod="pad" x1="-819.2" x2="819.2">
      <stop offset="0.0" stop-color="#00ac58"/>
      <stop offset="1.0" stop-color="#007e60"/>
    </linearGradient>
    <linearGradient gradientTransform="matrix(0.0, -0.0068, -0.0068, 0.0, 9.2, 26.5)" gradientUnits="userSpaceOnUse" id="gradient63" spreadMethod="pad" x1="-819.2" x2="819.2">
      <stop offset="0.0" stop-color="#c7fdd7"/>
      <stop offset="1.0" stop-color="#90efa9"/>
    </linearGradient>
    <linearGradient gradientTransform="matrix(0.0, -0.0059, -0.0059, 0.0, 17.5, 30.0)" gradientUnits="userSpaceOnUse" id="gradient64" spreadMethod="pad" x1="-819.2" x2="819.2">
      <stop offset="0.0" stop-color="#c7fdd7"/>
      <stop offset="1.0" stop-color="#90efa9"/>
    </linearGradient>
    <linearGradient gradientTransform="matrix(0.0, -0.006, -0.006, 0.0, 15.2, 29.85)" gradientUnits="userSpaceOnUse" id="gradient65" spreadMethod="pad" x1="-819.2" x2="819.2">
      <stop offset="0.011764705882352941" stop-color="#86fe92"/>
      <stop offset="1.0" stop-color="#00a432"/>
    </linearGradient>
    <linearGradient gradientTransform="matrix(0.0, -0.0043, -0.0043, 0.0, 16.9, 31.55)" gradientUnits="userSpaceOnUse" id="gradient66" spreadMethod="pad" x1="-819.2" x2="819.2">
      <stop offset="0.0" stop-color="#98f6af"/>
      <stop offset="1.0" stop-color="#71ff90"/>
    </linearGradient>
    <linearGradient gradientTransform="matrix(0.0, -0.006, -0.006, 0.0, 20.1, 29.85)" gradientUnits="userSpaceOnUse" id="gradient67" spreadMethod="pad" x1="-819.2" x2="819.2">
      <stop offset="0.011764705882352941" stop-color="#86fe92"/>
      <stop offset="1.0" stop-color="#00a432"/>
    </linearGradient>
    <linearGradient gradientTransform="matrix(0.0, -0.005, -0.005, 0.0, 8.5, 28.35)" gradientUnits="userSpaceOnUse" id="gradient68" spreadMethod="pad" x1="-819.2" x2="819.2">
      <stop offset="0.0" stop-color="#98f6af"/>
      <stop offset="1.0" stop-color="#71ff90"/>
    </linearGradient>
    <linearGradient gradientTransform="matrix(0.0, -0.0061, -0.0061, 0.0, 8.2, 27.85)" gradientUnits="userSpaceOnUse" id="gradient69" spreadMethod="pad" x1="-819.2" x2="819.2">
      <stop offset="0.0" stop-color="#1ad74f"/>
      <stop offset="1.0" stop-color="#00a76a"/>
    </linearGradient>
    <linearGradient gradientTransform="matrix(0.0, -0.0052, -0.0052, 0.0, 16.65, 31.15)" gradientUnits="userSpaceOnUse" id="gradient70" spreadMethod="pad" x1="-819.2" x2="819.2">
      <stop offset="0.0" stop-color="#1ad74f"/>
      <stop offset="1.0" stop-color="#00a76a"/>
    </linearGradient>
    <linearGradient gradientTransform="matrix(0.0, -0.0052, -0.0052, 0.0, 24.2, 31.15)" gradientUnits="userSpaceOnUse" id="gradient71" spreadMethod="pad" x1="-819.2" x2="819.2">
      <stop offset="0.0" stop-color="#00ac58"/>
      <stop offset="1.0" stop-color="#007e60"/>
    </linearGradient>
    <linearGradient gradientTransform="matrix(0.0, -0.006, -0.006, 0.0, 28.95, 29.85)" gradientUnits="userSpaceOnUse" id="gradient72" spreadMethod="pad" x1="-819.2" x2="819.2">
      <stop offset="0.0" stop-color="#21a98b"/>
      <stop offset="1.0" stop-color="#007e32"/>
    </linearGradient>
    <linearGradient gradientTransform="matrix(0.0, -0.0052, -0.0052, 0.0, 29.4, 31.15)" gradientUnits="userSpaceOnUse" id="gradient73" spreadMethod="pad" x1="-819.2" x2="819.2">
      <stop offset="0.0" stop-color="#1a9d4f"/>
      <stop offset="1.0" stop-color="#00651c"/>
    </linearGradient>
    <linearGradient gradientTransform="matrix(0.0, -0.006, -0.006, 0.0, 23.65, 29.85)" gradientUnits="userSpaceOnUse" id="gradient74" spreadMethod="pad" x1="-819.2" x2="819.2">
      <stop offset="0.0" stop-color="#2be686"/>
      <stop offset="1.0" stop-color="#007432"/>
    </linearGradient>
  </defs>
</svg>
