<?xml version="1.0" encoding="UTF-8" standalone="no"?>
<svg xmlns:xlink="http://www.w3.org/1999/xlink" height="23.8px" width="25.0px" xmlns="http://www.w3.org/2000/svg">
  <g transform="matrix(1.0, 0.0, 0.0, 1.0, 12.5, 11.85)">
    <path d="M0.0 -11.85 L3.95 -4.15 12.5 -2.75 6.45 3.4 7.7 11.95 0.0 8.1 -7.7 11.95 -6.45 3.4 -12.5 -2.75 -3.95 -4.15 0.0 -11.85" fill="#ffe45c" fill-rule="evenodd" stroke="none"/>
    <path d="M0.0 -10.6 L3.6 -3.75 11.2 -2.45 5.75 3.05 6.9 10.7 0.0 7.25 -6.9 10.7 -5.75 3.05 -11.2 -2.45 -3.55 -3.75 0.0 -10.6" fill="#ffa940" fill-rule="evenodd" stroke="none"/>
    <path d="M10.35 -2.25 L5.35 2.8 6.4 9.85 0.0 6.65 -6.4 9.85 -5.35 2.8 -10.35 -2.25 -3.25 -3.45 0.0 -9.75 3.25 -3.45 10.35 -2.25" fill="url(#gradient0)" fill-rule="evenodd" stroke="none"/>
    <path d="M-5.2 2.85 L-0.15 1.25 -6.45 9.85 -5.2 2.85 M-10.25 -2.25 L-3.25 -3.3 -0.15 1.0 -10.25 -2.25 M0.0 6.65 L0.0 1.3 6.3 9.85 0.0 6.65 M5.15 2.65 L0.15 0.9 10.3 -2.25 5.15 2.65 M0.05 -9.8 L3.2 -3.5 0.05 0.85 0.05 -9.8" fill="url(#gradient1)" fill-rule="evenodd" stroke="none"/>
  </g>
  <defs>
    <radialGradient cx="0" cy="0" gradientTransform="matrix(0.0186, 0.0, 0.0, 0.0186, -2.5, -5.2)" gradientUnits="userSpaceOnUse" id="gradient0" r="819.2" spreadMethod="pad">
      <stop offset="0.0" stop-color="#ffff82"/>
      <stop offset="0.39215686274509803" stop-color="#ffe45c"/>
    </radialGradient>
    <radialGradient cx="0" cy="0" gradientTransform="matrix(0.0157, 0.0, 0.0, 0.0182, 4.45, 8.25)" gradientUnits="userSpaceOnUse" id="gradient1" r="819.2" spreadMethod="pad">
      <stop offset="0.0" stop-color="#cf7010"/>
      <stop offset="0.39215686274509803" stop-color="#fea245"/>
    </radialGradient>
  </defs>
</svg>
