<?xml version="1.0" encoding="UTF-8" standalone="no"?>
<svg xmlns:xlink="http://www.w3.org/1999/xlink" height="25.0px" width="25.0px" xmlns="http://www.w3.org/2000/svg">
  <g transform="matrix(1.0, 0.0, 0.0, 1.0, 12.45, 12.5)">
    <use height="25.0" transform="matrix(1.0, 0.0, 0.0, 1.0, -12.45, -12.5)" width="25.0" xlink:href="#shape0"/>
    <use height="20.0" transform="matrix(1.0, 0.0, 0.0, 1.0, -8.6, -10.2)" width="17.25" xlink:href="#shape1"/>
  </g>
  <defs>
    <g id="shape0" transform="matrix(1.0, 0.0, 0.0, 1.0, 12.45, 12.5)">
      <path d="M12.55 -12.5 L12.55 12.5 -12.45 12.5 -12.45 -12.5 12.55 -12.5" fill="url(#gradient0)" fill-rule="evenodd" stroke="none"/>
    </g>
    <radialGradient cx="0" cy="0" gradientTransform="matrix(0.0702, 0.0, 0.0, 0.0702, 0.0, -0.05)" gradientUnits="userSpaceOnUse" id="gradient0" r="819.2" spreadMethod="pad">
      <stop offset="0.0" stop-color="#de0000"/>
      <stop offset="0.23137254901960785" stop-color="#de0000"/>
      <stop offset="0.39215686274509803" stop-color="#4a0000"/>
    </radialGradient>
    <g id="shape1" transform="matrix(1.0, 0.0, 0.0, 1.0, 8.6, 10.2)">
      <path d="M2.3 -5.1 Q1.45 -5.75 0.95 -5.25 0.6 -4.9 0.65 -3.65 L0.65 -3.25 Q0.65 -2.35 1.55 -2.15 L1.65 -2.15 Q2.8 -2.1 3.2 -2.5 3.7 -3.2 3.35 -3.9 L2.3 -5.1 M1.1 -1.2 L0.9 -1.85 0.75 -1.95 0.45 -2.45 0.4 -1.7 0.35 -1.1 Q0.4 -0.8 0.9 -0.8 1.1 -0.8 1.1 -1.2 M6.75 -3.5 Q6.6 -2.45 6.0 -1.65 L5.05 -0.85 Q4.05 -0.3 3.9 0.9 L3.35 2.6 Q2.95 3.25 2.95 1.6 L2.9 1.05 2.8 1.5 Q2.45 3.1 2.15 2.8 1.9 2.55 1.85 1.55 1.8 0.55 1.25 1.2 L1.0 1.95 0.6 2.9 0.45 2.5 0.35 0.6 0.25 0.65 0.1 0.65 -0.05 0.6 -0.15 2.5 -0.25 2.95 -0.65 1.95 -0.95 1.2 Q-1.5 0.55 -1.55 1.55 -1.6 2.55 -1.8 2.8 -2.15 3.1 -2.5 1.5 L-2.6 1.05 -2.65 1.6 Q-2.65 3.25 -3.05 2.6 -3.5 1.95 -3.6 0.95 -3.75 -0.3 -4.7 -0.85 L-5.7 -1.65 Q-6.35 -2.5 -6.45 -3.5 -6.75 -5.9 -5.35 -8.45 -4.9 -9.3 -3.3 -9.75 L-0.25 -10.2 3.0 -9.95 Q5.05 -9.6 5.65 -8.45 7.1 -5.9 6.75 -3.5 M-1.95 -5.05 L-3.05 -3.85 Q-3.5 -3.15 -2.85 -2.5 -2.5 -2.05 -1.45 -2.15 L-1.2 -2.15 Q-0.35 -2.35 -0.3 -3.2 L-0.3 -3.6 Q-0.25 -4.9 -0.65 -5.2 -1.1 -5.7 -1.95 -5.05 M-0.45 -2.05 L-0.6 -1.75 -0.75 -1.2 Q-0.75 -0.75 -0.55 -0.75 -0.1 -0.75 0.0 -1.05 L-0.1 -1.7 -0.1 -2.4 -0.45 -2.05" fill="#ffffff" fill-rule="evenodd" stroke="none"/>
      <path d="M-7.95 1.85 L-7.85 1.4 -7.5 0.7 Q-7.05 0.35 -5.75 1.5 L-4.8 2.3 3.45 6.1 4.65 6.35 Q6.4 6.6 6.4 7.15 L6.05 7.85 5.8 8.2 5.7 8.65 5.15 9.65 Q4.4 9.95 3.35 8.75 L2.6 8.05 -1.55 6.15 -5.75 4.2 -6.75 4.05 Q-8.35 4.05 -8.6 3.25 L-8.2 2.2 -7.95 1.85" fill="#ffffff" fill-rule="evenodd" stroke="none"/>
      <path d="M-2.55 8.15 L-3.3 8.85 Q-4.3 10.05 -5.1 9.75 L-5.65 8.75 -5.75 8.3 -6.0 7.95 -6.3 7.25 Q-6.3 6.65 -4.55 6.4 L-3.35 6.2 4.85 2.4 5.75 1.65 Q7.1 0.45 7.55 0.85 L7.9 1.5 8.0 1.9 8.25 2.3 8.65 3.4 Q8.4 4.15 6.8 4.2 L5.8 4.25 1.6 6.25 -2.55 8.15" fill="#ffffff" fill-rule="evenodd" stroke="none"/>
    </g>
  </defs>
</svg>
