<?xml version="1.0" encoding="UTF-8" standalone="no"?>
<svg xmlns:xlink="http://www.w3.org/1999/xlink" height="31.0px" width="33.0px" xmlns="http://www.w3.org/2000/svg">
  <g transform="matrix(1.0, 0.0, 0.0, 1.0, 31.65, -3.0)">
    <path d="M-18.25 22.35 L-23.6 28.0 -8.7 28.0 -8.7 29.0 -8.65 29.0 -8.65 28.0 -2.65 28.0 -2.65 29.0 -0.65 29.0 -0.65 32.0 -29.65 32.0 -29.65 6.0 -26.65 6.0 -26.65 8.0 -25.65 8.0 -25.65 25.8 -18.9 18.65 -14.2 21.0 -13.65 21.0 -9.3 14.45 -11.75 13.05 -3.45 7.55 -4.05 17.5 -6.7 15.95 -12.05 24.0 -14.95 24.0 -18.25 22.35 M-18.65 19.9 L-26.05 27.65 -25.3 28.35 -18.5 21.1 -14.7 23.0 -12.6 23.0 -7.0 14.65 -4.95 15.8 -4.55 9.5 -9.85 13.0 -7.85 14.15 -13.1 22.0 -14.45 22.0 -18.65 19.9 M-28.65 7.0 L-28.65 31.0 -1.65 31.0 -1.65 30.0 -3.65 30.0 -3.65 29.0 -4.65 29.0 -4.65 30.0 -6.65 30.0 -6.65 29.0 -7.65 29.0 -7.65 30.0 -9.65 30.0 -9.65 29.0 -10.65 29.0 -10.65 30.0 -12.65 30.0 -12.65 29.0 -13.65 29.0 -13.65 30.0 -15.65 30.0 -15.65 29.0 -16.65 29.0 -16.65 30.0 -18.65 30.0 -18.65 29.0 -19.65 29.0 -19.65 30.0 -21.65 30.0 -21.65 29.0 -22.65 29.0 -22.65 30.0 -24.65 30.0 -24.65 29.0 -25.65 29.0 -25.65 30.0 -27.65 30.0 -27.65 28.0 -26.65 28.0 -26.65 27.0 -27.65 27.0 -27.65 25.0 -26.65 25.0 -26.65 24.0 -27.65 24.0 -27.65 22.0 -26.65 22.0 -26.65 21.0 -27.65 21.0 -27.65 19.0 -26.65 19.0 -26.65 18.0 -27.65 18.0 -27.65 16.0 -26.65 16.0 -26.65 15.0 -27.65 15.0 -27.65 13.0 -26.65 13.0 -26.65 12.0 -27.65 12.0 -27.65 10.0 -26.65 10.0 -26.65 9.0 -27.65 9.0 -27.65 7.0 -28.65 7.0" fill="#211d01" fill-opacity="0.3529412" fill-rule="evenodd" stroke="none"/>
    <path d="M1.35 34.0 L-31.65 34.0 -31.65 3.0 1.35 3.0 1.35 34.0 M-18.25 22.35 L-14.95 24.0 -12.05 24.0 -6.7 15.95 -4.05 17.5 -3.45 7.55 -11.75 13.05 -9.3 14.45 -13.65 21.0 -14.2 21.0 -18.9 18.65 -25.65 25.8 -25.65 8.0 -26.65 8.0 -26.65 6.0 -29.65 6.0 -29.65 32.0 -0.65 32.0 -0.65 29.0 -2.65 29.0 -2.65 28.0 -8.65 28.0 -8.65 29.0 -8.7 29.0 -8.7 28.0 -23.6 28.0 -18.25 22.35" fill="#7b7b7b" fill-opacity="0.0" fill-rule="evenodd" stroke="none"/>
    <path d="M-18.65 19.9 L-14.45 22.0 -13.1 22.0 -7.85 14.15 -9.85 13.0 -4.55 9.5 -4.95 15.8 -7.0 14.65 -12.6 23.0 -14.7 23.0 -18.5 21.1 -25.3 28.35 -26.05 27.65 -18.65 19.9" fill="url(#gradient0)" fill-rule="evenodd" stroke="none"/>
    <path d="M-28.65 7.0 L-27.65 7.0 -27.65 9.0 -26.65 9.0 -26.65 10.0 -27.65 10.0 -27.65 12.0 -26.65 12.0 -26.65 13.0 -27.65 13.0 -27.65 15.0 -26.65 15.0 -26.65 16.0 -27.65 16.0 -27.65 18.0 -26.65 18.0 -26.65 19.0 -27.65 19.0 -27.65 21.0 -26.65 21.0 -26.65 22.0 -27.65 22.0 -27.65 24.0 -26.65 24.0 -26.65 25.0 -27.65 25.0 -27.65 27.0 -26.65 27.0 -26.65 28.0 -27.65 28.0 -27.65 30.0 -25.65 30.0 -25.65 29.0 -24.65 29.0 -24.65 30.0 -22.65 30.0 -22.65 29.0 -21.65 29.0 -21.65 30.0 -19.65 30.0 -19.65 29.0 -18.65 29.0 -18.65 30.0 -16.65 30.0 -16.65 29.0 -15.65 29.0 -15.65 30.0 -13.65 30.0 -13.65 29.0 -12.65 29.0 -12.65 30.0 -10.65 30.0 -10.65 29.0 -9.65 29.0 -9.65 30.0 -7.65 30.0 -7.65 29.0 -6.65 29.0 -6.65 30.0 -4.65 30.0 -4.65 29.0 -3.65 29.0 -3.65 30.0 -1.65 30.0 -1.65 31.0 -28.65 31.0 -28.65 7.0" fill="url(#gradient1)" fill-rule="evenodd" stroke="none"/>
  </g>
  <defs>
    <linearGradient gradientTransform="matrix(0.0131, 0.0, 0.0, 0.0115, -15.3, 18.9)" gradientUnits="userSpaceOnUse" id="gradient0" spreadMethod="pad" x1="-819.2" x2="819.2">
      <stop offset="0.0" stop-color="#f4e768"/>
      <stop offset="1.0" stop-color="#f9edc1"/>
    </linearGradient>
    <linearGradient gradientTransform="matrix(0.0, -0.0147, 0.0146, 0.0, -15.15, 19.0)" gradientUnits="userSpaceOnUse" id="gradient1" spreadMethod="pad" x1="-819.2" x2="819.2">
      <stop offset="0.0" stop-color="#f4e768"/>
      <stop offset="1.0" stop-color="#f9edc1"/>
    </linearGradient>
  </defs>
</svg>
