<?xml version="1.0" encoding="UTF-8" standalone="no"?>
<svg xmlns:xlink="http://www.w3.org/1999/xlink" height="31.0px" width="33.0px" xmlns="http://www.w3.org/2000/svg">
  <g transform="matrix(1.0, 0.0, 0.0, 1.0, 32.0, -3.0)">
    <path d="M1.0 34.0 L-32.0 34.0 -32.0 3.0 1.0 3.0 1.0 34.0 M-16.0 6.05 L-16.05 6.05 Q-20.95 6.3 -24.35 9.7 -27.75 13.1 -27.95 18.0 L-27.95 18.05 -28.0 18.05 -28.0 19.05 -27.95 19.05 Q-27.75 23.95 -24.35 27.35 -20.95 30.75 -16.05 30.95 L-16.0 30.95 -16.0 31.0 -15.0 31.0 -15.0 30.95 -14.95 30.95 Q-10.05 30.75 -6.65 27.35 -3.25 23.95 -3.05 19.05 L-3.0 19.05 -3.0 18.05 -3.05 18.05 -3.05 18.0 Q-3.25 13.1 -6.65 9.7 -10.05 6.3 -14.95 6.05 L-15.0 6.05 -15.0 6.0 -15.5 6.05 -16.0 6.0 -16.0 6.05 M-15.65 18.05 L-15.5 18.0 -15.35 18.05 -15.05 18.35 -15.0 18.55 -15.05 18.7 -15.35 19.0 -15.5 19.05 -15.65 19.0 -15.95 18.7 -16.0 18.55 -15.95 18.35 -15.65 18.05" fill="#7b7b7b" fill-opacity="0.0" fill-rule="evenodd" stroke="none"/>
    <path d="M-16.0 7.05 L-16.0 8.05 Q-20.05 8.25 -22.9 11.1 -25.75 14.0 -25.95 18.05 L-26.95 18.05 Q-26.75 13.6 -23.6 10.4 -20.45 7.25 -16.0 7.05" fill="url(#gradient0)" fill-rule="evenodd" stroke="none"/>
    <path d="M-16.0 6.05 L-16.0 6.0 -15.5 6.05 -15.0 6.0 -15.0 6.05 -14.95 6.05 Q-10.05 6.3 -6.65 9.7 -3.25 13.1 -3.05 18.0 L-3.05 18.05 -3.0 18.05 -3.0 19.05 -3.05 19.05 Q-3.25 23.95 -6.65 27.35 -10.05 30.75 -14.95 30.95 L-15.0 30.95 -15.0 31.0 -16.0 31.0 -16.0 30.95 -16.05 30.95 Q-20.95 30.75 -24.35 27.35 -27.75 23.95 -27.95 19.05 L-28.0 19.05 -28.0 18.05 -27.95 18.05 -27.95 18.0 Q-27.75 13.1 -24.35 9.7 -20.95 6.3 -16.05 6.05 L-16.0 6.05 M-16.0 10.05 Q-19.2 10.25 -21.5 12.55 -23.75 14.8 -23.95 18.05 L-22.95 18.05 Q-22.8 15.25 -20.8 13.25 -18.8 11.25 -16.0 11.05 L-16.0 10.05 M-16.0 7.05 Q-20.45 7.25 -23.6 10.4 -26.75 13.6 -26.95 18.05 L-25.95 18.05 Q-25.75 14.0 -22.9 11.1 -20.05 8.25 -16.0 8.05 L-16.0 7.05 M-15.0 11.05 Q-12.2 11.25 -10.2 13.25 -8.2 15.25 -8.05 18.05 L-7.05 18.05 Q-7.25 14.8 -9.5 12.55 -11.8 10.25 -15.0 10.05 L-15.0 11.05 M-15.0 8.05 Q-10.95 8.25 -8.1 11.1 -5.25 14.0 -5.05 18.05 L-4.05 18.05 Q-4.25 13.6 -7.4 10.4 -10.55 7.25 -15.0 7.05 L-15.0 8.05 M-15.0 14.1 Q-13.45 14.25 -12.35 15.35 -11.25 16.45 -11.05 18.05 L-10.05 18.05 Q-10.2 16.05 -11.6 14.65 -13.0 13.25 -15.0 13.05 L-15.0 14.1 M-15.0 17.1 Q-14.35 17.35 -14.1 18.05 L-13.05 18.05 Q-13.35 16.45 -15.0 16.1 L-15.0 17.1 M-16.0 13.05 Q-18.0 13.25 -19.4 14.65 -20.8 16.05 -20.95 18.05 L-19.95 18.05 Q-19.75 16.45 -18.65 15.35 -17.55 14.25 -16.0 14.1 L-16.0 13.05 M-16.0 16.1 Q-17.6 16.45 -17.95 18.05 L-16.9 18.05 Q-16.65 17.35 -16.0 17.1 L-16.0 16.1 M-15.65 18.05 L-15.95 18.35 -16.0 18.55 -15.95 18.7 -15.65 19.0 -15.5 19.05 -15.35 19.0 -15.05 18.7 -15.0 18.55 -15.05 18.35 -15.35 18.05 -15.5 18.0 -15.65 18.05 M-16.9 19.05 L-17.95 19.05 Q-17.6 20.7 -16.0 21.0 L-16.0 19.95 Q-16.65 19.7 -16.9 19.05 M-19.95 19.05 L-20.95 19.05 Q-20.8 21.0 -19.4 22.4 -18.0 23.8 -16.0 24.0 L-16.0 23.0 Q-17.55 22.8 -18.65 21.7 -19.75 20.6 -19.95 19.05 M-15.0 19.95 L-15.0 21.0 Q-13.4 20.7 -13.05 19.05 L-14.1 19.05 Q-14.35 19.7 -15.0 19.95 M-12.35 21.7 Q-13.45 22.8 -15.0 23.0 L-15.0 24.0 Q-13.0 23.8 -11.6 22.4 -10.2 21.0 -10.05 19.05 L-11.05 19.05 Q-11.25 20.6 -12.35 21.7 M-8.05 19.05 Q-8.2 21.85 -10.2 23.8 -12.2 25.8 -15.0 26.0 L-15.0 27.0 Q-11.8 26.8 -9.5 24.55 -7.25 22.25 -7.05 19.05 L-8.05 19.05 M-5.05 19.05 Q-5.25 23.1 -8.1 25.95 -10.95 28.75 -15.0 28.95 L-15.0 29.95 Q-10.55 29.75 -7.4 26.65 -4.25 23.5 -4.05 19.05 L-5.05 19.05 M-26.95 19.05 Q-26.75 23.5 -23.6 26.65 -20.45 29.75 -16.0 29.95 L-16.0 28.95 Q-20.05 28.75 -22.9 25.95 -25.75 23.1 -25.95 19.05 L-26.95 19.05 M-23.95 19.05 Q-23.75 22.25 -21.5 24.55 -19.2 26.8 -16.0 27.0 L-16.0 26.0 Q-18.8 25.8 -20.8 23.8 -22.8 21.85 -22.95 19.05 L-23.95 19.05" fill="#211d01" fill-opacity="0.3529412" fill-rule="evenodd" stroke="none"/>
    <path d="M-16.0 10.05 L-16.0 11.05 Q-18.8 11.25 -20.8 13.25 -22.8 15.25 -22.95 18.05 L-23.95 18.05 Q-23.75 14.8 -21.5 12.55 -19.2 10.25 -16.0 10.05" fill="url(#gradient1)" fill-rule="evenodd" stroke="none"/>
    <path d="M-15.0 11.05 L-15.0 10.05 Q-11.8 10.25 -9.5 12.55 -7.25 14.8 -7.05 18.05 L-8.05 18.05 Q-8.2 15.25 -10.2 13.25 -12.2 11.25 -15.0 11.05" fill="url(#gradient2)" fill-rule="evenodd" stroke="none"/>
    <path d="M-15.0 8.05 L-15.0 7.05 Q-10.55 7.25 -7.4 10.4 -4.25 13.6 -4.05 18.05 L-5.05 18.05 Q-5.25 14.0 -8.1 11.1 -10.95 8.25 -15.0 8.05" fill="url(#gradient3)" fill-rule="evenodd" stroke="none"/>
    <path d="M-15.0 14.1 L-15.0 13.05 Q-13.0 13.25 -11.6 14.65 -10.2 16.05 -10.05 18.05 L-11.05 18.05 Q-11.25 16.45 -12.35 15.35 -13.45 14.25 -15.0 14.1" fill="url(#gradient4)" fill-rule="evenodd" stroke="none"/>
    <path d="M-15.0 17.1 L-15.0 16.1 Q-13.35 16.45 -13.05 18.05 L-14.1 18.05 Q-14.35 17.35 -15.0 17.1" fill="url(#gradient5)" fill-rule="evenodd" stroke="none"/>
    <path d="M-16.0 13.05 L-16.0 14.1 Q-17.55 14.25 -18.65 15.35 -19.75 16.45 -19.95 18.05 L-20.95 18.05 Q-20.8 16.05 -19.4 14.65 -18.0 13.25 -16.0 13.05" fill="url(#gradient6)" fill-rule="evenodd" stroke="none"/>
    <path d="M-16.0 16.1 L-16.0 17.1 Q-16.65 17.35 -16.9 18.05 L-17.95 18.05 Q-17.6 16.45 -16.0 16.1" fill="url(#gradient7)" fill-rule="evenodd" stroke="none"/>
    <path d="M-16.9 19.05 Q-16.65 19.7 -16.0 19.95 L-16.0 21.0 Q-17.6 20.7 -17.95 19.05 L-16.9 19.05" fill="url(#gradient8)" fill-rule="evenodd" stroke="none"/>
    <path d="M-19.95 19.05 Q-19.75 20.6 -18.65 21.7 -17.55 22.8 -16.0 23.0 L-16.0 24.0 Q-18.0 23.8 -19.4 22.4 -20.8 21.0 -20.95 19.05 L-19.95 19.05" fill="url(#gradient9)" fill-rule="evenodd" stroke="none"/>
    <path d="M-15.0 19.95 Q-14.35 19.7 -14.1 19.05 L-13.05 19.05 Q-13.4 20.7 -15.0 21.0 L-15.0 19.95" fill="url(#gradient10)" fill-rule="evenodd" stroke="none"/>
    <path d="M-12.35 21.7 Q-11.25 20.6 -11.05 19.05 L-10.05 19.05 Q-10.2 21.0 -11.6 22.4 -13.0 23.8 -15.0 24.0 L-15.0 23.0 Q-13.45 22.8 -12.35 21.7" fill="url(#gradient11)" fill-rule="evenodd" stroke="none"/>
    <path d="M-8.05 19.05 L-7.05 19.05 Q-7.25 22.25 -9.5 24.55 -11.8 26.8 -15.0 27.0 L-15.0 26.0 Q-12.2 25.8 -10.2 23.8 -8.2 21.85 -8.05 19.05" fill="url(#gradient12)" fill-rule="evenodd" stroke="none"/>
    <path d="M-5.05 19.05 L-4.05 19.05 Q-4.25 23.5 -7.4 26.65 -10.55 29.75 -15.0 29.95 L-15.0 28.95 Q-10.95 28.75 -8.1 25.95 -5.25 23.1 -5.05 19.05" fill="url(#gradient13)" fill-rule="evenodd" stroke="none"/>
    <path d="M-26.95 19.05 L-25.95 19.05 Q-25.75 23.1 -22.9 25.95 -20.05 28.75 -16.0 28.95 L-16.0 29.95 Q-20.45 29.75 -23.6 26.65 -26.75 23.5 -26.95 19.05" fill="url(#gradient14)" fill-rule="evenodd" stroke="none"/>
    <path d="M-23.95 19.05 L-22.95 19.05 Q-22.8 21.85 -20.8 23.8 -18.8 25.8 -16.0 26.0 L-16.0 27.0 Q-19.2 26.8 -21.5 24.55 -23.75 22.25 -23.95 19.05" fill="url(#gradient15)" fill-rule="evenodd" stroke="none"/>
  </g>
  <defs>
    <linearGradient gradientTransform="matrix(0.0, -0.0139, 0.0067, 0.0, -21.0, 17.85)" gradientUnits="userSpaceOnUse" id="gradient0" spreadMethod="pad" x1="-819.2" x2="819.2">
      <stop offset="0.0" stop-color="#f4e768"/>
      <stop offset="1.0" stop-color="#f9edc1"/>
    </linearGradient>
    <linearGradient gradientTransform="matrix(0.0, -0.0142, 0.0049, 0.0, -19.95, 18.5)" gradientUnits="userSpaceOnUse" id="gradient1" spreadMethod="pad" x1="-819.2" x2="819.2">
      <stop offset="0.0" stop-color="#f4e768"/>
      <stop offset="1.0" stop-color="#f9edc1"/>
    </linearGradient>
    <linearGradient gradientTransform="matrix(0.0, -0.015, 0.0049, 0.0, -10.6, 18.0)" gradientUnits="userSpaceOnUse" id="gradient2" spreadMethod="pad" x1="-819.2" x2="819.2">
      <stop offset="0.0" stop-color="#f4e768"/>
      <stop offset="1.0" stop-color="#f9edc1"/>
    </linearGradient>
    <linearGradient gradientTransform="matrix(0.0, -0.0147, 0.0067, 0.0, -10.35, 18.35)" gradientUnits="userSpaceOnUse" id="gradient3" spreadMethod="pad" x1="-819.2" x2="819.2">
      <stop offset="0.0" stop-color="#f4e768"/>
      <stop offset="1.0" stop-color="#f9edc1"/>
    </linearGradient>
    <linearGradient gradientTransform="matrix(0.0, -0.0145, 0.0031, 0.0, -12.35, 18.5)" gradientUnits="userSpaceOnUse" id="gradient4" spreadMethod="pad" x1="-819.2" x2="819.2">
      <stop offset="0.0" stop-color="#f4e768"/>
      <stop offset="1.0" stop-color="#f9edc1"/>
    </linearGradient>
    <linearGradient gradientTransform="matrix(0.0, -0.013, 0.0012, 0.0, -15.05, 18.35)" gradientUnits="userSpaceOnUse" id="gradient5" spreadMethod="pad" x1="-819.2" x2="819.2">
      <stop offset="0.0" stop-color="#f4e768"/>
      <stop offset="1.0" stop-color="#f9edc1"/>
    </linearGradient>
    <linearGradient gradientTransform="matrix(0.0, -0.0141, 0.0031, 0.0, -18.55, 18.5)" gradientUnits="userSpaceOnUse" id="gradient6" spreadMethod="pad" x1="-819.2" x2="819.2">
      <stop offset="0.0" stop-color="#f4e768"/>
      <stop offset="1.0" stop-color="#f9edc1"/>
    </linearGradient>
    <linearGradient gradientTransform="matrix(0.0, -0.0134, 0.0012, 0.0, -16.0, 18.55)" gradientUnits="userSpaceOnUse" id="gradient7" spreadMethod="pad" x1="-819.2" x2="819.2">
      <stop offset="0.0" stop-color="#f4e768"/>
      <stop offset="1.0" stop-color="#f9edc1"/>
    </linearGradient>
    <linearGradient gradientTransform="matrix(0.0, -0.0138, 0.0012, 0.0, -15.95, 18.35)" gradientUnits="userSpaceOnUse" id="gradient8" spreadMethod="pad" x1="-819.2" x2="819.2">
      <stop offset="0.0" stop-color="#f4e768"/>
      <stop offset="1.0" stop-color="#f9edc1"/>
    </linearGradient>
    <linearGradient gradientTransform="matrix(0.0, -0.0143, 0.003, 0.0, -17.9, 18.25)" gradientUnits="userSpaceOnUse" id="gradient9" spreadMethod="pad" x1="-819.2" x2="819.2">
      <stop offset="0.0" stop-color="#f4e768"/>
      <stop offset="1.0" stop-color="#f9edc1"/>
    </linearGradient>
    <linearGradient gradientTransform="matrix(0.0, -0.0135, 0.0012, 0.0, -15.05, 18.35)" gradientUnits="userSpaceOnUse" id="gradient10" spreadMethod="pad" x1="-819.2" x2="819.2">
      <stop offset="0.0" stop-color="#f4e768"/>
      <stop offset="1.0" stop-color="#f9edc1"/>
    </linearGradient>
    <linearGradient gradientTransform="matrix(0.0, -0.0137, 0.003, 0.0, -11.65, 17.85)" gradientUnits="userSpaceOnUse" id="gradient11" spreadMethod="pad" x1="-819.2" x2="819.2">
      <stop offset="0.0" stop-color="#f4e768"/>
      <stop offset="1.0" stop-color="#f9edc1"/>
    </linearGradient>
    <linearGradient gradientTransform="matrix(0.0, -0.0147, 0.0049, 0.0, -10.15, 18.2)" gradientUnits="userSpaceOnUse" id="gradient12" spreadMethod="pad" x1="-819.2" x2="819.2">
      <stop offset="0.0" stop-color="#f4e768"/>
      <stop offset="1.0" stop-color="#f9edc1"/>
    </linearGradient>
    <linearGradient gradientTransform="matrix(0.0, -0.0134, 0.0067, 0.0, -9.05, 18.55)" gradientUnits="userSpaceOnUse" id="gradient13" spreadMethod="pad" x1="-819.2" x2="819.2">
      <stop offset="0.0" stop-color="#f4e768"/>
      <stop offset="1.0" stop-color="#f9edc1"/>
    </linearGradient>
    <linearGradient gradientTransform="matrix(0.0, -0.0139, 0.0067, 0.0, -21.2, 18.7)" gradientUnits="userSpaceOnUse" id="gradient14" spreadMethod="pad" x1="-819.2" x2="819.2">
      <stop offset="0.0" stop-color="#f4e768"/>
      <stop offset="1.0" stop-color="#f9edc1"/>
    </linearGradient>
    <linearGradient gradientTransform="matrix(0.0, -0.0138, 0.0049, 0.0, -19.55, 18.55)" gradientUnits="userSpaceOnUse" id="gradient15" spreadMethod="pad" x1="-819.2" x2="819.2">
      <stop offset="0.0" stop-color="#f4e768"/>
      <stop offset="1.0" stop-color="#f9edc1"/>
    </linearGradient>
  </defs>
</svg>
