<?xml version="1.0" encoding="UTF-8" standalone="no"?>
<svg xmlns:xlink="http://www.w3.org/1999/xlink" height="23.5px" width="25.0px" xmlns="http://www.w3.org/2000/svg">
  <g transform="matrix(1.0, 0.0, 0.0, 1.0, 12.5, 11.75)">
    <path d="M12.5 -8.0 L12.5 -4.75 11.6 -6.4 11.2 -7.1 10.45 -8.2 10.2 -8.55 10.1 -8.5 10.0 -8.5 9.55 -8.5 9.25 -8.7 9.2 -8.8 9.15 -8.9 9.1 -8.95 8.95 -8.6 8.9 -8.55 Q10.7 -6.15 9.85 -3.7 L9.05 -5.4 8.65 -6.15 8.0 -7.05 7.7 -7.35 7.55 -7.3 7.2 -7.3 Q7.0 -7.3 6.95 -7.45 L6.9 -7.6 6.85 -7.45 6.75 -7.05 Q8.3 -4.9 7.55 -2.85 L6.75 -4.45 6.45 -4.95 5.95 -5.7 5.7 -6.05 5.5 -6.0 5.25 -6.0 5.0 -6.1 4.95 -6.25 4.55 -6.75 4.35 -7.45 4.25 -7.5 3.7 -7.65 2.65 -7.35 Q2.05 -7.05 1.55 -7.1 1.8 -7.9 2.5 -8.25 L3.35 -8.6 3.0 -8.6 Q3.25 -9.45 4.05 -9.9 L4.65 -10.15 Q4.95 -11.05 5.85 -11.5 L6.05 -11.6 6.2 -11.7 6.35 -11.75 11.35 -11.75 Q11.85 -11.3 11.75 -10.45 L11.55 -9.9 12.5 -8.0 M11.0 2.55 L10.3 3.35 9.45 4.3 7.65 6.0 7.0 6.7 6.55 6.3 Q6.45 6.15 7.25 5.25 L8.45 4.0 8.8 3.7 9.7 2.8 10.3 2.4 11.15 1.85 11.3 1.8 11.15 2.2 11.0 2.55 M7.3 6.95 L7.15 7.2 Q6.25 9.6 7.35 11.0 L7.3 10.95 Q6.5 10.4 6.4 9.9 L6.25 9.5 6.0 8.2 5.95 8.2 5.65 8.85 5.55 9.05 Q5.25 9.35 5.35 10.25 L5.5 11.75 5.45 11.7 5.4 11.45 5.15 10.7 Q4.75 9.8 5.35 8.2 L5.4 8.0 5.4 7.95 Q5.4 7.5 4.45 8.35 L3.9 9.1 3.65 9.55 3.35 10.75 3.35 10.25 Q3.35 9.05 4.05 7.75 4.85 6.25 5.9 6.25 6.15 6.25 6.5 6.6 L6.95 6.9 7.3 6.95 M-2.3 1.15 Q-3.25 0.8 -3.75 2.05 -4.2 3.35 -3.2 3.7 -2.25 4.05 -1.8 2.75 -1.35 1.5 -2.3 1.15 M-4.65 0.35 Q-5.15 0.1 -5.75 1.15 -6.3 2.2 -5.85 2.5 -5.35 2.75 -4.75 1.65 -4.2 0.6 -4.65 0.35 M-10.75 -1.55 L-10.3 -1.3 -9.9 -1.05 -9.65 -1.0 -9.65 -0.95 -9.65 -0.9 -9.7 -0.8 Q-10.45 1.15 -9.55 2.35 L-9.6 2.35 Q-10.25 1.9 -10.35 1.45 L-10.4 1.2 -10.65 0.05 -10.7 0.0 -11.1 0.75 -11.2 1.75 -11.1 2.85 -11.1 2.95 -11.15 2.65 -11.35 2.1 Q-11.75 1.3 -11.15 -0.15 L-11.15 -0.2 Q-11.15 -0.85 -11.95 0.15 L-12.5 0.95 -12.5 0.15 Q-11.75 -1.55 -10.75 -1.55 M-0.4 -3.95 L1.5 -4.2 1.0 -3.9 Q0.75 -3.7 0.6 -3.65 L0.25 -3.5 0.1 -3.45 Q2.15 -2.5 2.85 -1.0 3.7 0.85 1.8 2.75 L1.55 3.15 Q0.8 4.5 0.45 3.65 L0.35 3.9 Q-0.25 5.7 -1.0 4.35 L-1.05 4.3 -1.1 5.1 -1.1 5.65 Q-1.15 6.25 -2.05 5.25 L-2.45 4.8 -2.45 5.1 Q-2.5 6.5 -2.7 6.9 L-2.8 7.15 -2.9 6.95 -3.1 6.5 -3.6 6.45 Q-3.55 7.3 -4.2 7.7 L-4.45 7.35 Q-4.5 6.8 -4.85 7.1 -6.6 8.6 -7.7 7.85 -8.8 7.05 -7.6 4.85 L-6.4 2.15 Q-4.95 -1.6 -3.6 -2.75 L-3.95 -3.05 -4.4 -3.3 -6.45 -4.85 -6.45 -4.8 -6.5 -4.7 -6.55 -4.6 -7.1 -4.0 -7.85 -3.15 -9.35 -1.7 -9.85 -1.25 Q-10.0 -1.05 -10.25 -1.5 L-9.65 -2.4 -8.25 -3.85 -7.65 -4.4 -7.55 -4.5 -7.15 -4.7 -7.0 -4.8 -6.55 -5.1 -6.2 -5.15 -6.1 -5.1 -5.9 -5.35 -5.75 -5.6 -4.5 -4.55 -3.0 -3.15 Q-2.15 -3.65 -1.0 -3.7 L-0.9 -3.75 -0.4 -3.95 M2.1 -5.75 L1.15 -5.5 0.15 -5.25 Q0.4 -6.0 1.0 -6.3 L1.95 -6.65 2.2 -6.7 2.4 -6.7 3.3 -6.75 3.7 -6.7 Q4.1 -7.1 4.7 -6.5 5.1 -6.15 5.0 -5.6 L4.85 -5.25 Q6.3 -3.25 5.65 -1.4 L4.9 -2.85 4.65 -3.3 Q4.25 -4.25 3.75 -4.25 L3.65 -4.25 3.35 -4.35 3.3 -4.4 3.2 -4.55 3.3 -3.6 3.55 -3.15 3.75 -3.05 3.85 -2.85 4.25 -1.7 Q4.5 -1.15 5.85 -0.1 L5.95 0.0 Q6.4 0.35 5.85 0.65 L4.95 0.9 Q4.1 0.9 3.85 -0.3 L3.7 -0.95 3.6 -1.2 3.4 -1.5 3.15 -2.3 Q3.15 -3.15 2.85 -3.15 L2.75 -3.1 Q2.65 -2.95 2.55 -2.95 L2.3 -2.9 2.2 -2.9 2.1 -2.9 Q1.15 -2.55 1.1 -3.15 1.0 -3.65 1.5 -4.2 L2.4 -4.95 Q2.4 -5.25 2.85 -5.05 L2.75 -5.6 2.65 -5.6 2.1 -5.75 M5.3 -8.6 L5.35 -8.65 5.4 -8.7 6.25 -8.65 6.2 -9.0 6.2 -9.05 5.4 -9.2 4.25 -8.9 Q3.9 -8.7 3.75 -8.65 L4.05 -8.7 5.3 -8.6 M8.4 -10.35 L8.4 -10.5 8.3 -10.5 7.5 -10.7 6.8 -10.6 7.3 -10.35 7.4 -10.4 8.4 -10.35 M11.45 1.05 Q11.65 1.65 11.35 1.65 L10.8 1.5 9.65 1.35 8.8 1.45 5.8 1.3 Q5.7 1.1 6.4 0.95 L6.45 0.9 6.8 0.5 6.95 0.2 10.95 0.5 Q11.3 0.45 11.45 1.05" fill="url(#gradient0)" fill-rule="evenodd" stroke="none"/>
  </g>
  <defs>
    <radialGradient cx="0" cy="0" gradientTransform="matrix(0.0587, 0.0, 0.0, 0.0587, -1.95, -0.5)" gradientUnits="userSpaceOnUse" id="gradient0" r="819.2" spreadMethod="pad">
      <stop offset="0.0" stop-color="#5c553d"/>
      <stop offset="0.39215686274509803" stop-color="#c2b99b"/>
    </radialGradient>
  </defs>
</svg>
