<?xml version="1.0" encoding="UTF-8" standalone="no"?>
<svg xmlns:xlink="http://www.w3.org/1999/xlink" height="31.0px" width="33.0px" xmlns="http://www.w3.org/2000/svg">
  <g transform="matrix(1.0, 0.0, 0.0, 1.0, 13.0, 13.0)">
    <path d="M7.9 -10.0 L7.9 14.0 4.95 14.0 4.95 -9.0 5.95 -10.0 7.9 -10.0 M6.35 -9.0 L5.9 -8.6 5.9 13.0 6.9 13.0 6.9 -9.0 6.35 -9.0 M5.9 -11.0 L3.95 -9.0 3.95 14.0 2.95 14.0 2.95 11.0 -0.1 11.0 -2.05 13.0 -2.05 14.0 -3.05 14.0 -3.05 5.0 -6.1 5.0 -8.05 7.0 -8.05 14.0 -10.05 14.0 -10.05 15.0 16.9 15.0 16.9 14.0 14.9 14.0 14.9 -3.0 11.85 -3.0 9.9 -1.0 9.9 14.0 8.9 14.0 8.9 -11.0 5.9 -11.0 M9.85 -12.0 L9.85 -2.4 11.45 -4.0 15.9 -4.0 15.9 13.0 17.9 13.0 17.9 16.0 -11.0 16.0 -11.0 13.0 -9.05 13.0 -9.05 6.6 -6.5 4.0 -2.05 4.0 -2.05 11.6 -0.5 10.0 2.9 10.0 2.9 -9.4 5.5 -12.0 9.85 -12.0 M13.9 -2.0 L13.9 14.0 10.9 14.0 10.9 -1.0 11.9 -2.0 13.9 -2.0 M11.85 -0.6 L11.85 13.0 12.9 13.0 12.9 -1.0 12.3 -1.0 11.85 -0.6 M1.95 14.0 L-1.05 14.0 -1.05 13.0 -0.05 12.0 1.95 12.0 1.95 14.0 M-6.05 7.4 L-6.05 13.0 -5.05 13.0 -5.05 7.0 -5.65 7.0 -6.05 7.4 M-6.05 6.0 L-4.05 6.0 -4.05 14.0 -7.05 14.0 -7.05 7.0 -6.05 6.0" fill="#211d01" fill-opacity="0.3529412" fill-rule="evenodd" stroke="none"/>
    <path d="M6.35 -9.0 L6.9 -9.0 6.9 13.0 5.9 13.0 5.9 -8.6 6.35 -9.0 M9.85 -12.0 L5.5 -12.0 2.9 -9.4 2.9 10.0 -0.5 10.0 -2.05 11.6 -2.05 4.0 -6.5 4.0 -9.05 6.6 -9.05 13.0 -11.0 13.0 -11.0 16.0 17.9 16.0 17.9 13.0 15.9 13.0 15.9 -4.0 11.45 -4.0 9.85 -2.4 9.85 -12.0 M11.85 -0.6 L12.3 -1.0 12.9 -1.0 12.9 13.0 11.85 13.0 11.85 -0.6 M20.0 18.0 L-13.0 18.0 -13.0 -13.0 20.0 -13.0 20.0 18.0 M-6.05 7.4 L-5.65 7.0 -5.05 7.0 -5.05 13.0 -6.05 13.0 -6.05 7.4" fill="#7b7b7b" fill-opacity="0.0" fill-rule="evenodd" stroke="none"/>
    <path d="M7.9 -10.0 L5.95 -10.0 4.95 -9.0 4.95 14.0 7.9 14.0 7.9 -10.0 M5.9 -11.0 L8.9 -11.0 8.9 14.0 9.9 14.0 9.9 -1.0 11.85 -3.0 14.9 -3.0 14.9 14.0 16.9 14.0 16.9 15.0 -10.05 15.0 -10.05 14.0 -8.05 14.0 -8.05 7.0 -6.1 5.0 -3.05 5.0 -3.05 14.0 -2.05 14.0 -2.05 13.0 -0.1 11.0 2.95 11.0 2.95 14.0 3.95 14.0 3.95 -9.0 5.9 -11.0 M13.9 -2.0 L11.9 -2.0 10.9 -1.0 10.9 14.0 13.9 14.0 13.9 -2.0 M1.95 14.0 L1.95 12.0 -0.05 12.0 -1.05 13.0 -1.05 14.0 1.95 14.0 M-6.05 6.0 L-7.05 7.0 -7.05 14.0 -4.05 14.0 -4.05 6.0 -6.05 6.0" fill="url(#gradient0)" fill-rule="evenodd" stroke="none"/>
  </g>
  <defs>
    <linearGradient gradientTransform="matrix(0.0, -0.0165, 0.0158, 0.0, 3.45, 2.0)" gradientUnits="userSpaceOnUse" id="gradient0" spreadMethod="pad" x1="-819.2" x2="819.2">
      <stop offset="0.0" stop-color="#f4e768"/>
      <stop offset="1.0" stop-color="#f9edc1"/>
    </linearGradient>
  </defs>
</svg>
