<?xml version="1.0" encoding="UTF-8" standalone="no"?>
<svg xmlns:xlink="http://www.w3.org/1999/xlink" height="36.0px" width="27.85px" xmlns="http://www.w3.org/2000/svg">
  <g transform="matrix(1.0, 0.0, 0.0, 1.0, 0.75, 0.0)">
    <use height="33.0" transform="matrix(1.08, 0.0, 0.0, 1.0909, 0.0, 0.0)" width="25.0" xlink:href="#shape0"/>
    <use height="35.6" transform="matrix(1.0, 0.0, 0.0, 1.0, 6.0, 0.0)" width="21.1" xlink:href="#shape1"/>
    <use height="26.1" transform="matrix(0.9928, 0.0, 0.0, 1.0, 13.1554, 9.2)" width="5.55" xlink:href="#shape2"/>
    <use height="26.1" transform="matrix(0.9928, 0.0, 0.0, 1.0, 6.2554, 9.2)" width="5.55" xlink:href="#shape2"/>
    <use height="26.1" transform="matrix(0.9928, 0.0, 0.0, 1.0, -0.7446, 9.2)" width="5.55" xlink:href="#shape2"/>
  </g>
  <defs>
    <g id="shape0" transform="matrix(1.0, 0.0, 0.0, 1.0, 0.0, 0.0)">
      <path d="M25.0 33.0 L0.0 33.0 0.0 0.0 25.0 0.0 25.0 33.0" fill="#580101" fill-opacity="0.0" fill-rule="evenodd" stroke="none"/>
    </g>
    <g id="shape1" transform="matrix(1.0, 0.0, 0.0, 1.0, 0.0, 0.0)">
      <path d="M3.6 30.15 L10.4 34.75 Q16.8 22.05 19.65 6.5 L19.95 4.65 20.5 1.15 21.1 1.15 21.0 1.7 20.45 5.5 20.45 5.55 20.15 7.35 Q17.3 22.9 10.9 35.6 L0.5 28.65 0.7 28.2 0.85 28.3 2.55 29.5 3.6 30.15" fill="#000000" fill-rule="evenodd" stroke="none"/>
      <path d="M20.5 1.15 L19.95 4.65 19.65 6.5 Q16.8 22.05 10.4 34.75 L3.6 30.15 Q10.85 16.45 12.65 0.95 L12.7 0.1 20.6 0.3 20.55 0.9 20.5 1.15 M2.55 29.5 L0.85 28.3 Q7.1 16.3 8.8 0.9 L8.85 0.1 11.35 0.1 11.25 0.9 Q9.45 17.0 2.55 29.5" fill="#d85f0e" fill-rule="evenodd" stroke="none"/>
      <path d="M3.6 30.15 L2.55 29.5 Q9.45 17.0 11.25 0.9 L11.35 0.1 12.7 0.1 12.65 0.95 Q10.85 16.45 3.6 30.15 M0.85 28.3 L0.7 28.2 0.0 27.75 Q6.35 15.2 7.7 0.45 L7.7 0.05 7.7 0.0 8.85 0.1 8.8 0.9 Q7.1 16.3 0.85 28.3" fill="#f49453" fill-rule="evenodd" stroke="none"/>
    </g>
    <g id="shape2" transform="matrix(1.0, 0.0, 0.0, 1.0, 0.75, -0.2)">
      <path d="M3.1 6.7 L2.7 3.35 2.1 0.7 2.15 0.5 2.95 3.65 3.35 7.0 3.35 7.6 3.35 10.0 4.8 12.4 4.8 24.55 Q4.35 24.95 4.45 25.25 3.85 24.85 4.55 24.25 L4.55 12.1 3.1 9.7 3.1 7.3 3.1 6.7 M4.55 25.45 L4.8 25.65 4.8 26.3 -0.5 26.3 -0.5 26.0 0.25 26.0 2.4 26.0 3.45 26.0 4.55 26.0 4.55 25.45 M-0.45 24.6 L-0.5 24.55 -0.5 24.5 -0.45 24.6" fill="#000000" fill-rule="evenodd" stroke="none"/>
      <path d="M2.7 6.7 L2.05 0.8 1.9 0.2 2.1 0.7 2.7 3.35 3.1 6.7 2.7 6.7" fill="#3d3d3d" fill-rule="evenodd" stroke="none"/>
      <path d="M1.9 0.2 L2.05 0.8 2.7 6.7 2.05 6.7 1.9 0.2 Q1.45 2.1 1.25 4.15 1.1 5.4 1.1 6.7 L0.75 6.7 Q0.95 2.55 1.9 0.2" fill="#bca312" fill-rule="evenodd" stroke="none"/>
      <path d="M1.9 0.2 L2.05 6.7 1.1 6.7 Q1.1 5.4 1.25 4.15 1.45 2.1 1.9 0.2" fill="#dbdb35" fill-rule="evenodd" stroke="none"/>
      <path d="M2.7 6.7 L3.1 6.7 3.1 7.3 2.7 7.3 2.7 6.7" fill="#6c1500" fill-rule="evenodd" stroke="none"/>
      <path d="M4.55 25.35 L4.55 25.45 4.55 26.0 3.45 26.0 3.45 25.35 4.55 25.35 M2.7 7.3 L3.1 7.3 3.1 9.7 4.55 12.1 4.55 24.25 3.45 24.25 3.45 12.1 2.7 9.7 2.7 7.3" fill="#2b2d2f" fill-rule="evenodd" stroke="none"/>
      <path d="M2.05 6.7 L2.7 6.7 2.7 7.3 2.1 7.3 2.05 6.7 M0.7 7.3 L0.75 6.7 1.1 6.7 1.1 7.3 0.7 7.3" fill="#ce2800" fill-rule="evenodd" stroke="none"/>
      <path d="M1.1 6.7 L2.05 6.7 2.1 7.3 1.1 7.3 1.1 6.7" fill="#ff552b" fill-rule="evenodd" stroke="none"/>
      <path d="M2.1 7.3 L2.7 7.3 2.7 9.7 3.45 12.1 3.45 24.25 2.4 24.25 2.1 7.3 M-0.5 26.0 L-0.75 26.0 -0.75 25.35 0.25 25.35 0.25 26.0 -0.5 26.0 M-0.75 24.25 L-0.75 12.1 0.7 9.7 0.7 7.3 1.1 7.3 1.1 9.7 0.25 12.1 0.25 24.25 -0.75 24.25 M3.45 25.35 L3.45 26.0 2.4 26.0 2.4 25.35 3.45 25.35" fill="#405146" fill-rule="evenodd" stroke="none"/>
      <path d="M1.1 7.3 L2.1 7.3 2.4 24.25 0.25 24.25 0.25 12.1 1.45 12.1 1.65 9.7 1.1 9.7 1.1 7.3 M2.4 26.0 L0.25 26.0 0.25 25.35 2.4 25.35 2.4 26.0" fill="#637c6d" fill-rule="evenodd" stroke="none"/>
      <path d="M1.1 9.7 L1.65 9.7 1.45 12.1 0.25 12.1 1.1 9.7" fill="#8ca294" fill-rule="evenodd" stroke="none"/>
      <path d="M4.45 25.25 L4.55 25.35 3.45 25.35 2.4 25.35 0.25 25.35 -0.75 25.35 Q-0.3 25.0 -0.45 24.6 L-0.5 24.5 -0.75 24.25 0.25 24.25 2.4 24.25 3.45 24.25 4.55 24.25 Q3.85 24.85 4.45 25.25" fill="#101411" fill-rule="evenodd" stroke="none"/>
    </g>
  </defs>
</svg>
