<?xml version="1.0" encoding="UTF-8" standalone="no"?>
<svg xmlns:xlink="http://www.w3.org/1999/xlink" height="45.1px" width="116.8px" xmlns="http://www.w3.org/2000/svg">
  <g transform="matrix(1.0, 0.0, 0.0, 1.0, -10.0, -13.0)">
    <use height="45.1" transform="matrix(1.0, 0.0, 0.0, 1.0, 10.0, 13.0)" width="116.8" xlink:href="#shape0"/>
  </g>
  <defs>
    <g id="shape0" transform="matrix(1.0, 0.0, 0.0, 1.0, -10.0, -13.0)">
      <path d="M122.25 51.75 L11.0 51.75 11.0 17.25 122.25 17.25 122.25 51.75" fill="#010101" fill-opacity="0.0" fill-rule="evenodd" stroke="none"/>
      <path d="M88.65 14.55 L89.15 14.15 89.15 20.4 79.85 20.4 77.3 19.65 77.25 19.65 75.65 20.8 Q72.75 23.05 71.85 25.2 L71.0 25.2 71.0 25.9 70.25 25.9 Q70.75 22.0 75.7 18.5 L76.75 18.5 76.8 18.5 79.35 19.25 79.4 19.25 88.65 19.25 88.65 14.55 M122.9 25.25 Q125.45 26.2 126.1 28.4 126.6 29.25 126.75 30.4 126.9 31.9 126.55 34.0 L126.35 34.85 122.85 51.95 113.45 51.95 Q112.4 51.35 112.6 50.55 L112.95 50.8 121.45 50.8 125.45 29.25 Q125.35 28.05 124.5 26.9 L122.9 25.3 122.9 25.25 M113.15 47.95 Q111.0 45.25 107.2 43.05 L107.15 43.0 106.6 44.1 103.8 41.25 102.85 41.15 Q100.5 40.95 100.55 42.25 L100.3 42.2 100.25 42.7 100.1 44.0 99.35 48.3 97.3 54.75 96.95 55.6 96.5 56.65 96.85 56.8 96.85 56.85 95.65 58.1 86.3 54.35 Q85.95 53.75 86.3 53.4 L95.15 56.95 96.35 55.7 96.35 55.65 96.0 55.5 95.5 55.3 96.15 53.7 96.8 51.85 96.85 51.7 96.9 51.6 97.05 51.1 97.15 50.8 97.7 48.9 98.0 47.75 98.05 47.45 98.4 45.75 98.6 44.65 98.85 42.7 99.05 40.8 100.05 41.1 Q100.0 39.8 102.35 40.0 L103.3 40.1 106.1 42.95 106.65 41.85 106.7 41.9 Q111.15 44.5 113.35 47.8 L113.15 47.95 M89.95 37.75 L89.75 37.5 88.25 36.5 80.85 35.25 Q77.35 35.75 77.9 37.95 76.0 34.7 80.35 34.05 L87.75 35.35 Q89.75 36.45 89.95 37.5 L89.95 37.75 M81.1 43.15 Q83.05 47.15 81.7 51.15 L74.15 51.15 Q70.1 51.05 67.4 47.55 L61.55 39.45 Q58.5 34.2 51.6 34.0 L50.7 35.1 Q48.35 39.3 49.95 43.5 50.95 47.15 50.1 49.8 L49.95 50.2 Q47.45 50.95 44.5 50.2 L44.65 49.75 44.85 49.25 44.0 49.05 44.15 48.6 44.95 48.8 49.6 48.65 Q50.45 46.0 49.45 42.35 47.85 38.15 50.2 33.95 L48.85 33.95 49.7 32.85 51.1 32.85 Q58.0 33.05 61.05 38.3 L66.9 46.4 Q69.6 49.9 73.65 50.0 L81.2 50.0 Q82.35 46.6 81.1 43.15 M46.5 32.55 L45.8 31.3 40.8 31.3 40.8 30.45 20.7 30.45 20.7 31.35 19.15 31.35 19.15 30.45 17.45 30.45 17.45 30.95 11.5 30.2 11.5 30.95 10.5 30.95 10.5 29.8 11.0 29.8 11.0 29.05 16.95 29.8 16.95 29.3 18.65 29.3 18.65 30.2 20.2 30.2 20.2 29.3 40.3 29.3 40.3 30.1 45.3 30.1 46.6 32.45 46.5 32.55 M71.5 20.1 L70.85 19.65 70.8 19.65 68.65 19.65 68.65 21.65 66.7 21.65 66.7 20.5 68.15 20.5 68.15 18.5 70.3 18.5 70.35 18.5 Q71.65 19.15 71.5 20.1 M66.2 19.65 L60.7 19.65 Q58.8 22.8 55.15 24.95 L55.15 24.7 53.45 24.7 55.45 23.3 52.95 24.7 51.9 24.7 Q55.15 23.2 57.6 20.9 L59.7 18.5 60.2 18.5 66.2 18.5 66.2 19.65 M75.4 45.6 L73.3 41.2 Q72.5 39.2 70.8 39.15 L68.15 38.9 68.65 37.85 70.3 38.0 Q72.0 38.05 72.8 40.05 L75.35 45.4 75.4 45.6 M68.3 35.0 L65.2 35.0 Q62.35 35.55 62.65 37.2 60.95 34.6 64.7 33.85 L67.9 33.85 68.3 35.0 M65.3 28.4 L59.6 28.4 59.6 26.75 65.3 26.75 65.3 28.4 M55.15 28.4 L55.15 26.75 58.35 26.75 58.35 28.4 55.15 28.4" fill="#000000" fill-rule="evenodd" stroke="none"/>
      <path d="M104.45 28.55 L90.95 28.55 90.95 26.15 104.45 26.15 104.45 28.55" fill="#333333" fill-rule="evenodd" stroke="none"/>
      <path d="M103.3 40.1 Q105.1 40.9 106.65 41.85 L106.1 42.95 103.3 40.1 M70.3 38.0 L68.65 37.85 67.65 37.75 Q68.5 36.35 68.3 35.0 L67.9 33.85 69.1 33.85 Q71.4 35.9 70.3 38.0" fill="#172301" fill-rule="evenodd" stroke="none"/>
      <path d="M86.3 53.4 L85.8 53.2 Q85.25 52.2 86.55 51.8 L87.2 52.0 95.45 55.3 95.5 55.3 96.0 55.5 96.35 55.65 96.35 55.7 95.15 56.95 86.3 53.4 M90.5 38.25 L90.3 38.2 90.05 38.1 89.95 37.75 89.95 37.5 Q89.75 36.45 87.75 35.35 L80.35 34.05 Q76.0 34.7 77.9 37.95 L78.85 39.25 Q80.35 41.2 81.1 43.15 82.35 46.6 81.2 50.0 L73.65 50.0 Q69.6 49.9 66.9 46.4 L61.05 38.3 Q58.0 33.05 51.1 32.85 L49.7 32.85 49.7 31.7 Q60.7 33.55 69.35 33.0 72.4 35.85 77.3 46.5 78.65 47.4 80.15 47.2 81.85 45.35 77.0 37.85 74.6 33.85 80.3 32.9 84.7 32.95 89.3 34.3 92.2 36.45 91.8 38.65 L90.5 38.25 M103.3 40.1 L102.35 40.0 Q100.0 39.8 100.05 41.1 L99.05 40.8 98.35 40.6 Q98.45 38.2 102.0 38.4 103.25 39.25 103.3 40.1 M106.7 41.85 Q107.45 41.55 109.05 41.85 112.65 43.55 114.8 46.45 L113.35 47.8 Q111.15 44.5 106.7 41.9 L106.7 41.85 M75.4 45.6 L75.35 45.4 72.8 40.05 Q72.0 38.05 70.3 38.0 71.4 35.9 69.1 33.85 L67.9 33.85 64.7 33.85 Q60.95 34.6 62.65 37.2 L63.1 37.85 68.8 46.25 Q71.55 48.9 74.5 48.45 76.05 48.35 75.4 45.6" fill="#2b281e" fill-rule="evenodd" stroke="none"/>
      <path d="M106.7 41.9 L106.7 41.85 106.7 41.9" fill="#353500" fill-rule="evenodd" stroke="none"/>
      <path d="M87.2 52.0 L87.75 50.7 88.4 48.9 88.75 47.8 89.3 45.9 89.6 44.7 89.95 42.8 90.15 41.65 90.35 39.95 90.5 38.25 91.8 38.65 98.35 40.6 99.05 40.8 98.85 42.7 97.75 42.3 97.5 44.3 98.6 44.65 98.4 45.75 97.25 45.4 96.85 47.3 98.0 47.75 97.7 48.9 96.55 48.45 96.2 49.6 95.95 50.4 97.15 50.8 97.05 51.1 96.9 51.6 96.85 51.7 96.8 51.85 95.6 51.4 94.85 53.2 96.15 53.7 95.5 55.3 95.45 55.3 87.2 52.0 M91.5 40.1 L91.25 42.05 93.05 42.7 93.35 40.7 91.5 40.1 M96.55 41.9 L94.75 41.2 94.45 43.15 96.25 43.85 96.55 41.9 M93.8 46.25 L95.6 46.9 96.05 44.9 94.25 44.3 93.8 46.25 M92.45 45.75 L92.9 43.8 91.05 43.15 90.65 45.15 92.45 45.75 M95.35 48.0 L93.55 47.4 92.9 49.3 94.75 50.0 95.35 48.0 M92.6 50.35 L91.85 52.15 93.7 52.8 94.4 50.95 92.6 50.35 M91.6 48.85 L92.15 46.9 90.35 46.25 89.75 48.15 91.6 48.85 M88.7 51.05 L90.55 51.7 91.25 49.9 89.4 49.2 88.7 51.05" fill="#7b552f" fill-rule="evenodd" stroke="none"/>
      <path d="M91.5 40.1 L93.35 40.7 93.05 42.7 91.25 42.05 91.5 40.1 M98.85 42.7 L98.6 44.65 97.5 44.3 97.75 42.3 98.85 42.7 M98.4 45.75 L98.05 47.45 98.0 47.75 96.85 47.3 97.25 45.4 98.4 45.75 M97.7 48.9 L97.15 50.8 95.95 50.4 96.2 49.6 96.55 48.45 97.7 48.9 M96.8 51.85 L96.15 53.7 94.85 53.2 95.6 51.4 96.8 51.85 M96.55 41.9 L96.25 43.85 94.45 43.15 94.75 41.2 96.55 41.9 M92.45 45.75 L90.65 45.15 91.05 43.15 92.9 43.8 92.45 45.75 M93.8 46.25 L94.25 44.3 96.05 44.9 95.6 46.9 93.8 46.25 M92.6 50.35 L94.4 50.95 93.7 52.8 91.85 52.15 92.6 50.35 M95.35 48.0 L94.75 50.0 92.9 49.3 93.55 47.4 95.35 48.0 M91.6 48.85 L89.75 48.15 90.35 46.25 92.15 46.9 91.6 48.85 M88.7 51.05 L89.4 49.2 91.25 49.9 90.55 51.7 88.7 51.05" fill="#955f3e" fill-rule="evenodd" stroke="none"/>
      <path d="M59.75 15.25 L57.7 15.25 Q57.45 13.9 58.85 13.8 L59.75 15.25 M66.05 15.25 Q66.1 14.9 66.25 14.7 66.6 14.35 67.15 14.35 67.6 14.35 67.9 14.7 L68.2 15.25 68.25 15.6 68.25 15.7 68.15 16.1 67.9 16.45 Q67.6 16.8 67.15 16.8 66.6 16.8 66.25 16.45 L66.2 16.4 66.05 16.1 66.0 15.6 66.05 15.25 M86.75 14.5 L88.65 13.0 88.65 14.5 86.75 14.5 M50.4 25.9 L50.9 24.7 51.9 24.7 52.95 24.7 53.45 24.7 55.15 24.7 55.15 24.95 55.15 25.9 55.15 26.75 55.15 28.4 55.15 30.6 49.7 30.6 49.7 30.1 49.7 27.4 50.4 25.9 M66.7 20.5 L66.2 20.5 66.2 19.65 66.2 18.5 68.15 18.5 68.15 20.5 66.7 20.5" fill="#3d3d3d" fill-rule="evenodd" stroke="none"/>
      <path d="M45.3 33.95 L46.5 32.55 46.6 32.45 45.3 30.1 49.7 30.1 49.7 30.6 49.7 31.7 49.7 32.85 48.85 33.95 45.3 33.95 M70.25 25.9 L71.0 25.9 71.0 28.7 70.9 29.25 Q70.4 30.75 68.7 30.6 L55.15 30.6 55.15 28.4 58.35 28.4 58.35 26.75 55.15 26.75 55.15 25.9 68.45 25.9 70.25 25.9 M65.3 28.4 L65.3 26.75 59.6 26.75 59.6 28.4 65.3 28.4" fill="#4f4f4f" fill-rule="evenodd" stroke="none"/>
      <path d="M57.7 15.25 L59.75 15.25 66.05 15.25 57.7 15.25 M68.2 15.25 L69.45 15.25 68.2 15.25" fill="#767676" fill-rule="evenodd" stroke="none"/>
      <path d="M50.9 24.7 Q56.55 21.85 57.7 18.5 L59.7 18.5 57.6 20.9 Q55.15 23.2 51.9 24.7 L50.9 24.7 M75.7 18.5 Q70.75 22.0 70.25 25.9 L68.45 25.9 Q69.1 23.2 71.0 21.05 L71.5 20.1 Q71.65 19.15 70.35 18.5 L75.7 18.5" fill="#4d4a33" fill-rule="evenodd" stroke="none"/>
      <path d="M10.5 29.8 L10.0 29.8 10.0 28.0 10.9 28.0 16.8 27.25 16.8 28.0 18.65 28.0 18.65 27.25 20.2 27.25 20.2 28.0 40.3 28.0 40.3 27.4 49.7 27.4 49.7 30.1 45.3 30.1 40.3 30.1 40.3 29.3 20.2 29.3 20.2 30.2 18.65 30.2 18.65 29.3 16.95 29.3 16.95 29.8 11.0 29.05 11.0 29.8 10.5 29.8" fill="#242424" fill-rule="evenodd" stroke="none"/>
      <path d="M10.0 28.0 L10.0 26.1 11.0 26.1 11.0 26.95 16.95 26.1 16.95 26.65 18.65 26.65 18.65 25.8 20.2 25.8 20.2 26.65 40.3 26.65 40.3 25.9 50.4 25.9 49.7 27.4 40.3 27.4 40.3 28.0 20.2 28.0 20.2 27.25 18.65 27.25 18.65 28.0 16.8 28.0 16.8 27.25 10.9 28.0 10.0 28.0" fill="#7c7c7c" fill-rule="evenodd" stroke="none"/>
      <path d="M117.4 36.5 L121.15 41.35 121.15 41.85 Q120.95 43.35 119.7 42.75 L115.9 37.95 Q115.4 36.0 117.4 36.5" fill="url(#gradient0)" fill-rule="evenodd" stroke="none"/>
      <path d="M112.6 50.55 Q111.3 49.5 113.15 47.95 L113.35 47.8 114.8 46.45 Q112.65 43.55 109.05 41.85 107.45 41.55 106.7 41.85 L106.7 41.9 106.65 41.85 Q105.1 40.9 103.3 40.1 103.25 39.25 102.0 38.4 98.45 38.2 98.35 40.6 L91.8 38.65 Q92.2 36.45 89.3 34.3 84.7 32.95 80.3 32.9 74.6 33.85 77.0 37.85 81.85 45.35 80.15 47.2 78.65 47.4 77.3 46.5 72.4 35.85 69.35 33.0 60.7 33.55 49.7 31.7 L49.7 30.6 55.15 30.6 68.7 30.6 Q70.4 30.75 70.9 29.25 L125.45 29.25 121.45 50.8 112.95 50.8 112.6 50.55 M117.4 36.5 Q115.4 36.0 115.9 37.95 L119.7 42.75 Q120.95 43.35 121.15 41.85 L121.15 41.35 117.4 36.5" fill="url(#gradient1)" fill-rule="evenodd" stroke="none"/>
      <path d="M71.85 25.2 L122.75 25.2 122.9 25.25 122.9 25.3 124.5 26.9 Q125.35 28.05 125.45 29.25 L70.9 29.25 71.0 28.7 71.0 25.9 71.0 25.2 71.85 25.2 M104.45 28.55 L104.45 26.15 90.95 26.15 90.95 28.55 104.45 28.55" fill="url(#gradient2)" fill-rule="evenodd" stroke="none"/>
      <path d="M122.9 25.3 L122.9 25.25 122.9 25.3" fill="url(#gradient3)" fill-rule="evenodd" stroke="none"/>
      <path d="M79.4 14.5 L86.75 14.5 88.65 14.5 88.65 14.55 88.65 19.25 79.4 19.25 79.4 14.5" fill="url(#gradient4)" fill-rule="evenodd" stroke="none"/>
      <path d="M57.7 15.25 L66.05 15.25 66.0 15.6 66.05 16.1 66.2 16.4 66.25 16.45 Q66.6 16.8 67.15 16.8 67.6 16.8 67.9 16.45 L68.15 16.1 68.25 15.7 68.25 15.6 68.2 15.25 69.45 15.25 76.8 15.25 76.8 18.5 76.75 18.5 75.7 18.5 70.35 18.5 70.3 18.5 68.15 18.5 66.2 18.5 60.2 18.5 59.7 18.5 57.7 18.5 57.7 15.25 M60.2 18.5 L60.25 18.5 60.2 18.5" fill="url(#gradient5)" fill-rule="evenodd" stroke="none"/>
      <path d="M76.8 18.5 L76.75 18.5 76.8 18.5 M70.3 18.5 L70.35 18.5 70.3 18.5" fill="url(#gradient6)" fill-rule="evenodd" stroke="none"/>
      <path d="M76.8 15.25 L79.4 14.5 79.4 19.25 79.35 19.25 76.8 18.5 76.8 15.25" fill="url(#gradient7)" fill-rule="evenodd" stroke="none"/>
      <path d="M60.2 18.5 L60.25 18.5 60.2 18.5" fill="url(#gradient8)" fill-rule="evenodd" stroke="none"/>
      <path d="M44.15 48.6 Q45.1 45.95 45.2 41.2 45.25 36.05 44.55 33.95 L45.3 33.95 48.85 33.95 50.2 33.95 Q47.85 38.15 49.45 42.35 50.45 46.0 49.6 48.65 L44.95 48.8 44.15 48.6" fill="url(#gradient9)" fill-rule="evenodd" stroke="none"/>
      <path d="M117.4 36.5 Q115.4 36.0 115.9 37.95 L119.7 42.75 Q120.95 43.35 121.15 41.85 L121.15 41.35 117.4 36.5 Z" fill="none" stroke="#000000" stroke-linecap="round" stroke-linejoin="round" stroke-width="0.5"/>
    </g>
    <linearGradient gradientTransform="matrix(0.0, -0.004, 0.0033, 0.0, 118.45, 39.7)" gradientUnits="userSpaceOnUse" id="gradient0" spreadMethod="pad" x1="-819.2" x2="819.2">
      <stop offset="0.0" stop-color="#8a8268"/>
      <stop offset="1.0" stop-color="#1e1c17"/>
      <stop offset="1.0" stop-color="#bdb197"/>
    </linearGradient>
    <linearGradient gradientTransform="matrix(0.0, -0.0132, 0.0462, 0.0, 87.55, 40.05)" gradientUnits="userSpaceOnUse" id="gradient1" spreadMethod="pad" x1="-819.2" x2="819.2">
      <stop offset="0.0" stop-color="#8a8268"/>
      <stop offset="1.0" stop-color="#1e1c17"/>
      <stop offset="1.0" stop-color="#bdb197"/>
    </linearGradient>
    <linearGradient gradientTransform="matrix(0.0, 0.0025, -0.0333, 0.0, 98.2, 27.2)" gradientUnits="userSpaceOnUse" id="gradient2" spreadMethod="pad" x1="-819.2" x2="819.2">
      <stop offset="0.0" stop-color="#8a8268"/>
      <stop offset="1.0" stop-color="#1e1c17"/>
      <stop offset="1.0" stop-color="#bdb197"/>
    </linearGradient>
    <linearGradient gradientTransform="matrix(-0.0029, -0.0106, 0.0311, -0.0083, 97.7, 27.4)" gradientUnits="userSpaceOnUse" id="gradient3" spreadMethod="pad" x1="-819.2" x2="819.2">
      <stop offset="0.0" stop-color="#535031"/>
      <stop offset="1.0" stop-color="#b7b49d"/>
      <stop offset="1.0" stop-color="#bdb197"/>
    </linearGradient>
    <linearGradient gradientTransform="matrix(0.0, 0.0029, -0.0057, 0.0, 84.0, 16.85)" gradientUnits="userSpaceOnUse" id="gradient4" spreadMethod="pad" x1="-819.2" x2="819.2">
      <stop offset="0.0" stop-color="#000000"/>
      <stop offset="0.28627450980392155" stop-color="#858585"/>
      <stop offset="0.5333333333333333" stop-color="#333333"/>
      <stop offset="1.0" stop-color="#000000"/>
    </linearGradient>
    <linearGradient gradientTransform="matrix(0.0, 0.002, -0.0117, 0.0, 67.25, 16.85)" gradientUnits="userSpaceOnUse" id="gradient5" spreadMethod="pad" x1="-819.2" x2="819.2">
      <stop offset="0.0" stop-color="#000000"/>
      <stop offset="0.28627450980392155" stop-color="#858585"/>
      <stop offset="0.5333333333333333" stop-color="#333333"/>
      <stop offset="1.0" stop-color="#000000"/>
    </linearGradient>
    <linearGradient gradientTransform="matrix(0.003, 0.0019, -0.0031, 0.0059, 71.8, 21.75)" gradientUnits="userSpaceOnUse" id="gradient6" spreadMethod="pad" x1="-819.2" x2="819.2">
      <stop offset="0.0" stop-color="#252901"/>
      <stop offset="0.1450980392156863" stop-color="#4a5401"/>
      <stop offset="1.0" stop-color="#1b2400"/>
    </linearGradient>
    <linearGradient gradientTransform="matrix(7.0E-4, 0.0027, -0.0021, 6.0E-4, 78.3, 17.2)" gradientUnits="userSpaceOnUse" id="gradient7" spreadMethod="pad" x1="-819.2" x2="819.2">
      <stop offset="0.0" stop-color="#000000"/>
      <stop offset="0.28627450980392155" stop-color="#858585"/>
      <stop offset="0.5333333333333333" stop-color="#333333"/>
      <stop offset="1.0" stop-color="#000000"/>
    </linearGradient>
    <linearGradient gradientTransform="matrix(0.0028, 0.0017, -0.0029, 0.0055, 55.55, 21.5)" gradientUnits="userSpaceOnUse" id="gradient8" spreadMethod="pad" x1="-819.2" x2="819.2">
      <stop offset="0.0" stop-color="#252901"/>
      <stop offset="0.1450980392156863" stop-color="#4a5401"/>
      <stop offset="1.0" stop-color="#1b2400"/>
    </linearGradient>
    <linearGradient gradientTransform="matrix(0.0037, 0.0, 0.0, 0.0092, 47.15, 41.45)" gradientUnits="userSpaceOnUse" id="gradient9" spreadMethod="pad" x1="-819.2" x2="819.2">
      <stop offset="0.0" stop-color="#252216"/>
      <stop offset="0.42745098039215684" stop-color="#8a8268"/>
      <stop offset="1.0" stop-color="#1e1c17"/>
      <stop offset="1.0" stop-color="#bdb197"/>
    </linearGradient>
  </defs>
</svg>
