<?xml version="1.0" encoding="UTF-8" standalone="no"?>
<svg xmlns:xlink="http://www.w3.org/1999/xlink" height="33.85px" width="26.8px" xmlns="http://www.w3.org/2000/svg">
  <g transform="matrix(1.0, 0.0, 0.0, 1.0, -7.2, -5.3)">
    <path d="M18.3 8.45 Q17.95 8.2 18.25 8.25 L19.35 8.35 Q20.6 8.95 19.95 8.85 L18.7 8.65 18.3 8.45" fill="#826951" fill-rule="evenodd" stroke="none"/>
    <path d="M28.75 15.3 L28.3 15.3 28.3 7.3 28.6 7.3 28.8 12.3 28.8 13.2 28.85 14.75 28.75 15.3 M30.4 11.95 L30.35 10.8 30.0 8.4 29.7 7.95 Q30.5 7.75 30.85 10.4 L30.95 11.45 30.95 12.9 30.7 14.25 30.65 14.3 30.25 14.65 29.35 14.85 29.2 14.65 Q29.8 14.55 30.1 14.1 L30.3 13.65 30.4 11.95 M18.55 21.4 L18.55 22.75 18.5 23.8 17.65 24.15 Q17.6 27.1 16.65 28.25 L16.2 28.65 14.85 28.8 Q15.45 28.75 16.05 28.25 L16.25 28.0 Q17.25 26.95 17.25 25.4 L17.25 23.4 18.25 23.4 18.25 18.6 18.6 19.1 18.6 20.55 18.55 21.4 M18.0 13.6 L17.65 15.3 17.25 15.3 17.25 7.3 17.65 7.3 Q17.85 11.2 17.65 12.55 L18.0 13.6 M17.7 16.3 L17.65 17.7 18.1 18.4 17.25 18.4 17.25 17.0 17.25 16.3 17.7 16.3" fill="#493528" fill-rule="evenodd" stroke="none"/>
    <path d="M28.3 17.0 L28.3 16.3 30.3 16.3 30.3 17.0 30.3 17.05 28.3 17.05 28.3 17.0 M10.25 17.05 L10.25 17.0 10.25 16.3 12.25 16.3 12.25 17.0 12.25 17.05 10.25 17.05 M17.7 16.3 L23.3 16.3 23.3 17.0 23.3 17.7 17.65 17.7 17.7 16.3" fill="#424a35" fill-rule="evenodd" stroke="none"/>
    <path d="M27.3 18.4 L28.3 18.4 28.3 18.6 Q26.15 19.85 24.05 18.95 L23.35 18.4 24.3 18.4 27.3 18.4 M16.25 18.4 L17.25 18.4 17.25 18.7 Q16.0 19.35 14.75 19.4 L14.6 19.4 13.55 19.3 12.25 18.75 12.25 18.4 13.25 18.4 16.25 18.4" fill="#5b7165" fill-rule="evenodd" stroke="none"/>
    <path d="M14.85 28.8 L14.2 28.7 13.3 28.1 Q12.25 26.95 12.25 25.4 L12.25 23.4 14.25 23.4 14.25 22.35 13.7 21.95 Q13.25 21.55 13.25 20.9 L13.35 20.45 Q13.45 20.1 13.7 19.85 14.05 19.45 14.6 19.4 L14.75 19.4 Q15.35 19.4 15.8 19.85 16.25 20.3 16.25 20.9 L16.25 21.15 15.8 21.95 15.25 22.35 15.25 23.4 17.25 23.4 17.25 25.4 Q17.25 26.95 16.25 28.0 L16.05 28.25 Q15.45 28.75 14.85 28.8 M28.3 23.4 L28.3 25.4 Q28.3 26.95 27.3 28.0 26.35 29.05 25.25 28.7 L24.35 28.1 Q23.3 26.95 23.3 25.4 L23.3 23.4 25.3 23.4 25.3 22.35 24.8 22.0 24.75 21.95 24.4 21.45 24.35 21.35 24.3 20.9 Q24.3 20.45 24.55 20.15 L24.75 19.85 Q25.15 19.4 25.8 19.4 26.4 19.4 26.85 19.85 L27.25 20.45 27.3 20.75 27.3 20.9 26.85 21.95 26.3 22.35 26.3 23.4 28.3 23.4 M14.75 20.4 Q14.35 20.4 14.3 20.75 L14.25 20.9 Q14.25 21.4 14.75 21.4 L14.8 21.4 15.25 20.95 15.25 20.9 Q15.25 20.4 14.75 20.4 M15.25 25.4 L14.25 25.4 14.25 24.4 13.3 24.4 13.3 26.1 Q13.5 26.95 14.2 27.65 14.75 28.15 15.25 27.65 15.95 26.95 16.15 26.1 L16.25 25.4 16.25 24.4 15.25 24.4 15.25 25.4 M26.3 21.05 L26.3 20.9 Q26.3 20.4 25.8 20.4 25.3 20.4 25.3 20.9 L25.45 21.3 25.8 21.4 25.85 21.4 Q26.25 21.4 26.3 21.05 M26.3 24.4 L26.3 25.4 25.3 25.4 25.3 24.4 24.35 24.4 24.35 26.1 Q24.55 26.95 25.25 27.65 25.8 28.15 26.3 27.65 27.0 26.95 27.2 26.1 L27.3 25.4 27.3 24.4 26.3 24.4" fill="#1a1510" fill-rule="evenodd" stroke="none"/>
    <path d="M22.6 23.4 L22.3 23.4 22.3 21.55 22.3 21.2 22.3 18.4 23.3 18.4 23.3 23.4 22.6 23.4 M11.25 19.55 L11.25 18.4 11.55 18.4 11.75 18.4 12.25 18.4 12.25 18.75 12.25 23.4 11.25 23.4 11.25 19.55" fill="#3a2923" fill-rule="evenodd" stroke="none"/>
    <path d="M27.3 17.35 L27.3 18.4 24.3 18.4 24.3 17.35 27.3 17.35 M13.25 17.35 L16.25 17.35 16.25 18.4 13.25 18.4 13.25 17.35" fill="#3e3328" fill-rule="evenodd" stroke="none"/>
    <path d="M14.75 20.4 Q15.25 20.4 15.25 20.9 L15.25 20.95 14.8 21.4 14.75 21.4 Q14.25 21.4 14.25 20.9 L14.3 20.75 Q14.35 20.4 14.75 20.4 M26.3 21.05 Q26.25 21.4 25.85 21.4 L25.8 21.4 25.45 21.3 25.3 20.9 Q25.3 20.4 25.8 20.4 26.3 20.4 26.3 20.9 L26.3 21.05" fill="#55493d" fill-rule="evenodd" stroke="none"/>
    <path d="M8.4 18.9 Q8.65 18.4 9.25 18.4 L9.25 21.4 8.25 21.4 8.25 19.4 Q8.25 19.15 8.4 18.9" fill="#674f41" fill-rule="evenodd" stroke="none"/>
    <path d="M32.3 22.4 L32.3 27.4 Q32.3 28.25 31.6 28.4 L31.3 28.4 31.3 22.4 32.3 22.4 M9.25 22.4 L9.25 28.4 Q8.25 28.4 8.25 27.4 L8.25 22.4 9.25 22.4" fill="#48362f" fill-rule="evenodd" stroke="none"/>
    <path d="M28.3 23.4 L29.3 23.4 28.65 23.8 28.45 25.5 28.0 28.05 Q27.65 29.25 25.6 29.1 24.9 29.15 24.2 28.5 22.75 27.2 22.75 23.85 L22.6 23.4 23.3 23.4 23.3 25.4 Q23.3 26.95 24.35 28.1 L25.25 28.7 Q26.35 29.05 27.3 28.0 28.3 26.95 28.3 25.4 L28.3 23.4 M11.75 28.4 L11.6 29.1 Q11.75 29.65 13.55 29.1 L16.6 29.15 20.65 28.85 24.4 29.2 26.2 29.6 Q27.95 29.7 28.4 28.5 29.3 24.85 30.3 23.1 L30.3 23.7 Q29.8 24.35 29.35 25.9 28.9 27.5 28.8 28.8 28.75 29.85 28.15 30.2 L26.45 30.25 23.35 29.7 20.15 29.45 16.6 29.7 14.05 30.15 12.0 29.75 Q11.25 29.55 11.55 28.8 L11.45 28.45 11.75 28.4 M10.25 24.45 L10.25 23.4 Q10.25 24.1 10.85 25.35 L10.7 25.05 10.25 24.45 M11.35 28.2 Q10.95 26.7 11.0 25.7 L11.15 26.05 11.7 28.0 11.35 28.2" fill="#413125" fill-rule="evenodd" stroke="none"/>
    <path d="M7.45 29.05 L7.2 28.4 7.25 25.9 7.25 27.4 7.5 28.4 Q7.95 29.35 9.1 29.4 L9.25 29.4 9.65 30.9 Q10.4 32.4 12.25 32.4 L28.3 32.4 Q30.2 32.4 30.95 30.9 L31.3 29.4 31.8 29.35 Q32.65 29.2 33.05 28.4 L33.3 27.4 33.35 22.1 33.45 28.6 Q33.35 29.6 31.9 29.8 L31.65 29.8 Q31.55 31.85 29.9 32.6 L28.3 32.95 27.15 33.35 Q24.2 34.3 21.35 34.5 L14.9 33.95 12.65 33.35 Q10.05 32.55 9.2 31.45 L9.0 30.05 Q8.2 30.05 7.7 29.45 L7.45 29.05" fill="#281f1c" fill-opacity="0.7607843" fill-rule="evenodd" stroke="none"/>
    <path d="M15.25 25.4 L15.25 24.4 16.25 24.4 16.25 25.4 16.15 26.1 Q15.95 26.95 15.25 27.65 14.75 28.15 14.2 27.65 13.5 26.95 13.3 26.1 L13.3 24.4 14.25 24.4 14.25 25.4 15.25 25.4 M26.3 24.4 L27.3 24.4 27.3 25.4 27.2 26.1 Q27.0 26.95 26.3 27.65 25.8 28.15 25.25 27.65 24.55 26.95 24.35 26.1 L24.35 24.4 25.3 24.4 25.3 25.4 26.3 25.4 26.3 24.4" fill="#5f4c38" fill-rule="evenodd" stroke="none"/>
    <path d="M28.3 18.6 L28.3 18.4 29.3 18.4 29.3 19.75 29.3 23.4 28.3 23.4 28.3 18.6 M17.25 18.7 L17.25 18.4 18.1 18.4 18.25 18.4 18.25 18.6 18.25 23.4 17.25 23.4 17.25 18.7" fill="#28221c" fill-rule="evenodd" stroke="none"/>
    <path d="M22.35 26.95 L22.0 27.1 21.4 26.9 21.15 26.7 20.7 26.85 20.45 26.5 Q20.35 26.2 20.8 26.25 L22.1 26.7 22.35 26.95 M20.05 25.1 L19.3 25.05 18.9 24.9 19.2 24.8 20.0 24.8 Q20.85 25.0 20.05 25.1" fill="#6a5140" fill-rule="evenodd" stroke="none"/>
    <path d="M31.0 6.7 Q31.6 6.8 32.1 7.75 L32.1 7.8 32.55 9.15 Q32.45 9.25 32.3 9.3 L31.95 7.8 31.0 6.7" fill="#101211" fill-opacity="0.2901961" fill-rule="evenodd" stroke="none"/>
    <path d="M31.3 18.4 Q32.3 18.4 32.3 19.4 L32.3 21.4 31.3 21.4 31.3 18.4" fill="#503c27" fill-rule="evenodd" stroke="none"/>
    <path d="M29.75 28.85 Q29.95 29.25 29.6 29.85 L28.95 30.65 27.85 30.65 Q28.3 30.55 28.75 30.15 L29.15 29.35 29.35 28.7 Q29.55 28.45 29.75 28.85 M10.6 28.8 Q10.7 28.25 10.85 28.4 L11.45 29.6 12.35 30.25 12.4 30.25 13.4 30.35 13.45 30.55 12.45 30.75 11.95 30.8 Q10.35 30.5 10.55 29.4 L10.6 28.8" fill="#221914" fill-rule="evenodd" stroke="none"/>
    <path d="M27.1 31.4 L15.25 31.4 11.85 31.1 13.5 30.9 17.05 30.65 18.75 30.65 19.5 30.5 Q20.1 31.2 20.9 30.5 L21.65 30.6 23.4 30.65 25.0 30.85 Q25.7 31.0 25.65 30.7 L28.6 30.95 27.1 31.4" fill="#422624" fill-rule="evenodd" stroke="none"/>
    <path d="M22.3 21.55 L22.15 21.55 21.8 22.0 19.5 21.85 Q19.05 21.4 18.55 21.4 L18.6 20.55 22.3 21.2 22.3 21.55" fill="#656852" fill-rule="evenodd" stroke="none"/>
    <path d="M28.6 7.3 L29.3 7.3 30.3 7.55 30.7 7.8 Q31.3 8.3 31.3 9.3 L31.3 12.65 31.1 11.1 30.95 11.45 30.85 10.4 Q30.5 7.75 29.7 7.95 L30.0 8.4 30.35 10.8 30.4 11.95 30.2 12.05 29.4 12.25 28.8 12.3 28.6 7.3" fill="url(#gradient0)" fill-rule="evenodd" stroke="none"/>
    <path d="M9.25 17.0 L9.25 16.1 8.5 15.3 8.25 14.3 8.25 9.3 Q8.25 8.55 8.65 7.8 9.4 6.3 11.25 6.3 L12.2 6.3 12.2 5.3 17.2 5.3 17.2 6.3 23.3 6.3 23.3 5.3 28.3 5.3 28.3 6.3 29.3 6.3 31.0 6.7 31.95 7.8 32.3 9.3 32.3 14.3 32.05 15.3 31.3 16.1 31.3 17.0 30.3 17.0 30.3 16.3 28.3 16.3 28.3 17.0 27.3 17.0 27.3 7.55 27.3 6.3 24.3 6.3 24.3 17.0 23.3 17.0 23.3 16.3 17.7 16.3 17.25 16.3 17.25 17.0 16.25 17.0 16.25 6.3 13.25 6.3 13.25 7.1 13.25 15.25 13.25 17.0 12.25 17.0 12.25 16.3 10.25 16.3 10.25 17.0 9.25 17.0 M31.3 12.65 L31.3 9.3 Q31.3 8.3 30.7 7.8 L30.3 7.55 29.3 7.3 28.6 7.3 28.3 7.3 28.3 15.3 28.75 15.3 30.4 15.3 Q31.3 15.25 31.3 14.3 L31.3 13.1 31.3 12.65 M17.65 15.3 L23.3 15.3 23.3 13.2 23.3 12.4 23.3 7.3 17.65 7.3 17.25 7.3 17.25 15.3 17.65 15.3 M12.25 12.75 L12.25 7.3 11.25 7.3 10.25 7.55 9.7 7.95 Q9.25 8.45 9.25 9.3 L9.25 14.3 Q9.25 15.25 10.2 15.3 L12.25 15.3 12.25 13.45 12.25 12.75" fill="url(#gradient1)" fill-rule="evenodd" stroke="none"/>
    <path d="M24.3 17.0 L24.3 6.3 27.3 6.3 27.3 7.55 26.9 7.6 26.65 7.85 Q26.5 8.05 26.6 8.5 L26.85 9.95 27.0 11.95 26.85 13.6 26.55 14.95 Q26.4 15.1 26.35 15.9 L26.1 16.75 25.75 17.0 24.3 17.0 M13.25 7.1 L13.25 6.3 16.25 6.3 16.25 17.0 13.25 17.0 13.25 15.25 13.75 14.1 13.8 12.0 Q15.1 11.7 13.7 9.35 L13.25 7.1" fill="url(#gradient2)" fill-rule="evenodd" stroke="none"/>
    <path d="M27.3 7.55 L27.3 17.0 25.75 17.0 26.1 16.75 26.35 15.9 Q26.4 15.1 26.55 14.95 L26.85 13.6 27.0 11.95 26.85 9.95 26.6 8.5 Q26.5 8.05 26.65 7.85 L26.9 7.6 27.3 7.55" fill="url(#gradient3)" fill-rule="evenodd" stroke="none"/>
    <path d="M31.3 12.65 L31.3 13.1 Q31.25 14.1 30.7 14.25 L30.95 12.9 30.95 11.45 31.1 11.1 31.3 12.65 M28.8 12.3 L29.4 12.25 30.2 12.05 30.4 11.95 30.3 13.65 30.1 14.1 29.9 13.85 29.6 13.3 28.8 13.2 28.8 12.3" fill="url(#gradient4)" fill-rule="evenodd" stroke="none"/>
    <path d="M18.3 8.45 L18.7 8.65 19.95 8.85 Q20.6 8.95 19.35 8.35 L18.25 8.25 Q17.95 8.2 18.3 8.45 M23.3 12.4 L18.4 12.5 17.65 12.55 Q17.85 11.2 17.65 7.3 L23.3 7.3 23.3 12.4" fill="url(#gradient5)" fill-rule="evenodd" stroke="none"/>
    <path d="M28.3 17.0 L28.3 17.05 28.3 18.4 27.3 18.4 27.3 17.35 27.3 17.0 28.3 17.0 M24.3 17.0 L24.3 17.35 24.3 18.4 23.35 18.4 23.3 18.4 23.3 17.7 23.3 17.0 24.3 17.0 M16.25 17.0 L17.25 17.0 17.25 18.4 16.25 18.4 16.25 17.35 16.25 17.0 M12.25 17.0 L13.25 17.0 13.25 17.35 13.25 18.4 12.25 18.4 12.25 17.05 12.25 17.0" fill="url(#gradient6)" fill-rule="evenodd" stroke="none"/>
    <path d="M27.3 17.0 L27.3 17.35 24.3 17.35 24.3 17.0 25.75 17.0 27.3 17.0" fill="url(#gradient7)" fill-rule="evenodd" stroke="none"/>
    <path d="M23.3 13.2 L19.2 13.35 18.0 13.6 17.65 12.55 18.4 12.5 23.3 12.4 23.3 13.2" fill="url(#gradient8)" fill-rule="evenodd" stroke="none"/>
    <path d="M18.0 13.6 L19.2 13.35 23.3 13.2 23.3 15.3 17.65 15.3 18.0 13.6" fill="url(#gradient9)" fill-rule="evenodd" stroke="none"/>
    <path d="M13.25 17.0 L16.25 17.0 16.25 17.35 13.25 17.35 13.25 17.0" fill="url(#gradient10)" fill-rule="evenodd" stroke="none"/>
    <path d="M23.3 18.4 L22.3 18.4 22.3 21.2 18.6 20.55 18.6 19.1 18.25 18.6 18.25 18.4 18.1 18.4 17.65 17.7 23.3 17.7 23.3 18.4" fill="url(#gradient11)" fill-rule="evenodd" stroke="none"/>
    <path d="M28.3 18.6 L28.3 23.4 26.3 23.4 26.3 22.35 26.85 21.95 27.3 20.9 27.3 20.75 27.25 20.45 26.85 19.85 Q26.4 19.4 25.8 19.4 25.15 19.4 24.75 19.85 L24.55 20.15 Q24.3 20.45 24.3 20.9 L24.35 21.35 24.4 21.45 24.75 21.95 24.8 22.0 25.3 22.35 25.3 23.4 23.3 23.4 23.3 18.4 23.35 18.4 24.05 18.95 Q26.15 19.85 28.3 18.6 M17.25 18.7 L17.25 23.4 15.25 23.4 15.25 22.35 15.8 21.95 16.25 21.15 16.25 20.9 Q16.25 20.3 15.8 19.85 15.35 19.4 14.75 19.4 16.0 19.35 17.25 18.7 M14.6 19.4 Q14.05 19.45 13.7 19.85 13.45 20.1 13.35 20.45 L13.25 20.9 Q13.25 21.55 13.7 21.95 L14.25 22.35 14.25 23.4 12.25 23.4 12.25 18.75 13.55 19.3 14.6 19.4" fill="url(#gradient12)" fill-rule="evenodd" stroke="none"/>
    <path d="M29.3 23.4 L29.3 19.75 30.3 19.15 30.3 23.1 Q29.3 24.85 28.4 28.5 27.95 29.7 26.2 29.6 L24.4 29.2 20.65 28.85 16.6 29.15 13.55 29.1 Q11.75 29.65 11.6 29.1 L11.75 28.4 13.3 28.1 14.2 28.7 14.85 28.8 16.2 28.65 16.65 28.25 17.15 28.25 18.05 28.4 18.9 28.2 21.15 28.15 22.15 28.05 23.15 27.8 Q23.65 27.5 22.05 27.55 L20.95 27.85 18.4 27.85 17.8 27.7 Q17.6 27.5 17.95 27.45 L18.65 27.3 19.1 27.35 19.5 27.45 20.0 27.4 20.0 27.15 Q19.9 26.9 19.55 26.95 L18.95 26.95 18.35 26.9 17.85 26.7 Q17.7 26.5 18.0 26.25 L18.65 25.95 19.35 25.95 19.5 25.8 18.95 25.7 Q18.55 25.65 18.3 25.4 17.8 24.9 18.9 24.55 19.5 24.35 19.5 23.5 19.5 23.15 18.75 22.8 L18.55 22.75 18.55 21.4 Q19.05 21.4 19.5 21.85 L20.55 23.45 21.8 22.0 22.15 21.55 22.3 21.55 22.3 23.4 22.6 23.4 22.75 23.85 Q22.75 27.2 24.2 28.5 24.9 29.15 25.6 29.1 27.65 29.25 28.0 28.05 L28.45 25.5 28.65 23.8 29.3 23.4 M10.25 23.4 L10.25 18.9 11.25 19.55 11.25 23.4 12.25 23.4 12.25 25.4 12.0 27.85 11.7 28.0 11.15 26.05 11.0 25.7 11.0 25.6 10.9 25.45 10.85 25.35 Q10.25 24.1 10.25 23.4 M20.05 25.1 Q20.85 25.0 20.0 24.8 L19.2 24.8 18.9 24.9 19.3 25.05 20.05 25.1 M22.35 26.95 L22.1 26.7 20.8 26.25 Q20.35 26.2 20.45 26.5 L20.7 26.85 21.15 26.7 21.4 26.9 22.0 27.1 22.35 26.95" fill="url(#gradient13)" fill-rule="evenodd" stroke="none"/>
    <path d="M18.55 22.75 L18.75 22.8 Q19.5 23.15 19.5 23.5 19.5 24.35 18.9 24.55 17.8 24.9 18.3 25.4 18.55 25.65 18.95 25.7 L19.5 25.8 19.35 25.95 18.65 25.95 18.0 26.25 Q17.7 26.5 17.85 26.7 L18.35 26.9 18.95 26.95 19.55 26.95 Q19.9 26.9 20.0 27.15 L20.0 27.4 19.5 27.45 19.1 27.35 18.65 27.3 17.95 27.45 Q17.6 27.5 17.8 27.7 L18.4 27.85 20.95 27.85 22.05 27.55 Q23.65 27.5 23.15 27.8 L22.15 28.05 21.15 28.15 18.9 28.2 18.05 28.4 17.15 28.25 16.65 28.25 Q17.6 27.1 17.65 24.15 L18.5 23.8 18.55 22.75 M13.3 28.1 L11.75 28.4 11.7 28.0 12.0 27.85 12.25 25.4 Q12.25 26.95 13.3 28.1" fill="url(#gradient14)" fill-rule="evenodd" stroke="none"/>
    <path d="M21.8 22.0 L20.55 23.45 19.5 21.85 21.8 22.0" fill="url(#gradient15)" fill-rule="evenodd" stroke="none"/>
    <path d="M7.25 25.9 L7.25 19.4 7.3 18.95 7.4 18.6 Q7.6 17.9 8.25 17.6 L9.25 17.35 9.25 17.0 10.25 17.0 10.25 17.05 10.25 18.9 10.25 23.4 10.25 24.45 10.25 29.4 Q10.25 30.65 11.25 31.15 L12.25 31.4 15.25 31.4 27.1 31.4 28.3 31.4 29.3 31.15 Q30.3 30.65 30.3 29.4 L30.3 23.7 30.3 23.1 30.3 19.15 30.3 17.05 30.3 17.0 31.3 17.0 31.3 17.35 32.15 17.55 32.3 17.6 Q33.3 18.15 33.3 19.35 L33.35 22.1 33.3 27.4 33.05 28.4 Q32.65 29.2 31.8 29.35 L31.3 29.4 30.95 30.9 Q30.2 32.4 28.3 32.4 L12.25 32.4 Q10.4 32.4 9.65 30.9 L9.25 29.4 9.1 29.4 Q7.95 29.35 7.5 28.4 L7.25 27.4 7.25 25.9 M31.3 18.4 L31.3 21.4 32.3 21.4 32.3 19.4 Q32.3 18.4 31.3 18.4 M32.3 22.4 L31.3 22.4 31.3 28.4 31.6 28.4 Q32.3 28.25 32.3 27.4 L32.3 22.4 M8.4 18.9 Q8.25 19.15 8.25 19.4 L8.25 21.4 9.25 21.4 9.25 18.4 Q8.65 18.4 8.4 18.9 M9.25 22.4 L8.25 22.4 8.25 27.4 Q8.25 28.4 9.25 28.4 L9.25 22.4" fill="url(#gradient16)" fill-rule="evenodd" stroke="none"/>
    <path d="M31.3 13.1 L31.3 14.3 Q31.3 15.25 30.4 15.3 L28.75 15.3 28.85 14.75 28.8 13.2 29.6 13.3 29.9 13.85 30.1 14.1 Q29.8 14.55 29.2 14.65 L29.35 14.85 30.25 14.65 30.65 14.3 30.7 14.25 Q31.25 14.1 31.3 13.1" fill="url(#gradient17)" fill-rule="evenodd" stroke="none"/>
    <path d="M28.3 18.4 L28.3 17.05 30.3 17.05 30.3 19.15 29.3 19.75 29.3 18.4 28.3 18.4 M10.25 18.9 L10.25 17.05 12.25 17.05 12.25 18.4 11.75 18.4 11.55 18.4 11.25 18.4 11.25 19.55 10.25 18.9" fill="url(#gradient18)" fill-rule="evenodd" stroke="none"/>
    <path d="M30.3 23.7 L30.3 29.4 Q30.3 30.65 29.3 31.15 L28.3 31.4 27.1 31.4 28.6 30.95 25.65 30.7 Q25.7 31.0 25.0 30.85 L23.4 30.65 21.65 30.6 20.9 30.5 Q20.1 31.2 19.5 30.5 L18.75 30.65 17.05 30.65 13.5 30.9 11.85 31.1 15.25 31.4 12.25 31.4 11.25 31.15 Q10.25 30.65 10.25 29.4 L10.25 24.45 10.7 25.05 10.85 25.35 10.9 25.45 11.0 25.6 11.0 25.7 Q10.95 26.7 11.35 28.2 L11.3 28.25 Q10.9 28.45 11.45 28.45 L11.55 28.8 Q11.25 29.55 12.0 29.75 L14.05 30.15 16.6 29.7 20.15 29.45 23.35 29.7 26.45 30.25 28.15 30.2 Q28.75 29.85 28.8 28.8 28.9 27.5 29.35 25.9 29.8 24.35 30.3 23.7 M29.75 28.85 Q29.55 28.45 29.35 28.7 L29.15 29.35 28.75 30.15 Q28.3 30.55 27.85 30.65 L28.95 30.65 29.6 29.85 Q29.95 29.25 29.75 28.85 M10.6 28.8 L10.55 29.4 Q10.35 30.5 11.95 30.8 L12.45 30.75 13.45 30.55 13.4 30.35 12.4 30.25 12.35 30.25 11.45 29.6 10.85 28.4 Q10.7 28.25 10.6 28.8" fill="url(#gradient19)" fill-rule="evenodd" stroke="none"/>
    <path d="M12.25 13.45 L12.25 15.3 10.2 15.3 Q9.25 15.25 9.25 14.3 L9.25 9.3 Q9.25 8.45 9.7 7.95 L10.25 7.55 11.25 7.3 12.25 7.3 12.25 12.75 10.5 12.5 Q9.95 12.0 9.95 9.5 L9.8 8.7 9.6 8.95 9.5 10.6 9.8 13.3 11.05 13.45 12.25 13.45" fill="url(#gradient20)" fill-rule="evenodd" stroke="none"/>
    <path d="M12.25 13.45 L11.05 13.45 9.8 13.3 9.5 10.6 9.6 8.95 9.8 8.7 9.95 9.5 Q9.95 12.0 10.5 12.5 L12.25 12.75 12.25 13.45" fill="url(#gradient21)" fill-rule="evenodd" stroke="none"/>
    <path d="M13.25 7.1 L13.7 9.35 Q15.1 11.7 13.8 12.0 L13.75 14.1 13.25 15.25 13.25 7.1" fill="url(#gradient22)" fill-rule="evenodd" stroke="none"/>
    <path d="M11.45 28.45 Q10.9 28.45 11.3 28.25 L11.35 28.2 11.7 28.0 11.75 28.4 11.45 28.45" fill="url(#gradient23)" fill-rule="evenodd" stroke="none"/>
    <path d="M32.55 9.15 L32.65 9.85 Q33.0 12.15 32.85 14.2 32.75 15.65 31.7 16.35 L31.85 16.9 Q32.85 17.0 33.45 18.0 L33.85 19.0 33.95 28.95 Q34.25 31.45 32.35 31.45 L32.6 33.35 32.75 34.55 21.35 34.5 17.0 39.15 8.1 39.15 Q8.15 36.65 8.5 33.35 L8.6 32.1 Q7.3 31.8 7.45 31.6 L7.45 29.05 7.7 29.45 Q8.2 30.05 9.0 30.05 L9.2 31.45 Q10.05 32.55 12.65 33.35 L14.9 33.95 21.35 34.5 Q24.2 34.3 27.15 33.35 L28.3 32.95 29.9 32.6 Q31.55 31.85 31.65 29.8 L31.9 29.8 Q33.35 29.6 33.45 28.6 L33.35 22.1 33.3 19.35 Q33.3 18.15 32.3 17.6 L32.15 17.55 31.3 17.35 31.3 17.0 31.3 16.1 32.05 15.3 32.3 14.3 32.3 9.3 Q32.45 9.25 32.55 9.15" fill="url(#gradient24)" fill-rule="evenodd" stroke="none"/>
  </g>
  <defs>
    <linearGradient gradientTransform="matrix(0.0, 0.0048, -0.0018, 0.0, 29.8, 11.4)" gradientUnits="userSpaceOnUse" id="gradient0" spreadMethod="pad" x1="-819.2" x2="819.2">
      <stop offset="0.00784313725490196" stop-color="#40aea3"/>
      <stop offset="0.11372549019607843" stop-color="#627a65"/>
      <stop offset="0.34509803921568627" stop-color="#735d4c"/>
      <stop offset="0.5529411764705883" stop-color="#5d4a35"/>
      <stop offset="0.6784313725490196" stop-color="#5d4635"/>
      <stop offset="0.8549019607843137" stop-color="#5c4033"/>
      <stop offset="1.0" stop-color="#3e2f22"/>
    </linearGradient>
    <linearGradient gradientTransform="matrix(0.0, 0.0052, -0.0147, 0.0, 20.25, 11.5)" gradientUnits="userSpaceOnUse" id="gradient1" spreadMethod="pad" x1="-819.2" x2="819.2">
      <stop offset="0.0" stop-color="#2c4854"/>
      <stop offset="1.0" stop-color="#201b16"/>
    </linearGradient>
    <linearGradient gradientTransform="matrix(0.0, 0.0065, -0.0018, 0.0, 25.8, 11.85)" gradientUnits="userSpaceOnUse" id="gradient2" spreadMethod="pad" x1="-819.2" x2="819.2">
      <stop offset="0.0" stop-color="#40b7b6"/>
      <stop offset="0.11764705882352941" stop-color="#5a7b67"/>
      <stop offset="0.32941176470588235" stop-color="#6b5345"/>
      <stop offset="0.4627450980392157" stop-color="#5e4b37"/>
      <stop offset="1.0" stop-color="#513e2f"/>
    </linearGradient>
    <linearGradient gradientTransform="matrix(0.0, 0.0065, -0.0018, 0.0, 25.8, 11.85)" gradientUnits="userSpaceOnUse" id="gradient3" spreadMethod="pad" x1="-819.2" x2="819.2">
      <stop offset="0.0" stop-color="#745d49"/>
      <stop offset="0.4627450980392157" stop-color="#4d3b30"/>
      <stop offset="1.0" stop-color="#513e2f"/>
    </linearGradient>
    <linearGradient gradientTransform="matrix(0.0, 0.0048, -0.0018, 0.0, 29.8, 11.4)" gradientUnits="userSpaceOnUse" id="gradient4" spreadMethod="pad" x1="-819.2" x2="819.2">
      <stop offset="0.0" stop-color="#997f5e"/>
      <stop offset="0.32941176470588235" stop-color="#6b5345"/>
      <stop offset="0.5647058823529412" stop-color="#584238"/>
      <stop offset="1.0" stop-color="#513e2f"/>
    </linearGradient>
    <linearGradient gradientTransform="matrix(0.0, 0.0047, -0.0037, 0.0, 20.25, 11.3)" gradientUnits="userSpaceOnUse" id="gradient5" spreadMethod="pad" x1="-819.2" x2="819.2">
      <stop offset="0.00784313725490196" stop-color="#40aea3"/>
      <stop offset="0.11372549019607843" stop-color="#627a65"/>
      <stop offset="0.34509803921568627" stop-color="#735d4c"/>
      <stop offset="0.5529411764705883" stop-color="#5d4a35"/>
      <stop offset="0.6784313725490196" stop-color="#5d4635"/>
      <stop offset="0.8549019607843137" stop-color="#5c4033"/>
      <stop offset="1.0" stop-color="#3e2f22"/>
    </linearGradient>
    <linearGradient gradientTransform="matrix(0.0, 0.0088, -0.0159, 0.0, 20.25, 13.05)" gradientUnits="userSpaceOnUse" id="gradient6" spreadMethod="pad" x1="-819.2" x2="819.2">
      <stop offset="0.0" stop-color="#352c20"/>
      <stop offset="1.0" stop-color="#1e1812"/>
    </linearGradient>
    <linearGradient gradientTransform="matrix(0.0, 0.0065, -0.0018, 0.0, 25.8, 11.85)" gradientUnits="userSpaceOnUse" id="gradient7" spreadMethod="pad" x1="-819.2" x2="819.2">
      <stop offset="0.0" stop-color="#88775e"/>
      <stop offset="0.32941176470588235" stop-color="#6b5345"/>
      <stop offset="0.4627450980392157" stop-color="#5e4b37"/>
      <stop offset="1.0" stop-color="#513e2f"/>
    </linearGradient>
    <linearGradient gradientTransform="matrix(0.0, 0.0047, -0.0037, 0.0, 20.25, 11.3)" gradientUnits="userSpaceOnUse" id="gradient8" spreadMethod="pad" x1="-819.2" x2="819.2">
      <stop offset="0.0" stop-color="#9c8260"/>
      <stop offset="0.34509803921568627" stop-color="#735d4c"/>
      <stop offset="0.5529411764705883" stop-color="#5a493f"/>
      <stop offset="0.8549019607843137" stop-color="#5c4033"/>
      <stop offset="1.0" stop-color="#3e2f22"/>
    </linearGradient>
    <linearGradient gradientTransform="matrix(0.0, 0.0047, -0.0037, 0.0, 20.25, 11.3)" gradientUnits="userSpaceOnUse" id="gradient9" spreadMethod="pad" x1="-819.2" x2="819.2">
      <stop offset="0.0" stop-color="#b5a842"/>
      <stop offset="0.34509803921568627" stop-color="#735d4c"/>
      <stop offset="0.5529411764705883" stop-color="#5d4a35"/>
      <stop offset="0.6784313725490196" stop-color="#5d4635"/>
      <stop offset="0.8549019607843137" stop-color="#5c4033"/>
      <stop offset="1.0" stop-color="#3e2f22"/>
    </linearGradient>
    <linearGradient gradientTransform="matrix(0.0, 0.0067, -0.0018, 0.0, 14.75, 11.9)" gradientUnits="userSpaceOnUse" id="gradient10" spreadMethod="pad" x1="-819.2" x2="819.2">
      <stop offset="0.0" stop-color="#88775e"/>
      <stop offset="0.32941176470588235" stop-color="#6b5345"/>
      <stop offset="0.4627450980392157" stop-color="#5e4b37"/>
      <stop offset="1.0" stop-color="#513e2f"/>
    </linearGradient>
    <linearGradient gradientTransform="matrix(0.0, 0.0025, -0.0037, 0.0, 20.25, 19.55)" gradientUnits="userSpaceOnUse" id="gradient11" spreadMethod="pad" x1="-819.2" x2="819.2">
      <stop offset="0.0" stop-color="#4b706d"/>
      <stop offset="0.6" stop-color="#69745d"/>
      <stop offset="1.0" stop-color="#5f4d39"/>
    </linearGradient>
    <linearGradient gradientTransform="matrix(0.0, 0.0021, -0.0014, 0.0, 13.45, 21.45)" gradientUnits="userSpaceOnUse" id="gradient12" spreadMethod="pad" x1="-819.2" x2="819.2">
      <stop offset="0.0" stop-color="#4b372c"/>
      <stop offset="1.0" stop-color="#453236"/>
    </linearGradient>
    <linearGradient gradientTransform="matrix(0.0, 0.006, -0.0122, 0.0, 20.25, 26.9)" gradientUnits="userSpaceOnUse" id="gradient13" spreadMethod="pad" x1="-819.2" x2="819.2">
      <stop offset="0.0" stop-color="#5d4934"/>
      <stop offset="0.5686274509803921" stop-color="#503e33"/>
      <stop offset="1.0" stop-color="#553d33"/>
    </linearGradient>
    <linearGradient gradientTransform="matrix(0.0, 0.006, -0.0122, 0.0, 20.25, 26.9)" gradientUnits="userSpaceOnUse" id="gradient14" spreadMethod="pad" x1="-819.2" x2="819.2">
      <stop offset="0.0" stop-color="#5d4934"/>
      <stop offset="0.4627450980392157" stop-color="#52342e"/>
      <stop offset="0.803921568627451" stop-color="#54372c"/>
      <stop offset="1.0" stop-color="#553d33"/>
    </linearGradient>
    <linearGradient gradientTransform="matrix(0.0, 0.0025, -0.0037, 0.0, 20.25, 19.55)" gradientUnits="userSpaceOnUse" id="gradient15" spreadMethod="pad" x1="-819.2" x2="819.2">
      <stop offset="0.0" stop-color="#6c5b4a"/>
      <stop offset="0.6" stop-color="#73614f"/>
      <stop offset="1.0" stop-color="#5f4d39"/>
    </linearGradient>
    <linearGradient gradientTransform="matrix(0.0028, 0.0087, -0.016, 0.0052, 20.05, 22.6)" gradientUnits="userSpaceOnUse" id="gradient16" spreadMethod="pad" x1="-819.2" x2="819.2">
      <stop offset="0.0" stop-color="#2c2518"/>
      <stop offset="1.0" stop-color="#150f0e"/>
    </linearGradient>
    <linearGradient gradientTransform="matrix(0.0, 0.0048, -0.0018, 0.0, 29.8, 11.4)" gradientUnits="userSpaceOnUse" id="gradient17" spreadMethod="pad" x1="-819.2" x2="819.2">
      <stop offset="0.0" stop-color="#b5a842"/>
      <stop offset="0.34509803921568627" stop-color="#735d4c"/>
      <stop offset="0.5529411764705883" stop-color="#5d4a35"/>
      <stop offset="0.6784313725490196" stop-color="#5d4635"/>
      <stop offset="0.8549019607843137" stop-color="#5c4033"/>
      <stop offset="1.0" stop-color="#3e2f22"/>
    </linearGradient>
    <linearGradient gradientTransform="matrix(0.0, 0.0025, -0.0037, 0.0, 20.25, 19.55)" gradientUnits="userSpaceOnUse" id="gradient18" spreadMethod="pad" x1="-819.2" x2="819.2">
      <stop offset="0.0" stop-color="#4b706d"/>
      <stop offset="0.6" stop-color="#73614f"/>
      <stop offset="1.0" stop-color="#5f4d39"/>
    </linearGradient>
    <linearGradient gradientTransform="matrix(0.0, 0.0039, -0.0122, 0.0, 20.25, 28.65)" gradientUnits="userSpaceOnUse" id="gradient19" spreadMethod="pad" x1="-819.2" x2="819.2">
      <stop offset="0.00784313725490196" stop-color="#32261c"/>
      <stop offset="0.48627450980392156" stop-color="#2e2118"/>
      <stop offset="1.0" stop-color="#261b15"/>
    </linearGradient>
    <linearGradient gradientTransform="matrix(0.0, 0.0049, -0.0018, 0.0, 10.75, 11.45)" gradientUnits="userSpaceOnUse" id="gradient20" spreadMethod="pad" x1="-819.2" x2="819.2">
      <stop offset="0.00784313725490196" stop-color="#40aea3"/>
      <stop offset="0.11372549019607843" stop-color="#627a65"/>
      <stop offset="0.34509803921568627" stop-color="#735d4c"/>
      <stop offset="0.5529411764705883" stop-color="#5d4a35"/>
      <stop offset="0.6784313725490196" stop-color="#5d4635"/>
      <stop offset="0.8549019607843137" stop-color="#5c4033"/>
      <stop offset="1.0" stop-color="#3e2f22"/>
    </linearGradient>
    <linearGradient gradientTransform="matrix(0.0, 0.0049, -0.0018, 0.0, 10.75, 11.45)" gradientUnits="userSpaceOnUse" id="gradient21" spreadMethod="pad" x1="-819.2" x2="819.2">
      <stop offset="0.0" stop-color="#997f5e"/>
      <stop offset="0.32941176470588235" stop-color="#6b5345"/>
      <stop offset="0.5647058823529412" stop-color="#584238"/>
      <stop offset="1.0" stop-color="#513e2f"/>
    </linearGradient>
    <linearGradient gradientTransform="matrix(0.0, 0.0067, -0.0018, 0.0, 14.75, 11.9)" gradientUnits="userSpaceOnUse" id="gradient22" spreadMethod="pad" x1="-819.2" x2="819.2">
      <stop offset="0.0" stop-color="#866d54"/>
      <stop offset="0.4627450980392157" stop-color="#4e392d"/>
      <stop offset="1.0" stop-color="#513e2f"/>
    </linearGradient>
    <linearGradient gradientTransform="matrix(4.0E-4, 0.0, 0.0, 3.0E-4, 11.4, 28.2)" gradientUnits="userSpaceOnUse" id="gradient23" spreadMethod="pad" x1="-819.2" x2="819.2">
      <stop offset="0.0" stop-color="#5d4934"/>
      <stop offset="0.4627450980392157" stop-color="#52342e"/>
      <stop offset="0.803921568627451" stop-color="#54372c"/>
      <stop offset="1.0" stop-color="#553d33"/>
    </linearGradient>
    <linearGradient gradientTransform="matrix(0.0, 0.0039, -0.0162, 0.0, 20.7, 35.85)" gradientUnits="userSpaceOnUse" id="gradient24" spreadMethod="pad" x1="-819.2" x2="819.2">
      <stop offset="0.0" stop-color="#171713" stop-opacity="0.39215687"/>
      <stop offset="0.6745098039215687" stop-color="#18201c" stop-opacity="0.23921569"/>
      <stop offset="1.0" stop-color="#1a2b28" stop-opacity="0.050980393"/>
    </linearGradient>
  </defs>
</svg>
