<?xml version="1.0" encoding="UTF-8" standalone="no"?>
<svg xmlns:xlink="http://www.w3.org/1999/xlink" height="26.0px" width="26.0px" xmlns="http://www.w3.org/2000/svg">
  <g transform="matrix(1.0, 0.0, 0.0, 1.0, 13.0, 13.0)">
    <use height="26.0" transform="matrix(1.0, 0.0, 0.0, 1.0, -13.0, -13.0)" width="26.0" xlink:href="#shape0"/>
    <use height="15.1" transform="matrix(1.0, 0.0, 0.0, 1.0, -10.05, -7.55)" width="20.1" xlink:href="#shape1"/>
  </g>
  <defs>
    <g id="shape0" transform="matrix(1.0, 0.0, 0.0, 1.0, 13.0, 13.0)">
      <path d="M13.0 13.0 L-13.0 13.0 -13.0 -13.0 13.0 -13.0 13.0 13.0" fill="url(#gradient0)" fill-rule="evenodd" stroke="none"/>
    </g>
    <radialGradient cx="0" cy="0" gradientTransform="matrix(0.073, 0.0, 0.0, 0.073, 0.0, 0.0)" gradientUnits="userSpaceOnUse" id="gradient0" r="819.2" spreadMethod="pad">
      <stop offset="0.0" stop-color="#1eff00"/>
      <stop offset="0.23137254901960785" stop-color="#29c102"/>
      <stop offset="0.39215686274509803" stop-color="#042100"/>
    </radialGradient>
    <g id="shape1" transform="matrix(1.0, 0.0, 0.0, 1.0, 10.05, 7.55)">
      <path d="M8.0 -5.05 Q9.5 -3.65 9.9 -1.7 10.2 -0.2 9.85 2.05 9.3 -1.25 7.6 -3.05 L6.65 -2.1 6.2 -2.55 -3.85 7.5 -5.15 6.25 4.95 -3.8 4.6 -4.15 5.55 -5.1 Q3.55 -6.85 0.15 -7.25 2.85 -7.85 4.7 -7.2 6.25 -6.7 8.0 -5.05" fill="#ffffff" fill-rule="evenodd" stroke="none"/>
      <path d="M-4.75 -7.15 Q-2.85 -7.8 -0.15 -7.2 -3.6 -6.85 -5.6 -5.05 L-4.65 -4.1 -5.0 -3.75 5.1 6.3 3.85 7.55 -6.25 -2.5 -6.7 -2.05 -7.65 -3.0 Q-9.35 -1.1 -9.9 2.1 -10.2 -0.2 -9.9 -1.65 -9.55 -3.6 -8.05 -5.0 -6.3 -6.65 -4.75 -7.15" fill="#ffffff" fill-rule="evenodd" stroke="none"/>
    </g>
  </defs>
</svg>
