<?xml version="1.0" encoding="UTF-8" standalone="no"?>
<svg xmlns:xlink="http://www.w3.org/1999/xlink" height="40.0px" width="50.0px" xmlns="http://www.w3.org/2000/svg">
  <g transform="matrix(1.0, 0.0, 0.0, 1.0, 0.0, 0.0)">
    <use height="40.0" transform="matrix(1.0, 0.0, 0.0, 1.0, 0.0, 0.0)" width="50.0" xlink:href="#shape0"/>
  </g>
  <defs>
    <g id="shape0" transform="matrix(1.0, 0.0, 0.0, 1.0, 0.0, 0.0)">
      <path d="M47.35 28.05 L47.35 20.85 47.3 20.6 47.85 19.85 47.85 15.55 47.15 14.05 47.1 13.9 47.05 13.8 46.95 13.7 46.85 13.65 39.45 8.1 39.35 8.0 39.05 7.9 15.9 6.7 15.8 6.75 8.85 8.9 9.05 10.6 20.4 14.85 5.75 19.55 3.0 20.2 3.0 27.6 3.1 27.65 3.05 27.75 3.5 28.7 30.25 39.75 47.2 29.3 47.35 28.15 47.35 28.05 M50.0 40.0 L0.0 40.0 0.0 0.0 50.0 0.0 50.0 40.0" fill="#161202" fill-opacity="0.0" fill-rule="evenodd" stroke="none"/>
      <path d="M46.65 14.1 L46.7 14.25 47.4 15.75 47.35 15.85 47.35 19.7 46.8 20.45 46.85 20.9 46.85 27.75 29.65 37.5 29.45 37.4 3.5 27.3 3.45 20.55 4.15 20.35 5.85 20.05 21.9 14.9 9.55 10.25 9.5 10.25 9.4 9.25 15.95 7.2 39.05 8.4 39.15 8.5 46.55 14.05 46.65 14.1 M46.3 20.3 L46.85 19.55 46.9 15.85 46.25 14.45 45.1 13.6 38.85 8.9 16.1 7.7 10.45 9.5 10.4 9.5 10.0 9.65 9.55 9.75 9.75 9.8 23.5 14.95 21.0 15.7 17.4 16.85 10.4 19.1 5.95 20.55 4.0 20.85 4.0 25.4 4.0 26.95 5.95 27.7 8.25 28.6 13.45 30.6 13.6 30.65 13.95 30.85 14.95 31.2 16.6 31.9 16.85 31.95 17.95 32.4 18.0 32.4 18.6 32.65 29.65 36.9 31.5 35.9 32.2 35.5 32.95 35.1 34.95 33.95 36.7 32.95 38.5 31.95 38.85 31.75 46.35 27.5 46.35 21.0 46.35 20.95 46.3 20.3 M45.05 20.55 L35.7 18.1 35.7 18.05 44.85 20.35 46.0 20.85 45.05 20.55 M35.45 17.95 L35.4 18.0 35.35 18.0 35.45 17.95 M38.65 24.25 L39.95 23.65 40.75 23.35 39.85 23.75 39.55 23.85 38.65 24.25 M14.0 23.65 L13.2 23.45 12.35 23.2 14.0 23.65 M15.75 28.25 L15.6 28.35 15.5 28.4 14.95 28.4 14.55 27.9 14.6 27.3 14.65 27.15 15.75 28.25 M14.95 29.05 L14.3 30.75 13.7 30.4 13.5 30.2 14.6 28.9 14.95 29.05 M14.05 26.75 L13.85 27.1 12.3 26.85 12.35 26.75 12.5 26.25 12.6 26.0 12.7 25.8 12.9 25.5 12.95 25.4 13.0 25.35 14.1 26.6 14.05 26.75" fill="#161202" fill-rule="evenodd" stroke="none"/>
      <path d="M46.3 19.65 L46.3 18.65 46.1 16.6 45.75 15.15 44.95 14.0 44.2 12.95 45.1 13.6 46.25 14.45 46.9 15.85 46.85 19.55 46.3 20.3 46.25 20.35 46.25 20.3 46.3 19.65" fill="#838183" fill-rule="evenodd" stroke="none"/>
      <path d="M44.95 14.0 L45.75 15.15 46.1 16.6 46.3 18.65 46.3 19.65 46.25 19.6 46.25 19.55 43.2 13.15 42.95 12.7 44.95 14.0" fill="#8d8b8d" fill-rule="evenodd" stroke="none"/>
      <path d="M38.7 10.3 L39.1 10.8 44.05 17.25 44.25 17.55 42.35 15.6 38.05 11.25 37.8 10.95 37.75 10.9 38.7 10.3" fill="#b3b2b3" fill-rule="evenodd" stroke="none"/>
      <path d="M42.95 12.7 L43.2 13.15 46.25 19.55 46.25 19.6 46.3 19.65 46.25 20.3 45.9 20.05 45.6 18.7 45.05 18.35 44.25 17.55 44.05 17.25 39.1 10.8 38.7 10.3 39.05 10.05 42.95 12.7 M43.15 22.3 L46.3 21.0 46.35 21.0 43.1 22.35 43.15 22.3 M44.6 22.45 L45.15 21.85 46.35 21.0 45.95 21.6 45.65 23.4 41.8 27.95 41.35 28.45 40.95 28.95 39.6 30.55 32.6 35.05 33.1 34.4 44.25 22.8 44.2 23.1 Q44.2 23.75 44.85 23.75 45.55 23.75 45.55 23.1 45.55 22.4 44.85 22.4 L44.6 22.45 M38.85 31.75 L38.5 31.95 38.45 31.95 38.85 31.75 M32.95 35.1 L32.2 35.5 32.25 35.45 32.95 35.1 M5.95 20.55 L10.4 19.1 13.75 18.85 7.85 21.0 5.95 20.55" fill="#949294" fill-rule="evenodd" stroke="none"/>
      <path d="M44.95 14.0 L42.95 12.7 39.05 10.05 38.7 10.3 37.75 10.9 35.6 12.25 45.05 18.35 45.6 18.7 45.9 20.05 33.45 12.15 38.85 8.9 45.1 13.6 44.2 12.95 44.95 14.0 M35.7 18.1 L35.45 19.4 35.25 20.1 32.3 22.75 32.05 23.0 31.95 23.1 29.25 25.4 29.2 23.65 35.8 17.65 33.75 17.55 33.7 17.55 31.65 17.45 26.6 21.45 24.9 22.8 26.4 21.45 26.85 21.1 27.9 20.15 30.65 17.65 31.45 16.95 31.7 16.7 35.8 17.65 35.7 18.05 35.7 18.1 M16.85 31.95 L16.6 31.9 14.95 31.2 15.05 31.2 16.4 31.05 16.55 31.0 17.35 30.55 17.6 30.3 Q18.35 29.6 18.55 28.55 L18.6 27.65 18.55 27.15 18.45 26.65 18.35 26.45 18.3 26.3 18.25 26.2 18.6 26.55 18.65 26.7 18.9 27.2 19.05 27.7 19.1 28.55 18.9 29.9 18.2 30.95 17.95 31.15 16.85 31.95 M4.0 20.85 L5.95 20.55 7.85 21.0 11.3 21.85 11.8 22.0 12.35 22.15 12.4 22.15 19.0 23.8 18.95 23.75 19.65 23.95 19.6 23.95 25.35 25.35 25.3 25.3 29.4 26.3 29.65 28.0 28.55 27.7 27.0 27.25 27.05 27.3 23.85 26.4 21.75 25.8 14.0 23.65 12.35 23.2 7.85 21.95 7.5 21.85 7.25 21.8 4.0 20.85 M21.5 27.1 L18.85 26.25 18.2 25.75 28.1 28.2 29.1 30.3 28.0 29.55 28.05 29.2 Q28.05 28.7 27.7 28.55 L27.35 28.5 27.2 28.55 27.15 28.55 26.85 28.7 26.75 28.85 24.2 28.0 21.5 27.1" fill="#b4aeb4" fill-rule="evenodd" stroke="none"/>
      <path d="M37.75 10.9 L37.8 10.95 38.05 11.25 42.35 15.6 44.25 17.55 45.05 18.35 35.6 12.25 37.75 10.9" fill="#a2a1a2" fill-rule="evenodd" stroke="none"/>
      <path d="M42.7 21.4 L41.1 20.85 40.05 19.4 38.25 19.75 37.15 19.1 35.5 19.4 35.45 19.4 35.7 18.1 45.05 20.55 42.7 21.4 M30.65 17.65 L29.9 17.1 29.15 17.75 29.1 17.8 28.2 16.1 31.45 16.95 30.65 17.65 M27.45 15.9 L26.65 15.9 24.8 17.35 24.5 17.4 24.3 17.65 24.4 15.2 24.4 15.1 27.45 15.9 M35.4 18.0 L34.8 18.5 35.35 18.0 35.4 18.0" fill="#343634" fill-rule="evenodd" stroke="none"/>
      <path d="M35.45 19.4 L35.5 19.4 37.15 19.1 38.25 19.75 40.05 19.4 41.1 20.85 42.7 21.4 41.7 21.8 40.1 22.35 41.0 22.0 37.05 19.65 35.6 21.1 35.6 22.5 34.95 24.25 33.05 23.45 32.3 22.75 35.25 20.1 35.45 19.4 M29.1 17.8 L29.15 17.75 29.9 17.1 30.65 17.65 27.9 20.15 28.65 19.4 29.55 18.6 29.1 17.8 M21.15 19.7 L22.4 18.3 23.05 19.05 23.95 22.5 24.1 18.6 26.4 21.45 24.9 22.8 21.55 21.85 19.65 23.95 18.95 23.75 17.75 22.9 17.7 22.8 17.85 22.9 21.15 19.7 M23.05 23.2 L24.9 24.85 25.25 23.3 24.9 22.8 26.3 24.7 29.25 25.4 29.4 26.3 25.3 25.3 23.05 23.2 M25.65 22.9 L25.55 22.9 25.65 22.9 M34.65 24.4 L34.95 24.25 35.5 24.1 34.65 24.4" fill="#604957" fill-rule="evenodd" stroke="none"/>
      <path d="M40.1 22.35 L41.7 21.8 42.6 22.55 42.15 22.75 40.75 23.35 39.95 23.65 36.35 23.75 37.15 23.45 38.5 22.95 40.1 22.35" fill="#6f6d6f" fill-rule="evenodd" stroke="none"/>
      <path d="M40.75 23.35 L42.15 22.75 43.1 22.35 46.35 21.0 46.35 27.5 38.85 31.75 38.45 31.95 38.5 31.95 36.7 32.95 34.95 33.95 32.95 35.1 32.25 35.45 31.5 35.9 29.65 36.9 32.3 35.25 36.85 29.75 37.5 28.95 37.95 28.45 38.35 27.95 40.1 25.85 42.4 23.1 38.65 24.85 32.55 27.6 Q35.05 26.2 37.5 24.75 L36.6 25.15 38.65 24.25 39.55 23.85 39.85 23.75 40.75 23.35 M45.65 23.4 L45.95 21.6 46.35 21.0 45.15 21.85 44.6 22.45 44.25 22.8 33.1 34.4 32.3 35.25 32.6 35.05 39.6 30.55 44.25 27.55 44.45 27.2 44.8 27.3 44.9 27.3 42.2 29.4 46.05 27.25 46.0 24.05 45.4 26.9 45.35 26.95 45.35 26.75 Q45.35 26.3 45.0 26.25 L45.2 25.85 45.65 23.4 M29.65 28.0 L31.55 27.2 32.55 27.6 29.65 28.0" fill="#a6a5a6" fill-rule="evenodd" stroke="none"/>
      <path d="M42.15 22.75 L42.6 22.55 43.15 22.3 43.1 22.35 42.15 22.75 M33.1 34.4 L32.6 35.05 32.3 35.25 33.1 34.4 M32.2 35.5 L31.5 35.9 32.25 35.45 32.2 35.5 M31.35 33.9 L36.2 27.3 35.9 27.65 37.65 25.35 38.65 24.85 42.4 23.1 40.1 25.85 38.35 27.95 37.95 28.45 37.5 28.95 36.85 29.75 32.3 35.25 29.65 36.9 29.95 35.85 30.25 35.45 30.55 35.0 30.65 34.9 31.25 35.25 Q31.95 35.25 31.95 34.6 31.95 33.95 31.35 33.9" fill="#9c9a9c" fill-rule="evenodd" stroke="none"/>
      <path d="M42.7 21.4 L45.05 20.55 46.0 20.85 46.3 21.0 43.15 22.3 42.6 22.55 41.7 21.8 42.7 21.4" fill="#646264" fill-rule="evenodd" stroke="none"/>
      <path d="M44.6 22.45 L44.85 22.4 Q45.55 22.4 45.55 23.1 45.55 23.75 44.85 23.75 44.2 23.75 44.2 23.1 L44.25 22.8 44.6 22.45" fill="#7b7a7b" fill-rule="evenodd" stroke="none"/>
      <path d="M46.25 20.3 L46.25 20.35 46.3 20.3 46.35 20.95 46.35 21.0 46.3 21.0 46.0 20.85 44.85 20.35 35.7 18.05 35.8 17.65 35.45 17.95 35.6 17.8 35.8 17.65 31.7 16.7 31.45 16.95 28.2 16.1 28.1 15.9 27.45 15.9 24.4 15.1 24.3 15.1 24.25 15.15 23.5 14.95 9.75 9.8 33.45 12.15 45.9 20.05 46.25 20.3" fill="#414341" fill-rule="evenodd" stroke="none"/>
      <path d="M47.35 28.05 L47.35 28.15 47.2 29.3 30.25 39.75 3.5 28.7 3.05 27.75 3.1 27.65 3.3 27.75 3.65 27.85 3.9 28.3 30.2 39.15 46.75 29.0 46.85 28.35 47.35 28.05" fill="#161202" fill-opacity="0.2" fill-rule="evenodd" stroke="none"/>
      <path d="M3.65 27.85 L15.75 32.65 30.15 38.6 46.1 28.8 46.05 28.8 46.85 28.35 46.75 29.0 30.2 39.15 3.9 28.3 3.65 27.85" fill="#161202" fill-opacity="0.4" fill-rule="evenodd" stroke="none"/>
      <path d="M15.75 32.65 L29.7 38.05 29.9 37.9 46.05 28.8 46.1 28.8 30.15 38.6 15.75 32.65" fill="#161202" fill-opacity="0.6" fill-rule="evenodd" stroke="none"/>
      <path d="M39.6 30.55 L40.95 28.95 41.35 28.45 41.8 27.95 45.65 23.4 45.2 25.85 45.0 26.25 44.8 26.2 Q44.25 26.2 44.25 26.75 L44.45 27.2 44.25 27.55 39.6 30.55" fill="#858885" fill-rule="evenodd" stroke="none"/>
      <path d="M45.0 26.25 Q45.35 26.3 45.35 26.75 L45.35 26.95 44.9 27.3 44.8 27.3 44.45 27.2 44.25 26.75 Q44.25 26.2 44.8 26.2 L45.0 26.25 M31.35 33.9 Q31.95 33.95 31.95 34.6 31.95 35.25 31.25 35.25 L30.65 34.9 30.6 34.6 Q30.6 33.9 31.25 33.9 L31.35 33.9" fill="#807580" fill-rule="evenodd" stroke="none"/>
      <path d="M45.35 26.95 L45.4 26.9 46.0 24.05 46.05 27.25 42.2 29.4 44.9 27.3 45.35 26.95" fill="#c3c2c3" fill-rule="evenodd" stroke="none"/>
      <path d="M10.45 9.5 L16.1 7.7 38.85 8.9 37.15 9.15 32.6 10.95 10.45 9.5" fill="#dcdedc" fill-rule="evenodd" stroke="none"/>
      <path d="M9.75 9.8 L9.55 9.75 10.0 9.65 10.4 9.5 10.45 9.5 32.6 10.95 37.15 9.15 38.85 8.9 33.45 12.15 9.75 9.8" fill="#f9f8f9" fill-rule="evenodd" stroke="none"/>
      <path d="M28.2 16.1 L29.1 17.8 29.55 18.6 28.65 19.4 26.65 15.9 27.45 15.9 28.1 15.9 28.2 16.1" fill="#644e5c" fill-rule="evenodd" stroke="none"/>
      <path d="M24.4 15.1 L24.4 15.2 24.3 17.65 23.7 18.25 22.5 17.65 21.8 17.85 21.15 19.7 19.85 18.25 19.3 18.2 19.3 18.25 17.75 18.2 14.6 20.55 13.2 19.5 10.85 20.9 10.55 21.65 11.3 21.85 7.85 21.0 13.75 18.85 18.3 17.25 21.35 16.15 24.25 15.15 24.3 15.1 24.4 15.1 M17.7 22.8 L17.75 22.9 15.75 21.4 15.9 21.45 17.7 22.8" fill="#464846" fill-rule="evenodd" stroke="none"/>
      <path d="M21.0 15.7 L23.5 14.95 24.25 15.15 21.35 16.15 21.0 15.7" fill="#676567" fill-rule="evenodd" stroke="none"/>
      <path d="M24.3 17.65 L24.5 17.4 24.8 17.35 24.55 17.8 24.1 18.6 23.05 19.05 22.4 18.3 21.15 19.7 21.8 17.85 22.5 17.65 23.7 18.25 24.3 17.65 M29.25 25.4 L26.3 24.7 24.9 22.8 29.25 25.4" fill="#867280" fill-rule="evenodd" stroke="none"/>
      <path d="M17.4 16.85 L21.0 15.7 21.35 16.15 18.3 17.25 17.4 16.85" fill="#797779" fill-rule="evenodd" stroke="none"/>
      <path d="M34.95 24.25 L35.6 22.5 35.65 22.75 36.85 23.55 37.15 23.45 36.35 23.75 35.5 24.1 34.95 24.25 M24.1 18.6 L24.55 17.8 24.8 17.35 26.85 21.1 26.4 21.45 24.1 18.6 M21.55 21.85 L24.9 22.8 25.25 23.3 24.9 24.85 23.05 23.2 21.55 21.85" fill="#4b3242" fill-rule="evenodd" stroke="none"/>
      <path d="M35.6 21.1 L37.05 19.65 41.0 22.0 40.1 22.35 38.5 22.95 35.6 21.1 M21.55 21.85 L23.05 23.2 25.3 25.3 25.35 25.35 21.15 23.1 21.55 21.85 M17.75 22.9 L18.95 23.75 19.0 23.8 12.4 22.15 12.35 22.15 10.85 20.9 13.2 19.5 14.6 20.55 15.75 21.4 17.75 22.9" fill="#b4a6ac" fill-rule="evenodd" stroke="none"/>
      <path d="M33.05 23.45 L34.95 24.25 34.65 24.4 29.4 26.3 33.05 23.45 M23.05 19.05 L24.1 18.6 23.95 22.5 23.05 19.05 M21.55 21.85 L21.15 23.1 25.35 25.35 19.6 23.95 19.65 23.95 21.55 21.85 M26.6 21.45 L31.65 17.45 33.7 17.55 33.75 17.55 35.8 17.65 35.6 17.8 26.6 21.45 M37.15 23.45 L36.85 23.55 35.65 22.75 35.6 22.5 37.35 23.35 37.15 23.45 M19.85 18.25 L21.15 19.7 17.85 22.9 20.2 19.65 19.85 18.25" fill="#8c7a84" fill-rule="evenodd" stroke="none"/>
      <path d="M28.65 19.4 L27.9 20.15 26.85 21.1 24.8 17.35 26.65 15.9 28.65 19.4" fill="#a08e96" fill-rule="evenodd" stroke="none"/>
      <path d="M25.65 22.9 L25.65 22.95 28.75 23.5 31.4 21.25 34.8 18.5 35.4 18.0 35.45 17.95 35.8 17.65 29.2 23.65 29.25 25.4 28.6 23.75 24.9 22.8 25.55 22.9 25.65 22.9 M29.65 28.0 L29.65 31.35 29.2 30.45 28.15 28.25 28.1 28.2 29.65 28.0 M27.05 27.3 L27.0 27.25 28.55 27.7 27.05 27.3" fill="#f1f2f1" fill-rule="evenodd" stroke="none"/>
      <path d="M32.3 22.75 L33.05 23.45 29.4 26.3 29.25 25.4 31.95 23.1 32.05 23.0 32.3 22.75 M31.4 21.25 L28.75 23.5 25.65 22.95 25.65 22.9 25.65 22.85 31.4 21.25" fill="#b1a4ab" fill-rule="evenodd" stroke="none"/>
      <path d="M25.55 22.9 L24.9 22.8 26.6 21.45 35.6 17.8 35.45 17.95 35.35 18.0 34.8 18.5 31.4 21.25 25.65 22.85 25.65 22.9 25.55 22.9" fill="#9f8f97" fill-rule="evenodd" stroke="none"/>
      <path d="M24.9 22.8 L28.6 23.75 29.25 25.4 24.9 22.8" fill="#725e6a" fill-rule="evenodd" stroke="none"/>
      <path d="M35.6 22.5 L35.6 21.1 38.5 22.95 37.15 23.45 37.35 23.35 35.6 22.5 M17.85 22.9 L17.7 22.8 15.9 21.45 16.2 21.2 15.95 21.45 19.85 18.25 20.2 19.65 17.85 22.9 M11.3 21.85 L10.55 21.65 10.85 20.9 12.35 22.15 11.8 22.0 11.3 21.85" fill="#6c5664" fill-rule="evenodd" stroke="none"/>
      <path d="M35.5 24.1 L36.35 23.75 39.95 23.65 38.65 24.25 36.6 25.15 31.5 27.2 31.55 27.2 29.65 28.0 29.4 26.3 34.65 24.4 35.5 24.1" fill="#7c7a7c" fill-rule="evenodd" stroke="none"/>
      <path d="M4.3 25.0 L4.45 24.8 4.6 24.65 4.95 24.2 Q5.55 23.45 6.3 22.95 6.5 22.75 6.75 22.65 L6.85 22.55 7.1 22.4 7.2 22.3 12.75 24.1 12.6 24.25 Q10.75 24.5 9.35 25.15 L8.6 25.5 7.95 25.9 Q6.75 26.6 5.9 27.65 L5.75 27.25 5.2 26.9 Q5.75 26.85 5.75 26.2 L5.55 25.75 5.05 25.55 4.75 25.6 Q4.45 25.7 4.4 26.0 L4.3 25.0" fill="#d9d7d9" fill-rule="evenodd" stroke="none"/>
      <path d="M18.6 32.65 L18.0 32.4 18.4 32.05 18.55 32.05 Q19.15 32.05 19.15 31.45 L19.1 31.15 19.2 30.95 20.4 29.5 21.2 27.95 21.35 27.5 21.5 27.1 24.2 28.0 19.15 32.75 18.6 32.65 M8.25 28.6 L5.95 27.7 5.9 27.65 Q6.75 26.6 7.95 25.9 L8.6 25.5 9.35 25.15 Q10.75 24.5 12.6 24.25 12.1 24.6 11.85 25.25 L11.55 26.6 11.7 26.9 Q10.25 28.05 8.25 28.6 M4.0 25.4 L4.0 20.85 7.25 21.8 7.5 21.85 7.85 21.95 7.2 22.3 7.1 22.4 6.85 22.55 6.75 22.65 Q6.5 22.75 6.3 22.95 5.55 23.45 4.95 24.2 L4.6 24.65 4.45 24.8 4.3 25.0 4.0 25.4 M4.95 21.95 Q4.25 21.95 4.25 22.65 4.25 23.3 4.95 23.3 5.65 23.3 5.65 22.65 5.65 21.95 4.95 21.95 M21.75 25.85 L21.75 25.8 23.85 26.4 21.75 25.85" fill="#cccacc" fill-rule="evenodd" stroke="none"/>
      <path d="M4.95 21.95 Q5.65 21.95 5.65 22.65 5.65 23.3 4.95 23.3 4.25 23.3 4.25 22.65 4.25 21.95 4.95 21.95 M26.75 28.85 L26.85 28.7 27.15 28.55 27.2 28.55 27.35 28.5 27.7 28.55 Q28.05 28.7 28.05 29.2 L28.0 29.55 Q27.85 29.9 27.35 29.9 26.75 29.9 26.65 29.35 L26.65 29.2 26.75 28.85" fill="#877c87" fill-rule="evenodd" stroke="none"/>
      <path d="M29.65 36.9 L18.6 32.65 19.15 32.75 24.0 33.9 26.75 34.7 Q26.9 35.0 27.35 35.0 L27.7 34.95 28.35 35.15 29.2 30.45 29.65 31.35 29.65 36.9 M5.95 27.7 L4.0 26.95 4.0 25.4 4.3 25.0 4.4 26.0 4.35 26.2 4.45 26.6 Q4.6 26.9 5.05 26.9 L5.2 26.9 5.75 27.25 5.9 27.65 5.95 27.7 M12.6 24.25 L12.75 24.1 7.2 22.3 7.85 21.95 12.35 23.2 13.2 23.45 15.7 24.15 14.0 24.3 13.7 24.45 13.0 24.95 12.7 25.2 12.65 25.25 12.55 25.4 12.35 25.7 12.1 26.15 11.95 26.65 11.85 27.25 11.7 26.9 11.55 26.6 11.85 25.25 Q12.1 24.6 12.6 24.25 M18.2 25.75 L17.6 25.1 16.65 24.45 21.75 25.85 23.85 26.4 27.05 27.3 28.55 27.7 29.65 28.0 28.1 28.2 18.2 25.75" fill="#e6e5e6" fill-rule="evenodd" stroke="none"/>
      <path d="M10.4 19.1 L17.4 16.85 18.3 17.25 13.75 18.85 10.4 19.1" fill="#858385" fill-rule="evenodd" stroke="none"/>
      <path d="M17.75 18.2 L19.3 18.25 16.2 21.2 15.9 21.45 17.75 18.2" fill="#cac2c6" fill-rule="evenodd" stroke="none"/>
      <path d="M19.3 18.25 L19.3 18.2 19.85 18.25 15.95 21.45 16.2 21.2 19.3 18.25" fill="#d9d4d6" fill-rule="evenodd" stroke="none"/>
      <path d="M13.6 30.65 L13.45 30.6 13.45 30.55 13.6 30.65 M13.2 23.45 L14.0 23.65 21.75 25.8 21.75 25.85 16.65 24.45 17.6 25.1 18.2 25.75 18.85 26.25 21.5 27.1 21.35 27.5 21.2 27.95 20.4 29.5 19.2 30.95 19.4 30.3 19.4 29.25 19.1 28.95 18.9 29.9 19.1 28.55 19.05 27.7 18.9 27.2 18.65 26.7 18.6 26.55 18.25 26.2 Q17.7 25.0 16.5 24.45 L15.7 24.15 13.2 23.45" fill="#bfbdbf" fill-rule="evenodd" stroke="none"/>
      <path d="M15.7 24.15 L16.5 24.45 Q17.7 25.0 18.25 26.2 L18.3 26.3 18.35 26.45 18.45 26.65 18.55 27.15 18.6 27.65 18.55 28.55 Q18.35 29.6 17.6 30.3 L15.6 28.35 15.75 28.25 Q16.1 27.8 15.9 27.4 L15.85 27.3 Q15.55 26.65 14.95 26.9 L14.65 27.1 14.65 27.15 14.6 27.3 14.35 27.05 14.05 26.75 14.1 26.6 14.4 26.4 13.75 24.75 13.0 25.35 12.95 25.4 12.9 25.5 12.65 25.25 12.7 25.2 13.0 24.95 13.7 24.45 14.0 24.3 15.7 24.15 M18.3 26.65 Q18.05 25.8 17.4 25.3 L16.2 26.7 16.35 26.85 16.6 27.4 16.6 27.55 18.35 27.85 18.4 27.65 18.35 27.15 18.3 26.65" fill="#fcfa04" fill-rule="evenodd" stroke="none"/>
      <path d="M14.6 20.55 L17.75 18.2 15.9 21.45 15.75 21.4 14.6 20.55" fill="#acaeac" fill-rule="evenodd" stroke="none"/>
      <path d="M18.3 26.65 L18.35 27.15 18.4 27.65 18.35 27.85 16.6 27.55 16.6 27.4 16.35 26.85 16.2 26.7 17.4 25.3 Q18.05 25.8 18.3 26.65 M14.65 27.15 L14.65 27.1 14.95 26.9 Q15.55 26.65 15.85 27.3 L15.9 27.4 Q16.1 27.8 15.75 28.25 L14.65 27.15 M14.95 29.05 L15.45 29.1 16.15 30.85 14.3 30.75 14.95 29.05 M14.1 26.6 L13.0 25.35 13.75 24.75 14.4 26.4 14.1 26.6" fill="#654e26" fill-rule="evenodd" stroke="none"/>
      <path d="M14.95 31.2 L13.95 30.85 13.6 30.65 13.45 30.55 Q12.6 29.95 12.15 28.85 11.8 28.0 11.85 27.25 L11.95 26.65 12.1 26.15 12.35 25.7 12.55 25.4 12.65 25.25 12.9 25.5 12.7 25.8 12.6 26.0 12.5 26.25 12.35 26.75 12.3 26.85 13.85 27.1 14.05 26.75 14.35 27.05 14.6 27.3 14.55 27.9 14.95 28.4 15.5 28.4 15.6 28.35 17.6 30.3 17.35 30.55 16.55 31.0 16.4 31.05 15.05 31.2 14.95 31.2 M14.3 30.75 L16.15 30.85 15.45 29.1 14.95 29.05 14.6 28.9 13.5 30.2 13.7 30.4 14.3 30.75" fill="#fced00" fill-rule="evenodd" stroke="none"/>
      <path d="M18.0 32.4 L17.95 32.4 16.85 31.95 17.95 31.15 17.95 31.25 17.9 31.45 18.0 31.85 18.4 32.05 18.0 32.4 M18.9 29.9 L19.1 28.95 19.4 29.25 19.4 30.3 19.2 30.95 19.1 31.15 19.05 31.1 Q18.9 30.85 18.55 30.85 L18.3 30.9 18.2 30.95 18.9 29.9" fill="#d2c75d" fill-rule="evenodd" stroke="none"/>
      <path d="M18.2 30.95 L18.3 30.9 18.55 30.85 Q18.9 30.85 19.05 31.1 L19.1 31.15 19.15 31.45 Q19.15 32.05 18.55 32.05 L18.4 32.05 18.0 31.85 17.9 31.45 17.95 31.25 17.95 31.15 18.2 30.95" fill="#fff574" fill-rule="evenodd" stroke="none"/>
      <path d="M13.45 30.6 L8.25 28.6 Q10.25 28.05 11.7 26.9 L11.85 27.25 Q11.8 28.0 12.15 28.85 12.6 29.95 13.45 30.55 L13.45 30.6" fill="#b5b8b5" fill-rule="evenodd" stroke="none"/>
      <path d="M4.4 26.0 Q4.45 25.7 4.75 25.6 L5.05 25.55 5.55 25.75 5.75 26.2 Q5.75 26.85 5.2 26.9 L5.05 26.9 Q4.6 26.9 4.45 26.6 L4.35 26.2 4.4 26.0 M26.75 34.7 L26.65 34.3 26.85 33.85 27.35 33.65 Q28.05 33.65 28.05 34.3 28.05 34.8 27.7 34.95 L27.35 35.0 Q26.9 35.0 26.75 34.7" fill="#9f969f" fill-rule="evenodd" stroke="none"/>
      <path d="M31.55 27.2 L31.5 27.2 36.6 25.15 37.5 24.75 Q35.05 26.2 32.55 27.6 L31.55 27.2" fill="#c4c2c4" fill-rule="evenodd" stroke="none"/>
      <path d="M30.25 35.45 L29.95 35.85 30.3 34.65 30.0 35.75 30.25 35.45 M37.65 25.35 L35.9 27.65 30.5 33.95 31.1 31.6 32.3 30.2 30.8 30.55 31.3 29.6 31.5 29.6 Q32.2 29.6 32.2 28.9 L32.2 28.8 31.95 28.3 32.05 28.1 37.65 25.35" fill="#8f8d8f" fill-rule="evenodd" stroke="none"/>
      <path d="M35.9 27.65 L36.2 27.3 31.35 33.9 31.25 33.9 Q30.6 33.9 30.6 34.6 L30.65 34.9 30.55 35.0 30.25 35.45 30.0 35.75 30.3 34.65 29.95 35.85 29.65 36.9 29.65 31.35 29.65 28.0 32.55 27.6 38.65 24.85 37.65 25.35 32.05 28.1 31.95 28.3 31.5 28.2 31.25 28.3 31.0 28.4 30.85 28.75 30.8 28.9 31.0 29.4 31.3 29.6 30.8 30.55 32.3 30.2 31.1 31.6 30.5 33.95 35.9 27.65 M30.55 28.65 L29.7 28.5 29.7 36.05 30.0 35.25 30.55 28.75 30.55 28.65" fill="#888588" fill-rule="evenodd" stroke="none"/>
      <path d="M31.3 29.6 L31.0 29.4 30.8 28.9 30.85 28.75 31.0 28.4 31.25 28.3 31.5 28.2 31.95 28.3 32.2 28.8 32.2 28.9 Q32.2 29.6 31.5 29.6 L31.3 29.6" fill="#6a5e6a" fill-rule="evenodd" stroke="none"/>
      <path d="M30.55 28.65 L30.55 28.75 30.0 35.25 29.7 36.05 29.7 28.5 30.55 28.65" fill="#7c7c7c" fill-rule="evenodd" stroke="none"/>
      <path d="M19.15 32.75 L24.2 28.0 26.75 28.85 26.65 29.2 26.65 29.35 24.0 33.9 19.15 32.75" fill="#d1cfd1" fill-rule="evenodd" stroke="none"/>
      <path d="M28.1 28.2 L28.15 28.25 29.2 30.45 28.35 35.15 27.7 34.95 Q28.05 34.8 28.05 34.3 28.05 33.65 27.35 33.65 L26.85 33.85 26.65 34.3 26.75 34.7 24.0 33.9 26.65 29.35 Q26.75 29.9 27.35 29.9 27.85 29.9 28.0 29.55 L29.1 30.3 28.1 28.2" fill="#c1bec1" fill-rule="evenodd" stroke="none"/>
    </g>
  </defs>
</svg>
