<?xml version="1.0" encoding="UTF-8" standalone="no"?>
<svg xmlns:xlink="http://www.w3.org/1999/xlink" height="26.0px" width="26.0px" xmlns="http://www.w3.org/2000/svg">
  <g transform="matrix(1.0, 0.0, 0.0, 1.0, 13.0, 13.0)">
    <use height="26.0" transform="matrix(1.0, 0.0, 0.0, 1.0, -13.0, -13.0)" width="26.0" xlink:href="#shape0"/>
    <use height="20.2" transform="matrix(1.0, 0.0, 0.0, 1.0, -10.1, -10.1)" width="20.2" xlink:href="#shape1"/>
  </g>
  <defs>
    <g id="shape0" transform="matrix(1.0, 0.0, 0.0, 1.0, 13.0, 13.0)">
      <path d="M-13.0 -13.0 L13.0 -13.0 13.0 13.0 -13.0 13.0 -13.0 -13.0" fill="url(#gradient0)" fill-rule="evenodd" stroke="none"/>
    </g>
    <radialGradient cx="0" cy="0" gradientTransform="matrix(0.073, 0.0, 0.0, 0.073, -0.05, -0.05)" gradientUnits="userSpaceOnUse" id="gradient0" r="819.2" spreadMethod="pad">
      <stop offset="0.0" stop-color="#de0000"/>
      <stop offset="0.23137254901960785" stop-color="#de0000"/>
      <stop offset="0.39215686274509803" stop-color="#4a0000"/>
    </radialGradient>
    <g id="shape1" transform="matrix(1.0, 0.0, 0.0, 1.0, 10.1, 10.1)">
      <path d="M7.4 -6.85 L5.5 -4.95 5.35 -5.1 4.9 -5.55 6.8 -7.45 7.4 -6.85 M0.45 -6.8 Q6.3 -6.35 6.65 -0.4 L10.0 -0.4 10.0 0.4 6.65 0.4 Q6.3 6.2 0.45 6.65 L0.45 10.0 -0.4 10.0 -0.4 6.7 Q-6.4 6.45 -6.8 0.4 L-10.0 0.4 -10.0 -0.4 -6.8 -0.4 Q-6.5 -6.5 -0.4 -6.8 L-0.4 -10.0 0.45 -10.0 0.45 -6.8 M0.45 -0.4 L5.8 -0.4 Q5.0 -5.15 0.45 -5.8 L0.45 -0.4 M5.5 4.8 L7.4 6.7 6.8 7.3 4.9 5.4 5.3 5.0 5.5 4.8 M0.45 5.8 Q5.15 5.15 5.8 0.4 L0.45 0.4 0.45 5.8 M-6.75 -7.45 L-4.85 -5.55 -5.05 -5.35 -5.45 -4.95 -7.35 -6.85 -6.75 -7.45 M-0.4 -5.8 Q-5.3 -5.3 -5.9 -0.4 L-0.4 -0.4 -0.4 -5.8 M-0.4 0.4 L-5.9 0.4 Q-5.2 5.35 -0.4 5.85 L-0.4 0.4 M-7.35 6.75 L-5.4 4.8 -4.85 5.4 -6.75 7.3 -7.35 6.75" fill="#ffffff" fill-rule="evenodd" stroke="none"/>
      <path d="M7.4 -6.85 L5.5 -4.95 5.35 -5.1 4.9 -5.55 6.8 -7.45 7.4 -6.85 M0.45 -6.8 Q6.3 -6.35 6.65 -0.4 L10.0 -0.4 10.0 0.4 6.65 0.4 Q6.3 6.2 0.45 6.65 L0.45 10.0 -0.4 10.0 -0.4 6.7 Q-6.4 6.45 -6.8 0.4 L-10.0 0.4 -10.0 -0.4 -6.8 -0.4 Q-6.5 -6.5 -0.4 -6.8 L-0.4 -10.0 0.45 -10.0 0.45 -6.8 M0.45 -0.4 L5.8 -0.4 Q5.0 -5.15 0.45 -5.8 L0.45 -0.4 M5.5 4.8 L7.4 6.7 6.8 7.3 4.9 5.4 5.3 5.0 5.5 4.8 M0.45 5.8 Q5.15 5.15 5.8 0.4 L0.45 0.4 0.45 5.8 M-6.75 -7.45 L-4.85 -5.55 -5.05 -5.35 -5.45 -4.95 -7.35 -6.85 -6.75 -7.45 M-0.4 -5.8 Q-5.3 -5.3 -5.9 -0.4 L-0.4 -0.4 -0.4 -5.8 M-0.4 0.4 L-5.9 0.4 Q-5.2 5.35 -0.4 5.85 L-0.4 0.4 M-7.35 6.75 L-5.4 4.8 -4.85 5.4 -6.75 7.3 -7.35 6.75" fill="none" stroke="#ffffff" stroke-linecap="round" stroke-linejoin="round" stroke-width="0.2"/>
    </g>
  </defs>
</svg>
