<?xml version="1.0" encoding="UTF-8" standalone="no"?>
<svg xmlns:xlink="http://www.w3.org/1999/xlink" height="33.0px" width="30.45px" xmlns="http://www.w3.org/2000/svg">
  <g transform="matrix(1.0, 0.0, 0.0, 1.0, 0.05, 0.0)">
    <use height="33.0" transform="matrix(1.2, 0.0, 0.0, 1.0, 0.0, 0.0)" width="25.0" xlink:href="#shape0"/>
    <use height="30.5" transform="matrix(0.998, 0.0, 0.0, 1.0, 6.0, 0.0)" width="24.45" xlink:href="#shape1"/>
    <use height="30.15" transform="matrix(1.0097, 0.0, 0.0, 0.9985, 6.9495, 2.6498)" width="5.15" xlink:href="#shape2"/>
    <use height="30.15" transform="matrix(1.0097, 0.0, 0.0, 0.9985, 13.9495, 2.6498)" width="5.15" xlink:href="#shape2"/>
    <use height="30.15" transform="matrix(1.0097, 0.0, 0.0, 0.9985, -0.0505, 2.6498)" width="5.15" xlink:href="#shape2"/>
  </g>
  <defs>
    <g id="shape0" transform="matrix(1.0, 0.0, 0.0, 1.0, 0.0, 0.0)">
      <path d="M25.0 33.0 L0.0 33.0 0.0 0.0 25.0 0.0 25.0 33.0" fill="#580101" fill-opacity="0.0" fill-rule="evenodd" stroke="none"/>
    </g>
    <g id="shape1" transform="matrix(1.0, 0.0, 0.0, 1.0, 0.0, 0.0)">
      <path d="M14.95 29.0 Q18.9 18.75 20.75 3.8 L20.8 3.3 21.95 3.55 21.9 4.05 Q20.05 19.0 16.1 29.25 L16.1 29.35 14.95 29.0 M17.5 2.6 L17.45 3.1 Q15.65 17.75 11.75 28.1 L10.55 27.75 Q14.5 17.5 16.25 2.9 L16.35 2.35 17.5 2.6 M8.65 0.75 L11.95 1.45 11.85 1.95 Q10.15 16.4 6.3 26.5 L3.1 25.65 Q6.85 15.6 8.6 1.25 L8.65 0.75" fill="#454545" fill-rule="evenodd" stroke="none"/>
      <path d="M20.8 3.3 L20.75 3.8 Q18.9 18.75 14.95 29.0 L11.75 28.1 Q15.65 17.75 17.45 3.1 L17.5 2.6 20.8 3.3 M16.1 29.35 L16.1 29.25 Q20.05 19.0 21.9 4.05 L21.95 3.55 23.75 3.95 23.7 4.45 Q21.9 19.45 17.8 29.8 L16.1 29.35 M0.8 24.95 L0.0 24.75 Q5.3 8.45 5.05 0.0 L8.65 0.75 8.6 1.25 Q6.85 15.6 3.1 25.65 L0.8 24.95 M11.95 1.45 L16.35 2.35 16.25 2.9 Q14.5 17.5 10.55 27.75 L6.3 26.5 Q10.15 16.4 11.85 1.95 L11.95 1.45" fill="#7c7c7c" fill-rule="evenodd" stroke="none"/>
      <path d="M11.75 28.1 L14.95 29.0 16.1 29.35 17.8 29.8 Q21.9 19.45 23.7 4.45 L24.45 4.6 Q22.65 19.95 18.45 30.5 L0.65 25.4 0.8 24.95 3.1 25.65 6.3 26.5 10.55 27.75 11.75 28.1" fill="#000000" fill-rule="evenodd" stroke="none"/>
    </g>
    <g id="shape2" transform="matrix(1.0, 0.0, 0.0, 1.0, 0.05, -0.15)">
      <path d="M2.55 1.05 L2.7 0.45 3.2 2.6 3.2 2.75 3.75 5.85 4.15 8.7 4.15 11.1 5.1 13.5 5.1 28.7 Q4.4 29.3 5.1 29.7 L5.1 30.3 0.3 30.3 0.3 30.0 1.15 30.0 2.8 30.0 4.0 30.0 4.75 30.0 4.75 29.4 Q4.05 29.0 4.75 28.4 L4.75 13.2 3.8 10.8 3.8 8.7 3.8 8.4 3.4 5.55 2.85 2.45 2.8 2.35 2.55 1.05" fill="#000000" fill-rule="evenodd" stroke="none"/>
      <path d="M1.8 2.45 L2.35 0.15 2.55 1.05 2.8 2.35 2.85 2.45 2.65 2.45 2.4 2.45 2.15 2.45 1.8 2.45" fill="#002f0d" fill-rule="evenodd" stroke="none"/>
      <path d="M2.8 30.0 L1.15 30.0 1.15 29.4 2.8 29.4 2.8 30.0 M2.15 2.45 L2.4 2.45 2.55 8.4 1.6 8.4 2.15 2.45 M1.6 8.7 L2.55 8.7 2.55 10.8 2.8 13.2 2.8 28.4 1.15 28.4 1.15 13.2 1.6 10.8 1.6 8.7" fill="#dfa724" fill-rule="evenodd" stroke="none"/>
      <path d="M0.3 30.0 L-0.05 30.0 -0.05 29.4 1.15 29.4 1.15 30.0 0.3 30.0 M-0.05 28.4 L-0.05 13.2 0.9 10.8 0.9 8.7 1.6 8.7 1.6 10.8 1.15 13.2 1.15 28.4 -0.05 28.4 M0.9 8.4 L1.15 6.15 Q1.4 4.25 1.8 2.45 L2.15 2.45 1.6 8.4 0.9 8.4 M4.0 30.0 L2.8 30.0 2.8 29.4 4.0 29.4 4.0 30.0 M2.4 2.45 L2.65 2.45 3.4 8.4 2.55 8.4 2.4 2.45 M2.55 8.7 L3.4 8.7 3.4 10.8 4.0 13.2 4.0 28.4 2.8 28.4 2.8 13.2 2.55 10.8 2.55 8.7" fill="#b87d1d" fill-rule="evenodd" stroke="none"/>
      <path d="M2.85 2.45 L3.4 5.55 3.8 8.4 3.4 8.4 2.65 2.45 2.85 2.45 M3.8 8.7 L3.8 10.8 4.75 13.2 4.75 28.4 4.0 28.4 4.0 13.2 3.4 10.8 3.4 8.7 3.8 8.7 M4.75 29.4 L4.75 30.0 4.0 30.0 4.0 29.4 4.75 29.4" fill="#655a1f" fill-rule="evenodd" stroke="none"/>
      <path d="M0.9 8.7 L0.9 8.4 1.6 8.4 2.55 8.4 3.4 8.4 3.8 8.4 3.8 8.7 3.4 8.7 2.55 8.7 1.6 8.7 0.9 8.7" fill="#1c1609" fill-rule="evenodd" stroke="none"/>
      <path d="M-0.05 29.4 Q0.6 28.85 -0.05 28.4 L1.15 28.4 1.15 29.4 -0.05 29.4 M4.0 29.4 L2.8 29.4 2.8 28.4 4.0 28.4 4.0 29.4" fill="#633d10" fill-rule="evenodd" stroke="none"/>
      <path d="M1.15 28.4 L2.8 28.4 2.8 29.4 1.15 29.4 1.15 28.4" fill="#785212" fill-rule="evenodd" stroke="none"/>
      <path d="M4.75 28.4 Q4.05 29.0 4.75 29.4 L4.0 29.4 4.0 28.4 4.75 28.4" fill="#372e11" fill-rule="evenodd" stroke="none"/>
    </g>
  </defs>
</svg>
