<?xml version="1.0" encoding="UTF-8" standalone="no"?>
<svg xmlns:xlink="http://www.w3.org/1999/xlink" height="33.5px" width="25.0px" xmlns="http://www.w3.org/2000/svg">
  <g transform="matrix(1.0, 0.0, 0.0, 1.0, 0.0, 0.0)">
    <use height="33.0" transform="matrix(1.0, 0.0, 0.0, 1.0, 0.0, 0.0)" width="25.0" xlink:href="#shape0"/>
    <use height="33.45" transform="matrix(1.0, 0.0, 0.0, 1.0015, 0.0, 9.0E-4)" width="12.1" xlink:href="#shape1"/>
    <use height="33.45" transform="matrix(1.0, 0.0, 0.0, 1.0015, 12.55, 9.0E-4)" width="12.1" xlink:href="#shape1"/>
  </g>
  <defs>
    <g id="shape0" transform="matrix(1.0, 0.0, 0.0, 1.0, 0.0, 0.0)">
      <path d="M25.0 33.0 L0.0 33.0 0.0 0.0 25.0 0.0 25.0 33.0" fill="#580101" fill-opacity="0.0" fill-rule="evenodd" stroke="none"/>
    </g>
    <g id="shape1" transform="matrix(1.0, 0.0, 0.0, 1.0, 0.65, -0.6)">
      <path d="M9.5 1.5 L9.85 2.05 9.85 32.55 9.5 32.55 9.5 31.95 9.5 28.25 9.5 1.5 M11.1 33.15 L11.45 33.15 11.45 34.05 -0.3 34.05 -0.3 33.5 1.85 33.5 7.25 33.5 9.5 33.5 11.1 33.5 11.1 33.15" fill="#000000" fill-rule="evenodd" stroke="none"/>
      <path d="M8.0 0.6 L8.95 0.6 9.5 1.5 9.5 28.25 8.35 28.25 8.35 1.5 8.0 0.6" fill="#560603" fill-rule="evenodd" stroke="none"/>
      <path d="M1.05 1.5 L1.55 0.6 3.0 0.6 2.65 1.5 1.05 1.5 M5.9 0.6 L8.0 0.6 8.35 1.5 6.1 1.5 5.9 0.6" fill="#d80707" fill-rule="evenodd" stroke="none"/>
      <path d="M1.05 28.25 L1.05 1.5 2.65 1.5 2.65 28.25 1.05 28.25 M6.1 1.5 L8.35 1.5 8.35 28.25 6.1 28.25 6.1 1.5" fill="#8c0b04" fill-rule="evenodd" stroke="none"/>
      <path d="M3.0 0.6 L5.9 0.6 6.1 1.5 2.65 1.5 3.0 0.6" fill="#fa6b6b" fill-rule="evenodd" stroke="none"/>
      <path d="M2.65 1.5 L6.1 1.5 6.1 28.25 2.65 28.25 2.65 1.5" fill="#d21006" fill-rule="evenodd" stroke="none"/>
      <path d="M9.85 32.55 L11.1 32.55 11.1 33.15 11.1 33.5 9.5 33.5 9.5 32.55 9.85 32.55 M9.5 28.25 L9.5 31.95 8.35 31.95 8.35 28.25 9.5 28.25" fill="#410707" fill-rule="evenodd" stroke="none"/>
      <path d="M-0.3 33.5 L-0.65 33.5 -0.65 32.55 1.05 32.55 1.85 32.55 1.85 33.5 -0.3 33.5 M1.05 31.95 L1.05 28.25 2.65 28.25 2.65 31.95 1.05 31.95 M6.1 28.25 L8.35 28.25 8.35 31.95 6.1 31.95 6.1 28.25 M7.25 33.5 L7.25 32.55 9.5 32.55 9.5 33.5 7.25 33.5" fill="#a0641b" fill-rule="evenodd" stroke="none"/>
      <path d="M2.65 28.25 L6.1 28.25 6.1 31.95 2.65 31.95 2.65 28.25 M1.85 33.5 L1.85 32.55 7.25 32.55 7.25 33.5 1.85 33.5" fill="#caa422" fill-rule="evenodd" stroke="none"/>
      <path d="M1.05 32.55 L1.05 31.95 2.65 31.95 6.1 31.95 8.35 31.95 9.5 31.95 9.5 32.55 7.25 32.55 1.85 32.55 1.05 32.55" fill="#300505" fill-rule="evenodd" stroke="none"/>
    </g>
  </defs>
</svg>
